%FSDAX24Y24*%
%MOIN*%
%SFA1B1*%

%IPPOS*%
%ADD10O,0.023600X0.086600*%
%ADD11O,0.086600X0.023600*%
%ADD12R,0.059800X0.024000*%
%ADD13O,0.059800X0.024000*%
%ADD14R,0.027600X0.015700*%
%ADD15R,0.015700X0.027600*%
%ADD16R,0.059100X0.023600*%
%ADD17R,0.043300X0.039400*%
%ADD18R,0.039400X0.043300*%
%ADD19R,0.031500X0.031500*%
%ADD20R,0.021700X0.057100*%
%ADD21R,0.057100X0.021700*%
%ADD22R,0.051200X0.059100*%
%ADD30C,0.060000*%
%ADD31R,0.066900X0.066900*%
%ADD32C,0.066900*%
%ADD33C,0.059100*%
%ADD34R,0.059100X0.059100*%
%ADD35R,0.066900X0.066900*%
%ADD36C,0.098400*%
%ADD37R,0.059100X0.059100*%
%ADD38C,0.078700*%
%ADD39C,0.047200*%
%ADD40R,0.053100X0.053100*%
%ADD41C,0.053100*%
%LNde-010824-1*%
%LPD*%
G54D10*
X057150Y033145D03*
X056650D03*
X056150D03*
X055650D03*
X057150Y031255D03*
X056650D03*
X056150D03*
X055650D03*
G54D11*
X046355Y033450D03*
Y032950D03*
Y032450D03*
Y031950D03*
X048245Y033450D03*
Y032950D03*
Y032450D03*
Y031950D03*
X046355Y030650D03*
Y030150D03*
Y029650D03*
Y029150D03*
X048245Y030650D03*
Y030150D03*
Y029650D03*
Y029150D03*
G54D12*
X051235Y033400D03*
G54D13*
X051235Y032900D03*
Y032400D03*
Y031900D03*
X053400Y033400D03*
Y032900D03*
Y032400D03*
Y031900D03*
G54D14*
X050300Y031900D03*
Y032156D03*
Y032412D03*
X049493D03*
Y031900D03*
G54D15*
X055644Y029396D03*
X055900D03*
X056156D03*
Y030204D03*
X055644D03*
G54D16*
X055774Y024800D03*
X055026Y024426D03*
Y025174D03*
G54D17*
X014950Y031950D03*
X014281D03*
X041065Y017300D03*
X041735D03*
X022835Y031950D03*
X022165D03*
X033131Y017300D03*
X033800D03*
X030650Y031988D03*
X029981D03*
X025237Y017200D03*
X025906D03*
X038619Y031950D03*
X037950D03*
X017281Y017100D03*
X017950D03*
X049535Y031300D03*
X048865D03*
X049465Y033800D03*
X050135D03*
X059265Y029800D03*
X059935D03*
X055635Y023850D03*
X054965D03*
X050235Y028300D03*
X049565D03*
X048265D03*
X048935D03*
X059265Y022600D03*
X059935D03*
X059265Y021600D03*
X059935D03*
X059265Y020600D03*
X059935D03*
X055335Y033900D03*
X054665D03*
X046065Y031300D03*
X046735D03*
X053165Y026700D03*
X053835D03*
X051065Y027500D03*
X051735D03*
X051435Y022200D03*
X050765D03*
X051435Y022800D03*
X050765D03*
X046065Y028500D03*
X046735D03*
G54D18*
X055000Y030265D03*
Y030935D03*
X057900Y029735D03*
Y029065D03*
X044650Y031881D03*
Y032550D03*
X045250Y031865D03*
Y032535D03*
X049500Y029635D03*
Y028965D03*
X051500Y024200D03*
Y023531D03*
X058600Y029735D03*
Y029065D03*
X050800Y034735D03*
Y034065D03*
X053600Y034735D03*
Y034065D03*
X051400Y034735D03*
Y034065D03*
G54D19*
X013411Y031950D03*
X012820D03*
X042605Y017350D03*
X043195D03*
X021295Y031950D03*
X020705D03*
X034770Y017350D03*
X035361D03*
X029111Y031950D03*
X028520D03*
X026876Y017350D03*
X027467D03*
X037080Y031950D03*
X036489D03*
X018920Y017350D03*
X019511D03*
X058295Y022600D03*
X057705D03*
X058295Y021600D03*
X057705D03*
X058295Y020600D03*
X057705D03*
G54D20*
X057100Y030063D03*
Y029137D03*
G54D21*
X049437Y033100D03*
X050363D03*
G54D22*
X053126Y027400D03*
X053874D03*
X053126Y028200D03*
X053874D03*
X051026D03*
X051774D03*
G54D30*
X050800Y029200D03*
X051800D03*
X052800D03*
X053800D03*
G54D31*
X053550Y018000D03*
G54D32*
X052550Y018000D03*
X051550D03*
X017916Y033188D03*
X016916D03*
X038100Y016100D03*
X039100D03*
X025800Y033188D03*
X024800D03*
X030265Y016100D03*
X031265D03*
X033616Y033188D03*
X032616D03*
X022411Y016100D03*
X023412D03*
X041584Y033200D03*
X040584D03*
X014516Y016100D03*
X015516D03*
G54D33*
X057100Y027000D03*
Y026000D03*
Y025000D03*
Y024000D03*
X060100Y027000D03*
Y026000D03*
Y025000D03*
X052100Y035900D03*
X058800Y033400D03*
X050800Y036900D03*
X058800Y030900D03*
X053400Y036900D03*
X059800Y032200D03*
X053800Y025000D03*
X045250Y026050D03*
X046250D03*
X045716Y017650D03*
X057116Y018000D03*
G54D34*
X060100Y024000D03*
X059800Y033400D03*
Y030900D03*
X058800Y032200D03*
X047250Y026050D03*
X047684Y017650D03*
X059084Y018000D03*
G54D35*
X018916Y033188D03*
X037100Y016100D03*
X026800Y033188D03*
X029265Y016100D03*
X034616Y033188D03*
X021411Y016100D03*
X042584Y033200D03*
X013516Y016100D03*
G54D36*
X017032Y035800D03*
X019000D03*
X013132D03*
X015100D03*
X024916D03*
X026884D03*
X021016D03*
X022984D03*
X032731D03*
X034700D03*
X028832D03*
X030800D03*
X040700D03*
X042668D03*
X036716D03*
X038684D03*
X038984Y013500D03*
X037016D03*
X042884D03*
X040916D03*
X031134D03*
X029165D03*
X035065D03*
X033097D03*
X023250D03*
X021281D03*
X027200D03*
X025231D03*
X015346D03*
X013378D03*
X019300D03*
X017332D03*
X048763Y035900D03*
X046795D03*
X059350D03*
X057350D03*
X055350D03*
X057100Y013550D03*
X059068D03*
X045716Y013650D03*
X047684D03*
G54D37*
X052100Y036900D03*
X050800Y035900D03*
X053400D03*
X053800Y024000D03*
G54D38*
X029582Y030850D03*
Y026126D03*
X034306Y030850D03*
Y026126D03*
X035094Y028488D03*
X037550Y030850D03*
Y026126D03*
X042275Y030850D03*
Y026126D03*
X043062Y028488D03*
X013882Y030850D03*
Y026126D03*
X018606Y030850D03*
Y026126D03*
X019394Y028488D03*
X021766Y030850D03*
Y026126D03*
X026491Y030850D03*
Y026126D03*
X027278Y028488D03*
X042134Y018450D03*
Y023174D03*
X037409Y018450D03*
Y023174D03*
X036622Y020812D03*
X034277Y018450D03*
Y023174D03*
X029553Y018450D03*
Y023174D03*
X028765Y020812D03*
X026400Y018450D03*
Y023174D03*
X021675Y018450D03*
Y023174D03*
X020888Y020812D03*
X018496Y018450D03*
Y023174D03*
X013771Y018450D03*
Y023174D03*
X012984Y020812D03*
G54D39*
X014916Y033200D03*
X012916D03*
X041100Y016100D03*
X043100D03*
X022800Y033200D03*
X020800D03*
X033265Y016100D03*
X035265D03*
X030616Y033200D03*
X028616D03*
X025471Y016100D03*
X027471D03*
X038484Y033200D03*
X036484D03*
X017516Y016100D03*
X019516D03*
G54D40*
X050150Y015700D03*
G54D41*
X050150Y014913D03*
M02*