%FSDAX24Y24*%
%MOIN*%
%SFA1B1*%

%IPPOS*%
%ADD68R,0.051300X0.047400*%
%ADD69R,0.047400X0.051300*%
%ADD71R,0.029700X0.065100*%
%ADD74C,0.068000*%
%ADD75R,0.074900X0.074900*%
%ADD76C,0.074900*%
%ADD77C,0.067100*%
%ADD78R,0.067100X0.067100*%
%ADD79R,0.074900X0.074900*%
%ADD80C,0.106400*%
%ADD81R,0.067100X0.067100*%
%ADD82C,0.086700*%
%ADD83C,0.055200*%
%ADD84R,0.061100X0.061100*%
%ADD85C,0.061100*%
%ADD86C,0.038000*%
%ADD87R,0.067100X0.059200*%
%ADD88R,0.051300X0.033600*%
%ADD89R,0.051300X0.069000*%
%ADD90R,0.051300X0.069000*%
%ADD91R,0.143800X0.069000*%
%ADD92O,0.078900X0.019800*%
%ADD93O,0.019800X0.078900*%
%ADD94R,0.059200X0.031600*%
%ADD95R,0.098600X0.098600*%
%LNde-010824-1*%
%LPD*%
G54D68*
X046165Y023800D03*
X046835D03*
X046165Y023200D03*
X046835D03*
X030681Y025988D03*
X031350D03*
X038650Y026000D03*
X039319D03*
X015081Y025988D03*
X015750D03*
X022965D03*
X023635D03*
X014281Y031988D03*
X014950D03*
X015750Y029288D03*
X015081D03*
X040935Y023300D03*
X040265D03*
X013350Y031988D03*
X012681D03*
X016781Y029288D03*
X017450D03*
X019750Y034588D03*
X019081D03*
X022165Y031988D03*
X022835D03*
X023635Y029288D03*
X022965D03*
X021335Y031988D03*
X020665D03*
X024665Y029288D03*
X025335D03*
X027535Y034588D03*
X026865D03*
X029981Y031988D03*
X030650D03*
X031350Y029288D03*
X030681D03*
X033100Y023300D03*
X032431D03*
X029250Y031988D03*
X028581D03*
X032181Y029288D03*
X032850D03*
X035450Y034588D03*
X034781D03*
X037950Y032000D03*
X038619D03*
X039319Y029300D03*
X038650D03*
X037219Y032000D03*
X036550D03*
X040346Y029300D03*
X041015D03*
X043419Y034600D03*
X042750D03*
X041700Y017300D03*
X041031D03*
X040365Y020000D03*
X041035D03*
X025071Y023300D03*
X024402D03*
X042465Y017300D03*
X043135D03*
X039635Y020000D03*
X038965D03*
X036365Y014700D03*
X037035D03*
X033800Y017300D03*
X033131D03*
X032431Y020000D03*
X033100D03*
X034631Y017300D03*
X035300D03*
X031404Y020000D03*
X030734D03*
X028431Y014700D03*
X029100D03*
X025906Y017200D03*
X025237D03*
X024402Y020000D03*
X025071D03*
X017150Y023400D03*
X016481D03*
X026837Y017200D03*
X027506D03*
X023410Y020000D03*
X022741D03*
X020537Y014700D03*
X021206D03*
X017950Y017100D03*
X017281D03*
X016481Y020000D03*
X017150D03*
X018881Y017100D03*
X019550D03*
X015454Y020000D03*
X014785D03*
X012681Y014700D03*
X013350D03*
X052135Y035100D03*
X051465D03*
X052865D03*
X053535D03*
X051885Y019000D03*
X051215D03*
X052965D03*
X053635D03*
G54D69*
X051550Y025115D03*
Y025785D03*
X047700Y021035D03*
Y020365D03*
X045350Y025135D03*
Y024465D03*
X015716Y030722D03*
Y030053D03*
X023500Y030722D03*
Y030053D03*
X031016Y030722D03*
Y030053D03*
X038984Y030735D03*
Y030065D03*
X040500Y018565D03*
Y019235D03*
X032765Y018565D03*
Y019235D03*
X024871Y018565D03*
Y019235D03*
X016616Y018565D03*
Y019235D03*
X057900Y031635D03*
Y030965D03*
X050100Y035265D03*
Y035935D03*
X057900Y033435D03*
Y032765D03*
X054500Y012665D03*
Y013335D03*
G54D71*
X034316Y027025D03*
Y027950D03*
X042284Y027037D03*
Y027963D03*
X018616Y027025D03*
Y027950D03*
X026500Y027025D03*
Y027950D03*
X037400Y022263D03*
Y021337D03*
X029565Y022263D03*
Y021337D03*
X021637Y022263D03*
Y021337D03*
X013816Y022363D03*
Y021437D03*
G54D74*
X050800Y029200D03*
X051800D03*
X052800D03*
X053800D03*
G54D75*
X053550Y018000D03*
G54D76*
X052550Y018000D03*
X051550D03*
X017916Y033188D03*
X016916D03*
X038100Y016100D03*
X039100D03*
X025800Y033188D03*
X024800D03*
X030265Y016100D03*
X031265D03*
X033616Y033188D03*
X032616D03*
X022411Y016100D03*
X023412D03*
X041584Y033200D03*
X040584D03*
X014516Y016100D03*
X015516D03*
G54D77*
X057100Y027000D03*
Y026000D03*
Y025000D03*
Y024000D03*
X060100Y027000D03*
Y026000D03*
Y025000D03*
X052100Y035900D03*
X058800Y033400D03*
X050800Y036900D03*
X058800Y030900D03*
X053400Y036900D03*
X059800Y032200D03*
X053800Y025000D03*
X045250Y026050D03*
X046250D03*
X045716Y017650D03*
X057116Y018000D03*
G54D78*
X060100Y024000D03*
X059800Y033400D03*
Y030900D03*
X058800Y032200D03*
X047250Y026050D03*
X047684Y017650D03*
X059084Y018000D03*
G54D79*
X018916Y033188D03*
X037100Y016100D03*
X026800Y033188D03*
X029265Y016100D03*
X034616Y033188D03*
X021411Y016100D03*
X042584Y033200D03*
X013516Y016100D03*
G54D80*
X017032Y035800D03*
X019000D03*
X013132D03*
X015100D03*
X024916D03*
X026884D03*
X021016D03*
X022984D03*
X032731D03*
X034700D03*
X028832D03*
X030800D03*
X040700D03*
X042668D03*
X036716D03*
X038684D03*
X038984Y013500D03*
X037016D03*
X042884D03*
X040916D03*
X031134D03*
X029165D03*
X035065D03*
X033097D03*
X023250D03*
X021281D03*
X027200D03*
X025231D03*
X015346D03*
X013378D03*
X019300D03*
X017332D03*
X048763Y035900D03*
X046795D03*
X059350D03*
X057350D03*
X055350D03*
X057100Y013550D03*
X059068D03*
X045716Y013650D03*
X047684D03*
G54D81*
X052100Y036900D03*
X050800Y035900D03*
X053400D03*
X053800Y024000D03*
G54D82*
X029582Y030850D03*
Y026126D03*
X034306Y030850D03*
Y026126D03*
X035094Y028488D03*
X037550Y030850D03*
Y026126D03*
X042275Y030850D03*
Y026126D03*
X043062Y028488D03*
X013882Y030850D03*
Y026126D03*
X018606Y030850D03*
Y026126D03*
X019394Y028488D03*
X021766Y030850D03*
Y026126D03*
X026491Y030850D03*
Y026126D03*
X027278Y028488D03*
X042134Y018450D03*
Y023174D03*
X037409Y018450D03*
Y023174D03*
X036622Y020812D03*
X034277Y018450D03*
Y023174D03*
X029553Y018450D03*
Y023174D03*
X028765Y020812D03*
X026400Y018450D03*
Y023174D03*
X021675Y018450D03*
Y023174D03*
X020888Y020812D03*
X018496Y018450D03*
Y023174D03*
X013771Y018450D03*
Y023174D03*
X012984Y020812D03*
G54D83*
X014916Y033200D03*
X012916D03*
X041100Y016100D03*
X043100D03*
X022800Y033200D03*
X020800D03*
X033265Y016100D03*
X035265D03*
X030616Y033200D03*
X028616D03*
X025471Y016100D03*
X027471D03*
X038484Y033200D03*
X036484D03*
X017516Y016100D03*
X019516D03*
G54D84*
X050150Y015700D03*
G54D85*
X050150Y014913D03*
G54D86*
X056550Y029400D03*
X058950Y029800D03*
X023900Y020000D03*
X031900D03*
X040050Y020400D03*
X027200Y017950D03*
X035200D03*
X031800Y029300D03*
X039800D03*
X020850Y031200D03*
X015968Y020000D03*
X047500Y023500D03*
Y024100D03*
X049150Y025150D03*
X050200Y025600D03*
X049350Y026550D03*
X049633Y026250D03*
X049917Y025950D03*
X044150Y020500D03*
X044450Y020850D03*
X044800Y021200D03*
X043600Y024000D03*
Y023100D03*
X046450Y021900D03*
X046050D03*
X047800Y021700D03*
X047550Y022000D03*
X047300Y022300D03*
X045650Y021900D03*
X052700Y022000D03*
X052950Y021700D03*
X053200Y021400D03*
X053450Y021100D03*
X044550Y029500D03*
X044283Y029780D03*
X044017Y030100D03*
X043700Y030350D03*
X052400Y024200D03*
X052450Y022300D03*
X050300Y022200D03*
X049742Y022900D03*
X054750Y023000D03*
X054450Y022700D03*
X054150Y022400D03*
X050037Y022550D03*
X049150Y023500D03*
X049446Y023200D03*
Y022250D03*
X051530Y020470D03*
X051800Y020800D03*
X054000Y020500D03*
X053700Y020800D03*
X054450Y021700D03*
X054150Y022000D03*
X054500Y034600D03*
Y033400D03*
X050100Y034750D03*
X051950Y034050D03*
X057150Y033900D03*
X016300Y029288D03*
X015250Y030700D03*
X013000Y031200D03*
X015250Y030053D03*
X024200Y029288D03*
X036750Y031250D03*
X023950Y030750D03*
Y030200D03*
X031450Y030350D03*
Y031050D03*
X039500Y030500D03*
Y031200D03*
X043419Y034181D03*
X014800Y028500D03*
X022835D03*
X030500D03*
X038400D03*
X035000Y034000D03*
X027150D03*
X028700Y031200D03*
X019300Y034000D03*
X013200Y015300D03*
X016200Y019300D03*
X021100Y015300D03*
X024350Y019250D03*
X019150Y017950D03*
X016200Y018550D03*
X024350Y018500D03*
X032250D03*
X028950Y015300D03*
X040200Y018150D03*
X039373Y018127D03*
X042750Y018100D03*
X036900Y015300D03*
X051250Y014800D03*
X051800D03*
X052350D03*
X052900D03*
X053450D03*
Y015400D03*
X052900D03*
X052350D03*
X051800D03*
X051250D03*
X053450Y016000D03*
X052900D03*
X052350D03*
X051800D03*
X051250D03*
X048400Y021035D03*
X046165Y024150D03*
X055750Y025450D03*
X046100Y027700D03*
X046065Y031660D03*
X049535Y031665D03*
X046350Y033900D03*
X032250Y019150D03*
X017250Y021700D03*
X025400D03*
X033400D03*
X041050D03*
X051850Y025800D03*
X017200Y024100D03*
X042900Y026800D03*
X043150Y027150D03*
X025050Y024050D03*
X050750Y032050D03*
G54D87*
X052250Y025848D03*
Y025100D03*
X055350Y033776D03*
Y034524D03*
G54D88*
X046028Y025174D03*
Y024426D03*
X046972D03*
Y024800D03*
Y025174D03*
G54D89*
X053361Y012650D03*
G54D90*
X052456Y012650D03*
X051550D03*
G54D91*
X052456Y015307D03*
G54D92*
X051694Y023783D03*
Y023586D03*
Y023389D03*
Y023192D03*
Y022995D03*
Y022798D03*
Y022602D03*
Y022405D03*
Y022208D03*
Y022011D03*
Y021814D03*
Y021617D03*
X048506D03*
Y021814D03*
Y022011D03*
Y022208D03*
Y022405D03*
Y022602D03*
Y022798D03*
Y022995D03*
Y023192D03*
Y023389D03*
Y023586D03*
Y023783D03*
G54D93*
X051183Y021106D03*
X050986D03*
X050789D03*
X050592D03*
X050395D03*
X050198D03*
X050002D03*
X049805D03*
X049608D03*
X049411D03*
X049214D03*
X049017D03*
Y024294D03*
X049214D03*
X049411D03*
X049608D03*
X049805D03*
X050002D03*
X050198D03*
X050395D03*
X050592D03*
X050789D03*
X050986D03*
X051183D03*
G54D94*
X032089Y026014D03*
Y026762D03*
X032916Y026388D03*
X040071Y026026D03*
Y026774D03*
X040898Y026400D03*
X016502Y026014D03*
Y026762D03*
X017329Y026388D03*
X024387Y026014D03*
Y026762D03*
X025213Y026388D03*
X039513Y023274D03*
Y022526D03*
X038687Y022900D03*
X016502Y030014D03*
Y030762D03*
X017329Y030388D03*
X024387Y030014D03*
Y030762D03*
X025213Y030388D03*
X031679Y023274D03*
Y022526D03*
X030852Y022900D03*
X031902Y030014D03*
Y030762D03*
X032729Y030388D03*
X040071Y030026D03*
Y030774D03*
X040898Y030400D03*
X023685Y023274D03*
Y022526D03*
X022858Y022900D03*
X039813Y019274D03*
Y018526D03*
X038987Y018900D03*
X031679Y019274D03*
Y018526D03*
X030852Y018900D03*
X015729Y023374D03*
Y022626D03*
X014902Y023000D03*
X023685Y019274D03*
Y018526D03*
X022858Y018900D03*
X015729Y019300D03*
Y018552D03*
X014902Y018926D03*
G54D95*
X014902Y034288D03*
X013130D03*
X041114Y015000D03*
X042886D03*
X022786Y034288D03*
X021014D03*
X033280Y015000D03*
X035051D03*
X030502Y034288D03*
X028730D03*
X025386Y015000D03*
X027157D03*
X038570Y034300D03*
X036798D03*
X017330Y015100D03*
X019102D03*
M02*