%FSDAX24Y24*%
%MOIN*%
%SFA1B1*%

%IPPOS*%
%ADD23C,0.010000*%
%ADD96C,0.003900*%
%ADD97C,0.006000*%
%LNde-010824-1*%
%LPD*%
G54D23*
X017803Y035800D02*
D01*
X017801Y035854*
X017795Y035909*
X017785Y035963*
X017772Y036016*
X017755Y036069*
X017734Y036120*
X017710Y036169*
X017683Y036217*
X017652Y036262*
X017618Y036305*
X017582Y036346*
X017542Y036384*
X017500Y036420*
X017456Y036452*
X017409Y036481*
X017360Y036507*
X017310Y036529*
X017259Y036548*
X017206Y036563*
X017152Y036575*
X017098Y036582*
X017043Y036586*
X016988*
X016933Y036582*
X016879Y036575*
X016825Y036563*
X016772Y036548*
X016721Y036529*
X016671Y036507*
X016622Y036481*
X016575Y036452*
X016531Y036420*
X016489Y036384*
X016449Y036346*
X016413Y036305*
X016379Y036262*
X016348Y036217*
X016321Y036169*
X016297Y036120*
X016276Y036069*
X016259Y036016*
X016246Y035963*
X016236Y035909*
X016230Y035854*
X016229Y035800*
X016230Y035745*
X016236Y035690*
X016246Y035636*
X016259Y035583*
X016276Y035530*
X016297Y035479*
X016321Y035430*
X016348Y035382*
X016379Y035337*
X016413Y035294*
X016449Y035253*
X016489Y035215*
X016531Y035179*
X016575Y035147*
X016622Y035118*
X016671Y035092*
X016721Y035070*
X016772Y035051*
X016825Y035036*
X016879Y035024*
X016933Y035017*
X016988Y035013*
X017043*
X017098Y035017*
X017152Y035024*
X017206Y035036*
X017259Y035051*
X017310Y035070*
X017360Y035092*
X017409Y035118*
X017456Y035147*
X017500Y035179*
X017542Y035215*
X017582Y035253*
X017618Y035294*
X017652Y035337*
X017683Y035382*
X017710Y035430*
X017734Y035479*
X017755Y035530*
X017772Y035583*
X017785Y035636*
X017795Y035690*
X017801Y035745*
X017803Y035800*
X019787D02*
D01*
X019785Y035854*
X019779Y035909*
X019769Y035963*
X019756Y036016*
X019739Y036069*
X019718Y036120*
X019694Y036169*
X019667Y036217*
X019636Y036262*
X019602Y036305*
X019566Y036346*
X019526Y036384*
X019484Y036420*
X019440Y036452*
X019393Y036481*
X019344Y036507*
X019294Y036529*
X019243Y036548*
X019190Y036563*
X019136Y036575*
X019082Y036582*
X019027Y036586*
X018972*
X018917Y036582*
X018863Y036575*
X018809Y036563*
X018756Y036548*
X018705Y036529*
X018655Y036507*
X018606Y036481*
X018559Y036452*
X018515Y036420*
X018473Y036384*
X018433Y036346*
X018397Y036305*
X018363Y036262*
X018332Y036217*
X018305Y036169*
X018281Y036120*
X018260Y036069*
X018243Y036016*
X018230Y035963*
X018220Y035909*
X018214Y035854*
X018213Y035800*
X018214Y035745*
X018220Y035690*
X018230Y035636*
X018243Y035583*
X018260Y035530*
X018281Y035479*
X018305Y035430*
X018332Y035382*
X018363Y035337*
X018397Y035294*
X018433Y035253*
X018473Y035215*
X018515Y035179*
X018559Y035147*
X018606Y035118*
X018655Y035092*
X018705Y035070*
X018756Y035051*
X018809Y035036*
X018863Y035024*
X018917Y035017*
X018972Y035013*
X019027*
X019082Y035017*
X019136Y035024*
X019190Y035036*
X019243Y035051*
X019294Y035070*
X019344Y035092*
X019393Y035118*
X019440Y035147*
X019484Y035179*
X019526Y035215*
X019566Y035253*
X019602Y035294*
X019636Y035337*
X019667Y035382*
X019694Y035430*
X019718Y035479*
X019739Y035530*
X019756Y035583*
X019769Y035636*
X019779Y035690*
X019785Y035745*
X019787Y035800*
X013903D02*
D01*
X013901Y035854*
X013895Y035909*
X013885Y035963*
X013872Y036016*
X013855Y036069*
X013834Y036120*
X013810Y036169*
X013783Y036217*
X013752Y036262*
X013718Y036305*
X013682Y036346*
X013642Y036384*
X013600Y036420*
X013556Y036452*
X013509Y036481*
X013460Y036507*
X013410Y036529*
X013359Y036548*
X013306Y036563*
X013252Y036575*
X013198Y036582*
X013143Y036586*
X013088*
X013033Y036582*
X012979Y036575*
X012925Y036563*
X012872Y036548*
X012821Y036529*
X012771Y036507*
X012722Y036481*
X012675Y036452*
X012631Y036420*
X012589Y036384*
X012549Y036346*
X012513Y036305*
X012479Y036262*
X012448Y036217*
X012421Y036169*
X012397Y036120*
X012376Y036069*
X012359Y036016*
X012346Y035963*
X012336Y035909*
X012330Y035854*
X012329Y035800*
X012330Y035745*
X012336Y035690*
X012346Y035636*
X012359Y035583*
X012376Y035530*
X012397Y035479*
X012421Y035430*
X012448Y035382*
X012479Y035337*
X012513Y035294*
X012549Y035253*
X012589Y035215*
X012631Y035179*
X012675Y035147*
X012722Y035118*
X012771Y035092*
X012821Y035070*
X012872Y035051*
X012925Y035036*
X012979Y035024*
X013033Y035017*
X013088Y035013*
X013143*
X013198Y035017*
X013252Y035024*
X013306Y035036*
X013359Y035051*
X013410Y035070*
X013460Y035092*
X013509Y035118*
X013556Y035147*
X013600Y035179*
X013642Y035215*
X013682Y035253*
X013718Y035294*
X013752Y035337*
X013783Y035382*
X013810Y035430*
X013834Y035479*
X013855Y035530*
X013872Y035583*
X013885Y035636*
X013895Y035690*
X013901Y035745*
X013903Y035800*
X015887D02*
D01*
X015885Y035854*
X015879Y035909*
X015869Y035963*
X015856Y036016*
X015839Y036069*
X015818Y036120*
X015794Y036169*
X015767Y036217*
X015736Y036262*
X015702Y036305*
X015666Y036346*
X015626Y036384*
X015584Y036420*
X015540Y036452*
X015493Y036481*
X015444Y036507*
X015394Y036529*
X015343Y036548*
X015290Y036563*
X015236Y036575*
X015182Y036582*
X015127Y036586*
X015072*
X015017Y036582*
X014963Y036575*
X014909Y036563*
X014856Y036548*
X014805Y036529*
X014755Y036507*
X014706Y036481*
X014659Y036452*
X014615Y036420*
X014573Y036384*
X014533Y036346*
X014497Y036305*
X014463Y036262*
X014432Y036217*
X014405Y036169*
X014381Y036120*
X014360Y036069*
X014343Y036016*
X014330Y035963*
X014320Y035909*
X014314Y035854*
X014313Y035800*
X014314Y035745*
X014320Y035690*
X014330Y035636*
X014343Y035583*
X014360Y035530*
X014381Y035479*
X014405Y035430*
X014432Y035382*
X014463Y035337*
X014497Y035294*
X014533Y035253*
X014573Y035215*
X014615Y035179*
X014659Y035147*
X014706Y035118*
X014755Y035092*
X014805Y035070*
X014856Y035051*
X014909Y035036*
X014963Y035024*
X015017Y035017*
X015072Y035013*
X015127*
X015182Y035017*
X015236Y035024*
X015290Y035036*
X015343Y035051*
X015394Y035070*
X015444Y035092*
X015493Y035118*
X015540Y035147*
X015584Y035179*
X015626Y035215*
X015666Y035253*
X015702Y035294*
X015736Y035337*
X015767Y035382*
X015794Y035430*
X015818Y035479*
X015839Y035530*
X015856Y035583*
X015869Y035636*
X015879Y035690*
X015885Y035745*
X015887Y035800*
X025687D02*
D01*
X025685Y035854*
X025679Y035909*
X025669Y035963*
X025656Y036016*
X025639Y036069*
X025618Y036120*
X025594Y036169*
X025567Y036217*
X025536Y036262*
X025502Y036305*
X025466Y036346*
X025426Y036384*
X025384Y036420*
X025340Y036452*
X025293Y036481*
X025244Y036507*
X025194Y036529*
X025143Y036548*
X025090Y036563*
X025036Y036575*
X024982Y036582*
X024927Y036586*
X024872*
X024817Y036582*
X024763Y036575*
X024709Y036563*
X024656Y036548*
X024605Y036529*
X024555Y036507*
X024506Y036481*
X024459Y036452*
X024415Y036420*
X024373Y036384*
X024333Y036346*
X024297Y036305*
X024263Y036262*
X024232Y036217*
X024205Y036169*
X024181Y036120*
X024160Y036069*
X024143Y036016*
X024130Y035963*
X024120Y035909*
X024114Y035854*
X024113Y035800*
X024114Y035745*
X024120Y035690*
X024130Y035636*
X024143Y035583*
X024160Y035530*
X024181Y035479*
X024205Y035430*
X024232Y035382*
X024263Y035337*
X024297Y035294*
X024333Y035253*
X024373Y035215*
X024415Y035179*
X024459Y035147*
X024506Y035118*
X024555Y035092*
X024605Y035070*
X024656Y035051*
X024709Y035036*
X024763Y035024*
X024817Y035017*
X024872Y035013*
X024927*
X024982Y035017*
X025036Y035024*
X025090Y035036*
X025143Y035051*
X025194Y035070*
X025244Y035092*
X025293Y035118*
X025340Y035147*
X025384Y035179*
X025426Y035215*
X025466Y035253*
X025502Y035294*
X025536Y035337*
X025567Y035382*
X025594Y035430*
X025618Y035479*
X025639Y035530*
X025656Y035583*
X025669Y035636*
X025679Y035690*
X025685Y035745*
X025687Y035800*
X027672D02*
D01*
X027670Y035854*
X027664Y035909*
X027654Y035963*
X027641Y036016*
X027624Y036069*
X027603Y036120*
X027579Y036169*
X027552Y036217*
X027521Y036262*
X027487Y036305*
X027451Y036346*
X027411Y036384*
X027369Y036420*
X027325Y036452*
X027278Y036481*
X027229Y036507*
X027179Y036529*
X027128Y036548*
X027075Y036563*
X027021Y036575*
X026967Y036582*
X026912Y036586*
X026857*
X026802Y036582*
X026748Y036575*
X026694Y036563*
X026641Y036548*
X026590Y036529*
X026540Y036507*
X026491Y036481*
X026444Y036452*
X026400Y036420*
X026358Y036384*
X026318Y036346*
X026282Y036305*
X026248Y036262*
X026217Y036217*
X026190Y036169*
X026166Y036120*
X026145Y036069*
X026128Y036016*
X026115Y035963*
X026105Y035909*
X026099Y035854*
X026098Y035800*
X026099Y035745*
X026105Y035690*
X026115Y035636*
X026128Y035583*
X026145Y035530*
X026166Y035479*
X026190Y035430*
X026217Y035382*
X026248Y035337*
X026282Y035294*
X026318Y035253*
X026358Y035215*
X026400Y035179*
X026444Y035147*
X026491Y035118*
X026540Y035092*
X026590Y035070*
X026641Y035051*
X026694Y035036*
X026748Y035024*
X026802Y035017*
X026857Y035013*
X026912*
X026967Y035017*
X027021Y035024*
X027075Y035036*
X027128Y035051*
X027179Y035070*
X027229Y035092*
X027278Y035118*
X027325Y035147*
X027369Y035179*
X027411Y035215*
X027451Y035253*
X027487Y035294*
X027521Y035337*
X027552Y035382*
X027579Y035430*
X027603Y035479*
X027624Y035530*
X027641Y035583*
X027654Y035636*
X027664Y035690*
X027670Y035745*
X027672Y035800*
X021787D02*
D01*
X021785Y035854*
X021779Y035909*
X021769Y035963*
X021756Y036016*
X021739Y036069*
X021718Y036120*
X021694Y036169*
X021667Y036217*
X021636Y036262*
X021602Y036305*
X021566Y036346*
X021526Y036384*
X021484Y036420*
X021440Y036452*
X021393Y036481*
X021344Y036507*
X021294Y036529*
X021243Y036548*
X021190Y036563*
X021136Y036575*
X021082Y036582*
X021027Y036586*
X020972*
X020917Y036582*
X020863Y036575*
X020809Y036563*
X020756Y036548*
X020705Y036529*
X020655Y036507*
X020606Y036481*
X020559Y036452*
X020515Y036420*
X020473Y036384*
X020433Y036346*
X020397Y036305*
X020363Y036262*
X020332Y036217*
X020305Y036169*
X020281Y036120*
X020260Y036069*
X020243Y036016*
X020230Y035963*
X020220Y035909*
X020214Y035854*
X020213Y035800*
X020214Y035745*
X020220Y035690*
X020230Y035636*
X020243Y035583*
X020260Y035530*
X020281Y035479*
X020305Y035430*
X020332Y035382*
X020363Y035337*
X020397Y035294*
X020433Y035253*
X020473Y035215*
X020515Y035179*
X020559Y035147*
X020606Y035118*
X020655Y035092*
X020705Y035070*
X020756Y035051*
X020809Y035036*
X020863Y035024*
X020917Y035017*
X020972Y035013*
X021027*
X021082Y035017*
X021136Y035024*
X021190Y035036*
X021243Y035051*
X021294Y035070*
X021344Y035092*
X021393Y035118*
X021440Y035147*
X021484Y035179*
X021526Y035215*
X021566Y035253*
X021602Y035294*
X021636Y035337*
X021667Y035382*
X021694Y035430*
X021718Y035479*
X021739Y035530*
X021756Y035583*
X021769Y035636*
X021779Y035690*
X021785Y035745*
X021787Y035800*
X023772D02*
D01*
X023770Y035854*
X023764Y035909*
X023754Y035963*
X023741Y036016*
X023724Y036069*
X023703Y036120*
X023679Y036169*
X023652Y036217*
X023621Y036262*
X023587Y036305*
X023551Y036346*
X023511Y036384*
X023469Y036420*
X023425Y036452*
X023378Y036481*
X023329Y036507*
X023279Y036529*
X023228Y036548*
X023175Y036563*
X023121Y036575*
X023067Y036582*
X023012Y036586*
X022957*
X022902Y036582*
X022848Y036575*
X022794Y036563*
X022741Y036548*
X022690Y036529*
X022640Y036507*
X022591Y036481*
X022544Y036452*
X022500Y036420*
X022458Y036384*
X022418Y036346*
X022382Y036305*
X022348Y036262*
X022317Y036217*
X022290Y036169*
X022266Y036120*
X022245Y036069*
X022228Y036016*
X022215Y035963*
X022205Y035909*
X022199Y035854*
X022198Y035800*
X022199Y035745*
X022205Y035690*
X022215Y035636*
X022228Y035583*
X022245Y035530*
X022266Y035479*
X022290Y035430*
X022317Y035382*
X022348Y035337*
X022382Y035294*
X022418Y035253*
X022458Y035215*
X022500Y035179*
X022544Y035147*
X022591Y035118*
X022640Y035092*
X022690Y035070*
X022741Y035051*
X022794Y035036*
X022848Y035024*
X022902Y035017*
X022957Y035013*
X023012*
X023067Y035017*
X023121Y035024*
X023175Y035036*
X023228Y035051*
X023279Y035070*
X023329Y035092*
X023378Y035118*
X023425Y035147*
X023469Y035179*
X023511Y035215*
X023551Y035253*
X023587Y035294*
X023621Y035337*
X023652Y035382*
X023679Y035430*
X023703Y035479*
X023724Y035530*
X023741Y035583*
X023754Y035636*
X023764Y035690*
X023770Y035745*
X023772Y035800*
X033503D02*
D01*
X033501Y035854*
X033495Y035909*
X033485Y035963*
X033472Y036016*
X033455Y036069*
X033434Y036120*
X033410Y036169*
X033383Y036217*
X033352Y036262*
X033318Y036305*
X033282Y036346*
X033242Y036384*
X033200Y036420*
X033156Y036452*
X033109Y036481*
X033060Y036507*
X033010Y036529*
X032959Y036548*
X032906Y036563*
X032852Y036575*
X032798Y036582*
X032743Y036586*
X032688*
X032633Y036582*
X032579Y036575*
X032525Y036563*
X032472Y036548*
X032421Y036529*
X032371Y036507*
X032322Y036481*
X032275Y036452*
X032231Y036420*
X032189Y036384*
X032149Y036346*
X032113Y036305*
X032079Y036262*
X032048Y036217*
X032021Y036169*
X031997Y036120*
X031976Y036069*
X031959Y036016*
X031946Y035963*
X031936Y035909*
X031930Y035854*
X031929Y035800*
X031930Y035745*
X031936Y035690*
X031946Y035636*
X031959Y035583*
X031976Y035530*
X031997Y035479*
X032021Y035430*
X032048Y035382*
X032079Y035337*
X032113Y035294*
X032149Y035253*
X032189Y035215*
X032231Y035179*
X032275Y035147*
X032322Y035118*
X032371Y035092*
X032421Y035070*
X032472Y035051*
X032525Y035036*
X032579Y035024*
X032633Y035017*
X032688Y035013*
X032743*
X032798Y035017*
X032852Y035024*
X032906Y035036*
X032959Y035051*
X033010Y035070*
X033060Y035092*
X033109Y035118*
X033156Y035147*
X033200Y035179*
X033242Y035215*
X033282Y035253*
X033318Y035294*
X033352Y035337*
X033383Y035382*
X033410Y035430*
X033434Y035479*
X033455Y035530*
X033472Y035583*
X033485Y035636*
X033495Y035690*
X033501Y035745*
X033503Y035800*
X035487D02*
D01*
X035485Y035854*
X035479Y035909*
X035469Y035963*
X035456Y036016*
X035439Y036069*
X035418Y036120*
X035394Y036169*
X035367Y036217*
X035336Y036262*
X035302Y036305*
X035266Y036346*
X035226Y036384*
X035184Y036420*
X035140Y036452*
X035093Y036481*
X035044Y036507*
X034994Y036529*
X034943Y036548*
X034890Y036563*
X034836Y036575*
X034782Y036582*
X034727Y036586*
X034672*
X034617Y036582*
X034563Y036575*
X034509Y036563*
X034456Y036548*
X034405Y036529*
X034355Y036507*
X034306Y036481*
X034259Y036452*
X034215Y036420*
X034173Y036384*
X034133Y036346*
X034097Y036305*
X034063Y036262*
X034032Y036217*
X034005Y036169*
X033981Y036120*
X033960Y036069*
X033943Y036016*
X033930Y035963*
X033920Y035909*
X033914Y035854*
X033913Y035800*
X033914Y035745*
X033920Y035690*
X033930Y035636*
X033943Y035583*
X033960Y035530*
X033981Y035479*
X034005Y035430*
X034032Y035382*
X034063Y035337*
X034097Y035294*
X034133Y035253*
X034173Y035215*
X034215Y035179*
X034259Y035147*
X034306Y035118*
X034355Y035092*
X034405Y035070*
X034456Y035051*
X034509Y035036*
X034563Y035024*
X034617Y035017*
X034672Y035013*
X034727*
X034782Y035017*
X034836Y035024*
X034890Y035036*
X034943Y035051*
X034994Y035070*
X035044Y035092*
X035093Y035118*
X035140Y035147*
X035184Y035179*
X035226Y035215*
X035266Y035253*
X035302Y035294*
X035336Y035337*
X035367Y035382*
X035394Y035430*
X035418Y035479*
X035439Y035530*
X035456Y035583*
X035469Y035636*
X035479Y035690*
X035485Y035745*
X035487Y035800*
X029603D02*
D01*
X029601Y035854*
X029595Y035909*
X029585Y035963*
X029572Y036016*
X029555Y036069*
X029534Y036120*
X029510Y036169*
X029483Y036217*
X029452Y036262*
X029418Y036305*
X029382Y036346*
X029342Y036384*
X029300Y036420*
X029256Y036452*
X029209Y036481*
X029160Y036507*
X029110Y036529*
X029059Y036548*
X029006Y036563*
X028952Y036575*
X028898Y036582*
X028843Y036586*
X028788*
X028733Y036582*
X028679Y036575*
X028625Y036563*
X028572Y036548*
X028521Y036529*
X028471Y036507*
X028422Y036481*
X028375Y036452*
X028331Y036420*
X028289Y036384*
X028249Y036346*
X028213Y036305*
X028179Y036262*
X028148Y036217*
X028121Y036169*
X028097Y036120*
X028076Y036069*
X028059Y036016*
X028046Y035963*
X028036Y035909*
X028030Y035854*
X028029Y035800*
X028030Y035745*
X028036Y035690*
X028046Y035636*
X028059Y035583*
X028076Y035530*
X028097Y035479*
X028121Y035430*
X028148Y035382*
X028179Y035337*
X028213Y035294*
X028249Y035253*
X028289Y035215*
X028331Y035179*
X028375Y035147*
X028422Y035118*
X028471Y035092*
X028521Y035070*
X028572Y035051*
X028625Y035036*
X028679Y035024*
X028733Y035017*
X028788Y035013*
X028843*
X028898Y035017*
X028952Y035024*
X029006Y035036*
X029059Y035051*
X029110Y035070*
X029160Y035092*
X029209Y035118*
X029256Y035147*
X029300Y035179*
X029342Y035215*
X029382Y035253*
X029418Y035294*
X029452Y035337*
X029483Y035382*
X029510Y035430*
X029534Y035479*
X029555Y035530*
X029572Y035583*
X029585Y035636*
X029595Y035690*
X029601Y035745*
X029603Y035800*
X031587D02*
D01*
X031585Y035854*
X031579Y035909*
X031569Y035963*
X031556Y036016*
X031539Y036069*
X031518Y036120*
X031494Y036169*
X031467Y036217*
X031436Y036262*
X031402Y036305*
X031366Y036346*
X031326Y036384*
X031284Y036420*
X031240Y036452*
X031193Y036481*
X031144Y036507*
X031094Y036529*
X031043Y036548*
X030990Y036563*
X030936Y036575*
X030882Y036582*
X030827Y036586*
X030772*
X030717Y036582*
X030663Y036575*
X030609Y036563*
X030556Y036548*
X030505Y036529*
X030455Y036507*
X030406Y036481*
X030359Y036452*
X030315Y036420*
X030273Y036384*
X030233Y036346*
X030197Y036305*
X030163Y036262*
X030132Y036217*
X030105Y036169*
X030081Y036120*
X030060Y036069*
X030043Y036016*
X030030Y035963*
X030020Y035909*
X030014Y035854*
X030013Y035800*
X030014Y035745*
X030020Y035690*
X030030Y035636*
X030043Y035583*
X030060Y035530*
X030081Y035479*
X030105Y035430*
X030132Y035382*
X030163Y035337*
X030197Y035294*
X030233Y035253*
X030273Y035215*
X030315Y035179*
X030359Y035147*
X030406Y035118*
X030455Y035092*
X030505Y035070*
X030556Y035051*
X030609Y035036*
X030663Y035024*
X030717Y035017*
X030772Y035013*
X030827*
X030882Y035017*
X030936Y035024*
X030990Y035036*
X031043Y035051*
X031094Y035070*
X031144Y035092*
X031193Y035118*
X031240Y035147*
X031284Y035179*
X031326Y035215*
X031366Y035253*
X031402Y035294*
X031436Y035337*
X031467Y035382*
X031494Y035430*
X031518Y035479*
X031539Y035530*
X031556Y035583*
X031569Y035636*
X031579Y035690*
X031585Y035745*
X031587Y035800*
X041472D02*
D01*
X041470Y035854*
X041464Y035909*
X041454Y035963*
X041441Y036016*
X041424Y036069*
X041403Y036120*
X041379Y036169*
X041352Y036217*
X041321Y036262*
X041287Y036305*
X041251Y036346*
X041211Y036384*
X041169Y036420*
X041125Y036452*
X041078Y036481*
X041029Y036507*
X040979Y036529*
X040928Y036548*
X040875Y036563*
X040821Y036575*
X040767Y036582*
X040712Y036586*
X040657*
X040602Y036582*
X040548Y036575*
X040494Y036563*
X040441Y036548*
X040390Y036529*
X040340Y036507*
X040291Y036481*
X040244Y036452*
X040200Y036420*
X040158Y036384*
X040118Y036346*
X040082Y036305*
X040048Y036262*
X040017Y036217*
X039990Y036169*
X039966Y036120*
X039945Y036069*
X039928Y036016*
X039915Y035963*
X039905Y035909*
X039899Y035854*
X039898Y035800*
X039899Y035745*
X039905Y035690*
X039915Y035636*
X039928Y035583*
X039945Y035530*
X039966Y035479*
X039990Y035430*
X040017Y035382*
X040048Y035337*
X040082Y035294*
X040118Y035253*
X040158Y035215*
X040200Y035179*
X040244Y035147*
X040291Y035118*
X040340Y035092*
X040390Y035070*
X040441Y035051*
X040494Y035036*
X040548Y035024*
X040602Y035017*
X040657Y035013*
X040712*
X040767Y035017*
X040821Y035024*
X040875Y035036*
X040928Y035051*
X040979Y035070*
X041029Y035092*
X041078Y035118*
X041125Y035147*
X041169Y035179*
X041211Y035215*
X041251Y035253*
X041287Y035294*
X041321Y035337*
X041352Y035382*
X041379Y035430*
X041403Y035479*
X041424Y035530*
X041441Y035583*
X041454Y035636*
X041464Y035690*
X041470Y035745*
X041472Y035800*
X043456D02*
D01*
X043454Y035854*
X043448Y035909*
X043438Y035963*
X043425Y036016*
X043408Y036069*
X043387Y036120*
X043363Y036169*
X043336Y036217*
X043305Y036262*
X043271Y036305*
X043235Y036346*
X043195Y036384*
X043153Y036420*
X043109Y036452*
X043062Y036481*
X043013Y036507*
X042963Y036529*
X042912Y036548*
X042859Y036563*
X042805Y036575*
X042751Y036582*
X042696Y036586*
X042641*
X042586Y036582*
X042532Y036575*
X042478Y036563*
X042425Y036548*
X042374Y036529*
X042324Y036507*
X042275Y036481*
X042228Y036452*
X042184Y036420*
X042142Y036384*
X042102Y036346*
X042066Y036305*
X042032Y036262*
X042001Y036217*
X041974Y036169*
X041950Y036120*
X041929Y036069*
X041912Y036016*
X041899Y035963*
X041889Y035909*
X041883Y035854*
X041882Y035800*
X041883Y035745*
X041889Y035690*
X041899Y035636*
X041912Y035583*
X041929Y035530*
X041950Y035479*
X041974Y035430*
X042001Y035382*
X042032Y035337*
X042066Y035294*
X042102Y035253*
X042142Y035215*
X042184Y035179*
X042228Y035147*
X042275Y035118*
X042324Y035092*
X042374Y035070*
X042425Y035051*
X042478Y035036*
X042532Y035024*
X042586Y035017*
X042641Y035013*
X042696*
X042751Y035017*
X042805Y035024*
X042859Y035036*
X042912Y035051*
X042963Y035070*
X043013Y035092*
X043062Y035118*
X043109Y035147*
X043153Y035179*
X043195Y035215*
X043235Y035253*
X043271Y035294*
X043305Y035337*
X043336Y035382*
X043363Y035430*
X043387Y035479*
X043408Y035530*
X043425Y035583*
X043438Y035636*
X043448Y035690*
X043454Y035745*
X043456Y035800*
X037487D02*
D01*
X037485Y035854*
X037479Y035909*
X037469Y035963*
X037456Y036016*
X037439Y036069*
X037418Y036120*
X037394Y036169*
X037367Y036217*
X037336Y036262*
X037302Y036305*
X037266Y036346*
X037226Y036384*
X037184Y036420*
X037140Y036452*
X037093Y036481*
X037044Y036507*
X036994Y036529*
X036943Y036548*
X036890Y036563*
X036836Y036575*
X036782Y036582*
X036727Y036586*
X036672*
X036617Y036582*
X036563Y036575*
X036509Y036563*
X036456Y036548*
X036405Y036529*
X036355Y036507*
X036306Y036481*
X036259Y036452*
X036215Y036420*
X036173Y036384*
X036133Y036346*
X036097Y036305*
X036063Y036262*
X036032Y036217*
X036005Y036169*
X035981Y036120*
X035960Y036069*
X035943Y036016*
X035930Y035963*
X035920Y035909*
X035914Y035854*
X035913Y035800*
X035914Y035745*
X035920Y035690*
X035930Y035636*
X035943Y035583*
X035960Y035530*
X035981Y035479*
X036005Y035430*
X036032Y035382*
X036063Y035337*
X036097Y035294*
X036133Y035253*
X036173Y035215*
X036215Y035179*
X036259Y035147*
X036306Y035118*
X036355Y035092*
X036405Y035070*
X036456Y035051*
X036509Y035036*
X036563Y035024*
X036617Y035017*
X036672Y035013*
X036727*
X036782Y035017*
X036836Y035024*
X036890Y035036*
X036943Y035051*
X036994Y035070*
X037044Y035092*
X037093Y035118*
X037140Y035147*
X037184Y035179*
X037226Y035215*
X037266Y035253*
X037302Y035294*
X037336Y035337*
X037367Y035382*
X037394Y035430*
X037418Y035479*
X037439Y035530*
X037456Y035583*
X037469Y035636*
X037479Y035690*
X037485Y035745*
X037487Y035800*
X039472D02*
D01*
X039470Y035854*
X039464Y035909*
X039454Y035963*
X039441Y036016*
X039424Y036069*
X039403Y036120*
X039379Y036169*
X039352Y036217*
X039321Y036262*
X039287Y036305*
X039251Y036346*
X039211Y036384*
X039169Y036420*
X039125Y036452*
X039078Y036481*
X039029Y036507*
X038979Y036529*
X038928Y036548*
X038875Y036563*
X038821Y036575*
X038767Y036582*
X038712Y036586*
X038657*
X038602Y036582*
X038548Y036575*
X038494Y036563*
X038441Y036548*
X038390Y036529*
X038340Y036507*
X038291Y036481*
X038244Y036452*
X038200Y036420*
X038158Y036384*
X038118Y036346*
X038082Y036305*
X038048Y036262*
X038017Y036217*
X037990Y036169*
X037966Y036120*
X037945Y036069*
X037928Y036016*
X037915Y035963*
X037905Y035909*
X037899Y035854*
X037898Y035800*
X037899Y035745*
X037905Y035690*
X037915Y035636*
X037928Y035583*
X037945Y035530*
X037966Y035479*
X037990Y035430*
X038017Y035382*
X038048Y035337*
X038082Y035294*
X038118Y035253*
X038158Y035215*
X038200Y035179*
X038244Y035147*
X038291Y035118*
X038340Y035092*
X038390Y035070*
X038441Y035051*
X038494Y035036*
X038548Y035024*
X038602Y035017*
X038657Y035013*
X038712*
X038767Y035017*
X038821Y035024*
X038875Y035036*
X038928Y035051*
X038979Y035070*
X039029Y035092*
X039078Y035118*
X039125Y035147*
X039169Y035179*
X039211Y035215*
X039251Y035253*
X039287Y035294*
X039321Y035337*
X039352Y035382*
X039379Y035430*
X039403Y035479*
X039424Y035530*
X039441Y035583*
X039454Y035636*
X039464Y035690*
X039470Y035745*
X039472Y035800*
X039787Y013500D02*
D01*
X039785Y013554*
X039779Y013609*
X039769Y013663*
X039756Y013716*
X039739Y013769*
X039718Y013820*
X039694Y013869*
X039667Y013917*
X039636Y013962*
X039602Y014005*
X039566Y014046*
X039526Y014084*
X039484Y014120*
X039440Y014152*
X039393Y014181*
X039344Y014207*
X039294Y014229*
X039243Y014248*
X039190Y014263*
X039136Y014275*
X039082Y014282*
X039027Y014286*
X038972*
X038917Y014282*
X038863Y014275*
X038809Y014263*
X038756Y014248*
X038705Y014229*
X038655Y014207*
X038606Y014181*
X038559Y014152*
X038515Y014120*
X038473Y014084*
X038433Y014046*
X038397Y014005*
X038363Y013962*
X038332Y013917*
X038305Y013869*
X038281Y013820*
X038260Y013769*
X038243Y013716*
X038230Y013663*
X038220Y013609*
X038214Y013554*
X038213Y013500*
X038214Y013445*
X038220Y013390*
X038230Y013336*
X038243Y013283*
X038260Y013230*
X038281Y013179*
X038305Y013130*
X038332Y013082*
X038363Y013037*
X038397Y012994*
X038433Y012953*
X038473Y012915*
X038515Y012879*
X038559Y012847*
X038606Y012818*
X038655Y012792*
X038705Y012770*
X038756Y012751*
X038809Y012736*
X038863Y012724*
X038917Y012717*
X038972Y012713*
X039027*
X039082Y012717*
X039136Y012724*
X039190Y012736*
X039243Y012751*
X039294Y012770*
X039344Y012792*
X039393Y012818*
X039440Y012847*
X039484Y012879*
X039526Y012915*
X039566Y012953*
X039602Y012994*
X039636Y013037*
X039667Y013082*
X039694Y013130*
X039718Y013179*
X039739Y013230*
X039756Y013283*
X039769Y013336*
X039779Y013390*
X039785Y013445*
X039787Y013500*
X037803D02*
D01*
X037801Y013554*
X037795Y013609*
X037785Y013663*
X037772Y013716*
X037755Y013769*
X037734Y013820*
X037710Y013869*
X037683Y013917*
X037652Y013962*
X037618Y014005*
X037582Y014046*
X037542Y014084*
X037500Y014120*
X037456Y014152*
X037409Y014181*
X037360Y014207*
X037310Y014229*
X037259Y014248*
X037206Y014263*
X037152Y014275*
X037098Y014282*
X037043Y014286*
X036988*
X036933Y014282*
X036879Y014275*
X036825Y014263*
X036772Y014248*
X036721Y014229*
X036671Y014207*
X036622Y014181*
X036575Y014152*
X036531Y014120*
X036489Y014084*
X036449Y014046*
X036413Y014005*
X036379Y013962*
X036348Y013917*
X036321Y013869*
X036297Y013820*
X036276Y013769*
X036259Y013716*
X036246Y013663*
X036236Y013609*
X036230Y013554*
X036229Y013500*
X036230Y013445*
X036236Y013390*
X036246Y013336*
X036259Y013283*
X036276Y013230*
X036297Y013179*
X036321Y013130*
X036348Y013082*
X036379Y013037*
X036413Y012994*
X036449Y012953*
X036489Y012915*
X036531Y012879*
X036575Y012847*
X036622Y012818*
X036671Y012792*
X036721Y012770*
X036772Y012751*
X036825Y012736*
X036879Y012724*
X036933Y012717*
X036988Y012713*
X037043*
X037098Y012717*
X037152Y012724*
X037206Y012736*
X037259Y012751*
X037310Y012770*
X037360Y012792*
X037409Y012818*
X037456Y012847*
X037500Y012879*
X037542Y012915*
X037582Y012953*
X037618Y012994*
X037652Y013037*
X037683Y013082*
X037710Y013130*
X037734Y013179*
X037755Y013230*
X037772Y013283*
X037785Y013336*
X037795Y013390*
X037801Y013445*
X037803Y013500*
X043687D02*
D01*
X043685Y013554*
X043679Y013609*
X043669Y013663*
X043656Y013716*
X043639Y013769*
X043618Y013820*
X043594Y013869*
X043567Y013917*
X043536Y013962*
X043502Y014005*
X043466Y014046*
X043426Y014084*
X043384Y014120*
X043340Y014152*
X043293Y014181*
X043244Y014207*
X043194Y014229*
X043143Y014248*
X043090Y014263*
X043036Y014275*
X042982Y014282*
X042927Y014286*
X042872*
X042817Y014282*
X042763Y014275*
X042709Y014263*
X042656Y014248*
X042605Y014229*
X042555Y014207*
X042506Y014181*
X042459Y014152*
X042415Y014120*
X042373Y014084*
X042333Y014046*
X042297Y014005*
X042263Y013962*
X042232Y013917*
X042205Y013869*
X042181Y013820*
X042160Y013769*
X042143Y013716*
X042130Y013663*
X042120Y013609*
X042114Y013554*
X042113Y013500*
X042114Y013445*
X042120Y013390*
X042130Y013336*
X042143Y013283*
X042160Y013230*
X042181Y013179*
X042205Y013130*
X042232Y013082*
X042263Y013037*
X042297Y012994*
X042333Y012953*
X042373Y012915*
X042415Y012879*
X042459Y012847*
X042506Y012818*
X042555Y012792*
X042605Y012770*
X042656Y012751*
X042709Y012736*
X042763Y012724*
X042817Y012717*
X042872Y012713*
X042927*
X042982Y012717*
X043036Y012724*
X043090Y012736*
X043143Y012751*
X043194Y012770*
X043244Y012792*
X043293Y012818*
X043340Y012847*
X043384Y012879*
X043426Y012915*
X043466Y012953*
X043502Y012994*
X043536Y013037*
X043567Y013082*
X043594Y013130*
X043618Y013179*
X043639Y013230*
X043656Y013283*
X043669Y013336*
X043679Y013390*
X043685Y013445*
X043687Y013500*
X041703D02*
D01*
X041701Y013554*
X041695Y013609*
X041685Y013663*
X041672Y013716*
X041655Y013769*
X041634Y013820*
X041610Y013869*
X041583Y013917*
X041552Y013962*
X041518Y014005*
X041482Y014046*
X041442Y014084*
X041400Y014120*
X041356Y014152*
X041309Y014181*
X041260Y014207*
X041210Y014229*
X041159Y014248*
X041106Y014263*
X041052Y014275*
X040998Y014282*
X040943Y014286*
X040888*
X040833Y014282*
X040779Y014275*
X040725Y014263*
X040672Y014248*
X040621Y014229*
X040571Y014207*
X040522Y014181*
X040475Y014152*
X040431Y014120*
X040389Y014084*
X040349Y014046*
X040313Y014005*
X040279Y013962*
X040248Y013917*
X040221Y013869*
X040197Y013820*
X040176Y013769*
X040159Y013716*
X040146Y013663*
X040136Y013609*
X040130Y013554*
X040129Y013500*
X040130Y013445*
X040136Y013390*
X040146Y013336*
X040159Y013283*
X040176Y013230*
X040197Y013179*
X040221Y013130*
X040248Y013082*
X040279Y013037*
X040313Y012994*
X040349Y012953*
X040389Y012915*
X040431Y012879*
X040475Y012847*
X040522Y012818*
X040571Y012792*
X040621Y012770*
X040672Y012751*
X040725Y012736*
X040779Y012724*
X040833Y012717*
X040888Y012713*
X040943*
X040998Y012717*
X041052Y012724*
X041106Y012736*
X041159Y012751*
X041210Y012770*
X041260Y012792*
X041309Y012818*
X041356Y012847*
X041400Y012879*
X041442Y012915*
X041482Y012953*
X041518Y012994*
X041552Y013037*
X041583Y013082*
X041610Y013130*
X041634Y013179*
X041655Y013230*
X041672Y013283*
X041685Y013336*
X041695Y013390*
X041701Y013445*
X041703Y013500*
X031937D02*
D01*
X031935Y013554*
X031929Y013609*
X031919Y013663*
X031906Y013716*
X031889Y013769*
X031868Y013820*
X031844Y013869*
X031817Y013917*
X031786Y013962*
X031752Y014005*
X031716Y014046*
X031676Y014084*
X031634Y014120*
X031590Y014152*
X031543Y014181*
X031494Y014207*
X031444Y014229*
X031393Y014248*
X031340Y014263*
X031286Y014275*
X031232Y014282*
X031177Y014286*
X031122*
X031067Y014282*
X031013Y014275*
X030959Y014263*
X030906Y014248*
X030855Y014229*
X030805Y014207*
X030756Y014181*
X030709Y014152*
X030665Y014120*
X030623Y014084*
X030583Y014046*
X030547Y014005*
X030513Y013962*
X030482Y013917*
X030455Y013869*
X030431Y013820*
X030410Y013769*
X030393Y013716*
X030380Y013663*
X030370Y013609*
X030364Y013554*
X030363Y013500*
X030364Y013445*
X030370Y013390*
X030380Y013336*
X030393Y013283*
X030410Y013230*
X030431Y013179*
X030455Y013130*
X030482Y013082*
X030513Y013037*
X030547Y012994*
X030583Y012953*
X030623Y012915*
X030665Y012879*
X030709Y012847*
X030756Y012818*
X030805Y012792*
X030855Y012770*
X030906Y012751*
X030959Y012736*
X031013Y012724*
X031067Y012717*
X031122Y012713*
X031177*
X031232Y012717*
X031286Y012724*
X031340Y012736*
X031393Y012751*
X031444Y012770*
X031494Y012792*
X031543Y012818*
X031590Y012847*
X031634Y012879*
X031676Y012915*
X031716Y012953*
X031752Y012994*
X031786Y013037*
X031817Y013082*
X031844Y013130*
X031868Y013179*
X031889Y013230*
X031906Y013283*
X031919Y013336*
X031929Y013390*
X031935Y013445*
X031937Y013500*
X029953D02*
D01*
X029951Y013554*
X029945Y013609*
X029935Y013663*
X029922Y013716*
X029905Y013769*
X029884Y013820*
X029860Y013869*
X029833Y013917*
X029802Y013962*
X029768Y014005*
X029732Y014046*
X029692Y014084*
X029650Y014120*
X029606Y014152*
X029559Y014181*
X029510Y014207*
X029460Y014229*
X029409Y014248*
X029356Y014263*
X029302Y014275*
X029248Y014282*
X029193Y014286*
X029138*
X029083Y014282*
X029029Y014275*
X028975Y014263*
X028922Y014248*
X028871Y014229*
X028821Y014207*
X028772Y014181*
X028725Y014152*
X028681Y014120*
X028639Y014084*
X028599Y014046*
X028563Y014005*
X028529Y013962*
X028498Y013917*
X028471Y013869*
X028447Y013820*
X028426Y013769*
X028409Y013716*
X028396Y013663*
X028386Y013609*
X028380Y013554*
X028379Y013500*
X028380Y013445*
X028386Y013390*
X028396Y013336*
X028409Y013283*
X028426Y013230*
X028447Y013179*
X028471Y013130*
X028498Y013082*
X028529Y013037*
X028563Y012994*
X028599Y012953*
X028639Y012915*
X028681Y012879*
X028725Y012847*
X028772Y012818*
X028821Y012792*
X028871Y012770*
X028922Y012751*
X028975Y012736*
X029029Y012724*
X029083Y012717*
X029138Y012713*
X029193*
X029248Y012717*
X029302Y012724*
X029356Y012736*
X029409Y012751*
X029460Y012770*
X029510Y012792*
X029559Y012818*
X029606Y012847*
X029650Y012879*
X029692Y012915*
X029732Y012953*
X029768Y012994*
X029802Y013037*
X029833Y013082*
X029860Y013130*
X029884Y013179*
X029905Y013230*
X029922Y013283*
X029935Y013336*
X029945Y013390*
X029951Y013445*
X029953Y013500*
X035868D02*
D01*
X035866Y013554*
X035860Y013609*
X035850Y013663*
X035837Y013716*
X035820Y013769*
X035799Y013820*
X035775Y013869*
X035748Y013917*
X035717Y013962*
X035683Y014005*
X035647Y014046*
X035607Y014084*
X035565Y014120*
X035521Y014152*
X035474Y014181*
X035425Y014207*
X035375Y014229*
X035324Y014248*
X035271Y014263*
X035217Y014275*
X035163Y014282*
X035108Y014286*
X035053*
X034998Y014282*
X034944Y014275*
X034890Y014263*
X034837Y014248*
X034786Y014229*
X034736Y014207*
X034687Y014181*
X034640Y014152*
X034596Y014120*
X034554Y014084*
X034514Y014046*
X034478Y014005*
X034444Y013962*
X034413Y013917*
X034386Y013869*
X034362Y013820*
X034341Y013769*
X034324Y013716*
X034311Y013663*
X034301Y013609*
X034295Y013554*
X034294Y013500*
X034295Y013445*
X034301Y013390*
X034311Y013336*
X034324Y013283*
X034341Y013230*
X034362Y013179*
X034386Y013130*
X034413Y013082*
X034444Y013037*
X034478Y012994*
X034514Y012953*
X034554Y012915*
X034596Y012879*
X034640Y012847*
X034687Y012818*
X034736Y012792*
X034786Y012770*
X034837Y012751*
X034890Y012736*
X034944Y012724*
X034998Y012717*
X035053Y012713*
X035108*
X035163Y012717*
X035217Y012724*
X035271Y012736*
X035324Y012751*
X035375Y012770*
X035425Y012792*
X035474Y012818*
X035521Y012847*
X035565Y012879*
X035607Y012915*
X035647Y012953*
X035683Y012994*
X035717Y013037*
X035748Y013082*
X035775Y013130*
X035799Y013179*
X035820Y013230*
X035837Y013283*
X035850Y013336*
X035860Y013390*
X035866Y013445*
X035868Y013500*
X033884D02*
D01*
X033882Y013554*
X033876Y013609*
X033866Y013663*
X033853Y013716*
X033836Y013769*
X033815Y013820*
X033791Y013869*
X033764Y013917*
X033733Y013962*
X033699Y014005*
X033663Y014046*
X033623Y014084*
X033581Y014120*
X033537Y014152*
X033490Y014181*
X033441Y014207*
X033391Y014229*
X033340Y014248*
X033287Y014263*
X033233Y014275*
X033179Y014282*
X033124Y014286*
X033069*
X033014Y014282*
X032960Y014275*
X032906Y014263*
X032853Y014248*
X032802Y014229*
X032752Y014207*
X032703Y014181*
X032656Y014152*
X032612Y014120*
X032570Y014084*
X032530Y014046*
X032494Y014005*
X032460Y013962*
X032429Y013917*
X032402Y013869*
X032378Y013820*
X032357Y013769*
X032340Y013716*
X032327Y013663*
X032317Y013609*
X032311Y013554*
X032310Y013500*
X032311Y013445*
X032317Y013390*
X032327Y013336*
X032340Y013283*
X032357Y013230*
X032378Y013179*
X032402Y013130*
X032429Y013082*
X032460Y013037*
X032494Y012994*
X032530Y012953*
X032570Y012915*
X032612Y012879*
X032656Y012847*
X032703Y012818*
X032752Y012792*
X032802Y012770*
X032853Y012751*
X032906Y012736*
X032960Y012724*
X033014Y012717*
X033069Y012713*
X033124*
X033179Y012717*
X033233Y012724*
X033287Y012736*
X033340Y012751*
X033391Y012770*
X033441Y012792*
X033490Y012818*
X033537Y012847*
X033581Y012879*
X033623Y012915*
X033663Y012953*
X033699Y012994*
X033733Y013037*
X033764Y013082*
X033791Y013130*
X033815Y013179*
X033836Y013230*
X033853Y013283*
X033866Y013336*
X033876Y013390*
X033882Y013445*
X033884Y013500*
X024053D02*
D01*
X024051Y013554*
X024045Y013609*
X024035Y013663*
X024022Y013716*
X024005Y013769*
X023984Y013820*
X023960Y013869*
X023933Y013917*
X023902Y013962*
X023868Y014005*
X023832Y014046*
X023792Y014084*
X023750Y014120*
X023706Y014152*
X023659Y014181*
X023610Y014207*
X023560Y014229*
X023509Y014248*
X023456Y014263*
X023402Y014275*
X023348Y014282*
X023293Y014286*
X023238*
X023183Y014282*
X023129Y014275*
X023075Y014263*
X023022Y014248*
X022971Y014229*
X022921Y014207*
X022872Y014181*
X022825Y014152*
X022781Y014120*
X022739Y014084*
X022699Y014046*
X022663Y014005*
X022629Y013962*
X022598Y013917*
X022571Y013869*
X022547Y013820*
X022526Y013769*
X022509Y013716*
X022496Y013663*
X022486Y013609*
X022480Y013554*
X022479Y013500*
X022480Y013445*
X022486Y013390*
X022496Y013336*
X022509Y013283*
X022526Y013230*
X022547Y013179*
X022571Y013130*
X022598Y013082*
X022629Y013037*
X022663Y012994*
X022699Y012953*
X022739Y012915*
X022781Y012879*
X022825Y012847*
X022872Y012818*
X022921Y012792*
X022971Y012770*
X023022Y012751*
X023075Y012736*
X023129Y012724*
X023183Y012717*
X023238Y012713*
X023293*
X023348Y012717*
X023402Y012724*
X023456Y012736*
X023509Y012751*
X023560Y012770*
X023610Y012792*
X023659Y012818*
X023706Y012847*
X023750Y012879*
X023792Y012915*
X023832Y012953*
X023868Y012994*
X023902Y013037*
X023933Y013082*
X023960Y013130*
X023984Y013179*
X024005Y013230*
X024022Y013283*
X024035Y013336*
X024045Y013390*
X024051Y013445*
X024053Y013500*
X022069D02*
D01*
X022067Y013554*
X022061Y013609*
X022051Y013663*
X022038Y013716*
X022021Y013769*
X022000Y013820*
X021976Y013869*
X021949Y013917*
X021918Y013962*
X021884Y014005*
X021848Y014046*
X021808Y014084*
X021766Y014120*
X021722Y014152*
X021675Y014181*
X021626Y014207*
X021576Y014229*
X021525Y014248*
X021472Y014263*
X021418Y014275*
X021364Y014282*
X021309Y014286*
X021254*
X021199Y014282*
X021145Y014275*
X021091Y014263*
X021038Y014248*
X020987Y014229*
X020937Y014207*
X020888Y014181*
X020841Y014152*
X020797Y014120*
X020755Y014084*
X020715Y014046*
X020679Y014005*
X020645Y013962*
X020614Y013917*
X020587Y013869*
X020563Y013820*
X020542Y013769*
X020525Y013716*
X020512Y013663*
X020502Y013609*
X020496Y013554*
X020495Y013500*
X020496Y013445*
X020502Y013390*
X020512Y013336*
X020525Y013283*
X020542Y013230*
X020563Y013179*
X020587Y013130*
X020614Y013082*
X020645Y013037*
X020679Y012994*
X020715Y012953*
X020755Y012915*
X020797Y012879*
X020841Y012847*
X020888Y012818*
X020937Y012792*
X020987Y012770*
X021038Y012751*
X021091Y012736*
X021145Y012724*
X021199Y012717*
X021254Y012713*
X021309*
X021364Y012717*
X021418Y012724*
X021472Y012736*
X021525Y012751*
X021576Y012770*
X021626Y012792*
X021675Y012818*
X021722Y012847*
X021766Y012879*
X021808Y012915*
X021848Y012953*
X021884Y012994*
X021918Y013037*
X021949Y013082*
X021976Y013130*
X022000Y013179*
X022021Y013230*
X022038Y013283*
X022051Y013336*
X022061Y013390*
X022067Y013445*
X022069Y013500*
X028003D02*
D01*
X028001Y013554*
X027995Y013609*
X027985Y013663*
X027972Y013716*
X027955Y013769*
X027934Y013820*
X027910Y013869*
X027883Y013917*
X027852Y013962*
X027818Y014005*
X027782Y014046*
X027742Y014084*
X027700Y014120*
X027656Y014152*
X027609Y014181*
X027560Y014207*
X027510Y014229*
X027459Y014248*
X027406Y014263*
X027352Y014275*
X027298Y014282*
X027243Y014286*
X027188*
X027133Y014282*
X027079Y014275*
X027025Y014263*
X026972Y014248*
X026921Y014229*
X026871Y014207*
X026822Y014181*
X026775Y014152*
X026731Y014120*
X026689Y014084*
X026649Y014046*
X026613Y014005*
X026579Y013962*
X026548Y013917*
X026521Y013869*
X026497Y013820*
X026476Y013769*
X026459Y013716*
X026446Y013663*
X026436Y013609*
X026430Y013554*
X026429Y013500*
X026430Y013445*
X026436Y013390*
X026446Y013336*
X026459Y013283*
X026476Y013230*
X026497Y013179*
X026521Y013130*
X026548Y013082*
X026579Y013037*
X026613Y012994*
X026649Y012953*
X026689Y012915*
X026731Y012879*
X026775Y012847*
X026822Y012818*
X026871Y012792*
X026921Y012770*
X026972Y012751*
X027025Y012736*
X027079Y012724*
X027133Y012717*
X027188Y012713*
X027243*
X027298Y012717*
X027352Y012724*
X027406Y012736*
X027459Y012751*
X027510Y012770*
X027560Y012792*
X027609Y012818*
X027656Y012847*
X027700Y012879*
X027742Y012915*
X027782Y012953*
X027818Y012994*
X027852Y013037*
X027883Y013082*
X027910Y013130*
X027934Y013179*
X027955Y013230*
X027972Y013283*
X027985Y013336*
X027995Y013390*
X028001Y013445*
X028003Y013500*
X026019D02*
D01*
X026017Y013554*
X026011Y013609*
X026001Y013663*
X025988Y013716*
X025971Y013769*
X025950Y013820*
X025926Y013869*
X025899Y013917*
X025868Y013962*
X025834Y014005*
X025798Y014046*
X025758Y014084*
X025716Y014120*
X025672Y014152*
X025625Y014181*
X025576Y014207*
X025526Y014229*
X025475Y014248*
X025422Y014263*
X025368Y014275*
X025314Y014282*
X025259Y014286*
X025204*
X025149Y014282*
X025095Y014275*
X025041Y014263*
X024988Y014248*
X024937Y014229*
X024887Y014207*
X024838Y014181*
X024791Y014152*
X024747Y014120*
X024705Y014084*
X024665Y014046*
X024629Y014005*
X024595Y013962*
X024564Y013917*
X024537Y013869*
X024513Y013820*
X024492Y013769*
X024475Y013716*
X024462Y013663*
X024452Y013609*
X024446Y013554*
X024445Y013500*
X024446Y013445*
X024452Y013390*
X024462Y013336*
X024475Y013283*
X024492Y013230*
X024513Y013179*
X024537Y013130*
X024564Y013082*
X024595Y013037*
X024629Y012994*
X024665Y012953*
X024705Y012915*
X024747Y012879*
X024791Y012847*
X024838Y012818*
X024887Y012792*
X024937Y012770*
X024988Y012751*
X025041Y012736*
X025095Y012724*
X025149Y012717*
X025204Y012713*
X025259*
X025314Y012717*
X025368Y012724*
X025422Y012736*
X025475Y012751*
X025526Y012770*
X025576Y012792*
X025625Y012818*
X025672Y012847*
X025716Y012879*
X025758Y012915*
X025798Y012953*
X025834Y012994*
X025868Y013037*
X025899Y013082*
X025926Y013130*
X025950Y013179*
X025971Y013230*
X025988Y013283*
X026001Y013336*
X026011Y013390*
X026017Y013445*
X026019Y013500*
X016149D02*
D01*
X016147Y013554*
X016141Y013609*
X016131Y013663*
X016118Y013716*
X016101Y013769*
X016080Y013820*
X016056Y013869*
X016029Y013917*
X015998Y013962*
X015964Y014005*
X015928Y014046*
X015888Y014084*
X015846Y014120*
X015802Y014152*
X015755Y014181*
X015706Y014207*
X015656Y014229*
X015605Y014248*
X015552Y014263*
X015498Y014275*
X015444Y014282*
X015389Y014286*
X015334*
X015279Y014282*
X015225Y014275*
X015171Y014263*
X015118Y014248*
X015067Y014229*
X015017Y014207*
X014968Y014181*
X014921Y014152*
X014877Y014120*
X014835Y014084*
X014795Y014046*
X014759Y014005*
X014725Y013962*
X014694Y013917*
X014667Y013869*
X014643Y013820*
X014622Y013769*
X014605Y013716*
X014592Y013663*
X014582Y013609*
X014576Y013554*
X014575Y013500*
X014576Y013445*
X014582Y013390*
X014592Y013336*
X014605Y013283*
X014622Y013230*
X014643Y013179*
X014667Y013130*
X014694Y013082*
X014725Y013037*
X014759Y012994*
X014795Y012953*
X014835Y012915*
X014877Y012879*
X014921Y012847*
X014968Y012818*
X015017Y012792*
X015067Y012770*
X015118Y012751*
X015171Y012736*
X015225Y012724*
X015279Y012717*
X015334Y012713*
X015389*
X015444Y012717*
X015498Y012724*
X015552Y012736*
X015605Y012751*
X015656Y012770*
X015706Y012792*
X015755Y012818*
X015802Y012847*
X015846Y012879*
X015888Y012915*
X015928Y012953*
X015964Y012994*
X015998Y013037*
X016029Y013082*
X016056Y013130*
X016080Y013179*
X016101Y013230*
X016118Y013283*
X016131Y013336*
X016141Y013390*
X016147Y013445*
X016149Y013500*
X014165D02*
D01*
X014163Y013554*
X014157Y013609*
X014147Y013663*
X014134Y013716*
X014117Y013769*
X014096Y013820*
X014072Y013869*
X014045Y013917*
X014014Y013962*
X013980Y014005*
X013944Y014046*
X013904Y014084*
X013862Y014120*
X013818Y014152*
X013771Y014181*
X013722Y014207*
X013672Y014229*
X013621Y014248*
X013568Y014263*
X013514Y014275*
X013460Y014282*
X013405Y014286*
X013350*
X013295Y014282*
X013241Y014275*
X013187Y014263*
X013134Y014248*
X013083Y014229*
X013033Y014207*
X012984Y014181*
X012937Y014152*
X012893Y014120*
X012851Y014084*
X012811Y014046*
X012775Y014005*
X012741Y013962*
X012710Y013917*
X012683Y013869*
X012659Y013820*
X012638Y013769*
X012621Y013716*
X012608Y013663*
X012598Y013609*
X012592Y013554*
X012591Y013500*
X012592Y013445*
X012598Y013390*
X012608Y013336*
X012621Y013283*
X012638Y013230*
X012659Y013179*
X012683Y013130*
X012710Y013082*
X012741Y013037*
X012775Y012994*
X012811Y012953*
X012851Y012915*
X012893Y012879*
X012937Y012847*
X012984Y012818*
X013033Y012792*
X013083Y012770*
X013134Y012751*
X013187Y012736*
X013241Y012724*
X013295Y012717*
X013350Y012713*
X013405*
X013460Y012717*
X013514Y012724*
X013568Y012736*
X013621Y012751*
X013672Y012770*
X013722Y012792*
X013771Y012818*
X013818Y012847*
X013862Y012879*
X013904Y012915*
X013944Y012953*
X013980Y012994*
X014014Y013037*
X014045Y013082*
X014072Y013130*
X014096Y013179*
X014117Y013230*
X014134Y013283*
X014147Y013336*
X014157Y013390*
X014163Y013445*
X014165Y013500*
X020103D02*
D01*
X020101Y013554*
X020095Y013609*
X020085Y013663*
X020072Y013716*
X020055Y013769*
X020034Y013820*
X020010Y013869*
X019983Y013917*
X019952Y013962*
X019918Y014005*
X019882Y014046*
X019842Y014084*
X019800Y014120*
X019756Y014152*
X019709Y014181*
X019660Y014207*
X019610Y014229*
X019559Y014248*
X019506Y014263*
X019452Y014275*
X019398Y014282*
X019343Y014286*
X019288*
X019233Y014282*
X019179Y014275*
X019125Y014263*
X019072Y014248*
X019021Y014229*
X018971Y014207*
X018922Y014181*
X018875Y014152*
X018831Y014120*
X018789Y014084*
X018749Y014046*
X018713Y014005*
X018679Y013962*
X018648Y013917*
X018621Y013869*
X018597Y013820*
X018576Y013769*
X018559Y013716*
X018546Y013663*
X018536Y013609*
X018530Y013554*
X018529Y013500*
X018530Y013445*
X018536Y013390*
X018546Y013336*
X018559Y013283*
X018576Y013230*
X018597Y013179*
X018621Y013130*
X018648Y013082*
X018679Y013037*
X018713Y012994*
X018749Y012953*
X018789Y012915*
X018831Y012879*
X018875Y012847*
X018922Y012818*
X018971Y012792*
X019021Y012770*
X019072Y012751*
X019125Y012736*
X019179Y012724*
X019233Y012717*
X019288Y012713*
X019343*
X019398Y012717*
X019452Y012724*
X019506Y012736*
X019559Y012751*
X019610Y012770*
X019660Y012792*
X019709Y012818*
X019756Y012847*
X019800Y012879*
X019842Y012915*
X019882Y012953*
X019918Y012994*
X019952Y013037*
X019983Y013082*
X020010Y013130*
X020034Y013179*
X020055Y013230*
X020072Y013283*
X020085Y013336*
X020095Y013390*
X020101Y013445*
X020103Y013500*
X018119D02*
D01*
X018117Y013554*
X018111Y013609*
X018101Y013663*
X018088Y013716*
X018071Y013769*
X018050Y013820*
X018026Y013869*
X017999Y013917*
X017968Y013962*
X017934Y014005*
X017898Y014046*
X017858Y014084*
X017816Y014120*
X017772Y014152*
X017725Y014181*
X017676Y014207*
X017626Y014229*
X017575Y014248*
X017522Y014263*
X017468Y014275*
X017414Y014282*
X017359Y014286*
X017304*
X017249Y014282*
X017195Y014275*
X017141Y014263*
X017088Y014248*
X017037Y014229*
X016987Y014207*
X016938Y014181*
X016891Y014152*
X016847Y014120*
X016805Y014084*
X016765Y014046*
X016729Y014005*
X016695Y013962*
X016664Y013917*
X016637Y013869*
X016613Y013820*
X016592Y013769*
X016575Y013716*
X016562Y013663*
X016552Y013609*
X016546Y013554*
X016545Y013500*
X016546Y013445*
X016552Y013390*
X016562Y013336*
X016575Y013283*
X016592Y013230*
X016613Y013179*
X016637Y013130*
X016664Y013082*
X016695Y013037*
X016729Y012994*
X016765Y012953*
X016805Y012915*
X016847Y012879*
X016891Y012847*
X016938Y012818*
X016987Y012792*
X017037Y012770*
X017088Y012751*
X017141Y012736*
X017195Y012724*
X017249Y012717*
X017304Y012713*
X017359*
X017414Y012717*
X017468Y012724*
X017522Y012736*
X017575Y012751*
X017626Y012770*
X017676Y012792*
X017725Y012818*
X017772Y012847*
X017816Y012879*
X017858Y012915*
X017898Y012953*
X017934Y012994*
X017968Y013037*
X017999Y013082*
X018026Y013130*
X018050Y013179*
X018071Y013230*
X018088Y013283*
X018101Y013336*
X018111Y013390*
X018117Y013445*
X018119Y013500*
X049567Y035900D02*
D01*
X049565Y035954*
X049559Y036009*
X049549Y036063*
X049536Y036116*
X049519Y036169*
X049498Y036220*
X049474Y036269*
X049447Y036317*
X049416Y036362*
X049382Y036405*
X049346Y036446*
X049306Y036484*
X049264Y036520*
X049220Y036552*
X049173Y036581*
X049124Y036607*
X049074Y036629*
X049023Y036648*
X048970Y036663*
X048916Y036675*
X048862Y036682*
X048807Y036686*
X048752*
X048697Y036682*
X048643Y036675*
X048589Y036663*
X048536Y036648*
X048485Y036629*
X048435Y036607*
X048386Y036581*
X048339Y036552*
X048295Y036520*
X048253Y036484*
X048213Y036446*
X048177Y036405*
X048143Y036362*
X048112Y036317*
X048085Y036269*
X048061Y036220*
X048040Y036169*
X048023Y036116*
X048010Y036063*
X048000Y036009*
X047994Y035954*
X047993Y035900*
X047994Y035845*
X048000Y035790*
X048010Y035736*
X048023Y035683*
X048040Y035630*
X048061Y035579*
X048085Y035530*
X048112Y035482*
X048143Y035437*
X048177Y035394*
X048213Y035353*
X048253Y035315*
X048295Y035279*
X048339Y035247*
X048386Y035218*
X048435Y035192*
X048485Y035170*
X048536Y035151*
X048589Y035136*
X048643Y035124*
X048697Y035117*
X048752Y035113*
X048807*
X048862Y035117*
X048916Y035124*
X048970Y035136*
X049023Y035151*
X049074Y035170*
X049124Y035192*
X049173Y035218*
X049220Y035247*
X049264Y035279*
X049306Y035315*
X049346Y035353*
X049382Y035394*
X049416Y035437*
X049447Y035482*
X049474Y035530*
X049498Y035579*
X049519Y035630*
X049536Y035683*
X049549Y035736*
X049559Y035790*
X049565Y035845*
X049567Y035900*
X047582D02*
D01*
X047580Y035954*
X047574Y036009*
X047564Y036063*
X047551Y036116*
X047534Y036169*
X047513Y036220*
X047489Y036269*
X047462Y036317*
X047431Y036362*
X047397Y036405*
X047361Y036446*
X047321Y036484*
X047279Y036520*
X047235Y036552*
X047188Y036581*
X047139Y036607*
X047089Y036629*
X047038Y036648*
X046985Y036663*
X046931Y036675*
X046877Y036682*
X046822Y036686*
X046767*
X046712Y036682*
X046658Y036675*
X046604Y036663*
X046551Y036648*
X046500Y036629*
X046450Y036607*
X046401Y036581*
X046354Y036552*
X046310Y036520*
X046268Y036484*
X046228Y036446*
X046192Y036405*
X046158Y036362*
X046127Y036317*
X046100Y036269*
X046076Y036220*
X046055Y036169*
X046038Y036116*
X046025Y036063*
X046015Y036009*
X046009Y035954*
X046008Y035900*
X046009Y035845*
X046015Y035790*
X046025Y035736*
X046038Y035683*
X046055Y035630*
X046076Y035579*
X046100Y035530*
X046127Y035482*
X046158Y035437*
X046192Y035394*
X046228Y035353*
X046268Y035315*
X046310Y035279*
X046354Y035247*
X046401Y035218*
X046450Y035192*
X046500Y035170*
X046551Y035151*
X046604Y035136*
X046658Y035124*
X046712Y035117*
X046767Y035113*
X046822*
X046877Y035117*
X046931Y035124*
X046985Y035136*
X047038Y035151*
X047089Y035170*
X047139Y035192*
X047188Y035218*
X047235Y035247*
X047279Y035279*
X047321Y035315*
X047361Y035353*
X047397Y035394*
X047431Y035437*
X047462Y035482*
X047489Y035530*
X047513Y035579*
X047534Y035630*
X047551Y035683*
X047564Y035736*
X047574Y035790*
X047580Y035845*
X047582Y035900*
X060122D02*
D01*
X060120Y035954*
X060114Y036009*
X060104Y036063*
X060091Y036116*
X060074Y036169*
X060053Y036220*
X060029Y036269*
X060002Y036317*
X059971Y036362*
X059937Y036405*
X059901Y036446*
X059861Y036484*
X059819Y036520*
X059775Y036552*
X059728Y036581*
X059679Y036607*
X059629Y036629*
X059578Y036648*
X059525Y036663*
X059471Y036675*
X059417Y036682*
X059362Y036686*
X059307*
X059252Y036682*
X059198Y036675*
X059144Y036663*
X059091Y036648*
X059040Y036629*
X058990Y036607*
X058941Y036581*
X058894Y036552*
X058850Y036520*
X058808Y036484*
X058768Y036446*
X058732Y036405*
X058698Y036362*
X058667Y036317*
X058640Y036269*
X058616Y036220*
X058595Y036169*
X058578Y036116*
X058565Y036063*
X058555Y036009*
X058549Y035954*
X058548Y035900*
X058549Y035845*
X058555Y035790*
X058565Y035736*
X058578Y035683*
X058595Y035630*
X058616Y035579*
X058640Y035530*
X058667Y035482*
X058698Y035437*
X058732Y035394*
X058768Y035353*
X058808Y035315*
X058850Y035279*
X058894Y035247*
X058941Y035218*
X058990Y035192*
X059040Y035170*
X059091Y035151*
X059144Y035136*
X059198Y035124*
X059252Y035117*
X059307Y035113*
X059362*
X059417Y035117*
X059471Y035124*
X059525Y035136*
X059578Y035151*
X059629Y035170*
X059679Y035192*
X059728Y035218*
X059775Y035247*
X059819Y035279*
X059861Y035315*
X059901Y035353*
X059937Y035394*
X059971Y035437*
X060002Y035482*
X060029Y035530*
X060053Y035579*
X060074Y035630*
X060091Y035683*
X060104Y035736*
X060114Y035790*
X060120Y035845*
X060122Y035900*
X056122D02*
D01*
X056120Y035954*
X056114Y036009*
X056104Y036063*
X056091Y036116*
X056074Y036169*
X056053Y036220*
X056029Y036269*
X056002Y036317*
X055971Y036362*
X055937Y036405*
X055901Y036446*
X055861Y036484*
X055819Y036520*
X055775Y036552*
X055728Y036581*
X055679Y036607*
X055629Y036629*
X055578Y036648*
X055525Y036663*
X055471Y036675*
X055417Y036682*
X055362Y036686*
X055307*
X055252Y036682*
X055198Y036675*
X055144Y036663*
X055091Y036648*
X055040Y036629*
X054990Y036607*
X054941Y036581*
X054894Y036552*
X054850Y036520*
X054808Y036484*
X054768Y036446*
X054732Y036405*
X054698Y036362*
X054667Y036317*
X054640Y036269*
X054616Y036220*
X054595Y036169*
X054578Y036116*
X054565Y036063*
X054555Y036009*
X054549Y035954*
X054548Y035900*
X054549Y035845*
X054555Y035790*
X054565Y035736*
X054578Y035683*
X054595Y035630*
X054616Y035579*
X054640Y035530*
X054667Y035482*
X054698Y035437*
X054732Y035394*
X054768Y035353*
X054808Y035315*
X054850Y035279*
X054894Y035247*
X054941Y035218*
X054990Y035192*
X055040Y035170*
X055091Y035151*
X055144Y035136*
X055198Y035124*
X055252Y035117*
X055307Y035113*
X055362*
X055417Y035117*
X055471Y035124*
X055525Y035136*
X055578Y035151*
X055629Y035170*
X055679Y035192*
X055728Y035218*
X055775Y035247*
X055819Y035279*
X055861Y035315*
X055901Y035353*
X055937Y035394*
X055971Y035437*
X056002Y035482*
X056029Y035530*
X056053Y035579*
X056074Y035630*
X056091Y035683*
X056104Y035736*
X056114Y035790*
X056120Y035845*
X056122Y035900*
X058137D02*
D01*
X058135Y035954*
X058129Y036009*
X058119Y036063*
X058106Y036116*
X058089Y036169*
X058068Y036220*
X058044Y036269*
X058017Y036317*
X057986Y036362*
X057952Y036405*
X057916Y036446*
X057876Y036484*
X057834Y036520*
X057790Y036552*
X057743Y036581*
X057694Y036607*
X057644Y036629*
X057593Y036648*
X057540Y036663*
X057486Y036675*
X057432Y036682*
X057377Y036686*
X057322*
X057267Y036682*
X057213Y036675*
X057159Y036663*
X057106Y036648*
X057055Y036629*
X057005Y036607*
X056956Y036581*
X056909Y036552*
X056865Y036520*
X056823Y036484*
X056783Y036446*
X056747Y036405*
X056713Y036362*
X056682Y036317*
X056655Y036269*
X056631Y036220*
X056610Y036169*
X056593Y036116*
X056580Y036063*
X056570Y036009*
X056564Y035954*
X056563Y035900*
X056564Y035845*
X056570Y035790*
X056580Y035736*
X056593Y035683*
X056610Y035630*
X056631Y035579*
X056655Y035530*
X056682Y035482*
X056713Y035437*
X056747Y035394*
X056783Y035353*
X056823Y035315*
X056865Y035279*
X056909Y035247*
X056956Y035218*
X057005Y035192*
X057055Y035170*
X057106Y035151*
X057159Y035136*
X057213Y035124*
X057267Y035117*
X057322Y035113*
X057377*
X057432Y035117*
X057486Y035124*
X057540Y035136*
X057593Y035151*
X057644Y035170*
X057694Y035192*
X057743Y035218*
X057790Y035247*
X057834Y035279*
X057876Y035315*
X057916Y035353*
X057952Y035394*
X057986Y035437*
X058017Y035482*
X058044Y035530*
X058068Y035579*
X058089Y035630*
X058106Y035683*
X058119Y035736*
X058129Y035790*
X058135Y035845*
X058137Y035900*
X057872Y013550D02*
D01*
X057870Y013604*
X057864Y013659*
X057854Y013713*
X057841Y013766*
X057824Y013819*
X057803Y013870*
X057779Y013919*
X057752Y013967*
X057721Y014012*
X057687Y014055*
X057651Y014096*
X057611Y014134*
X057569Y014170*
X057525Y014202*
X057478Y014231*
X057429Y014257*
X057379Y014279*
X057328Y014298*
X057275Y014313*
X057221Y014325*
X057167Y014332*
X057112Y014336*
X057057*
X057002Y014332*
X056948Y014325*
X056894Y014313*
X056841Y014298*
X056790Y014279*
X056740Y014257*
X056691Y014231*
X056644Y014202*
X056600Y014170*
X056558Y014134*
X056518Y014096*
X056482Y014055*
X056448Y014012*
X056417Y013967*
X056390Y013919*
X056366Y013870*
X056345Y013819*
X056328Y013766*
X056315Y013713*
X056305Y013659*
X056299Y013604*
X056298Y013550*
X056299Y013495*
X056305Y013440*
X056315Y013386*
X056328Y013333*
X056345Y013280*
X056366Y013229*
X056390Y013180*
X056417Y013132*
X056448Y013087*
X056482Y013044*
X056518Y013003*
X056558Y012965*
X056600Y012929*
X056644Y012897*
X056691Y012868*
X056740Y012842*
X056790Y012820*
X056841Y012801*
X056894Y012786*
X056948Y012774*
X057002Y012767*
X057057Y012763*
X057112*
X057167Y012767*
X057221Y012774*
X057275Y012786*
X057328Y012801*
X057379Y012820*
X057429Y012842*
X057478Y012868*
X057525Y012897*
X057569Y012929*
X057611Y012965*
X057651Y013003*
X057687Y013044*
X057721Y013087*
X057752Y013132*
X057779Y013180*
X057803Y013229*
X057824Y013280*
X057841Y013333*
X057854Y013386*
X057864Y013440*
X057870Y013495*
X057872Y013550*
X059856D02*
D01*
X059854Y013604*
X059848Y013659*
X059838Y013713*
X059825Y013766*
X059808Y013819*
X059787Y013870*
X059763Y013919*
X059736Y013967*
X059705Y014012*
X059671Y014055*
X059635Y014096*
X059595Y014134*
X059553Y014170*
X059509Y014202*
X059462Y014231*
X059413Y014257*
X059363Y014279*
X059312Y014298*
X059259Y014313*
X059205Y014325*
X059151Y014332*
X059096Y014336*
X059041*
X058986Y014332*
X058932Y014325*
X058878Y014313*
X058825Y014298*
X058774Y014279*
X058724Y014257*
X058675Y014231*
X058628Y014202*
X058584Y014170*
X058542Y014134*
X058502Y014096*
X058466Y014055*
X058432Y014012*
X058401Y013967*
X058374Y013919*
X058350Y013870*
X058329Y013819*
X058312Y013766*
X058299Y013713*
X058289Y013659*
X058283Y013604*
X058282Y013550*
X058283Y013495*
X058289Y013440*
X058299Y013386*
X058312Y013333*
X058329Y013280*
X058350Y013229*
X058374Y013180*
X058401Y013132*
X058432Y013087*
X058466Y013044*
X058502Y013003*
X058542Y012965*
X058584Y012929*
X058628Y012897*
X058675Y012868*
X058724Y012842*
X058774Y012820*
X058825Y012801*
X058878Y012786*
X058932Y012774*
X058986Y012767*
X059041Y012763*
X059096*
X059151Y012767*
X059205Y012774*
X059259Y012786*
X059312Y012801*
X059363Y012820*
X059413Y012842*
X059462Y012868*
X059509Y012897*
X059553Y012929*
X059595Y012965*
X059635Y013003*
X059671Y013044*
X059705Y013087*
X059736Y013132*
X059763Y013180*
X059787Y013229*
X059808Y013280*
X059825Y013333*
X059838Y013386*
X059848Y013440*
X059854Y013495*
X059856Y013550*
X046487Y013650D02*
D01*
X046485Y013704*
X046479Y013759*
X046469Y013813*
X046456Y013866*
X046439Y013919*
X046418Y013970*
X046394Y014019*
X046367Y014067*
X046336Y014112*
X046302Y014155*
X046266Y014196*
X046226Y014234*
X046184Y014270*
X046140Y014302*
X046093Y014331*
X046044Y014357*
X045994Y014379*
X045943Y014398*
X045890Y014413*
X045836Y014425*
X045782Y014432*
X045727Y014436*
X045672*
X045617Y014432*
X045563Y014425*
X045509Y014413*
X045456Y014398*
X045405Y014379*
X045355Y014357*
X045306Y014331*
X045259Y014302*
X045215Y014270*
X045173Y014234*
X045133Y014196*
X045097Y014155*
X045063Y014112*
X045032Y014067*
X045005Y014019*
X044981Y013970*
X044960Y013919*
X044943Y013866*
X044930Y013813*
X044920Y013759*
X044914Y013704*
X044913Y013650*
X044914Y013595*
X044920Y013540*
X044930Y013486*
X044943Y013433*
X044960Y013380*
X044981Y013329*
X045005Y013280*
X045032Y013232*
X045063Y013187*
X045097Y013144*
X045133Y013103*
X045173Y013065*
X045215Y013029*
X045259Y012997*
X045306Y012968*
X045355Y012942*
X045405Y012920*
X045456Y012901*
X045509Y012886*
X045563Y012874*
X045617Y012867*
X045672Y012863*
X045727*
X045782Y012867*
X045836Y012874*
X045890Y012886*
X045943Y012901*
X045994Y012920*
X046044Y012942*
X046093Y012968*
X046140Y012997*
X046184Y013029*
X046226Y013065*
X046266Y013103*
X046302Y013144*
X046336Y013187*
X046367Y013232*
X046394Y013280*
X046418Y013329*
X046439Y013380*
X046456Y013433*
X046469Y013486*
X046479Y013540*
X046485Y013595*
X046487Y013650*
X048472D02*
D01*
X048470Y013704*
X048464Y013759*
X048454Y013813*
X048441Y013866*
X048424Y013919*
X048403Y013970*
X048379Y014019*
X048352Y014067*
X048321Y014112*
X048287Y014155*
X048251Y014196*
X048211Y014234*
X048169Y014270*
X048125Y014302*
X048078Y014331*
X048029Y014357*
X047979Y014379*
X047928Y014398*
X047875Y014413*
X047821Y014425*
X047767Y014432*
X047712Y014436*
X047657*
X047602Y014432*
X047548Y014425*
X047494Y014413*
X047441Y014398*
X047390Y014379*
X047340Y014357*
X047291Y014331*
X047244Y014302*
X047200Y014270*
X047158Y014234*
X047118Y014196*
X047082Y014155*
X047048Y014112*
X047017Y014067*
X046990Y014019*
X046966Y013970*
X046945Y013919*
X046928Y013866*
X046915Y013813*
X046905Y013759*
X046899Y013704*
X046898Y013650*
X046899Y013595*
X046905Y013540*
X046915Y013486*
X046928Y013433*
X046945Y013380*
X046966Y013329*
X046990Y013280*
X047017Y013232*
X047048Y013187*
X047082Y013144*
X047118Y013103*
X047158Y013065*
X047200Y013029*
X047244Y012997*
X047291Y012968*
X047340Y012942*
X047390Y012920*
X047441Y012901*
X047494Y012886*
X047548Y012874*
X047602Y012867*
X047657Y012863*
X047712*
X047767Y012867*
X047821Y012874*
X047875Y012886*
X047928Y012901*
X047979Y012920*
X048029Y012942*
X048078Y012968*
X048125Y012997*
X048169Y013029*
X048211Y013065*
X048251Y013103*
X048287Y013144*
X048321Y013187*
X048352Y013232*
X048379Y013280*
X048403Y013329*
X048424Y013380*
X048441Y013433*
X048454Y013486*
X048464Y013540*
X048470Y013595*
X048472Y013650*
X060913Y038609D02*
Y040650D01*
X011700Y038609D02*
Y040650D01*
X037956Y040550D02*
X060913D01*
X011700D02*
X034337D01*
X060313Y040750D02*
X060913Y040550D01*
X060313Y040350D02*
X060913Y040550D01*
X011700D02*
X012300Y040350D01*
X011700Y040550D02*
X012300Y040750D01*
X061063Y010900D02*
X063100D01*
X061063Y038459D02*
X063100D01*
X063000Y010900D02*
Y022960D01*
Y026079D02*
Y038459D01*
Y010900D02*
X063200Y011500D01*
X062800D02*
X063000Y010900D01*
X062800Y037859D02*
X063000Y038459D01*
X063200Y037859*
X018416Y035350D02*
X019466Y036400D01*
X018566Y035150D02*
X019641Y036225D01*
X016416Y036250D02*
X017466Y035200D01*
Y035150D02*
Y035200D01*
X016616Y036450D02*
X017666Y035400D01*
X014516Y035350D02*
X015566Y036400D01*
X014666Y035150D02*
X015741Y036225D01*
X012516Y036250D02*
X013566Y035200D01*
Y035150D02*
Y035200D01*
X012716Y036450D02*
X013766Y035400D01*
X026300Y035350D02*
X027350Y036400D01*
X026450Y035150D02*
X027525Y036225D01*
X024300Y036250D02*
X025350Y035200D01*
Y035150D02*
Y035200D01*
X024500Y036450D02*
X025550Y035400D01*
X022400Y035350D02*
X023450Y036400D01*
X022550Y035150D02*
X023625Y036225D01*
X020400Y036250D02*
X021450Y035200D01*
Y035150D02*
Y035200D01*
X020600Y036450D02*
X021650Y035400D01*
X034116Y035350D02*
X035166Y036400D01*
X034266Y035150D02*
X035341Y036225D01*
X032116Y036250D02*
X033166Y035200D01*
Y035150D02*
Y035200D01*
X032316Y036450D02*
X033366Y035400D01*
X030216Y035350D02*
X031266Y036400D01*
X030366Y035150D02*
X031441Y036225D01*
X028216Y036250D02*
X029266Y035200D01*
Y035150D02*
Y035200D01*
X028416Y036450D02*
X029466Y035400D01*
X042084Y035350D02*
X043134Y036400D01*
X042234Y035150D02*
X043309Y036225D01*
X040084Y036250D02*
X041134Y035200D01*
Y035150D02*
Y035200D01*
X040284Y036450D02*
X041334Y035400D01*
X038100Y035350D02*
X039150Y036400D01*
X038250Y035150D02*
X039325Y036225D01*
X036100Y036250D02*
X037150Y035200D01*
Y035150D02*
Y035200D01*
X036300Y036450D02*
X037350Y035400D01*
X036550Y012900D02*
X037600Y013950D01*
X036375Y013075D02*
X037450Y014150D01*
X038550Y014100D02*
X039600Y013050D01*
X038550Y014100D02*
Y014150D01*
X038350Y013900D02*
X039400Y012850D01*
X040450Y012900D02*
X041500Y013950D01*
X040275Y013075D02*
X041350Y014150D01*
X042450Y014100D02*
X043500Y013050D01*
X042450Y014100D02*
Y014150D01*
X042250Y013900D02*
X043300Y012850D01*
X028700Y012900D02*
X029750Y013950D01*
X028525Y013075D02*
X029600Y014150D01*
X030700Y014100D02*
X031750Y013050D01*
X030700Y014100D02*
Y014150D01*
X030500Y013900D02*
X031550Y012850D01*
X032631Y012900D02*
X033681Y013950D01*
X032456Y013075D02*
X033531Y014150D01*
X034631Y014100D02*
X035681Y013050D01*
X034631Y014100D02*
Y014150D01*
X034431Y013900D02*
X035481Y012850D01*
X020816Y012900D02*
X021866Y013950D01*
X020641Y013075D02*
X021716Y014150D01*
X022816Y014100D02*
X023866Y013050D01*
X022816Y014100D02*
Y014150D01*
X022616Y013900D02*
X023666Y012850D01*
X024766Y012900D02*
X025816Y013950D01*
X024591Y013075D02*
X025666Y014150D01*
X026766Y014100D02*
X027816Y013050D01*
X026766Y014100D02*
Y014150D01*
X026566Y013900D02*
X027616Y012850D01*
X012912Y012900D02*
X013962Y013950D01*
X012737Y013075D02*
X013812Y014150D01*
X014912Y014100D02*
X015962Y013050D01*
X014912Y014100D02*
Y014150D01*
X014712Y013900D02*
X015762Y012850D01*
X016866Y012900D02*
X017916Y013950D01*
X016691Y013075D02*
X017766Y014150D01*
X018866Y014100D02*
X019916Y013050D01*
X018866Y014100D02*
Y014150D01*
X018666Y013900D02*
X019716Y012850D01*
X046329Y035300D02*
X047379Y036350D01*
X046154Y035475D02*
X047229Y036550D01*
X048329Y036500D02*
X049379Y035450D01*
X048329Y036500D02*
Y036550D01*
X048129Y036300D02*
X049179Y035250D01*
X058900D02*
X059975Y036325D01*
X058750Y035450D02*
X059800Y036500D01*
X054900Y035250D02*
X055975Y036325D01*
X054750Y035450D02*
X055800Y036500D01*
X056950Y036550D02*
X058000Y035500D01*
X056750Y036350D02*
X057800Y035300D01*
X058484Y013100D02*
X059534Y014150D01*
X058634Y012900D02*
X059709Y013975D01*
X056484Y014000D02*
X057534Y012950D01*
Y012900D02*
Y012950D01*
X056684Y014200D02*
X057734Y013150D01*
X047100Y013200D02*
X048150Y014250D01*
X047250Y013000D02*
X048325Y014075D01*
X045100Y014100D02*
X046150Y013050D01*
Y013000D02*
Y013050D01*
X045300Y014300D02*
X046350Y013250D01*
G54D96*
X013116Y031871D02*
Y032029D01*
X013037Y031950D02*
X013194D01*
X042900Y017271D02*
Y017429D01*
X042821Y017350D02*
X042979D01*
X021000Y031871D02*
Y032029D01*
X020921Y031950D02*
X021079D01*
X035065Y017271D02*
Y017429D01*
X034987Y017350D02*
X035144D01*
X028816Y031871D02*
Y032029D01*
X028737Y031950D02*
X028894D01*
X027171Y017271D02*
Y017429D01*
X027093Y017350D02*
X027250D01*
X036784Y031871D02*
Y032029D01*
X036706Y031950D02*
X036863D01*
X019216Y017271D02*
Y017429D01*
X019137Y017350D02*
X019294D01*
X058000Y022521D02*
Y022679D01*
X057921Y022600D02*
X058079D01*
X058000Y021521D02*
Y021679D01*
X057921Y021600D02*
X058079D01*
X058000Y020521D02*
Y020679D01*
X057921Y020600D02*
X058079D01*
X014016Y034209D02*
Y034367D01*
X013937Y034288D02*
X014094D01*
X042000Y014921D02*
Y015079D01*
X041921Y015000D02*
X042079D01*
X021900Y034209D02*
Y034367D01*
X021821Y034288D02*
X021979D01*
X034165Y014921D02*
Y015079D01*
X034087Y015000D02*
X034244D01*
X029616Y034209D02*
Y034367D01*
X029537Y034288D02*
X029694D01*
X026272Y014921D02*
Y015079D01*
X026193Y015000D02*
X026350D01*
X037684Y034221D02*
Y034379D01*
X037606Y034300D02*
X037763D01*
X018216Y015021D02*
Y015179D01*
X018137Y015100D02*
X018294D01*
G54D97*
X034497Y040090D02*
X034697D01*
X034597*
Y040690*
X034497Y040590*
X035397Y040090D02*
X034997D01*
X035397Y040490*
Y040590*
X035297Y040690*
X035097*
X034997Y040590*
X035996Y040690D02*
X035596D01*
Y040390*
X035796Y040490*
X035896*
X035996Y040390*
Y040190*
X035896Y040090*
X035696*
X035596Y040190*
X036296Y039990D02*
X036396Y040090D01*
Y040190*
X036296*
Y040090*
X036396*
X036296Y039990*
X036196Y039890*
X036796Y040590D02*
X036896Y040690D01*
X037096*
X037196Y040590*
Y040190*
X037096Y040090*
X036896*
X036796Y040190*
Y040590*
X037396D02*
X037496Y040690D01*
X037696*
X037796Y040590*
Y040190*
X037696Y040090*
X037496*
X037396Y040190*
Y040590*
X062860Y023120D02*
Y023520D01*
X062960*
X063360Y023120*
X063460*
X062960Y023720D02*
X062860Y023820D01*
Y024020*
X062960Y024120*
X063360*
X063460Y024020*
Y023820*
X063360Y023720*
X062960*
X063560Y024420D02*
X063460Y024520D01*
X063360*
Y024420*
X063460*
Y024520*
X063560Y024420*
X063660Y024320*
X062960Y024919D02*
X062860Y025019D01*
Y025219*
X062960Y025319*
X063360*
X063460Y025219*
Y025019*
X063360Y024919*
X062960*
Y025519D02*
X062860Y025619D01*
Y025819*
X062960Y025919*
X063360*
X063460Y025819*
Y025619*
X063360Y025519*
X062960*
M02*