%FSDAX24Y24*%
%MOIN*%
%SFA1B1*%

%IPPOS*%
%ADD60C,0.002000*%
%ADD99C,0.002700*%
%LNde-010824-1*%
%LPD*%
G54D60*
X050720Y029120D02*
Y029280D01*
X050880*
Y029120*
X050720*
X051720D02*
Y029280D01*
X051880*
Y029120*
X051720*
X052720D02*
Y029280D01*
X052880*
Y029120*
X052720*
X053720D02*
Y029280D01*
X053880*
Y029120*
X053720*
X057100Y026920D02*
X057020Y027080D01*
X057180*
X057100Y026920*
Y025920D02*
X057020Y026080D01*
X057180*
X057100Y025920*
Y024920D02*
X057020Y025080D01*
X057180*
X057100Y024920*
Y023920D02*
X057020Y024080D01*
X057180*
X057100Y023920*
X060100Y026920D02*
X060020Y027080D01*
X060180*
X060100Y026920*
Y025920D02*
X060020Y026080D01*
X060180*
X060100Y025920*
Y024920D02*
X060020Y025080D01*
X060180*
X060100Y024920*
Y023920D02*
X060020Y024080D01*
X060180*
X060100Y023920*
X017032Y035720D02*
X017071Y035760D01*
X017112*
X017071Y035800*
X017112Y035840*
X017071*
X017032Y035880*
X016991Y035840*
X016952*
X016991Y035800*
X016952Y035760*
X016991*
X017032Y035720*
X019000D02*
X019040Y035760D01*
X019080*
X019040Y035800*
X019080Y035840*
X019040*
X019000Y035880*
X018960Y035840*
X018920*
X018960Y035800*
X018920Y035760*
X018960*
X019000Y035720*
X013132D02*
X013171Y035760D01*
X013211*
X013171Y035800*
X013211Y035840*
X013171*
X013132Y035880*
X013091Y035840*
X013052*
X013091Y035800*
X013052Y035760*
X013091*
X013132Y035720*
X015100D02*
X015140Y035760D01*
X015180*
X015140Y035800*
X015180Y035840*
X015140*
X015100Y035880*
X015060Y035840*
X015020*
X015060Y035800*
X015020Y035760*
X015060*
X015100Y035720*
X024916D02*
X024956Y035760D01*
X024996*
X024956Y035800*
X024996Y035840*
X024956*
X024916Y035880*
X024876Y035840*
X024836*
X024876Y035800*
X024836Y035760*
X024876*
X024916Y035720*
X026884D02*
X026924Y035760D01*
X026964*
X026924Y035800*
X026964Y035840*
X026924*
X026884Y035880*
X026844Y035840*
X026804*
X026844Y035800*
X026804Y035760*
X026844*
X026884Y035720*
X021016D02*
X021056Y035760D01*
X021096*
X021056Y035800*
X021096Y035840*
X021056*
X021016Y035880*
X020976Y035840*
X020936*
X020976Y035800*
X020936Y035760*
X020976*
X021016Y035720*
X022984D02*
X023024Y035760D01*
X023064*
X023024Y035800*
X023064Y035840*
X023024*
X022984Y035880*
X022944Y035840*
X022904*
X022944Y035800*
X022904Y035760*
X022944*
X022984Y035720*
X032731D02*
X032771Y035760D01*
X032812*
X032771Y035800*
X032812Y035840*
X032771*
X032731Y035880*
X032692Y035840*
X032652*
X032692Y035800*
X032652Y035760*
X032692*
X032731Y035720*
X034700D02*
X034740Y035760D01*
X034780*
X034740Y035800*
X034780Y035840*
X034740*
X034700Y035880*
X034660Y035840*
X034620*
X034660Y035800*
X034620Y035760*
X034660*
X034700Y035720*
X028832D02*
X028872Y035760D01*
X028911*
X028872Y035800*
X028911Y035840*
X028872*
X028832Y035880*
X028791Y035840*
X028751*
X028791Y035800*
X028751Y035760*
X028791*
X028832Y035720*
X030800D02*
X030840Y035760D01*
X030880*
X030840Y035800*
X030880Y035840*
X030840*
X030800Y035880*
X030760Y035840*
X030720*
X030760Y035800*
X030720Y035760*
X030760*
X030800Y035720*
X040700D02*
X040740Y035760D01*
X040780*
X040740Y035800*
X040780Y035840*
X040740*
X040700Y035880*
X040660Y035840*
X040620*
X040660Y035800*
X040620Y035760*
X040660*
X040700Y035720*
X042668D02*
X042709Y035760D01*
X042748*
X042709Y035800*
X042748Y035840*
X042709*
X042668Y035880*
X042628Y035840*
X042589*
X042628Y035800*
X042589Y035760*
X042628*
X042668Y035720*
X036716D02*
X036756Y035760D01*
X036796*
X036756Y035800*
X036796Y035840*
X036756*
X036716Y035880*
X036676Y035840*
X036636*
X036676Y035800*
X036636Y035760*
X036676*
X036716Y035720*
X038684D02*
X038724Y035760D01*
X038764*
X038724Y035800*
X038764Y035840*
X038724*
X038684Y035880*
X038644Y035840*
X038604*
X038644Y035800*
X038604Y035760*
X038644*
X038684Y035720*
X038984Y013420D02*
X039024Y013460D01*
X039064*
X039024Y013500*
X039064Y013540*
X039024*
X038984Y013580*
X038944Y013540*
X038904*
X038944Y013500*
X038904Y013460*
X038944*
X038984Y013420*
X037016D02*
X037056Y013460D01*
X037096*
X037056Y013500*
X037096Y013540*
X037056*
X037016Y013580*
X036976Y013540*
X036936*
X036976Y013500*
X036936Y013460*
X036976*
X037016Y013420*
X042884D02*
X042924Y013460D01*
X042964*
X042924Y013500*
X042964Y013540*
X042924*
X042884Y013580*
X042844Y013540*
X042804*
X042844Y013500*
X042804Y013460*
X042844*
X042884Y013420*
X040916D02*
X040956Y013460D01*
X040996*
X040956Y013500*
X040996Y013540*
X040956*
X040916Y013580*
X040876Y013540*
X040836*
X040876Y013500*
X040836Y013460*
X040876*
X040916Y013420*
X031134D02*
X031174Y013460D01*
X031214*
X031174Y013500*
X031214Y013540*
X031174*
X031134Y013580*
X031094Y013540*
X031054*
X031094Y013500*
X031054Y013460*
X031094*
X031134Y013420*
X029165D02*
X029205Y013460D01*
X029245*
X029205Y013500*
X029245Y013540*
X029205*
X029165Y013580*
X029125Y013540*
X029085*
X029125Y013500*
X029085Y013460*
X029125*
X029165Y013420*
X035065D02*
X035105Y013460D01*
X035145*
X035105Y013500*
X035145Y013540*
X035105*
X035065Y013580*
X035025Y013540*
X034985*
X035025Y013500*
X034985Y013460*
X035025*
X035065Y013420*
X033097D02*
X033137Y013460D01*
X033177*
X033137Y013500*
X033177Y013540*
X033137*
X033097Y013580*
X033057Y013540*
X033017*
X033057Y013500*
X033017Y013460*
X033057*
X033097Y013420*
X023250D02*
X023290Y013460D01*
X023330*
X023290Y013500*
X023330Y013540*
X023290*
X023250Y013580*
X023210Y013540*
X023170*
X023210Y013500*
X023170Y013460*
X023210*
X023250Y013420*
X021281D02*
X021321Y013460D01*
X021361*
X021321Y013500*
X021361Y013540*
X021321*
X021281Y013580*
X021242Y013540*
X021202*
X021242Y013500*
X021202Y013460*
X021242*
X021281Y013420*
X027200D02*
X027240Y013460D01*
X027280*
X027240Y013500*
X027280Y013540*
X027240*
X027200Y013580*
X027160Y013540*
X027120*
X027160Y013500*
X027120Y013460*
X027160*
X027200Y013420*
X025231D02*
X025271Y013460D01*
X025312*
X025271Y013500*
X025312Y013540*
X025271*
X025231Y013580*
X025192Y013540*
X025152*
X025192Y013500*
X025152Y013460*
X025192*
X025231Y013420*
X015346D02*
X015386Y013460D01*
X015426*
X015386Y013500*
X015426Y013540*
X015386*
X015346Y013580*
X015306Y013540*
X015266*
X015306Y013500*
X015266Y013460*
X015306*
X015346Y013420*
X013378D02*
X013418Y013460D01*
X013458*
X013418Y013500*
X013458Y013540*
X013418*
X013378Y013580*
X013338Y013540*
X013298*
X013338Y013500*
X013298Y013460*
X013338*
X013378Y013420*
X019300D02*
X019340Y013460D01*
X019380*
X019340Y013500*
X019380Y013540*
X019340*
X019300Y013580*
X019260Y013540*
X019220*
X019260Y013500*
X019220Y013460*
X019260*
X019300Y013420*
X017332D02*
X017371Y013460D01*
X017412*
X017371Y013500*
X017412Y013540*
X017371*
X017332Y013580*
X017292Y013540*
X017251*
X017292Y013500*
X017251Y013460*
X017292*
X017332Y013420*
X048763Y035820D02*
X048803Y035860D01*
X048843*
X048803Y035900*
X048843Y035940*
X048803*
X048763Y035980*
X048723Y035940*
X048683*
X048723Y035900*
X048683Y035860*
X048723*
X048763Y035820*
X046795D02*
X046835Y035860D01*
X046875*
X046835Y035900*
X046875Y035940*
X046835*
X046795Y035980*
X046755Y035940*
X046715*
X046755Y035900*
X046715Y035860*
X046755*
X046795Y035820*
X059350D02*
X059390Y035860D01*
X059430*
X059390Y035900*
X059430Y035940*
X059390*
X059350Y035980*
X059310Y035940*
X059270*
X059310Y035900*
X059270Y035860*
X059310*
X059350Y035820*
X057350D02*
X057390Y035860D01*
X057430*
X057390Y035900*
X057430Y035940*
X057390*
X057350Y035980*
X057310Y035940*
X057270*
X057310Y035900*
X057270Y035860*
X057310*
X057350Y035820*
X055350D02*
X055390Y035860D01*
X055430*
X055390Y035900*
X055430Y035940*
X055390*
X055350Y035980*
X055310Y035940*
X055270*
X055310Y035900*
X055270Y035860*
X055310*
X055350Y035820*
X052100D02*
X052020Y035980D01*
X052180*
X052100Y035820*
Y036820D02*
X052020Y036980D01*
X052180*
X052100Y036820*
X058800Y033320D02*
X058720Y033480D01*
X058880*
X058800Y033320*
X059800D02*
X059720Y033480D01*
X059880*
X059800Y033320*
X050800Y036820D02*
X050720Y036980D01*
X050880*
X050800Y036820*
Y035820D02*
X050720Y035980D01*
X050880*
X050800Y035820*
X058800Y030820D02*
X058720Y030980D01*
X058880*
X058800Y030820*
X059800D02*
X059720Y030980D01*
X059880*
X059800Y030820*
X053400Y036820D02*
X053320Y036980D01*
X053480*
X053400Y036820*
Y035820D02*
X053320Y035980D01*
X053480*
X053400Y035820*
X059800Y032120D02*
X059720Y032280D01*
X059880*
X059800Y032120*
X058800D02*
X058720Y032280D01*
X058880*
X058800Y032120*
X057100Y013470D02*
X057140Y013510D01*
X057180*
X057140Y013550*
X057180Y013590*
X057140*
X057100Y013630*
X057060Y013590*
X057020*
X057060Y013550*
X057020Y013510*
X057060*
X057100Y013470*
X059068D02*
X059109Y013510D01*
X059149*
X059109Y013550*
X059149Y013590*
X059109*
X059068Y013630*
X059029Y013590*
X058988*
X059029Y013550*
X058988Y013510*
X059029*
X059068Y013470*
X053800Y024920D02*
X053720Y025080D01*
X053880*
X053800Y024920*
Y023920D02*
X053720Y024080D01*
X053880*
X053800Y023920*
X045716Y013570D02*
X045756Y013610D01*
X045796*
X045756Y013650*
X045796Y013690*
X045756*
X045716Y013730*
X045676Y013690*
X045636*
X045676Y013650*
X045636Y013610*
X045676*
X045716Y013570*
X047684D02*
X047724Y013610D01*
X047764*
X047724Y013650*
X047764Y013690*
X047724*
X047684Y013730*
X047644Y013690*
X047604*
X047644Y013650*
X047604Y013610*
X047644*
X047684Y013570*
X045250Y025970D02*
X045170Y026130D01*
X045330*
X045250Y025970*
X046250D02*
X046170Y026130D01*
X046330*
X046250Y025970*
X047250D02*
X047170Y026130D01*
X047330*
X047250Y025970*
X029502Y030770D02*
X029542Y030850D01*
X029502Y030930*
X029582Y030890*
X029662Y030930*
X029622Y030850*
X029662Y030770*
X029582Y030810*
X029502Y030770*
Y026046D02*
X029542Y026126D01*
X029502Y026206*
X029582Y026166*
X029662Y026206*
X029622Y026126*
X029662Y026046*
X029582Y026086*
X029502Y026046*
X034226Y030770D02*
X034266Y030850D01*
X034226Y030930*
X034306Y030890*
X034386Y030930*
X034346Y030850*
X034386Y030770*
X034306Y030810*
X034226Y030770*
Y026046D02*
X034266Y026126D01*
X034226Y026206*
X034306Y026166*
X034386Y026206*
X034346Y026126*
X034386Y026046*
X034306Y026086*
X034226Y026046*
X035014Y028408D02*
X035054Y028488D01*
X035014Y028568*
X035094Y028528*
X035174Y028568*
X035134Y028488*
X035174Y028408*
X035094Y028448*
X035014Y028408*
X037470Y030770D02*
X037510Y030850D01*
X037470Y030930*
X037550Y030890*
X037630Y030930*
X037590Y030850*
X037630Y030770*
X037550Y030810*
X037470Y030770*
Y026046D02*
X037510Y026126D01*
X037470Y026206*
X037550Y026166*
X037630Y026206*
X037590Y026126*
X037630Y026046*
X037550Y026086*
X037470Y026046*
X042195Y030770D02*
X042235Y030850D01*
X042195Y030930*
X042275Y030890*
X042355Y030930*
X042315Y030850*
X042355Y030770*
X042275Y030810*
X042195Y030770*
Y026046D02*
X042235Y026126D01*
X042195Y026206*
X042275Y026166*
X042355Y026206*
X042315Y026126*
X042355Y026046*
X042275Y026086*
X042195Y026046*
X042982Y028408D02*
X043022Y028488D01*
X042982Y028568*
X043062Y028528*
X043142Y028568*
X043102Y028488*
X043142Y028408*
X043062Y028448*
X042982Y028408*
X013802Y030770D02*
X013842Y030850D01*
X013802Y030930*
X013882Y030890*
X013962Y030930*
X013922Y030850*
X013962Y030770*
X013882Y030810*
X013802Y030770*
Y026046D02*
X013842Y026126D01*
X013802Y026206*
X013882Y026166*
X013962Y026206*
X013922Y026126*
X013962Y026046*
X013882Y026086*
X013802Y026046*
X018526Y030770D02*
X018566Y030850D01*
X018526Y030930*
X018606Y030890*
X018686Y030930*
X018646Y030850*
X018686Y030770*
X018606Y030810*
X018526Y030770*
Y026046D02*
X018566Y026126D01*
X018526Y026206*
X018606Y026166*
X018686Y026206*
X018646Y026126*
X018686Y026046*
X018606Y026086*
X018526Y026046*
X019314Y028408D02*
X019354Y028488D01*
X019314Y028568*
X019394Y028528*
X019474Y028568*
X019434Y028488*
X019474Y028408*
X019394Y028448*
X019314Y028408*
X021686Y030770D02*
X021726Y030850D01*
X021686Y030930*
X021766Y030890*
X021846Y030930*
X021806Y030850*
X021846Y030770*
X021766Y030810*
X021686Y030770*
Y026046D02*
X021726Y026126D01*
X021686Y026206*
X021766Y026166*
X021846Y026206*
X021806Y026126*
X021846Y026046*
X021766Y026086*
X021686Y026046*
X026411Y030770D02*
X026451Y030850D01*
X026411Y030930*
X026491Y030890*
X026571Y030930*
X026531Y030850*
X026571Y030770*
X026491Y030810*
X026411Y030770*
Y026046D02*
X026451Y026126D01*
X026411Y026206*
X026491Y026166*
X026571Y026206*
X026531Y026126*
X026571Y026046*
X026491Y026086*
X026411Y026046*
X027198Y028408D02*
X027238Y028488D01*
X027198Y028568*
X027278Y028528*
X027358Y028568*
X027318Y028488*
X027358Y028408*
X027278Y028448*
X027198Y028408*
X042054Y018370D02*
X042094Y018450D01*
X042054Y018530*
X042134Y018490*
X042214Y018530*
X042174Y018450*
X042214Y018370*
X042134Y018410*
X042054Y018370*
Y023094D02*
X042094Y023174D01*
X042054Y023254*
X042134Y023214*
X042214Y023254*
X042174Y023174*
X042214Y023094*
X042134Y023134*
X042054Y023094*
X037329Y018370D02*
X037369Y018450D01*
X037329Y018530*
X037409Y018490*
X037489Y018530*
X037449Y018450*
X037489Y018370*
X037409Y018410*
X037329Y018370*
Y023094D02*
X037369Y023174D01*
X037329Y023254*
X037409Y023214*
X037489Y023254*
X037449Y023174*
X037489Y023094*
X037409Y023134*
X037329Y023094*
X036542Y020732D02*
X036582Y020812D01*
X036542Y020892*
X036622Y020852*
X036702Y020892*
X036662Y020812*
X036702Y020732*
X036622Y020772*
X036542Y020732*
X034197Y018370D02*
X034237Y018450D01*
X034197Y018530*
X034277Y018490*
X034357Y018530*
X034317Y018450*
X034357Y018370*
X034277Y018410*
X034197Y018370*
Y023094D02*
X034237Y023174D01*
X034197Y023254*
X034277Y023214*
X034357Y023254*
X034317Y023174*
X034357Y023094*
X034277Y023134*
X034197Y023094*
X029473Y018370D02*
X029513Y018450D01*
X029473Y018530*
X029553Y018490*
X029633Y018530*
X029593Y018450*
X029633Y018370*
X029553Y018410*
X029473Y018370*
Y023094D02*
X029513Y023174D01*
X029473Y023254*
X029553Y023214*
X029633Y023254*
X029593Y023174*
X029633Y023094*
X029553Y023134*
X029473Y023094*
X028685Y020732D02*
X028725Y020812D01*
X028685Y020892*
X028765Y020852*
X028845Y020892*
X028805Y020812*
X028845Y020732*
X028765Y020772*
X028685Y020732*
X026320Y018370D02*
X026360Y018450D01*
X026320Y018530*
X026400Y018490*
X026480Y018530*
X026440Y018450*
X026480Y018370*
X026400Y018410*
X026320Y018370*
Y023094D02*
X026360Y023174D01*
X026320Y023254*
X026400Y023214*
X026480Y023254*
X026440Y023174*
X026480Y023094*
X026400Y023134*
X026320Y023094*
X021595Y018370D02*
X021635Y018450D01*
X021595Y018530*
X021675Y018490*
X021755Y018530*
X021715Y018450*
X021755Y018370*
X021675Y018410*
X021595Y018370*
Y023094D02*
X021635Y023174D01*
X021595Y023254*
X021675Y023214*
X021755Y023254*
X021715Y023174*
X021755Y023094*
X021675Y023134*
X021595Y023094*
X020808Y020732D02*
X020848Y020812D01*
X020808Y020892*
X020888Y020852*
X020968Y020892*
X020928Y020812*
X020968Y020732*
X020888Y020772*
X020808Y020732*
X018416Y018370D02*
X018456Y018450D01*
X018416Y018530*
X018496Y018490*
X018576Y018530*
X018536Y018450*
X018576Y018370*
X018496Y018410*
X018416Y018370*
Y023094D02*
X018456Y023174D01*
X018416Y023254*
X018496Y023214*
X018576Y023254*
X018536Y023174*
X018576Y023094*
X018496Y023134*
X018416Y023094*
X013691Y018370D02*
X013731Y018450D01*
X013691Y018530*
X013771Y018490*
X013851Y018530*
X013811Y018450*
X013851Y018370*
X013771Y018410*
X013691Y018370*
Y023094D02*
X013731Y023174D01*
X013691Y023254*
X013771Y023214*
X013851Y023254*
X013811Y023174*
X013851Y023094*
X013771Y023134*
X013691Y023094*
X012904Y020732D02*
X012944Y020812D01*
X012904Y020892*
X012984Y020852*
X013064Y020892*
X013024Y020812*
X013064Y020732*
X012984Y020772*
X012904Y020732*
X014876Y033160D02*
Y033120D01*
X014956*
Y033160*
X014996*
Y033240*
X014956*
Y033280*
X014876*
Y033240*
X014836*
Y033160*
X014876*
X012876D02*
Y033120D01*
X012956*
Y033160*
X012996*
Y033240*
X012956*
Y033280*
X012876*
Y033240*
X012836*
Y033160*
X012876*
X041060Y016060D02*
Y016020D01*
X041140*
Y016060*
X041180*
Y016140*
X041140*
Y016180*
X041060*
Y016140*
X041020*
Y016060*
X041060*
X043060D02*
Y016020D01*
X043140*
Y016060*
X043180*
Y016140*
X043140*
Y016180*
X043060*
Y016140*
X043020*
Y016060*
X043060*
X022760Y033160D02*
Y033120D01*
X022840*
Y033160*
X022880*
Y033240*
X022840*
Y033280*
X022760*
Y033240*
X022720*
Y033160*
X022760*
X020760D02*
Y033120D01*
X020840*
Y033160*
X020880*
Y033240*
X020840*
Y033280*
X020760*
Y033240*
X020720*
Y033160*
X020760*
X033225Y016060D02*
Y016020D01*
X033305*
Y016060*
X033345*
Y016140*
X033305*
Y016180*
X033225*
Y016140*
X033185*
Y016060*
X033225*
X035225D02*
Y016020D01*
X035305*
Y016060*
X035345*
Y016140*
X035305*
Y016180*
X035225*
Y016140*
X035185*
Y016060*
X035225*
X030576Y033160D02*
Y033120D01*
X030656*
Y033160*
X030696*
Y033240*
X030656*
Y033280*
X030576*
Y033240*
X030536*
Y033160*
X030576*
X028576D02*
Y033120D01*
X028656*
Y033160*
X028696*
Y033240*
X028656*
Y033280*
X028576*
Y033240*
X028536*
Y033160*
X028576*
X025431Y016060D02*
Y016020D01*
X025512*
Y016060*
X025552*
Y016140*
X025512*
Y016180*
X025431*
Y016140*
X025391*
Y016060*
X025431*
X027431D02*
Y016020D01*
X027511*
Y016060*
X027552*
Y016140*
X027511*
Y016180*
X027431*
Y016140*
X027392*
Y016060*
X027431*
X038444Y033160D02*
Y033120D01*
X038524*
Y033160*
X038564*
Y033240*
X038524*
Y033280*
X038444*
Y033240*
X038404*
Y033160*
X038444*
X036444D02*
Y033120D01*
X036524*
Y033160*
X036564*
Y033240*
X036524*
Y033280*
X036444*
Y033240*
X036404*
Y033160*
X036444*
X017476Y016060D02*
Y016020D01*
X017556*
Y016060*
X017596*
Y016140*
X017556*
Y016180*
X017476*
Y016140*
X017436*
Y016060*
X017476*
X019476D02*
Y016020D01*
X019556*
Y016060*
X019596*
Y016140*
X019556*
Y016180*
X019476*
Y016140*
X019436*
Y016060*
X019476*
X050070Y015620D02*
X050110D01*
X050150Y015660*
X050190Y015620*
X050230*
Y015660*
X050190Y015700*
X050230Y015740*
Y015780*
X050190*
X050150Y015740*
X050110Y015780*
X050070*
Y015740*
X050110Y015700*
X050070Y015660*
Y015620*
Y014833D02*
X050110D01*
X050150Y014873*
X050190Y014833*
X050230*
Y014873*
X050190Y014913*
X050230Y014953*
Y014993*
X050190*
X050150Y014953*
X050110Y014993*
X050070*
Y014953*
X050110Y014913*
X050070Y014873*
Y014833*
X045716Y017570D02*
X045636Y017730D01*
X045796*
X045716Y017570*
X047684D02*
X047604Y017730D01*
X047764*
X047684Y017570*
X057116Y017920D02*
X057036Y018080D01*
X057196*
X057116Y017920*
X059084D02*
X059004Y018080D01*
X059164*
X059084Y017920*
X056470Y029400D02*
X056550Y029480D01*
X056630Y029400*
X056550Y029320*
X056470Y029400*
X058870Y029800D02*
X058950Y029880D01*
X059030Y029800*
X058950Y029720*
X058870Y029800*
X023820Y020000D02*
X023900Y020080D01*
X023980Y020000*
X023900Y019920*
X023820Y020000*
X031820D02*
X031900Y020080D01*
X031980Y020000*
X031900Y019920*
X031820Y020000*
X039970Y020400D02*
X040050Y020480D01*
X040130Y020400*
X040050Y020320*
X039970Y020400*
X027120Y017950D02*
X027200Y018030D01*
X027280Y017950*
X027200Y017870*
X027120Y017950*
X035120D02*
X035200Y018030D01*
X035280Y017950*
X035200Y017870*
X035120Y017950*
X031720Y029300D02*
X031800Y029380D01*
X031880Y029300*
X031800Y029220*
X031720Y029300*
X039720D02*
X039800Y029380D01*
X039880Y029300*
X039800Y029220*
X039720Y029300*
X020770Y031200D02*
X020850Y031280D01*
X020930Y031200*
X020850Y031120*
X020770Y031200*
X015888Y020000D02*
X015968Y020080D01*
X016048Y020000*
X015968Y019920*
X015888Y020000*
X047420Y023500D02*
X047500Y023580D01*
X047580Y023500*
X047500Y023420*
X047420Y023500*
Y024100D02*
X047500Y024180D01*
X047580Y024100*
X047500Y024020*
X047420Y024100*
X049070Y025150D02*
X049150Y025230D01*
X049230Y025150*
X049150Y025070*
X049070Y025150*
X050120Y025600D02*
X050200Y025680D01*
X050280Y025600*
X050200Y025520*
X050120Y025600*
X049270Y026550D02*
X049350Y026630D01*
X049430Y026550*
X049350Y026470*
X049270Y026550*
X049553Y026250D02*
X049633Y026330D01*
X049713Y026250*
X049633Y026170*
X049553Y026250*
X049837Y025950D02*
X049917Y026030D01*
X049997Y025950*
X049917Y025870*
X049837Y025950*
X044070Y020500D02*
X044150Y020580D01*
X044230Y020500*
X044150Y020420*
X044070Y020500*
X044370Y020850D02*
X044450Y020930D01*
X044530Y020850*
X044450Y020770*
X044370Y020850*
X044720Y021200D02*
X044800Y021280D01*
X044880Y021200*
X044800Y021120*
X044720Y021200*
X043520Y024000D02*
X043600Y024080D01*
X043680Y024000*
X043600Y023920*
X043520Y024000*
Y023100D02*
X043600Y023180D01*
X043680Y023100*
X043600Y023020*
X043520Y023100*
X046370Y021900D02*
X046450Y021980D01*
X046530Y021900*
X046450Y021820*
X046370Y021900*
X045970D02*
X046050Y021980D01*
X046130Y021900*
X046050Y021820*
X045970Y021900*
X047720Y021700D02*
X047800Y021780D01*
X047880Y021700*
X047800Y021620*
X047720Y021700*
X047470Y022000D02*
X047550Y022080D01*
X047630Y022000*
X047550Y021920*
X047470Y022000*
X047220Y022300D02*
X047300Y022380D01*
X047380Y022300*
X047300Y022220*
X047220Y022300*
X045570Y021900D02*
X045650Y021980D01*
X045730Y021900*
X045650Y021820*
X045570Y021900*
X052620Y022000D02*
X052700Y022080D01*
X052780Y022000*
X052700Y021920*
X052620Y022000*
X052870Y021700D02*
X052950Y021780D01*
X053030Y021700*
X052950Y021620*
X052870Y021700*
X053120Y021400D02*
X053200Y021480D01*
X053280Y021400*
X053200Y021320*
X053120Y021400*
X053370Y021100D02*
X053450Y021180D01*
X053530Y021100*
X053450Y021020*
X053370Y021100*
X044470Y029500D02*
X044550Y029580D01*
X044630Y029500*
X044550Y029420*
X044470Y029500*
X044203Y029780D02*
X044283Y029860D01*
X044363Y029780*
X044283Y029700*
X044203Y029780*
X043937Y030100D02*
X044017Y030180D01*
X044097Y030100*
X044017Y030020*
X043937Y030100*
X043620Y030350D02*
X043700Y030430D01*
X043780Y030350*
X043700Y030270*
X043620Y030350*
X052320Y024200D02*
X052400Y024280D01*
X052480Y024200*
X052400Y024120*
X052320Y024200*
X052370Y022300D02*
X052450Y022380D01*
X052530Y022300*
X052450Y022220*
X052370Y022300*
X050220Y022200D02*
X050300Y022280D01*
X050380Y022200*
X050300Y022120*
X050220Y022200*
X049662Y022900D02*
X049742Y022980D01*
X049822Y022900*
X049742Y022820*
X049662Y022900*
X054670Y023000D02*
X054750Y023080D01*
X054830Y023000*
X054750Y022920*
X054670Y023000*
X054370Y022700D02*
X054450Y022780D01*
X054530Y022700*
X054450Y022620*
X054370Y022700*
X054070Y022400D02*
X054150Y022480D01*
X054230Y022400*
X054150Y022320*
X054070Y022400*
X049957Y022550D02*
X050037Y022630D01*
X050118Y022550*
X050037Y022470*
X049957Y022550*
X049070Y023500D02*
X049150Y023580D01*
X049230Y023500*
X049150Y023420*
X049070Y023500*
X049366Y023200D02*
X049446Y023280D01*
X049526Y023200*
X049446Y023120*
X049366Y023200*
Y022250D02*
X049446Y022330D01*
X049526Y022250*
X049446Y022170*
X049366Y022250*
X051450Y020470D02*
X051530Y020550D01*
X051610Y020470*
X051530Y020390*
X051450Y020470*
X051720Y020800D02*
X051800Y020880D01*
X051880Y020800*
X051800Y020720*
X051720Y020800*
X053920Y020500D02*
X054000Y020580D01*
X054080Y020500*
X054000Y020420*
X053920Y020500*
X053620Y020800D02*
X053700Y020880D01*
X053780Y020800*
X053700Y020720*
X053620Y020800*
X054370Y021700D02*
X054450Y021780D01*
X054530Y021700*
X054450Y021620*
X054370Y021700*
X054070Y022000D02*
X054150Y022080D01*
X054230Y022000*
X054150Y021920*
X054070Y022000*
X054420Y034600D02*
X054500Y034680D01*
X054580Y034600*
X054500Y034520*
X054420Y034600*
Y033400D02*
X054500Y033480D01*
X054580Y033400*
X054500Y033320*
X054420Y033400*
X050020Y034750D02*
X050100Y034830D01*
X050180Y034750*
X050100Y034670*
X050020Y034750*
X051870Y034050D02*
X051950Y034130D01*
X052030Y034050*
X051950Y033970*
X051870Y034050*
X057070Y033900D02*
X057150Y033980D01*
X057230Y033900*
X057150Y033820*
X057070Y033900*
X016220Y029288D02*
X016300Y029368D01*
X016380Y029288*
X016300Y029208*
X016220Y029288*
X015170Y030700D02*
X015250Y030780D01*
X015330Y030700*
X015250Y030620*
X015170Y030700*
X012920Y031200D02*
X013000Y031280D01*
X013080Y031200*
X013000Y031120*
X012920Y031200*
X015170Y030053D02*
X015250Y030133D01*
X015330Y030053*
X015250Y029973*
X015170Y030053*
X024120Y029288D02*
X024200Y029368D01*
X024280Y029288*
X024200Y029208*
X024120Y029288*
X036670Y031250D02*
X036750Y031330D01*
X036830Y031250*
X036750Y031170*
X036670Y031250*
X023870Y030750D02*
X023950Y030830D01*
X024030Y030750*
X023950Y030670*
X023870Y030750*
Y030200D02*
X023950Y030280D01*
X024030Y030200*
X023950Y030120*
X023870Y030200*
X031370Y030350D02*
X031450Y030430D01*
X031530Y030350*
X031450Y030270*
X031370Y030350*
Y031050D02*
X031450Y031130D01*
X031530Y031050*
X031450Y030970*
X031370Y031050*
X039420Y030500D02*
X039500Y030580D01*
X039580Y030500*
X039500Y030420*
X039420Y030500*
Y031200D02*
X039500Y031280D01*
X039580Y031200*
X039500Y031120*
X039420Y031200*
X043339Y034181D02*
X043419Y034261D01*
X043499Y034181*
X043419Y034101*
X043339Y034181*
X014720Y028500D02*
X014800Y028580D01*
X014880Y028500*
X014800Y028420*
X014720Y028500*
X022755D02*
X022835Y028580D01*
X022915Y028500*
X022835Y028420*
X022755Y028500*
X030420D02*
X030500Y028580D01*
X030580Y028500*
X030500Y028420*
X030420Y028500*
X038320D02*
X038400Y028580D01*
X038480Y028500*
X038400Y028420*
X038320Y028500*
X034920Y034000D02*
X035000Y034080D01*
X035080Y034000*
X035000Y033920*
X034920Y034000*
X027070D02*
X027150Y034080D01*
X027230Y034000*
X027150Y033920*
X027070Y034000*
X028620Y031200D02*
X028700Y031280D01*
X028780Y031200*
X028700Y031120*
X028620Y031200*
X019220Y034000D02*
X019300Y034080D01*
X019380Y034000*
X019300Y033920*
X019220Y034000*
X013120Y015300D02*
X013200Y015380D01*
X013280Y015300*
X013200Y015220*
X013120Y015300*
X016120Y019300D02*
X016200Y019380D01*
X016280Y019300*
X016200Y019220*
X016120Y019300*
X021020Y015300D02*
X021100Y015380D01*
X021180Y015300*
X021100Y015220*
X021020Y015300*
X024270Y019250D02*
X024350Y019330D01*
X024430Y019250*
X024350Y019170*
X024270Y019250*
X019070Y017950D02*
X019150Y018030D01*
X019230Y017950*
X019150Y017870*
X019070Y017950*
X016120Y018550D02*
X016200Y018630D01*
X016280Y018550*
X016200Y018470*
X016120Y018550*
X024270Y018500D02*
X024350Y018580D01*
X024430Y018500*
X024350Y018420*
X024270Y018500*
X032170D02*
X032250Y018580D01*
X032330Y018500*
X032250Y018420*
X032170Y018500*
X028870Y015300D02*
X028950Y015380D01*
X029030Y015300*
X028950Y015220*
X028870Y015300*
X040120Y018150D02*
X040200Y018230D01*
X040280Y018150*
X040200Y018070*
X040120Y018150*
X039293Y018127D02*
X039373Y018207D01*
X039453Y018127*
X039373Y018047*
X039293Y018127*
X042670Y018100D02*
X042750Y018180D01*
X042830Y018100*
X042750Y018020*
X042670Y018100*
X036820Y015300D02*
X036900Y015380D01*
X036980Y015300*
X036900Y015220*
X036820Y015300*
X051170Y014800D02*
X051250Y014880D01*
X051330Y014800*
X051250Y014720*
X051170Y014800*
X051720D02*
X051800Y014880D01*
X051880Y014800*
X051800Y014720*
X051720Y014800*
X052270D02*
X052350Y014880D01*
X052430Y014800*
X052350Y014720*
X052270Y014800*
X052820D02*
X052900Y014880D01*
X052980Y014800*
X052900Y014720*
X052820Y014800*
X053370D02*
X053450Y014880D01*
X053530Y014800*
X053450Y014720*
X053370Y014800*
Y015400D02*
X053450Y015480D01*
X053530Y015400*
X053450Y015320*
X053370Y015400*
X052820D02*
X052900Y015480D01*
X052980Y015400*
X052900Y015320*
X052820Y015400*
X052270D02*
X052350Y015480D01*
X052430Y015400*
X052350Y015320*
X052270Y015400*
X051720D02*
X051800Y015480D01*
X051880Y015400*
X051800Y015320*
X051720Y015400*
X051170D02*
X051250Y015480D01*
X051330Y015400*
X051250Y015320*
X051170Y015400*
X053370Y016000D02*
X053450Y016080D01*
X053530Y016000*
X053450Y015920*
X053370Y016000*
X052820D02*
X052900Y016080D01*
X052980Y016000*
X052900Y015920*
X052820Y016000*
X052270D02*
X052350Y016080D01*
X052430Y016000*
X052350Y015920*
X052270Y016000*
X051720D02*
X051800Y016080D01*
X051880Y016000*
X051800Y015920*
X051720Y016000*
X051170D02*
X051250Y016080D01*
X051330Y016000*
X051250Y015920*
X051170Y016000*
X048320Y021035D02*
X048400Y021115D01*
X048480Y021035*
X048400Y020955*
X048320Y021035*
X046085Y024150D02*
X046165Y024230D01*
X046245Y024150*
X046165Y024070*
X046085Y024150*
X055670Y025450D02*
X055750Y025530D01*
X055830Y025450*
X055750Y025370*
X055670Y025450*
X046020Y027700D02*
X046100Y027780D01*
X046180Y027700*
X046100Y027620*
X046020Y027700*
X045985Y031660D02*
X046065Y031740D01*
X046145Y031660*
X046065Y031580*
X045985Y031660*
X049455Y031665D02*
X049535Y031745D01*
X049615Y031665*
X049535Y031585*
X049455Y031665*
X046270Y033900D02*
X046350Y033980D01*
X046430Y033900*
X046350Y033820*
X046270Y033900*
X032170Y019150D02*
X032250Y019230D01*
X032330Y019150*
X032250Y019070*
X032170Y019150*
X017170Y021700D02*
X017250Y021780D01*
X017330Y021700*
X017250Y021620*
X017170Y021700*
X025320D02*
X025400Y021780D01*
X025480Y021700*
X025400Y021620*
X025320Y021700*
X033320D02*
X033400Y021780D01*
X033480Y021700*
X033400Y021620*
X033320Y021700*
X040970D02*
X041050Y021780D01*
X041130Y021700*
X041050Y021620*
X040970Y021700*
X051770Y025800D02*
X051850Y025880D01*
X051930Y025800*
X051850Y025720*
X051770Y025800*
X017120Y024100D02*
X017200Y024180D01*
X017280Y024100*
X017200Y024020*
X017120Y024100*
X042820Y026800D02*
X042900Y026880D01*
X042980Y026800*
X042900Y026720*
X042820Y026800*
X043070Y027150D02*
X043150Y027230D01*
X043230Y027150*
X043150Y027070*
X043070Y027150*
X024970Y024050D02*
X025050Y024130D01*
X025130Y024050*
X025050Y023970*
X024970Y024050*
X050670Y032050D02*
X050750Y032130D01*
X050830Y032050*
X050750Y031970*
X050670Y032050*
G54D99*
X053630Y018000D02*
D01*
X053629Y018005*
X053629Y018011*
X053628Y018016*
X053626Y018022*
X053625Y018027*
X053623Y018032*
X053620Y018037*
X053617Y018042*
X053614Y018047*
X053611Y018051*
X053607Y018055*
X053603Y018059*
X053599Y018063*
X053594Y018066*
X053590Y018069*
X053585Y018071*
X053579Y018074*
X053574Y018076*
X053569Y018077*
X053563Y018078*
X053558Y018079*
X053552Y018079*
X053547*
X053541Y018079*
X053536Y018078*
X053530Y018077*
X053525Y018076*
X053520Y018074*
X053514Y018071*
X053510Y018069*
X053505Y018066*
X053500Y018063*
X053496Y018059*
X053492Y018055*
X053488Y018051*
X053485Y018047*
X053482Y018042*
X053479Y018037*
X053476Y018032*
X053474Y018027*
X053473Y018022*
X053471Y018016*
X053470Y018011*
X053470Y018005*
X053470Y018000*
X053470Y017994*
X053470Y017988*
X053471Y017983*
X053473Y017977*
X053474Y017972*
X053476Y017967*
X053479Y017962*
X053482Y017957*
X053485Y017952*
X053488Y017948*
X053492Y017944*
X053496Y017940*
X053500Y017936*
X053505Y017933*
X053510Y017930*
X053514Y017928*
X053520Y017925*
X053525Y017923*
X053530Y017922*
X053536Y017921*
X053541Y017920*
X053547Y017920*
X053552*
X053558Y017920*
X053563Y017921*
X053569Y017922*
X053574Y017923*
X053579Y017925*
X053585Y017928*
X053590Y017930*
X053594Y017933*
X053599Y017936*
X053603Y017940*
X053607Y017944*
X053611Y017948*
X053614Y017952*
X053617Y017957*
X053620Y017962*
X053623Y017967*
X053625Y017972*
X053626Y017977*
X053628Y017983*
X053629Y017988*
X053629Y017994*
X053630Y018000*
X052630D02*
D01*
X052629Y018005*
X052629Y018011*
X052628Y018016*
X052626Y018022*
X052625Y018027*
X052623Y018032*
X052620Y018037*
X052617Y018042*
X052614Y018047*
X052611Y018051*
X052607Y018055*
X052603Y018059*
X052599Y018063*
X052594Y018066*
X052590Y018069*
X052585Y018071*
X052579Y018074*
X052574Y018076*
X052569Y018077*
X052563Y018078*
X052558Y018079*
X052552Y018079*
X052547*
X052541Y018079*
X052536Y018078*
X052530Y018077*
X052525Y018076*
X052520Y018074*
X052514Y018071*
X052510Y018069*
X052505Y018066*
X052500Y018063*
X052496Y018059*
X052492Y018055*
X052488Y018051*
X052485Y018047*
X052482Y018042*
X052479Y018037*
X052476Y018032*
X052474Y018027*
X052473Y018022*
X052471Y018016*
X052470Y018011*
X052470Y018005*
X052470Y018000*
X052470Y017994*
X052470Y017988*
X052471Y017983*
X052473Y017977*
X052474Y017972*
X052476Y017967*
X052479Y017962*
X052482Y017957*
X052485Y017952*
X052488Y017948*
X052492Y017944*
X052496Y017940*
X052500Y017936*
X052505Y017933*
X052510Y017930*
X052514Y017928*
X052520Y017925*
X052525Y017923*
X052530Y017922*
X052536Y017921*
X052541Y017920*
X052547Y017920*
X052552*
X052558Y017920*
X052563Y017921*
X052569Y017922*
X052574Y017923*
X052579Y017925*
X052585Y017928*
X052590Y017930*
X052594Y017933*
X052599Y017936*
X052603Y017940*
X052607Y017944*
X052611Y017948*
X052614Y017952*
X052617Y017957*
X052620Y017962*
X052623Y017967*
X052625Y017972*
X052626Y017977*
X052628Y017983*
X052629Y017988*
X052629Y017994*
X052630Y018000*
X051630D02*
D01*
X051629Y018005*
X051629Y018011*
X051628Y018016*
X051626Y018022*
X051625Y018027*
X051623Y018032*
X051620Y018037*
X051617Y018042*
X051614Y018047*
X051611Y018051*
X051607Y018055*
X051603Y018059*
X051599Y018063*
X051594Y018066*
X051590Y018069*
X051585Y018071*
X051579Y018074*
X051574Y018076*
X051569Y018077*
X051563Y018078*
X051558Y018079*
X051552Y018079*
X051547*
X051541Y018079*
X051536Y018078*
X051530Y018077*
X051525Y018076*
X051520Y018074*
X051514Y018071*
X051510Y018069*
X051505Y018066*
X051500Y018063*
X051496Y018059*
X051492Y018055*
X051488Y018051*
X051485Y018047*
X051482Y018042*
X051479Y018037*
X051476Y018032*
X051474Y018027*
X051473Y018022*
X051471Y018016*
X051470Y018011*
X051470Y018005*
X051470Y018000*
X051470Y017994*
X051470Y017988*
X051471Y017983*
X051473Y017977*
X051474Y017972*
X051476Y017967*
X051479Y017962*
X051482Y017957*
X051485Y017952*
X051488Y017948*
X051492Y017944*
X051496Y017940*
X051500Y017936*
X051505Y017933*
X051510Y017930*
X051514Y017928*
X051520Y017925*
X051525Y017923*
X051530Y017922*
X051536Y017921*
X051541Y017920*
X051547Y017920*
X051552*
X051558Y017920*
X051563Y017921*
X051569Y017922*
X051574Y017923*
X051579Y017925*
X051585Y017928*
X051590Y017930*
X051594Y017933*
X051599Y017936*
X051603Y017940*
X051607Y017944*
X051611Y017948*
X051614Y017952*
X051617Y017957*
X051620Y017962*
X051623Y017967*
X051625Y017972*
X051626Y017977*
X051628Y017983*
X051629Y017988*
X051629Y017994*
X051630Y018000*
X018996Y033188D02*
D01*
X018995Y033193*
X018995Y033199*
X018994Y033204*
X018992Y033210*
X018991Y033215*
X018989Y033220*
X018986Y033225*
X018983Y033230*
X018980Y033235*
X018977Y033239*
X018973Y033243*
X018969Y033247*
X018965Y033251*
X018960Y033254*
X018956Y033257*
X018951Y033259*
X018945Y033262*
X018940Y033264*
X018935Y033265*
X018929Y033266*
X018924Y033267*
X018918Y033267*
X018913*
X018907Y033267*
X018902Y033266*
X018896Y033265*
X018891Y033264*
X018886Y033262*
X018880Y033259*
X018876Y033257*
X018871Y033254*
X018866Y033251*
X018862Y033247*
X018858Y033243*
X018854Y033239*
X018851Y033235*
X018848Y033230*
X018845Y033225*
X018842Y033220*
X018840Y033215*
X018839Y033210*
X018837Y033204*
X018836Y033199*
X018836Y033193*
X018836Y033188*
X018836Y033182*
X018836Y033176*
X018837Y033171*
X018839Y033165*
X018840Y033160*
X018842Y033155*
X018845Y033150*
X018848Y033145*
X018851Y033140*
X018854Y033136*
X018858Y033132*
X018862Y033128*
X018866Y033124*
X018871Y033121*
X018876Y033118*
X018880Y033116*
X018886Y033113*
X018891Y033111*
X018896Y033110*
X018902Y033109*
X018907Y033108*
X018913Y033108*
X018918*
X018924Y033108*
X018929Y033109*
X018935Y033110*
X018940Y033111*
X018945Y033113*
X018951Y033116*
X018956Y033118*
X018960Y033121*
X018965Y033124*
X018969Y033128*
X018973Y033132*
X018977Y033136*
X018980Y033140*
X018983Y033145*
X018986Y033150*
X018989Y033155*
X018991Y033160*
X018992Y033165*
X018994Y033171*
X018995Y033176*
X018995Y033182*
X018996Y033188*
X017996D02*
D01*
X017995Y033193*
X017995Y033199*
X017994Y033204*
X017992Y033210*
X017991Y033215*
X017989Y033220*
X017986Y033225*
X017983Y033230*
X017980Y033235*
X017977Y033239*
X017973Y033243*
X017969Y033247*
X017965Y033251*
X017960Y033254*
X017956Y033257*
X017951Y033259*
X017945Y033262*
X017940Y033264*
X017935Y033265*
X017929Y033266*
X017924Y033267*
X017918Y033267*
X017913*
X017907Y033267*
X017902Y033266*
X017896Y033265*
X017891Y033264*
X017886Y033262*
X017880Y033259*
X017876Y033257*
X017871Y033254*
X017866Y033251*
X017862Y033247*
X017858Y033243*
X017854Y033239*
X017851Y033235*
X017848Y033230*
X017845Y033225*
X017842Y033220*
X017840Y033215*
X017839Y033210*
X017837Y033204*
X017836Y033199*
X017836Y033193*
X017836Y033188*
X017836Y033182*
X017836Y033176*
X017837Y033171*
X017839Y033165*
X017840Y033160*
X017842Y033155*
X017845Y033150*
X017848Y033145*
X017851Y033140*
X017854Y033136*
X017858Y033132*
X017862Y033128*
X017866Y033124*
X017871Y033121*
X017876Y033118*
X017880Y033116*
X017886Y033113*
X017891Y033111*
X017896Y033110*
X017902Y033109*
X017907Y033108*
X017913Y033108*
X017918*
X017924Y033108*
X017929Y033109*
X017935Y033110*
X017940Y033111*
X017945Y033113*
X017951Y033116*
X017956Y033118*
X017960Y033121*
X017965Y033124*
X017969Y033128*
X017973Y033132*
X017977Y033136*
X017980Y033140*
X017983Y033145*
X017986Y033150*
X017989Y033155*
X017991Y033160*
X017992Y033165*
X017994Y033171*
X017995Y033176*
X017995Y033182*
X017996Y033188*
X016996D02*
D01*
X016995Y033193*
X016995Y033199*
X016994Y033204*
X016992Y033210*
X016991Y033215*
X016989Y033220*
X016986Y033225*
X016983Y033230*
X016980Y033235*
X016977Y033239*
X016973Y033243*
X016969Y033247*
X016965Y033251*
X016960Y033254*
X016956Y033257*
X016951Y033259*
X016945Y033262*
X016940Y033264*
X016935Y033265*
X016929Y033266*
X016924Y033267*
X016918Y033267*
X016913*
X016907Y033267*
X016902Y033266*
X016896Y033265*
X016891Y033264*
X016886Y033262*
X016880Y033259*
X016876Y033257*
X016871Y033254*
X016866Y033251*
X016862Y033247*
X016858Y033243*
X016854Y033239*
X016851Y033235*
X016848Y033230*
X016845Y033225*
X016842Y033220*
X016840Y033215*
X016839Y033210*
X016837Y033204*
X016836Y033199*
X016836Y033193*
X016836Y033188*
X016836Y033182*
X016836Y033176*
X016837Y033171*
X016839Y033165*
X016840Y033160*
X016842Y033155*
X016845Y033150*
X016848Y033145*
X016851Y033140*
X016854Y033136*
X016858Y033132*
X016862Y033128*
X016866Y033124*
X016871Y033121*
X016876Y033118*
X016880Y033116*
X016886Y033113*
X016891Y033111*
X016896Y033110*
X016902Y033109*
X016907Y033108*
X016913Y033108*
X016918*
X016924Y033108*
X016929Y033109*
X016935Y033110*
X016940Y033111*
X016945Y033113*
X016951Y033116*
X016956Y033118*
X016960Y033121*
X016965Y033124*
X016969Y033128*
X016973Y033132*
X016977Y033136*
X016980Y033140*
X016983Y033145*
X016986Y033150*
X016989Y033155*
X016991Y033160*
X016992Y033165*
X016994Y033171*
X016995Y033176*
X016995Y033182*
X016996Y033188*
X037180Y016100D02*
D01*
X037179Y016105*
X037179Y016111*
X037178Y016116*
X037176Y016122*
X037175Y016127*
X037173Y016132*
X037170Y016137*
X037167Y016142*
X037164Y016147*
X037161Y016151*
X037157Y016155*
X037153Y016159*
X037149Y016163*
X037144Y016166*
X037140Y016169*
X037135Y016171*
X037129Y016174*
X037124Y016176*
X037119Y016177*
X037113Y016178*
X037108Y016179*
X037102Y016179*
X037097*
X037091Y016179*
X037086Y016178*
X037080Y016177*
X037075Y016176*
X037070Y016174*
X037064Y016171*
X037060Y016169*
X037055Y016166*
X037050Y016163*
X037046Y016159*
X037042Y016155*
X037038Y016151*
X037035Y016147*
X037032Y016142*
X037029Y016137*
X037026Y016132*
X037024Y016127*
X037023Y016122*
X037021Y016116*
X037020Y016111*
X037020Y016105*
X037020Y016100*
X037020Y016094*
X037020Y016088*
X037021Y016083*
X037023Y016077*
X037024Y016072*
X037026Y016067*
X037029Y016062*
X037032Y016057*
X037035Y016052*
X037038Y016048*
X037042Y016044*
X037046Y016040*
X037050Y016036*
X037055Y016033*
X037060Y016030*
X037064Y016028*
X037070Y016025*
X037075Y016023*
X037080Y016022*
X037086Y016021*
X037091Y016020*
X037097Y016020*
X037102*
X037108Y016020*
X037113Y016021*
X037119Y016022*
X037124Y016023*
X037129Y016025*
X037135Y016028*
X037140Y016030*
X037144Y016033*
X037149Y016036*
X037153Y016040*
X037157Y016044*
X037161Y016048*
X037164Y016052*
X037167Y016057*
X037170Y016062*
X037173Y016067*
X037175Y016072*
X037176Y016077*
X037178Y016083*
X037179Y016088*
X037179Y016094*
X037180Y016100*
X038180D02*
D01*
X038179Y016105*
X038179Y016111*
X038178Y016116*
X038176Y016122*
X038175Y016127*
X038173Y016132*
X038170Y016137*
X038167Y016142*
X038164Y016147*
X038161Y016151*
X038157Y016155*
X038153Y016159*
X038149Y016163*
X038144Y016166*
X038140Y016169*
X038135Y016171*
X038129Y016174*
X038124Y016176*
X038119Y016177*
X038113Y016178*
X038108Y016179*
X038102Y016179*
X038097*
X038091Y016179*
X038086Y016178*
X038080Y016177*
X038075Y016176*
X038070Y016174*
X038064Y016171*
X038060Y016169*
X038055Y016166*
X038050Y016163*
X038046Y016159*
X038042Y016155*
X038038Y016151*
X038035Y016147*
X038032Y016142*
X038029Y016137*
X038026Y016132*
X038024Y016127*
X038023Y016122*
X038021Y016116*
X038020Y016111*
X038020Y016105*
X038020Y016100*
X038020Y016094*
X038020Y016088*
X038021Y016083*
X038023Y016077*
X038024Y016072*
X038026Y016067*
X038029Y016062*
X038032Y016057*
X038035Y016052*
X038038Y016048*
X038042Y016044*
X038046Y016040*
X038050Y016036*
X038055Y016033*
X038060Y016030*
X038064Y016028*
X038070Y016025*
X038075Y016023*
X038080Y016022*
X038086Y016021*
X038091Y016020*
X038097Y016020*
X038102*
X038108Y016020*
X038113Y016021*
X038119Y016022*
X038124Y016023*
X038129Y016025*
X038135Y016028*
X038140Y016030*
X038144Y016033*
X038149Y016036*
X038153Y016040*
X038157Y016044*
X038161Y016048*
X038164Y016052*
X038167Y016057*
X038170Y016062*
X038173Y016067*
X038175Y016072*
X038176Y016077*
X038178Y016083*
X038179Y016088*
X038179Y016094*
X038180Y016100*
X039180D02*
D01*
X039179Y016105*
X039179Y016111*
X039178Y016116*
X039176Y016122*
X039175Y016127*
X039173Y016132*
X039170Y016137*
X039167Y016142*
X039164Y016147*
X039161Y016151*
X039157Y016155*
X039153Y016159*
X039149Y016163*
X039144Y016166*
X039140Y016169*
X039135Y016171*
X039129Y016174*
X039124Y016176*
X039119Y016177*
X039113Y016178*
X039108Y016179*
X039102Y016179*
X039097*
X039091Y016179*
X039086Y016178*
X039080Y016177*
X039075Y016176*
X039070Y016174*
X039064Y016171*
X039060Y016169*
X039055Y016166*
X039050Y016163*
X039046Y016159*
X039042Y016155*
X039038Y016151*
X039035Y016147*
X039032Y016142*
X039029Y016137*
X039026Y016132*
X039024Y016127*
X039023Y016122*
X039021Y016116*
X039020Y016111*
X039020Y016105*
X039020Y016100*
X039020Y016094*
X039020Y016088*
X039021Y016083*
X039023Y016077*
X039024Y016072*
X039026Y016067*
X039029Y016062*
X039032Y016057*
X039035Y016052*
X039038Y016048*
X039042Y016044*
X039046Y016040*
X039050Y016036*
X039055Y016033*
X039060Y016030*
X039064Y016028*
X039070Y016025*
X039075Y016023*
X039080Y016022*
X039086Y016021*
X039091Y016020*
X039097Y016020*
X039102*
X039108Y016020*
X039113Y016021*
X039119Y016022*
X039124Y016023*
X039129Y016025*
X039135Y016028*
X039140Y016030*
X039144Y016033*
X039149Y016036*
X039153Y016040*
X039157Y016044*
X039161Y016048*
X039164Y016052*
X039167Y016057*
X039170Y016062*
X039173Y016067*
X039175Y016072*
X039176Y016077*
X039178Y016083*
X039179Y016088*
X039179Y016094*
X039180Y016100*
X026880Y033188D02*
D01*
X026879Y033193*
X026879Y033199*
X026878Y033204*
X026876Y033210*
X026875Y033215*
X026873Y033220*
X026870Y033225*
X026867Y033230*
X026864Y033235*
X026861Y033239*
X026857Y033243*
X026853Y033247*
X026849Y033251*
X026844Y033254*
X026840Y033257*
X026835Y033259*
X026829Y033262*
X026824Y033264*
X026819Y033265*
X026813Y033266*
X026808Y033267*
X026802Y033267*
X026797*
X026791Y033267*
X026786Y033266*
X026780Y033265*
X026775Y033264*
X026770Y033262*
X026764Y033259*
X026760Y033257*
X026755Y033254*
X026750Y033251*
X026746Y033247*
X026742Y033243*
X026738Y033239*
X026735Y033235*
X026732Y033230*
X026729Y033225*
X026726Y033220*
X026724Y033215*
X026723Y033210*
X026721Y033204*
X026720Y033199*
X026720Y033193*
X026720Y033188*
X026720Y033182*
X026720Y033176*
X026721Y033171*
X026723Y033165*
X026724Y033160*
X026726Y033155*
X026729Y033150*
X026732Y033145*
X026735Y033140*
X026738Y033136*
X026742Y033132*
X026746Y033128*
X026750Y033124*
X026755Y033121*
X026760Y033118*
X026764Y033116*
X026770Y033113*
X026775Y033111*
X026780Y033110*
X026786Y033109*
X026791Y033108*
X026797Y033108*
X026802*
X026808Y033108*
X026813Y033109*
X026819Y033110*
X026824Y033111*
X026829Y033113*
X026835Y033116*
X026840Y033118*
X026844Y033121*
X026849Y033124*
X026853Y033128*
X026857Y033132*
X026861Y033136*
X026864Y033140*
X026867Y033145*
X026870Y033150*
X026873Y033155*
X026875Y033160*
X026876Y033165*
X026878Y033171*
X026879Y033176*
X026879Y033182*
X026880Y033188*
X025880D02*
D01*
X025879Y033193*
X025879Y033199*
X025878Y033204*
X025876Y033210*
X025875Y033215*
X025873Y033220*
X025870Y033225*
X025867Y033230*
X025864Y033235*
X025861Y033239*
X025857Y033243*
X025853Y033247*
X025849Y033251*
X025844Y033254*
X025840Y033257*
X025835Y033259*
X025829Y033262*
X025824Y033264*
X025819Y033265*
X025813Y033266*
X025808Y033267*
X025802Y033267*
X025797*
X025791Y033267*
X025786Y033266*
X025780Y033265*
X025775Y033264*
X025770Y033262*
X025764Y033259*
X025760Y033257*
X025755Y033254*
X025750Y033251*
X025746Y033247*
X025742Y033243*
X025738Y033239*
X025735Y033235*
X025732Y033230*
X025729Y033225*
X025726Y033220*
X025724Y033215*
X025723Y033210*
X025721Y033204*
X025720Y033199*
X025720Y033193*
X025720Y033188*
X025720Y033182*
X025720Y033176*
X025721Y033171*
X025723Y033165*
X025724Y033160*
X025726Y033155*
X025729Y033150*
X025732Y033145*
X025735Y033140*
X025738Y033136*
X025742Y033132*
X025746Y033128*
X025750Y033124*
X025755Y033121*
X025760Y033118*
X025764Y033116*
X025770Y033113*
X025775Y033111*
X025780Y033110*
X025786Y033109*
X025791Y033108*
X025797Y033108*
X025802*
X025808Y033108*
X025813Y033109*
X025819Y033110*
X025824Y033111*
X025829Y033113*
X025835Y033116*
X025840Y033118*
X025844Y033121*
X025849Y033124*
X025853Y033128*
X025857Y033132*
X025861Y033136*
X025864Y033140*
X025867Y033145*
X025870Y033150*
X025873Y033155*
X025875Y033160*
X025876Y033165*
X025878Y033171*
X025879Y033176*
X025879Y033182*
X025880Y033188*
X024880D02*
D01*
X024879Y033193*
X024879Y033199*
X024878Y033204*
X024876Y033210*
X024875Y033215*
X024873Y033220*
X024870Y033225*
X024867Y033230*
X024864Y033235*
X024861Y033239*
X024857Y033243*
X024853Y033247*
X024849Y033251*
X024844Y033254*
X024840Y033257*
X024835Y033259*
X024829Y033262*
X024824Y033264*
X024819Y033265*
X024813Y033266*
X024808Y033267*
X024802Y033267*
X024797*
X024791Y033267*
X024786Y033266*
X024780Y033265*
X024775Y033264*
X024770Y033262*
X024764Y033259*
X024760Y033257*
X024755Y033254*
X024750Y033251*
X024746Y033247*
X024742Y033243*
X024738Y033239*
X024735Y033235*
X024732Y033230*
X024729Y033225*
X024726Y033220*
X024724Y033215*
X024723Y033210*
X024721Y033204*
X024720Y033199*
X024720Y033193*
X024720Y033188*
X024720Y033182*
X024720Y033176*
X024721Y033171*
X024723Y033165*
X024724Y033160*
X024726Y033155*
X024729Y033150*
X024732Y033145*
X024735Y033140*
X024738Y033136*
X024742Y033132*
X024746Y033128*
X024750Y033124*
X024755Y033121*
X024760Y033118*
X024764Y033116*
X024770Y033113*
X024775Y033111*
X024780Y033110*
X024786Y033109*
X024791Y033108*
X024797Y033108*
X024802*
X024808Y033108*
X024813Y033109*
X024819Y033110*
X024824Y033111*
X024829Y033113*
X024835Y033116*
X024840Y033118*
X024844Y033121*
X024849Y033124*
X024853Y033128*
X024857Y033132*
X024861Y033136*
X024864Y033140*
X024867Y033145*
X024870Y033150*
X024873Y033155*
X024875Y033160*
X024876Y033165*
X024878Y033171*
X024879Y033176*
X024879Y033182*
X024880Y033188*
X029345Y016100D02*
D01*
X029344Y016105*
X029344Y016111*
X029343Y016116*
X029341Y016122*
X029340Y016127*
X029338Y016132*
X029335Y016137*
X029332Y016142*
X029329Y016147*
X029326Y016151*
X029322Y016155*
X029318Y016159*
X029314Y016163*
X029309Y016166*
X029305Y016169*
X029300Y016171*
X029294Y016174*
X029289Y016176*
X029284Y016177*
X029278Y016178*
X029273Y016179*
X029267Y016179*
X029262*
X029256Y016179*
X029251Y016178*
X029245Y016177*
X029240Y016176*
X029235Y016174*
X029229Y016171*
X029225Y016169*
X029220Y016166*
X029215Y016163*
X029211Y016159*
X029207Y016155*
X029203Y016151*
X029200Y016147*
X029197Y016142*
X029194Y016137*
X029191Y016132*
X029189Y016127*
X029188Y016122*
X029186Y016116*
X029185Y016111*
X029185Y016105*
X029185Y016100*
X029185Y016094*
X029185Y016088*
X029186Y016083*
X029188Y016077*
X029189Y016072*
X029191Y016067*
X029194Y016062*
X029197Y016057*
X029200Y016052*
X029203Y016048*
X029207Y016044*
X029211Y016040*
X029215Y016036*
X029220Y016033*
X029225Y016030*
X029229Y016028*
X029235Y016025*
X029240Y016023*
X029245Y016022*
X029251Y016021*
X029256Y016020*
X029262Y016020*
X029267*
X029273Y016020*
X029278Y016021*
X029284Y016022*
X029289Y016023*
X029294Y016025*
X029300Y016028*
X029305Y016030*
X029309Y016033*
X029314Y016036*
X029318Y016040*
X029322Y016044*
X029326Y016048*
X029329Y016052*
X029332Y016057*
X029335Y016062*
X029338Y016067*
X029340Y016072*
X029341Y016077*
X029343Y016083*
X029344Y016088*
X029344Y016094*
X029345Y016100*
X030345D02*
D01*
X030344Y016105*
X030344Y016111*
X030343Y016116*
X030341Y016122*
X030340Y016127*
X030338Y016132*
X030335Y016137*
X030332Y016142*
X030329Y016147*
X030326Y016151*
X030322Y016155*
X030318Y016159*
X030314Y016163*
X030309Y016166*
X030305Y016169*
X030300Y016171*
X030294Y016174*
X030289Y016176*
X030284Y016177*
X030278Y016178*
X030273Y016179*
X030267Y016179*
X030262*
X030256Y016179*
X030251Y016178*
X030245Y016177*
X030240Y016176*
X030235Y016174*
X030229Y016171*
X030225Y016169*
X030220Y016166*
X030215Y016163*
X030211Y016159*
X030207Y016155*
X030203Y016151*
X030200Y016147*
X030197Y016142*
X030194Y016137*
X030191Y016132*
X030189Y016127*
X030188Y016122*
X030186Y016116*
X030185Y016111*
X030185Y016105*
X030185Y016100*
X030185Y016094*
X030185Y016088*
X030186Y016083*
X030188Y016077*
X030189Y016072*
X030191Y016067*
X030194Y016062*
X030197Y016057*
X030200Y016052*
X030203Y016048*
X030207Y016044*
X030211Y016040*
X030215Y016036*
X030220Y016033*
X030225Y016030*
X030229Y016028*
X030235Y016025*
X030240Y016023*
X030245Y016022*
X030251Y016021*
X030256Y016020*
X030262Y016020*
X030267*
X030273Y016020*
X030278Y016021*
X030284Y016022*
X030289Y016023*
X030294Y016025*
X030300Y016028*
X030305Y016030*
X030309Y016033*
X030314Y016036*
X030318Y016040*
X030322Y016044*
X030326Y016048*
X030329Y016052*
X030332Y016057*
X030335Y016062*
X030338Y016067*
X030340Y016072*
X030341Y016077*
X030343Y016083*
X030344Y016088*
X030344Y016094*
X030345Y016100*
X031345D02*
D01*
X031344Y016105*
X031344Y016111*
X031343Y016116*
X031341Y016122*
X031340Y016127*
X031338Y016132*
X031335Y016137*
X031332Y016142*
X031329Y016147*
X031326Y016151*
X031322Y016155*
X031318Y016159*
X031314Y016163*
X031309Y016166*
X031305Y016169*
X031300Y016171*
X031294Y016174*
X031289Y016176*
X031284Y016177*
X031278Y016178*
X031273Y016179*
X031267Y016179*
X031262*
X031256Y016179*
X031251Y016178*
X031245Y016177*
X031240Y016176*
X031235Y016174*
X031229Y016171*
X031225Y016169*
X031220Y016166*
X031215Y016163*
X031211Y016159*
X031207Y016155*
X031203Y016151*
X031200Y016147*
X031197Y016142*
X031194Y016137*
X031191Y016132*
X031189Y016127*
X031188Y016122*
X031186Y016116*
X031185Y016111*
X031185Y016105*
X031185Y016100*
X031185Y016094*
X031185Y016088*
X031186Y016083*
X031188Y016077*
X031189Y016072*
X031191Y016067*
X031194Y016062*
X031197Y016057*
X031200Y016052*
X031203Y016048*
X031207Y016044*
X031211Y016040*
X031215Y016036*
X031220Y016033*
X031225Y016030*
X031229Y016028*
X031235Y016025*
X031240Y016023*
X031245Y016022*
X031251Y016021*
X031256Y016020*
X031262Y016020*
X031267*
X031273Y016020*
X031278Y016021*
X031284Y016022*
X031289Y016023*
X031294Y016025*
X031300Y016028*
X031305Y016030*
X031309Y016033*
X031314Y016036*
X031318Y016040*
X031322Y016044*
X031326Y016048*
X031329Y016052*
X031332Y016057*
X031335Y016062*
X031338Y016067*
X031340Y016072*
X031341Y016077*
X031343Y016083*
X031344Y016088*
X031344Y016094*
X031345Y016100*
X034696Y033188D02*
D01*
X034695Y033193*
X034695Y033199*
X034694Y033204*
X034692Y033210*
X034691Y033215*
X034689Y033220*
X034686Y033225*
X034683Y033230*
X034680Y033235*
X034677Y033239*
X034673Y033243*
X034669Y033247*
X034665Y033251*
X034660Y033254*
X034656Y033257*
X034651Y033259*
X034645Y033262*
X034640Y033264*
X034635Y033265*
X034629Y033266*
X034624Y033267*
X034618Y033267*
X034613*
X034607Y033267*
X034602Y033266*
X034596Y033265*
X034591Y033264*
X034586Y033262*
X034580Y033259*
X034576Y033257*
X034571Y033254*
X034566Y033251*
X034562Y033247*
X034558Y033243*
X034554Y033239*
X034551Y033235*
X034548Y033230*
X034545Y033225*
X034542Y033220*
X034540Y033215*
X034539Y033210*
X034537Y033204*
X034536Y033199*
X034536Y033193*
X034536Y033188*
X034536Y033182*
X034536Y033176*
X034537Y033171*
X034539Y033165*
X034540Y033160*
X034542Y033155*
X034545Y033150*
X034548Y033145*
X034551Y033140*
X034554Y033136*
X034558Y033132*
X034562Y033128*
X034566Y033124*
X034571Y033121*
X034576Y033118*
X034580Y033116*
X034586Y033113*
X034591Y033111*
X034596Y033110*
X034602Y033109*
X034607Y033108*
X034613Y033108*
X034618*
X034624Y033108*
X034629Y033109*
X034635Y033110*
X034640Y033111*
X034645Y033113*
X034651Y033116*
X034656Y033118*
X034660Y033121*
X034665Y033124*
X034669Y033128*
X034673Y033132*
X034677Y033136*
X034680Y033140*
X034683Y033145*
X034686Y033150*
X034689Y033155*
X034691Y033160*
X034692Y033165*
X034694Y033171*
X034695Y033176*
X034695Y033182*
X034696Y033188*
X033696D02*
D01*
X033695Y033193*
X033695Y033199*
X033694Y033204*
X033692Y033210*
X033691Y033215*
X033689Y033220*
X033686Y033225*
X033683Y033230*
X033680Y033235*
X033677Y033239*
X033673Y033243*
X033669Y033247*
X033665Y033251*
X033660Y033254*
X033656Y033257*
X033651Y033259*
X033645Y033262*
X033640Y033264*
X033635Y033265*
X033629Y033266*
X033624Y033267*
X033618Y033267*
X033613*
X033607Y033267*
X033602Y033266*
X033596Y033265*
X033591Y033264*
X033586Y033262*
X033580Y033259*
X033576Y033257*
X033571Y033254*
X033566Y033251*
X033562Y033247*
X033558Y033243*
X033554Y033239*
X033551Y033235*
X033548Y033230*
X033545Y033225*
X033542Y033220*
X033540Y033215*
X033539Y033210*
X033537Y033204*
X033536Y033199*
X033536Y033193*
X033536Y033188*
X033536Y033182*
X033536Y033176*
X033537Y033171*
X033539Y033165*
X033540Y033160*
X033542Y033155*
X033545Y033150*
X033548Y033145*
X033551Y033140*
X033554Y033136*
X033558Y033132*
X033562Y033128*
X033566Y033124*
X033571Y033121*
X033576Y033118*
X033580Y033116*
X033586Y033113*
X033591Y033111*
X033596Y033110*
X033602Y033109*
X033607Y033108*
X033613Y033108*
X033618*
X033624Y033108*
X033629Y033109*
X033635Y033110*
X033640Y033111*
X033645Y033113*
X033651Y033116*
X033656Y033118*
X033660Y033121*
X033665Y033124*
X033669Y033128*
X033673Y033132*
X033677Y033136*
X033680Y033140*
X033683Y033145*
X033686Y033150*
X033689Y033155*
X033691Y033160*
X033692Y033165*
X033694Y033171*
X033695Y033176*
X033695Y033182*
X033696Y033188*
X032696D02*
D01*
X032695Y033193*
X032695Y033199*
X032694Y033204*
X032692Y033210*
X032691Y033215*
X032689Y033220*
X032686Y033225*
X032683Y033230*
X032680Y033235*
X032677Y033239*
X032673Y033243*
X032669Y033247*
X032665Y033251*
X032660Y033254*
X032656Y033257*
X032651Y033259*
X032645Y033262*
X032640Y033264*
X032635Y033265*
X032629Y033266*
X032624Y033267*
X032618Y033267*
X032613*
X032607Y033267*
X032602Y033266*
X032596Y033265*
X032591Y033264*
X032586Y033262*
X032580Y033259*
X032576Y033257*
X032571Y033254*
X032566Y033251*
X032562Y033247*
X032558Y033243*
X032554Y033239*
X032551Y033235*
X032548Y033230*
X032545Y033225*
X032542Y033220*
X032540Y033215*
X032539Y033210*
X032537Y033204*
X032536Y033199*
X032536Y033193*
X032536Y033188*
X032536Y033182*
X032536Y033176*
X032537Y033171*
X032539Y033165*
X032540Y033160*
X032542Y033155*
X032545Y033150*
X032548Y033145*
X032551Y033140*
X032554Y033136*
X032558Y033132*
X032562Y033128*
X032566Y033124*
X032571Y033121*
X032576Y033118*
X032580Y033116*
X032586Y033113*
X032591Y033111*
X032596Y033110*
X032602Y033109*
X032607Y033108*
X032613Y033108*
X032618*
X032624Y033108*
X032629Y033109*
X032635Y033110*
X032640Y033111*
X032645Y033113*
X032651Y033116*
X032656Y033118*
X032660Y033121*
X032665Y033124*
X032669Y033128*
X032673Y033132*
X032677Y033136*
X032680Y033140*
X032683Y033145*
X032686Y033150*
X032689Y033155*
X032691Y033160*
X032692Y033165*
X032694Y033171*
X032695Y033176*
X032695Y033182*
X032696Y033188*
X021491Y016100D02*
D01*
X021490Y016105*
X021490Y016111*
X021489Y016116*
X021487Y016122*
X021486Y016127*
X021484Y016132*
X021481Y016137*
X021478Y016142*
X021475Y016147*
X021472Y016151*
X021468Y016155*
X021464Y016159*
X021460Y016163*
X021455Y016166*
X021451Y016169*
X021446Y016171*
X021440Y016174*
X021435Y016176*
X021430Y016177*
X021424Y016178*
X021419Y016179*
X021413Y016179*
X021408*
X021402Y016179*
X021397Y016178*
X021391Y016177*
X021386Y016176*
X021381Y016174*
X021375Y016171*
X021371Y016169*
X021366Y016166*
X021361Y016163*
X021357Y016159*
X021353Y016155*
X021349Y016151*
X021346Y016147*
X021343Y016142*
X021340Y016137*
X021337Y016132*
X021335Y016127*
X021334Y016122*
X021332Y016116*
X021331Y016111*
X021331Y016105*
X021331Y016100*
X021331Y016094*
X021331Y016088*
X021332Y016083*
X021334Y016077*
X021335Y016072*
X021337Y016067*
X021340Y016062*
X021343Y016057*
X021346Y016052*
X021349Y016048*
X021353Y016044*
X021357Y016040*
X021361Y016036*
X021366Y016033*
X021371Y016030*
X021375Y016028*
X021381Y016025*
X021386Y016023*
X021391Y016022*
X021397Y016021*
X021402Y016020*
X021408Y016020*
X021413*
X021419Y016020*
X021424Y016021*
X021430Y016022*
X021435Y016023*
X021440Y016025*
X021446Y016028*
X021451Y016030*
X021455Y016033*
X021460Y016036*
X021464Y016040*
X021468Y016044*
X021472Y016048*
X021475Y016052*
X021478Y016057*
X021481Y016062*
X021484Y016067*
X021486Y016072*
X021487Y016077*
X021489Y016083*
X021490Y016088*
X021490Y016094*
X021491Y016100*
X022492D02*
D01*
X022491Y016105*
X022491Y016111*
X022490Y016116*
X022488Y016122*
X022487Y016127*
X022485Y016132*
X022482Y016137*
X022479Y016142*
X022476Y016147*
X022473Y016151*
X022469Y016155*
X022465Y016159*
X022461Y016163*
X022456Y016166*
X022452Y016169*
X022447Y016171*
X022441Y016174*
X022436Y016176*
X022431Y016177*
X022425Y016178*
X022420Y016179*
X022414Y016179*
X022409*
X022403Y016179*
X022398Y016178*
X022392Y016177*
X022387Y016176*
X022382Y016174*
X022376Y016171*
X022372Y016169*
X022367Y016166*
X022362Y016163*
X022358Y016159*
X022354Y016155*
X022350Y016151*
X022347Y016147*
X022344Y016142*
X022341Y016137*
X022338Y016132*
X022336Y016127*
X022335Y016122*
X022333Y016116*
X022332Y016111*
X022332Y016105*
X022332Y016100*
X022332Y016094*
X022332Y016088*
X022333Y016083*
X022335Y016077*
X022336Y016072*
X022338Y016067*
X022341Y016062*
X022344Y016057*
X022347Y016052*
X022350Y016048*
X022354Y016044*
X022358Y016040*
X022362Y016036*
X022367Y016033*
X022372Y016030*
X022376Y016028*
X022382Y016025*
X022387Y016023*
X022392Y016022*
X022398Y016021*
X022403Y016020*
X022409Y016020*
X022414*
X022420Y016020*
X022425Y016021*
X022431Y016022*
X022436Y016023*
X022441Y016025*
X022447Y016028*
X022452Y016030*
X022456Y016033*
X022461Y016036*
X022465Y016040*
X022469Y016044*
X022473Y016048*
X022476Y016052*
X022479Y016057*
X022482Y016062*
X022485Y016067*
X022487Y016072*
X022488Y016077*
X022490Y016083*
X022491Y016088*
X022491Y016094*
X022492Y016100*
X023491D02*
D01*
X023490Y016105*
X023490Y016111*
X023489Y016116*
X023487Y016122*
X023486Y016127*
X023484Y016132*
X023481Y016137*
X023478Y016142*
X023475Y016147*
X023472Y016151*
X023468Y016155*
X023464Y016159*
X023460Y016163*
X023455Y016166*
X023451Y016169*
X023446Y016171*
X023440Y016174*
X023435Y016176*
X023430Y016177*
X023424Y016178*
X023419Y016179*
X023413Y016179*
X023408*
X023402Y016179*
X023397Y016178*
X023391Y016177*
X023386Y016176*
X023381Y016174*
X023375Y016171*
X023371Y016169*
X023366Y016166*
X023361Y016163*
X023357Y016159*
X023353Y016155*
X023349Y016151*
X023346Y016147*
X023343Y016142*
X023340Y016137*
X023337Y016132*
X023335Y016127*
X023334Y016122*
X023332Y016116*
X023331Y016111*
X023331Y016105*
X023331Y016100*
X023331Y016094*
X023331Y016088*
X023332Y016083*
X023334Y016077*
X023335Y016072*
X023337Y016067*
X023340Y016062*
X023343Y016057*
X023346Y016052*
X023349Y016048*
X023353Y016044*
X023357Y016040*
X023361Y016036*
X023366Y016033*
X023371Y016030*
X023375Y016028*
X023381Y016025*
X023386Y016023*
X023391Y016022*
X023397Y016021*
X023402Y016020*
X023408Y016020*
X023413*
X023419Y016020*
X023424Y016021*
X023430Y016022*
X023435Y016023*
X023440Y016025*
X023446Y016028*
X023451Y016030*
X023455Y016033*
X023460Y016036*
X023464Y016040*
X023468Y016044*
X023472Y016048*
X023475Y016052*
X023478Y016057*
X023481Y016062*
X023484Y016067*
X023486Y016072*
X023487Y016077*
X023489Y016083*
X023490Y016088*
X023490Y016094*
X023491Y016100*
X042664Y033200D02*
D01*
X042663Y033205*
X042663Y033211*
X042662Y033216*
X042660Y033222*
X042659Y033227*
X042657Y033232*
X042654Y033237*
X042651Y033242*
X042648Y033247*
X042645Y033251*
X042641Y033255*
X042637Y033259*
X042633Y033263*
X042628Y033266*
X042624Y033269*
X042619Y033271*
X042613Y033274*
X042608Y033276*
X042603Y033277*
X042597Y033278*
X042592Y033279*
X042586Y033279*
X042581*
X042575Y033279*
X042570Y033278*
X042564Y033277*
X042559Y033276*
X042554Y033274*
X042548Y033271*
X042544Y033269*
X042539Y033266*
X042534Y033263*
X042530Y033259*
X042526Y033255*
X042522Y033251*
X042519Y033247*
X042516Y033242*
X042513Y033237*
X042510Y033232*
X042508Y033227*
X042507Y033222*
X042505Y033216*
X042504Y033211*
X042504Y033205*
X042504Y033200*
X042504Y033194*
X042504Y033188*
X042505Y033183*
X042507Y033177*
X042508Y033172*
X042510Y033167*
X042513Y033162*
X042516Y033157*
X042519Y033152*
X042522Y033148*
X042526Y033144*
X042530Y033140*
X042534Y033136*
X042539Y033133*
X042544Y033130*
X042548Y033128*
X042554Y033125*
X042559Y033123*
X042564Y033122*
X042570Y033121*
X042575Y033120*
X042581Y033120*
X042586*
X042592Y033120*
X042597Y033121*
X042603Y033122*
X042608Y033123*
X042613Y033125*
X042619Y033128*
X042624Y033130*
X042628Y033133*
X042633Y033136*
X042637Y033140*
X042641Y033144*
X042645Y033148*
X042648Y033152*
X042651Y033157*
X042654Y033162*
X042657Y033167*
X042659Y033172*
X042660Y033177*
X042662Y033183*
X042663Y033188*
X042663Y033194*
X042664Y033200*
X041664D02*
D01*
X041663Y033205*
X041663Y033211*
X041662Y033216*
X041660Y033222*
X041659Y033227*
X041657Y033232*
X041654Y033237*
X041651Y033242*
X041648Y033247*
X041645Y033251*
X041641Y033255*
X041637Y033259*
X041633Y033263*
X041628Y033266*
X041624Y033269*
X041619Y033271*
X041613Y033274*
X041608Y033276*
X041603Y033277*
X041597Y033278*
X041592Y033279*
X041586Y033279*
X041581*
X041575Y033279*
X041570Y033278*
X041564Y033277*
X041559Y033276*
X041554Y033274*
X041548Y033271*
X041544Y033269*
X041539Y033266*
X041534Y033263*
X041530Y033259*
X041526Y033255*
X041522Y033251*
X041519Y033247*
X041516Y033242*
X041513Y033237*
X041510Y033232*
X041508Y033227*
X041507Y033222*
X041505Y033216*
X041504Y033211*
X041504Y033205*
X041504Y033200*
X041504Y033194*
X041504Y033188*
X041505Y033183*
X041507Y033177*
X041508Y033172*
X041510Y033167*
X041513Y033162*
X041516Y033157*
X041519Y033152*
X041522Y033148*
X041526Y033144*
X041530Y033140*
X041534Y033136*
X041539Y033133*
X041544Y033130*
X041548Y033128*
X041554Y033125*
X041559Y033123*
X041564Y033122*
X041570Y033121*
X041575Y033120*
X041581Y033120*
X041586*
X041592Y033120*
X041597Y033121*
X041603Y033122*
X041608Y033123*
X041613Y033125*
X041619Y033128*
X041624Y033130*
X041628Y033133*
X041633Y033136*
X041637Y033140*
X041641Y033144*
X041645Y033148*
X041648Y033152*
X041651Y033157*
X041654Y033162*
X041657Y033167*
X041659Y033172*
X041660Y033177*
X041662Y033183*
X041663Y033188*
X041663Y033194*
X041664Y033200*
X040664D02*
D01*
X040663Y033205*
X040663Y033211*
X040662Y033216*
X040660Y033222*
X040659Y033227*
X040657Y033232*
X040654Y033237*
X040651Y033242*
X040648Y033247*
X040645Y033251*
X040641Y033255*
X040637Y033259*
X040633Y033263*
X040628Y033266*
X040624Y033269*
X040619Y033271*
X040613Y033274*
X040608Y033276*
X040603Y033277*
X040597Y033278*
X040592Y033279*
X040586Y033279*
X040581*
X040575Y033279*
X040570Y033278*
X040564Y033277*
X040559Y033276*
X040554Y033274*
X040548Y033271*
X040544Y033269*
X040539Y033266*
X040534Y033263*
X040530Y033259*
X040526Y033255*
X040522Y033251*
X040519Y033247*
X040516Y033242*
X040513Y033237*
X040510Y033232*
X040508Y033227*
X040507Y033222*
X040505Y033216*
X040504Y033211*
X040504Y033205*
X040504Y033200*
X040504Y033194*
X040504Y033188*
X040505Y033183*
X040507Y033177*
X040508Y033172*
X040510Y033167*
X040513Y033162*
X040516Y033157*
X040519Y033152*
X040522Y033148*
X040526Y033144*
X040530Y033140*
X040534Y033136*
X040539Y033133*
X040544Y033130*
X040548Y033128*
X040554Y033125*
X040559Y033123*
X040564Y033122*
X040570Y033121*
X040575Y033120*
X040581Y033120*
X040586*
X040592Y033120*
X040597Y033121*
X040603Y033122*
X040608Y033123*
X040613Y033125*
X040619Y033128*
X040624Y033130*
X040628Y033133*
X040633Y033136*
X040637Y033140*
X040641Y033144*
X040645Y033148*
X040648Y033152*
X040651Y033157*
X040654Y033162*
X040657Y033167*
X040659Y033172*
X040660Y033177*
X040662Y033183*
X040663Y033188*
X040663Y033194*
X040664Y033200*
X013596Y016100D02*
D01*
X013595Y016105*
X013595Y016111*
X013594Y016116*
X013592Y016122*
X013591Y016127*
X013589Y016132*
X013586Y016137*
X013583Y016142*
X013580Y016147*
X013577Y016151*
X013573Y016155*
X013569Y016159*
X013565Y016163*
X013560Y016166*
X013556Y016169*
X013551Y016171*
X013545Y016174*
X013540Y016176*
X013535Y016177*
X013529Y016178*
X013524Y016179*
X013518Y016179*
X013513*
X013507Y016179*
X013502Y016178*
X013496Y016177*
X013491Y016176*
X013486Y016174*
X013480Y016171*
X013476Y016169*
X013471Y016166*
X013466Y016163*
X013462Y016159*
X013458Y016155*
X013454Y016151*
X013451Y016147*
X013448Y016142*
X013445Y016137*
X013442Y016132*
X013440Y016127*
X013439Y016122*
X013437Y016116*
X013436Y016111*
X013436Y016105*
X013436Y016100*
X013436Y016094*
X013436Y016088*
X013437Y016083*
X013439Y016077*
X013440Y016072*
X013442Y016067*
X013445Y016062*
X013448Y016057*
X013451Y016052*
X013454Y016048*
X013458Y016044*
X013462Y016040*
X013466Y016036*
X013471Y016033*
X013476Y016030*
X013480Y016028*
X013486Y016025*
X013491Y016023*
X013496Y016022*
X013502Y016021*
X013507Y016020*
X013513Y016020*
X013518*
X013524Y016020*
X013529Y016021*
X013535Y016022*
X013540Y016023*
X013545Y016025*
X013551Y016028*
X013556Y016030*
X013560Y016033*
X013565Y016036*
X013569Y016040*
X013573Y016044*
X013577Y016048*
X013580Y016052*
X013583Y016057*
X013586Y016062*
X013589Y016067*
X013591Y016072*
X013592Y016077*
X013594Y016083*
X013595Y016088*
X013595Y016094*
X013596Y016100*
X014596D02*
D01*
X014595Y016105*
X014595Y016111*
X014594Y016116*
X014592Y016122*
X014591Y016127*
X014589Y016132*
X014586Y016137*
X014583Y016142*
X014580Y016147*
X014577Y016151*
X014573Y016155*
X014569Y016159*
X014565Y016163*
X014560Y016166*
X014556Y016169*
X014551Y016171*
X014545Y016174*
X014540Y016176*
X014535Y016177*
X014529Y016178*
X014524Y016179*
X014518Y016179*
X014513*
X014507Y016179*
X014502Y016178*
X014496Y016177*
X014491Y016176*
X014486Y016174*
X014480Y016171*
X014476Y016169*
X014471Y016166*
X014466Y016163*
X014462Y016159*
X014458Y016155*
X014454Y016151*
X014451Y016147*
X014448Y016142*
X014445Y016137*
X014442Y016132*
X014440Y016127*
X014439Y016122*
X014437Y016116*
X014436Y016111*
X014436Y016105*
X014436Y016100*
X014436Y016094*
X014436Y016088*
X014437Y016083*
X014439Y016077*
X014440Y016072*
X014442Y016067*
X014445Y016062*
X014448Y016057*
X014451Y016052*
X014454Y016048*
X014458Y016044*
X014462Y016040*
X014466Y016036*
X014471Y016033*
X014476Y016030*
X014480Y016028*
X014486Y016025*
X014491Y016023*
X014496Y016022*
X014502Y016021*
X014507Y016020*
X014513Y016020*
X014518*
X014524Y016020*
X014529Y016021*
X014535Y016022*
X014540Y016023*
X014545Y016025*
X014551Y016028*
X014556Y016030*
X014560Y016033*
X014565Y016036*
X014569Y016040*
X014573Y016044*
X014577Y016048*
X014580Y016052*
X014583Y016057*
X014586Y016062*
X014589Y016067*
X014591Y016072*
X014592Y016077*
X014594Y016083*
X014595Y016088*
X014595Y016094*
X014596Y016100*
X015596D02*
D01*
X015595Y016105*
X015595Y016111*
X015594Y016116*
X015592Y016122*
X015591Y016127*
X015589Y016132*
X015586Y016137*
X015583Y016142*
X015580Y016147*
X015577Y016151*
X015573Y016155*
X015569Y016159*
X015565Y016163*
X015560Y016166*
X015556Y016169*
X015551Y016171*
X015545Y016174*
X015540Y016176*
X015535Y016177*
X015529Y016178*
X015524Y016179*
X015518Y016179*
X015513*
X015507Y016179*
X015502Y016178*
X015496Y016177*
X015491Y016176*
X015486Y016174*
X015480Y016171*
X015476Y016169*
X015471Y016166*
X015466Y016163*
X015462Y016159*
X015458Y016155*
X015454Y016151*
X015451Y016147*
X015448Y016142*
X015445Y016137*
X015442Y016132*
X015440Y016127*
X015439Y016122*
X015437Y016116*
X015436Y016111*
X015436Y016105*
X015436Y016100*
X015436Y016094*
X015436Y016088*
X015437Y016083*
X015439Y016077*
X015440Y016072*
X015442Y016067*
X015445Y016062*
X015448Y016057*
X015451Y016052*
X015454Y016048*
X015458Y016044*
X015462Y016040*
X015466Y016036*
X015471Y016033*
X015476Y016030*
X015480Y016028*
X015486Y016025*
X015491Y016023*
X015496Y016022*
X015502Y016021*
X015507Y016020*
X015513Y016020*
X015518*
X015524Y016020*
X015529Y016021*
X015535Y016022*
X015540Y016023*
X015545Y016025*
X015551Y016028*
X015556Y016030*
X015560Y016033*
X015565Y016036*
X015569Y016040*
X015573Y016044*
X015577Y016048*
X015580Y016052*
X015583Y016057*
X015586Y016062*
X015589Y016067*
X015591Y016072*
X015592Y016077*
X015594Y016083*
X015595Y016088*
X015595Y016094*
X015596Y016100*
M02*