%FSDAX24Y24*%
%MOIN*%
%SFA1B1*%

%IPPOS*%
%ADD10O,0.023600X0.086600*%
%ADD11O,0.086600X0.023600*%
%ADD12R,0.059800X0.024000*%
%ADD13O,0.059800X0.024000*%
%ADD14R,0.027600X0.015700*%
%ADD15R,0.015700X0.027600*%
%ADD16R,0.059100X0.023600*%
%ADD17R,0.043300X0.039400*%
%ADD18R,0.039400X0.043300*%
%ADD19R,0.031500X0.031500*%
%ADD20R,0.021700X0.057100*%
%ADD21R,0.057100X0.021700*%
%ADD22R,0.051200X0.059100*%
%ADD23C,0.010000*%
%ADD24C,0.030000*%
%ADD25C,0.020000*%
%ADD26C,0.080000*%
%ADD27C,0.050000*%
%ADD28C,0.060000*%
%ADD29R,0.520000X0.380000*%
%ADD30C,0.060000*%
%ADD31R,0.066900X0.066900*%
%ADD32C,0.066900*%
%ADD33C,0.059100*%
%ADD34R,0.059100X0.059100*%
%ADD35R,0.066900X0.066900*%
%ADD36C,0.098400*%
%ADD37R,0.059100X0.059100*%
%ADD38C,0.078700*%
%ADD39C,0.047200*%
%ADD40R,0.053100X0.053100*%
%ADD41C,0.053100*%
%ADD42C,0.030000*%
%LNde-010824-1*%
%LPD*%
G54D10*
X057150Y033145D03*
X056650D03*
X056150D03*
X055650D03*
X057150Y031255D03*
X056650D03*
X056150D03*
X055650D03*
G54D11*
X046355Y033450D03*
Y032950D03*
Y032450D03*
Y031950D03*
X048245Y033450D03*
Y032950D03*
Y032450D03*
Y031950D03*
X046355Y030650D03*
Y030150D03*
Y029650D03*
Y029150D03*
X048245Y030650D03*
Y030150D03*
Y029650D03*
Y029150D03*
G54D12*
X051235Y033400D03*
G54D13*
X051235Y032900D03*
Y032400D03*
Y031900D03*
X053400Y033400D03*
Y032900D03*
Y032400D03*
Y031900D03*
G54D14*
X050300Y031900D03*
Y032156D03*
Y032412D03*
X049493D03*
Y031900D03*
G54D15*
X055644Y029396D03*
X055900D03*
X056156D03*
Y030204D03*
X055644D03*
G54D16*
X055774Y024800D03*
X055026Y024426D03*
Y025174D03*
G54D17*
X014950Y031950D03*
X014281D03*
X041065Y017300D03*
X041735D03*
X022835Y031950D03*
X022165D03*
X033131Y017300D03*
X033800D03*
X030650Y031988D03*
X029981D03*
X025237Y017200D03*
X025906D03*
X038619Y031950D03*
X037950D03*
X017281Y017100D03*
X017950D03*
X049535Y031300D03*
X048865D03*
X049465Y033800D03*
X050135D03*
X059265Y029800D03*
X059935D03*
X055635Y023850D03*
X054965D03*
X050235Y028300D03*
X049565D03*
X048265D03*
X048935D03*
X059265Y022600D03*
X059935D03*
X059265Y021600D03*
X059935D03*
X059265Y020600D03*
X059935D03*
X055335Y033900D03*
X054665D03*
X046065Y031300D03*
X046735D03*
X053165Y026700D03*
X053835D03*
X051065Y027500D03*
X051735D03*
X051435Y022200D03*
X050765D03*
X051435Y022800D03*
X050765D03*
X046065Y028500D03*
X046735D03*
G54D18*
X055000Y030265D03*
Y030935D03*
X057900Y029735D03*
Y029065D03*
X044650Y031881D03*
Y032550D03*
X045250Y031865D03*
Y032535D03*
X049500Y029635D03*
Y028965D03*
X051500Y024200D03*
Y023531D03*
X058600Y029735D03*
Y029065D03*
X050800Y034735D03*
Y034065D03*
X053600Y034735D03*
Y034065D03*
X051400Y034735D03*
Y034065D03*
G54D19*
X013411Y031950D03*
X012820D03*
X042605Y017350D03*
X043195D03*
X021295Y031950D03*
X020705D03*
X034770Y017350D03*
X035361D03*
X029111Y031950D03*
X028520D03*
X026876Y017350D03*
X027467D03*
X037080Y031950D03*
X036489D03*
X018920Y017350D03*
X019511D03*
X058295Y022600D03*
X057705D03*
X058295Y021600D03*
X057705D03*
X058295Y020600D03*
X057705D03*
G54D20*
X057100Y030063D03*
Y029137D03*
G54D21*
X049437Y033100D03*
X050363D03*
G54D22*
X053126Y027400D03*
X053874D03*
X053126Y028200D03*
X053874D03*
X051026D03*
X051774D03*
G54D23*
X056546Y029396D02*
X056550Y029400D01*
X056156Y029396D02*
X056546D01*
X031900Y020000D02*
Y023550D01*
X032640Y024290*
X035200Y018700D02*
X035790Y019290D01*
X031800Y025950D02*
Y029300D01*
Y025950D02*
X032540Y025210D01*
X039800Y026050D02*
Y029300D01*
Y026050D02*
X040460Y025390D01*
X013000Y030350D02*
X013750Y029600D01*
X020850Y030450D02*
Y031200D01*
X047500Y023500D02*
Y024100D01*
X048670Y024670D02*
X049150Y025150D01*
X032640Y024290D02*
X043960D01*
X044150Y024100*
Y020500D02*
Y024100D01*
X044450Y020850D02*
Y024055D01*
X044109Y024650D02*
X044800Y023959D01*
Y021200D02*
Y023959D01*
X040050Y020400D02*
X043150D01*
X043450Y020100*
X044350*
X045300Y021050*
Y023900*
X046070Y024670*
X048670*
X048450Y024850D02*
X049198Y025598D01*
X050198*
X024720Y025030D02*
X048375D01*
X049295Y025950*
X049917*
X032540Y025210D02*
X048301D01*
X049341Y026250*
X049633*
X040460Y025390D02*
X048190D01*
X049350Y026550*
X043600Y023100D02*
Y024000D01*
X046050Y021900D02*
Y022100D01*
X046150Y022200*
X045650Y021900D02*
Y022100D01*
X045930Y022380*
X046150Y022200D02*
X046600D01*
X046800Y022000*
X047550*
X046675Y022380D02*
X046755Y022300D01*
X047300*
X045930Y022380D02*
X046675D01*
X046450Y021900D02*
X046650Y021700D01*
X047800*
X020850Y030450D02*
X021520Y029780D01*
X044017Y030100D02*
X044050D01*
X043490Y030140D02*
X043700Y030350D01*
X043877Y029960D02*
X044017Y030100D01*
X043900Y029600D02*
X044000Y029500D01*
X044550*
X048245Y029650D02*
X049485D01*
X049500Y029635*
X048245Y029650D02*
Y030150D01*
Y028320D02*
Y029150D01*
Y028320D02*
X048265Y028300D01*
X047700Y029650D02*
X048245D01*
X047550Y029500D02*
X047700Y029650D01*
X047550Y030650D02*
X048245D01*
X047350Y030450D02*
X047550Y030650D01*
X048935Y028300D02*
X049565D01*
X047550Y028100D02*
Y029500D01*
Y028100D02*
X047750Y027900D01*
X047350Y028000D02*
Y030450D01*
Y028000D02*
X047650Y027700D01*
X047750Y027900D02*
X048800D01*
X050720Y025980*
X047650Y027700D02*
X048745D01*
X050540Y025905*
Y025290D02*
Y025905D01*
X048935Y028020D02*
Y028300D01*
Y028020D02*
X050900Y026055D01*
X049742Y022900D02*
X049800D01*
X048870Y023620D02*
X050540Y025290D01*
X048870Y023230D02*
Y023620D01*
Y023230D02*
X049200Y022900D01*
X049742*
X049150Y023500D02*
X050720Y025070D01*
Y025980*
X049525Y023325D02*
X050900Y024700D01*
Y026055*
X051535Y022300D02*
X052450D01*
X051435Y022200D02*
X051500Y022265D01*
X051535Y022300*
X053170Y021370D02*
X053200Y021400D01*
X053170Y021075D02*
Y021370D01*
X052920Y021670D02*
X052950Y021700D01*
X052920Y021079D02*
Y021670D01*
X052670Y021970D02*
X052700Y022000D01*
X052670Y021084D02*
Y021970D01*
X049446Y021504D02*
Y022250D01*
X050020Y022532D02*
X050037Y022550D01*
X050020Y021185D02*
Y022532D01*
Y021185D02*
X050425Y020780D01*
X043220Y019110D02*
X051460D01*
X035790Y019290D02*
X051385D01*
X051460Y019110D02*
X053450Y021100D01*
X051385Y019290D02*
X053170Y021075D01*
X051311Y019470D02*
X052920Y021079D01*
X051236Y019650D02*
X052670Y021084D01*
X050480Y020470D02*
X051530D01*
X049446Y021504D02*
X050480Y020470D01*
X051780Y020780D02*
X051800Y020800D01*
X050425Y020780D02*
X051780D01*
X057850Y021050D02*
X058000Y021200D01*
X057100Y024000D02*
X057600D01*
X058000Y023600*
Y021200D02*
Y023600D01*
X054450Y022700D02*
Y023150D01*
X054600Y023300*
X056000*
X056420Y023720*
X054150Y022400D02*
Y023105D01*
X055900Y023500D02*
X056240Y023840D01*
X054150Y023105D02*
X054545Y023500D01*
X055900*
X054750Y023000D02*
X055955D01*
X056600Y023645*
X056240Y023840D02*
Y026140D01*
X057100Y027000*
X056420Y023720D02*
Y025320D01*
X057100Y026000*
X053700Y020800D02*
X053950Y021050D01*
X057850*
X054000Y020500D02*
X054100Y020600D01*
X057705*
X054150Y021550D02*
Y021900D01*
Y021550D02*
X054350Y021350D01*
X057100*
X057350Y021600*
X057705*
X054450Y021700D02*
X056500D01*
X057400Y022600*
X057705*
X056600Y023645D02*
Y024500D01*
X057100Y025000*
X049288Y032412D02*
X049493D01*
X049000Y032700D02*
X049288Y032412D01*
X048245Y032700D02*
X049000D01*
X048245Y032450D02*
Y032700D01*
Y032950*
X050363Y033100D02*
Y033337D01*
X050135Y033565D02*
X050363Y033337D01*
X050135Y033565D02*
Y033800D01*
X050615Y034065D02*
X050800D01*
X050350Y033800D02*
X050615Y034065D01*
X050135Y033800D02*
X050350D01*
X050363Y032813D02*
Y033100D01*
X050250Y032700D02*
X050363Y032813D01*
X048245Y033450D02*
X049087D01*
X049437Y033100*
X049465Y033128D02*
Y033800D01*
X049437Y033100D02*
X049465Y033128D01*
X048245Y031555D02*
Y031950D01*
Y031555D02*
X048500Y031300D01*
X048865*
X057063Y029100D02*
X057100Y029137D01*
X055950Y029100D02*
X057063D01*
X055900Y029150D02*
X055950Y029100D01*
X055900Y029150D02*
Y029396D01*
X055062Y030204D02*
X055644D01*
X055000Y030265D02*
X055062Y030204D01*
X019150Y017950D02*
Y018800D01*
X013000Y030350D02*
Y031200D01*
X014400Y031550D02*
X015250Y030700D01*
X012820Y031730D02*
Y031950D01*
Y031730D02*
X013000Y031550D01*
X014400*
X014916Y033200D02*
X014950Y033165D01*
X024150Y029238D02*
X024200Y029288D01*
X024150Y025600D02*
X024720Y025030D01*
X024150Y025600D02*
Y029238D01*
X036750Y030450D02*
Y031250D01*
Y030450D02*
X037060Y030140D01*
X043490*
X020705Y031745D02*
X020900Y031550D01*
X023150*
X023950Y030750*
X028520Y031730D02*
Y031950D01*
Y031730D02*
X028750Y031500D01*
X031000*
X031450Y031050*
X036489Y031950D02*
X036889Y031550D01*
X039150*
X039500Y031200*
Y030500D02*
X040500D01*
X041700Y031700*
X043419Y032731D02*
Y034181D01*
X041700Y031700D02*
X042388D01*
X043419Y032731*
X035000Y034000D02*
X035250Y033750D01*
X013750Y029600D02*
X043900D01*
X021520Y029780D02*
X044280D01*
X028940Y029960D02*
X043877D01*
X032800Y030350D02*
X035250Y032800D01*
Y033750*
X031450Y030350D02*
X032800D01*
X020705Y031745D02*
Y031950D01*
X023950Y030200D02*
X024900D01*
X027450Y032750*
Y033700*
X027150Y034000D02*
X027450Y033700D01*
X028700Y030200D02*
X028940Y029960D01*
X028700Y030200D02*
Y031200D01*
X015250Y030053D02*
X016853D01*
X019550Y032750*
Y033750*
X019300Y034000D02*
X019550Y033750D01*
X012900Y015600D02*
X013200Y015300D01*
X012900Y015600D02*
Y016600D01*
X015600Y019300*
X016200*
X023450Y019250D02*
X024350D01*
X019350Y017600D02*
X019511Y017439D01*
X016800Y017600D02*
X019350D01*
X016200Y018200D02*
X016800Y017600D01*
X016200Y018200D02*
Y018550D01*
X027200Y017850D02*
Y017950D01*
Y018550*
X035200Y017950D02*
Y018700D01*
X027350Y017650D02*
X027467Y017533D01*
X024750Y017650D02*
X027350D01*
X024350Y018050D02*
X024750Y017650D01*
X024350Y018050D02*
Y018500D01*
X035200Y017650D02*
X035361Y017489D01*
Y017350D02*
Y017489D01*
X032250Y018150D02*
Y018500D01*
Y018150D02*
X032750Y017650D01*
X035200*
X042750Y018100D02*
Y018640D01*
X043220Y019110*
X040200Y018150D02*
X040600Y017750D01*
X042950*
X043195Y017505*
Y017350D02*
Y017505D01*
X037977Y018127D02*
X039373D01*
X050300Y032412D02*
X050588D01*
X050750Y032250*
Y032050D02*
Y032250D01*
Y032050D02*
X050900Y031900D01*
X051235*
X049437Y033100D02*
X049815Y032723D01*
X050100Y032700D02*
X050250D01*
X049995Y032595D02*
X050100Y032700D01*
X049995Y032205D02*
Y032595D01*
Y032205D02*
X050044Y032156D01*
X050300*
X048865Y031135D02*
Y031300D01*
X051600Y031200D02*
X051700Y031300D01*
X051235Y032900D02*
X051600D01*
X051900Y032600*
Y031100D02*
Y032600D01*
X051235Y032400D02*
X051550D01*
X051700Y032250*
Y031300D02*
Y032250D01*
X048865Y031135D02*
X049100Y030900D01*
X051700*
X051900Y031100*
X049815Y031735D02*
Y032723D01*
Y031735D02*
X050350Y031200D01*
X051600*
X019150Y018800D02*
X020000Y019650D01*
X027200Y018550D02*
X028120Y019470D01*
X020000Y019650D02*
X051236D01*
X028120Y019470D02*
X051311D01*
X031200Y019150D02*
X032250D01*
X020800Y015600D02*
X021100Y015300D01*
X020800Y015600D02*
Y016600D01*
X023450Y019250*
X028700Y015550D02*
X028950Y015300D01*
X028700Y015550D02*
Y016650D01*
X031200Y019150*
X036550Y015650D02*
X036900Y015300D01*
X036550Y015650D02*
Y016700D01*
X037977Y018127*
X023900Y020000D02*
Y023600D01*
X015968Y020000D02*
Y023718D01*
X016900Y024650*
X044109*
X016300Y025500D02*
Y029288D01*
Y025500D02*
X016950Y024850D01*
X048450*
X027467Y017317D02*
Y017350D01*
Y017533*
X019511Y017217D02*
Y017350D01*
Y017439*
X023900Y023600D02*
X024770Y024470D01*
X044035*
X044450Y024055*
X049525Y023200D02*
Y023325D01*
X054150Y021900D02*
X054250Y022000D01*
G54D24*
X058950Y029800D02*
X059265D01*
X058665D02*
X058950D01*
X051500Y024200D02*
X052400D01*
X050765Y022200D02*
Y022800D01*
X050300Y022200D02*
X050765D01*
X052800Y029200D02*
X053126Y028874D01*
Y027400D02*
Y028200D01*
Y028874*
Y026739D02*
Y027400D01*
Y026739D02*
X053165Y026700D01*
X053800Y026735D02*
X053835Y026700D01*
X050800Y029200D02*
X051065Y028935D01*
X049500Y028965D02*
X049935D01*
X050235Y028665*
Y028300D02*
Y028665D01*
Y028300D02*
X050926D01*
X051026Y028200*
X054665Y033900D02*
Y034435D01*
X053600Y034735D02*
X054365D01*
X054500Y034600*
X054665Y034435*
X050100Y034750D02*
X050115Y034735D01*
X050800*
X051400*
X058600Y029735D02*
X058665Y029800D01*
X053800Y029200D02*
Y029850D01*
X054215Y030265*
X055000*
X053035Y034735D02*
X053600D01*
X052800Y034500D02*
X053035Y034735D01*
X052800Y029200D02*
Y031850D01*
Y034500*
X052400Y024200D02*
X052800Y024600D01*
Y025050*
X053350Y025600*
X055600*
X055750Y025450*
X051065Y027235D02*
Y027500D01*
Y027235D02*
X051850Y026450D01*
Y025800D02*
Y026450D01*
X051735Y027500D02*
Y029135D01*
X053800Y028200D02*
Y029200D01*
Y026735D02*
Y028200D01*
X051500Y022265D02*
Y023531D01*
X051065Y027500D02*
Y028935D01*
G54D25*
X054524Y025174D02*
X055026D01*
X054350Y025000D02*
X054524Y025174D01*
X053800Y025000D02*
X054350D01*
X054965Y024365D02*
X055026Y024426D01*
X053800Y024000D02*
X054150D01*
X055774Y024174D02*
Y024800D01*
X055635Y024035D02*
X055774Y024174D01*
X055635Y023850D02*
Y024035D01*
X054965Y023850D02*
Y024365D01*
X054150Y024000D02*
X054300Y023850D01*
X054965*
X052100Y036900D02*
X053400D01*
X051950D02*
X052100D01*
X051450Y036400D02*
X051950Y036900D01*
X046355Y032450D02*
X046900D01*
X046355Y032950D02*
X046750D01*
X047070Y033270*
X045450Y032950D02*
X046355D01*
X045250Y032750D02*
X045450Y032950D01*
X045250Y032535D02*
Y032750D01*
X046900Y032450D02*
X047450Y033000D01*
Y034050*
X046795Y035305D02*
Y035900D01*
Y035305D02*
X047070Y035030D01*
Y033270D02*
Y035030D01*
X047450Y034050D02*
X047750Y034350D01*
X048500*
X048763Y034613*
Y035900*
X049263Y036400D02*
X051450D01*
X048763Y035900D02*
X049263Y036400D01*
X047795Y036900D02*
X050800D01*
X046795Y035900D02*
X047795Y036900D01*
X051600Y037400D02*
X052100Y036900D01*
X044650Y032550D02*
Y035250D01*
X046800Y037400*
X051600*
X049535Y031300D02*
Y031665D01*
X049500Y031700D02*
X049535Y031665D01*
X049500Y031700D02*
Y031800D01*
X053400Y032400D02*
X054150D01*
X056156Y030204D02*
Y031249D01*
X056150Y031255D02*
X056156Y031249D01*
X056150Y031255D02*
X056650D01*
X053400Y032900D02*
X054200D01*
X055100Y032000*
X056950*
X057150Y031800*
Y031255D02*
Y031800D01*
X055000Y030935D02*
Y031550D01*
X054150Y032400D02*
X055000Y031550D01*
X055100Y031450*
X055550*
X055650Y031350*
Y031255D02*
Y031350D01*
X056150Y033145D02*
Y034700D01*
X057350Y035900*
X056650Y033145D02*
Y034050D01*
X057300Y034700*
X059350*
Y035900*
Y034700D02*
X059800Y034250D01*
Y033400D02*
Y034250D01*
Y032200D02*
Y033400D01*
X054600D02*
X054855Y033145D01*
X055335Y033160D02*
Y033900D01*
Y033160D02*
X055350Y033145D01*
X054855D02*
X055350D01*
X055650*
X053400Y033400D02*
X053550D01*
X053600Y033450*
Y034065*
X053550Y033400D02*
X054500D01*
X054600*
X051235D02*
X051400Y033565D01*
Y034065*
X051415Y034050D02*
X051950D01*
X051400Y034065D02*
X051415Y034050D01*
X059800Y030900D02*
X059935Y030765D01*
Y029800D02*
Y030765D01*
X057100Y030063D02*
X057428Y029735D01*
X057900*
X057100Y030063D02*
X057150Y030113D01*
Y031255*
X057100Y029137D02*
X057172Y029065D01*
X052850Y031900D02*
X053400D01*
X052800Y031850D02*
X052850Y031900D01*
X057150Y033145D02*
Y033900D01*
X022800Y033200D02*
X022835Y033165D01*
X029111Y031950D02*
X029943D01*
X029981Y031988*
X030650D02*
Y033165D01*
X030616Y033200D02*
X030650Y033165D01*
X037080Y031950D02*
X037950D01*
X038619D02*
Y033065D01*
X038484Y033200D02*
X038619Y033065D01*
X017950Y017100D02*
X018400D01*
X018517Y017217*
X025906Y017200D02*
X026300D01*
X026417Y017317*
X033800Y017300D02*
X034720D01*
X034770Y017350*
X041735Y017300D02*
X042555D01*
X042605Y017350*
X022835Y031950D02*
Y033165D01*
X021295Y031950D02*
X022165D01*
X013411D02*
X014281D01*
X014950D02*
Y033165D01*
X055774Y024800D02*
Y025426D01*
X055750Y025450D02*
X055774Y025426D01*
X046065Y028860D02*
X046355Y029150D01*
X046065Y028500D02*
Y028860D01*
Y027735D02*
Y028500D01*
Y027735D02*
X046100Y027700D01*
X045600Y030150D02*
X046355D01*
X045250Y030500D02*
X045600Y030150D01*
X045250Y030500D02*
Y031865D01*
X045450Y029650D02*
X046355D01*
X044650Y030450D02*
X045450Y029650D01*
X044650Y030450D02*
Y031881D01*
X046065Y031300D02*
Y031660D01*
X046355Y031950*
Y033450D02*
Y033895D01*
X046350Y033900D02*
X046355Y033895D01*
Y030650D02*
X046735Y031030D01*
Y031300*
Y028500D02*
X047050Y028815D01*
X046355Y030650D02*
X046900D01*
X047050Y030500*
Y028815D02*
Y030500D01*
X046250Y026050D02*
Y026750D01*
X046735Y027235*
Y028500*
X033131Y016235D02*
Y017300D01*
Y016235D02*
X033265Y016100D01*
X041065Y016135D02*
Y017300D01*
Y016135D02*
X041100Y016100D01*
X025237Y016335D02*
Y017200D01*
Y016335D02*
X025471Y016100D01*
X017281Y016335D02*
Y017100D01*
Y016335D02*
X017516Y016100D01*
X058295Y022600D02*
X059265D01*
X058295Y021600D02*
X059265D01*
X058295Y020600D02*
X059265D01*
X059935D02*
Y021600D01*
Y022600*
X060100Y022765*
Y024000*
Y025000*
Y026000*
Y027000*
X026417Y017317D02*
X026876D01*
X018517Y017217D02*
X018920D01*
X057172Y029065D02*
X058600D01*
G54D26*
X058450Y011550D02*
X059068Y012169D01*
Y013550*
X047684Y011584D02*
Y013650D01*
X047650Y011550D02*
X047684Y011584D01*
X047650Y011550D02*
X058450D01*
X036100D02*
X047650D01*
X012250Y012000D02*
X012700Y011550D01*
X020250*
X012250Y012000D02*
Y017950D01*
X012750Y018450*
X012230Y021566D02*
X012984Y020812D01*
X012230Y021566D02*
Y029800D01*
X043500Y037750D02*
X044050Y037200D01*
X027900Y037750D02*
X035750D01*
X043500*
X013050D02*
X020000D01*
X027900*
X012750Y018450D02*
X012984D01*
X013771*
X020250Y011550D02*
X028150D01*
X059068Y013550D02*
Y017984D01*
X059084Y018000*
X028200Y011550D02*
X036050D01*
X012230Y036930D02*
X013050Y037750D01*
X012984Y018450D02*
Y020812D01*
G54D27*
X020250Y011550D02*
X020300Y011600D01*
Y017075D02*
X021675Y018450D01*
X020300Y011600D02*
Y017075D01*
X044050Y032625D02*
Y037200D01*
X042275Y030850D02*
X044050Y032625D01*
X034306Y030850D02*
X034337D01*
X026491D02*
X027900Y032259D01*
Y037750*
X034337Y030850D02*
X035750Y032263D01*
Y037750*
X018606Y030850D02*
X020000Y032244D01*
Y037750*
X028200Y011550D02*
Y017097D01*
X029553Y018450*
X047684Y017650D02*
X051200D01*
X051550Y018000*
X058234Y018850D02*
X059084Y018000D01*
X055550Y018850D02*
X058234D01*
X054700Y018000D02*
X055550Y018850D01*
X053550Y018000D02*
X054700D01*
X036050Y011550D02*
Y017091D01*
X037409Y018450*
G54D28*
X012230Y029800D02*
Y036930D01*
G54D29*
X053400Y015150D03*
G54D30*
X050800Y029200D03*
X051800D03*
X052800D03*
X053800D03*
G54D31*
X053550Y018000D03*
G54D32*
X052550Y018000D03*
X051550D03*
X017916Y033188D03*
X016916D03*
X038100Y016100D03*
X039100D03*
X025800Y033188D03*
X024800D03*
X030265Y016100D03*
X031265D03*
X033616Y033188D03*
X032616D03*
X022411Y016100D03*
X023412D03*
X041584Y033200D03*
X040584D03*
X014516Y016100D03*
X015516D03*
G54D33*
X057100Y027000D03*
Y026000D03*
Y025000D03*
Y024000D03*
X060100Y027000D03*
Y026000D03*
Y025000D03*
X052100Y035900D03*
X058800Y033400D03*
X050800Y036900D03*
X058800Y030900D03*
X053400Y036900D03*
X059800Y032200D03*
X053800Y025000D03*
X045250Y026050D03*
X046250D03*
X045716Y017650D03*
X057116Y018000D03*
G54D34*
X060100Y024000D03*
X059800Y033400D03*
Y030900D03*
X058800Y032200D03*
X047250Y026050D03*
X047684Y017650D03*
X059084Y018000D03*
G54D35*
X018916Y033188D03*
X037100Y016100D03*
X026800Y033188D03*
X029265Y016100D03*
X034616Y033188D03*
X021411Y016100D03*
X042584Y033200D03*
X013516Y016100D03*
G54D36*
X017032Y035800D03*
X019000D03*
X013132D03*
X015100D03*
X024916D03*
X026884D03*
X021016D03*
X022984D03*
X032731D03*
X034700D03*
X028832D03*
X030800D03*
X040700D03*
X042668D03*
X036716D03*
X038684D03*
X038984Y013500D03*
X037016D03*
X042884D03*
X040916D03*
X031134D03*
X029165D03*
X035065D03*
X033097D03*
X023250D03*
X021281D03*
X027200D03*
X025231D03*
X015346D03*
X013378D03*
X019300D03*
X017332D03*
X048763Y035900D03*
X046795D03*
X059350D03*
X057350D03*
X055350D03*
X057100Y013550D03*
X059068D03*
X045716Y013650D03*
X047684D03*
G54D37*
X052100Y036900D03*
X050800Y035900D03*
X053400D03*
X053800Y024000D03*
G54D38*
X029582Y030850D03*
Y026126D03*
X034306Y030850D03*
Y026126D03*
X035094Y028488D03*
X037550Y030850D03*
Y026126D03*
X042275Y030850D03*
Y026126D03*
X043062Y028488D03*
X013882Y030850D03*
Y026126D03*
X018606Y030850D03*
Y026126D03*
X019394Y028488D03*
X021766Y030850D03*
Y026126D03*
X026491Y030850D03*
Y026126D03*
X027278Y028488D03*
X042134Y018450D03*
Y023174D03*
X037409Y018450D03*
Y023174D03*
X036622Y020812D03*
X034277Y018450D03*
Y023174D03*
X029553Y018450D03*
Y023174D03*
X028765Y020812D03*
X026400Y018450D03*
Y023174D03*
X021675Y018450D03*
Y023174D03*
X020888Y020812D03*
X018496Y018450D03*
Y023174D03*
X013771Y018450D03*
Y023174D03*
X012984Y020812D03*
G54D39*
X014916Y033200D03*
X012916D03*
X041100Y016100D03*
X043100D03*
X022800Y033200D03*
X020800D03*
X033265Y016100D03*
X035265D03*
X030616Y033200D03*
X028616D03*
X025471Y016100D03*
X027471D03*
X038484Y033200D03*
X036484D03*
X017516Y016100D03*
X019516D03*
G54D40*
X050150Y015700D03*
G54D41*
X050150Y014913D03*
G54D42*
X056550Y029400D03*
X058950Y029800D03*
X023900Y020000D03*
X031900D03*
X040050Y020400D03*
X027200Y017950D03*
X035200D03*
X031800Y029300D03*
X039800D03*
X020850Y031200D03*
X015968Y020000D03*
X047500Y023500D03*
Y024100D03*
X049150Y025150D03*
X050200Y025600D03*
X049350Y026550D03*
X049633Y026250D03*
X049917Y025950D03*
X044150Y020500D03*
X044450Y020850D03*
X044800Y021200D03*
X043600Y024000D03*
Y023100D03*
X046450Y021900D03*
X046050D03*
X047800Y021700D03*
X047550Y022000D03*
X047300Y022300D03*
X045650Y021900D03*
X052700Y022000D03*
X052950Y021700D03*
X053200Y021400D03*
X053450Y021100D03*
X044550Y029500D03*
X044283Y029780D03*
X044017Y030100D03*
X043700Y030350D03*
X052400Y024200D03*
X052450Y022300D03*
X050300Y022200D03*
X049742Y022900D03*
X054750Y023000D03*
X054450Y022700D03*
X054150Y022400D03*
X050037Y022550D03*
X049150Y023500D03*
X049446Y023200D03*
Y022250D03*
X051530Y020470D03*
X051800Y020800D03*
X054000Y020500D03*
X053700Y020800D03*
X054450Y021700D03*
X054150Y022000D03*
X054500Y034600D03*
Y033400D03*
X050100Y034750D03*
X051950Y034050D03*
X057150Y033900D03*
X016300Y029288D03*
X015250Y030700D03*
X013000Y031200D03*
X015250Y030053D03*
X024200Y029288D03*
X036750Y031250D03*
X023950Y030750D03*
Y030200D03*
X031450Y030350D03*
Y031050D03*
X039500Y030500D03*
Y031200D03*
X043419Y034181D03*
X014800Y028500D03*
X022835D03*
X030500D03*
X038400D03*
X035000Y034000D03*
X027150D03*
X028700Y031200D03*
X019300Y034000D03*
X013200Y015300D03*
X016200Y019300D03*
X021100Y015300D03*
X024350Y019250D03*
X019150Y017950D03*
X016200Y018550D03*
X024350Y018500D03*
X032250D03*
X028950Y015300D03*
X040200Y018150D03*
X039373Y018127D03*
X042750Y018100D03*
X036900Y015300D03*
X051250Y014800D03*
X051800D03*
X052350D03*
X052900D03*
X053450D03*
Y015400D03*
X052900D03*
X052350D03*
X051800D03*
X051250D03*
X053450Y016000D03*
X052900D03*
X052350D03*
X051800D03*
X051250D03*
X048400Y021035D03*
X046165Y024150D03*
X055750Y025450D03*
X046100Y027700D03*
X046065Y031660D03*
X049535Y031665D03*
X046350Y033900D03*
X032250Y019150D03*
X017250Y021700D03*
X025400D03*
X033400D03*
X041050D03*
X051850Y025800D03*
X017200Y024100D03*
X042900Y026800D03*
X043150Y027150D03*
X025050Y024050D03*
X050750Y032050D03*
M02*