%FSDAX24Y24*%
%MOIN*%
%SFA1B1*%

%IPPOS*%
%ADD23C,0.010000*%
%ADD25C,0.020000*%
%ADD27C,0.050000*%
%ADD30C,0.060000*%
%ADD32C,0.066900*%
%ADD33C,0.059100*%
%ADD34R,0.059100X0.059100*%
%ADD36C,0.098400*%
%ADD38C,0.078700*%
%ADD40R,0.053100X0.053100*%
%ADD41C,0.053100*%
%ADD42C,0.030000*%
%ADD59C,0.005000*%
%ADD100C,0.040000*%
%LNde-010824-1*%
%LPD*%
G54D59*
X052095Y033216D02*
Y030047D01*
X052048Y029950*
X051786Y029626*
X051689Y029614*
X051615Y029583*
X051589Y029572*
X051399Y029510*
X051200*
X051010Y029572*
X050984Y029583*
X050910Y029614*
X050825Y029625*
Y029200*
Y028774*
X050890Y028783*
X051064Y028480*
X050755Y028078*
X046443*
Y031282*
X049531*
X049627Y031294*
X049718Y031333*
X049795Y031392*
X049802Y031399*
X049861Y031476*
X049900Y031567*
X049913Y031663*
Y033377*
X050206Y033672*
X051932*
X052095Y033216*
G54D23*
X052045Y033207D02*
Y030058D01*
X052006Y029977*
X051760Y029673*
X051676Y029663*
X051595Y029629*
X051572Y029619*
X051391Y029560*
X051208*
X051027Y029619*
X051003Y029629*
X050923Y029663*
X050775Y029682*
Y029200*
Y028717*
X050863Y028729*
X051004Y028484*
X050730Y028128*
X046493*
Y031232*
X049534*
X049640Y031245*
X049744Y031289*
X049828Y031354*
X049840Y031366*
X049905Y031450*
X049949Y031554*
X049963Y031660*
Y033356*
X050227Y033622*
X051897*
X052045Y033207*
G54D25*
X051945Y033190D02*
Y030081D01*
X051920Y030030*
X051708Y029767*
X051650Y029760*
X051557Y029721*
X051537Y029713*
X051375Y029660*
X051224*
X051062Y029713*
X051041Y029721*
X050950Y029760*
X050675Y029796*
Y029200*
Y028603*
X050810Y028621*
X050884Y028492*
X050681Y028228*
X046593*
Y031132*
X049541*
X049667Y031148*
X049794Y031202*
X049894Y031279*
X049915Y031300*
X049992Y031400*
X050046Y031527*
X050063Y031653*
Y033315*
X050268Y033522*
X051826*
X051945Y033190*
G54D100*
X051745Y033156D02*
Y030126D01*
X051750Y030138*
X051603Y029956*
X051597Y029955*
X051480Y029906*
X051468Y029901*
X051343Y029860*
X051256*
X051131Y029901*
X051118Y029906*
X051002Y029955*
X050475Y030023*
Y029200*
Y028376*
X050703Y028405*
X050644Y028508*
X050583Y028428*
X046793*
Y030932*
X049554*
X049720Y030953*
X049896Y031028*
X050026Y031128*
X050066Y031168*
X050166Y031298*
X050241Y031474*
X050263Y031640*
Y033233*
X050351Y033322*
X051685*
X051745Y033156*
X046800Y028590D02*
X050390D01*
X046800Y028990D02*
X050390D01*
X046800Y029390D02*
X050390D01*
X046800Y029790D02*
X050390D01*
X046800Y030190D02*
X051750D01*
X046800Y030590D02*
X051750D01*
X049900Y030990D02*
X051750D01*
X050300Y031390D02*
X051750D01*
X050300Y031790D02*
X051750D01*
X050300Y032190D02*
X051750D01*
X050300Y032590D02*
X051750D01*
X050300Y032990D02*
X051750D01*
G54D59*
X060735Y028425D02*
X056274D01*
X056239*
X056014Y028200*
X056054Y028159*
X056075Y027878*
Y026660*
X055689Y026275*
X052860*
X052475Y026660*
Y028596*
X052473Y028593*
X052608Y028705*
X052775Y028787*
Y029200*
Y029612*
X052608Y029694*
X052473Y029806*
X052475Y029803*
Y034439*
X052960Y034925*
X053978*
X054057*
X054241Y034721*
X054239Y034701*
X054224Y034625*
X054475*
Y034875*
X054410Y034869*
X054265Y035080*
X054325Y035139*
Y038281*
X060735*
Y028425*
X052490Y026650D02*
Y028600D01*
Y029810D02*
Y034450D01*
X052540Y026600D02*
Y028650D01*
Y029760D02*
Y034500D01*
X052590Y026550D02*
Y028690D01*
Y029720D02*
Y034550D01*
X052640Y026500D02*
Y028720D01*
Y029690D02*
Y034600D01*
X052690Y026450D02*
Y028750D01*
Y029660D02*
Y034650D01*
X052740Y026400D02*
Y028770D01*
Y029640D02*
Y034700D01*
X052790Y026350D02*
Y034750D01*
X052840Y026300D02*
Y034800D01*
X052890Y026280D02*
Y034850D01*
X052940Y026280D02*
Y034900D01*
X052990Y026280D02*
Y034910D01*
X053040Y026280D02*
Y034910D01*
X053090Y026280D02*
Y034910D01*
X053140Y026280D02*
Y034910D01*
X053190Y026280D02*
Y034910D01*
X053240Y026280D02*
Y034910D01*
X053290Y026280D02*
Y034910D01*
X053340Y026280D02*
Y034910D01*
X053390Y026280D02*
Y034910D01*
X053440Y026280D02*
Y034910D01*
X053490Y026280D02*
Y034910D01*
X053540Y026280D02*
Y034910D01*
X053590Y026280D02*
Y034910D01*
X053640Y026280D02*
Y034910D01*
X053690Y026280D02*
Y034910D01*
X053740Y026280D02*
Y034910D01*
X053790Y026280D02*
Y034910D01*
X053840Y026280D02*
Y034910D01*
X053890Y026280D02*
Y034910D01*
X053940Y026280D02*
Y034910D01*
X053990Y026280D02*
Y034910D01*
X054040Y026280D02*
Y034910D01*
X054090Y026280D02*
Y034880D01*
X054140Y026280D02*
Y034830D01*
X054190Y026280D02*
Y034770D01*
X054240Y026280D02*
Y034610D01*
X054290Y026280D02*
Y034610D01*
Y035060D02*
Y035100D01*
X054340Y026280D02*
Y034610D01*
Y034990D02*
Y038280D01*
X054390Y026280D02*
Y034610D01*
Y034910D02*
Y038280D01*
X054440Y026280D02*
Y034610D01*
Y034890D02*
Y038280D01*
X054490Y026280D02*
Y038280D01*
X054540Y026280D02*
Y038280D01*
X054590Y026280D02*
Y038280D01*
X054640Y026280D02*
Y038280D01*
X054690Y026280D02*
Y038280D01*
X054740Y026280D02*
Y038280D01*
X054790Y026280D02*
Y038280D01*
X054840Y026280D02*
Y038280D01*
X054890Y026280D02*
Y038280D01*
X054940Y026280D02*
Y038280D01*
X054990Y026280D02*
Y038280D01*
X055040Y026280D02*
Y038280D01*
X055090Y026280D02*
Y038280D01*
X055140Y026280D02*
Y038280D01*
X055190Y026280D02*
Y038280D01*
X055240Y026280D02*
Y038280D01*
X055290Y026280D02*
Y038280D01*
X055340Y026280D02*
Y038280D01*
X055390Y026280D02*
Y038280D01*
X055440Y026280D02*
Y038280D01*
X055490Y026280D02*
Y038280D01*
X055540Y026280D02*
Y038280D01*
X055590Y026280D02*
Y038280D01*
X055640Y026280D02*
Y038280D01*
X055690Y026290D02*
Y038280D01*
X055740Y026340D02*
Y038280D01*
X055790Y026390D02*
Y038280D01*
X055840Y026440D02*
Y038280D01*
X055890Y026490D02*
Y038280D01*
X055940Y026540D02*
Y038280D01*
X055990Y026590D02*
Y038280D01*
X056040Y026640D02*
Y028160D01*
Y028240D02*
Y038280D01*
X056090Y028290D02*
Y038280D01*
X056140Y028340D02*
Y038280D01*
X056190Y028390D02*
Y038280D01*
X056240Y028430D02*
Y038280D01*
X056290Y028430D02*
Y038280D01*
X056340Y028430D02*
Y038280D01*
X056390Y028430D02*
Y038280D01*
X056440Y028430D02*
Y038280D01*
X056490Y028430D02*
Y038280D01*
X056540Y028430D02*
Y038280D01*
X056590Y028430D02*
Y038280D01*
X056640Y028430D02*
Y038280D01*
X056690Y028430D02*
Y038280D01*
X056740Y028430D02*
Y038280D01*
X056790Y028430D02*
Y038280D01*
X056840Y028430D02*
Y038280D01*
X056890Y028430D02*
Y038280D01*
X056940Y028430D02*
Y038280D01*
X056990Y028430D02*
Y038280D01*
X057040Y028430D02*
Y038280D01*
X057090Y028430D02*
Y038280D01*
X057140Y028430D02*
Y038280D01*
X057190Y028430D02*
Y038280D01*
X057240Y028430D02*
Y038280D01*
X057290Y028430D02*
Y038280D01*
X057340Y028430D02*
Y038280D01*
X057390Y028430D02*
Y038280D01*
X057440Y028430D02*
Y038280D01*
X057490Y028430D02*
Y038280D01*
X057540Y028430D02*
Y038280D01*
X057590Y028430D02*
Y038280D01*
X057640Y028430D02*
Y038280D01*
X057690Y028430D02*
Y038280D01*
X057740Y028430D02*
Y038280D01*
X057790Y028430D02*
Y038280D01*
X057840Y028430D02*
Y038280D01*
X057890Y028430D02*
Y038280D01*
X057940Y028430D02*
Y038280D01*
X057990Y028430D02*
Y038280D01*
X058040Y028430D02*
Y038280D01*
X058090Y028430D02*
Y038280D01*
X058140Y028430D02*
Y038280D01*
X058190Y028430D02*
Y038280D01*
X058240Y028430D02*
Y038280D01*
X058290Y028430D02*
Y038280D01*
X058340Y028430D02*
Y038280D01*
X058390Y028430D02*
Y038280D01*
X058440Y028430D02*
Y038280D01*
X058490Y028430D02*
Y038280D01*
X058540Y028430D02*
Y038280D01*
X058590Y028430D02*
Y038280D01*
X058640Y028430D02*
Y038280D01*
X058690Y028430D02*
Y038280D01*
X058740Y028430D02*
Y038280D01*
X058790Y028430D02*
Y038280D01*
X058840Y028430D02*
Y038280D01*
X058890Y028430D02*
Y038280D01*
X058940Y028430D02*
Y038280D01*
X058990Y028430D02*
Y038280D01*
X059040Y028430D02*
Y038280D01*
X059090Y028430D02*
Y038280D01*
X059140Y028430D02*
Y038280D01*
X059190Y028430D02*
Y038280D01*
X059240Y028430D02*
Y038280D01*
X059290Y028430D02*
Y038280D01*
X059340Y028430D02*
Y038280D01*
X059390Y028430D02*
Y038280D01*
X059440Y028430D02*
Y038280D01*
X059490Y028430D02*
Y038280D01*
X059540Y028430D02*
Y038280D01*
X059590Y028430D02*
Y038280D01*
X059640Y028430D02*
Y038280D01*
X059690Y028430D02*
Y038280D01*
X059740Y028430D02*
Y038280D01*
X059790Y028430D02*
Y038280D01*
X059840Y028430D02*
Y038280D01*
X059890Y028430D02*
Y038280D01*
X059940Y028430D02*
Y038280D01*
X059990Y028430D02*
Y038280D01*
X060040Y028430D02*
Y038280D01*
X060090Y028430D02*
Y038280D01*
X060140Y028430D02*
Y038280D01*
X060190Y028430D02*
Y038280D01*
X060240Y028430D02*
Y038280D01*
X060290Y028430D02*
Y038280D01*
X060340Y028430D02*
Y038280D01*
X060390Y028430D02*
Y038280D01*
X060440Y028430D02*
Y038280D01*
X060490Y028430D02*
Y038280D01*
X060540Y028430D02*
Y038280D01*
X060590Y028430D02*
Y038280D01*
X060640Y028430D02*
Y038280D01*
X060690Y028430D02*
Y038280D01*
X052825Y037581D02*
X052388Y037322D01*
X052350*
X051802*
X051756Y037312*
X051714Y037285*
X051687Y037243*
X051678Y037197*
Y036701*
Y036602*
X051687Y036551*
X051711Y036293*
X051712Y036207*
X051695Y036021*
X051690Y036009*
X051675Y035900*
X051690Y035790*
X051733Y035688*
X051800Y035600*
X051888Y035533*
X051990Y035490*
X052038Y035484*
X052127Y035353*
X052247Y035030*
X052098Y034880*
X051932Y034428*
X050763*
X050684Y034475*
X050390Y034750*
X050357Y034858*
X050298Y034948*
X050207Y035008*
X050125Y035025*
Y034775*
X050075*
Y034725*
X049816*
X049800Y034637*
X049789Y034567*
X049770Y034457*
X049716Y034298*
X049630Y034164*
X049266Y033800*
X049207Y033723*
X049169Y033632*
X049157Y033536*
Y032038*
X046063*
X045967Y032025*
X045876Y031987*
X045798Y031927*
X045738Y031849*
X045699Y031758*
X045687Y031661*
Y028078*
X045348*
X045252Y028065*
X045160Y028027*
X045083Y027968*
X043842Y026727*
X043358Y026909*
X043355Y026963*
X043409Y027042*
X043430Y027150*
X043409Y027257*
X043347Y027348*
X043257Y027408*
X043150Y027430*
X043042Y027408*
X042956Y027350*
X042921Y027328*
X042429*
X041497*
X041431Y027314*
X041376Y027277*
X039026Y024928*
X025754*
X024955*
X024886*
X024353*
X018199*
X017847*
X017781Y024914*
X017726Y024877*
X017566Y024717*
X017228Y024380*
X017197*
X017092Y024358*
X017002Y024298*
X016940Y024207*
X016919Y024100*
X016940Y023992*
X017002Y023901*
X017092Y023841*
X017200Y023819*
X017307Y023841*
X017398Y023901*
X017458Y023992*
X017480Y024097*
Y024128*
X017795Y024444*
X017923Y024572*
X018198*
X024124*
X024547*
X024608Y024501*
X024758Y024203*
X024778Y024097*
X024769Y024049*
X024791Y023942*
X024851Y023852*
X024942Y023790*
X025050Y023769*
X025157Y023790*
X025248Y023852*
X025308Y023942*
X025328Y024037*
X025654Y024372*
X025798*
X039252*
X039318Y024385*
X039373Y024422*
X041338Y026387*
X041531Y026319*
X041751Y026149*
X041754Y026143*
X041751Y026126*
X041769Y025990*
X041822Y025864*
X041905Y025755*
X042013Y025672*
X042139Y025620*
X042192Y025613*
X042298Y025567*
X042567Y025296*
X042622Y025197*
Y024020*
X042599Y023986*
X042536Y023930*
X042141Y023696*
X042133Y023697*
X041998Y023679*
X041872Y023627*
X041764Y023544*
X041681Y023435*
X041628Y023309*
X041610Y023173*
X041628Y023039*
X041681Y022912*
X041756Y022814*
Y021918*
X041312Y021838*
X041245Y021899*
X041157Y021959*
X041075Y021975*
Y021700*
Y021424*
X041157Y021441*
X041245Y021500*
X041312Y021561*
X041756Y021481*
Y020240*
X040015Y018499*
X039766Y018410*
X039495Y018390*
X039431Y018395*
X039373Y018407*
X039265Y018386*
X039173Y018326*
X039113Y018234*
X039092Y018126*
X039113Y018020*
X039173Y017928*
X039265Y017868*
X039363Y017849*
X039395Y017829*
X039471Y017784*
X039722Y017633*
X039822Y017544*
Y016676*
X039587Y016541*
X039412Y016499*
X039319Y016506*
X039219Y016547*
X039125Y016560*
Y016100*
Y015639*
X039219Y015652*
X039331Y015698*
X039419Y015765*
X039532Y015772*
X039831Y015757*
X039936Y015727*
X040538Y015127*
Y013987*
X040477Y013938*
X040400Y013844*
X040342Y013737*
X040307Y013620*
X040295Y013500*
X040307Y013379*
X040342Y013262*
X040400Y013155*
X040477Y013061*
X040571Y012984*
X040678Y012926*
X040795Y012891*
X040916Y012879*
X041036Y012891*
X041152Y012926*
X041259Y012984*
X041353Y013061*
X041430Y013155*
X041488Y013262*
X041523Y013379*
X041536Y013500*
X041523Y013620*
X041488Y013737*
X041430Y013844*
X041353Y013938*
X041294Y013987*
Y015285*
X041288Y015327*
X041289Y015441*
X041307Y015587*
X041327Y015680*
X041369Y015799*
X041417Y015920*
X041452Y016005*
X041464Y016100*
X041452Y016194*
X041415Y016282*
X041357Y016357*
X041282Y016415*
X041194Y016452*
X041099Y016464*
X041053Y016458*
X040992Y016466*
X040735Y016601*
X040578Y016743*
Y017993*
X041158Y018573*
X041455Y018480*
X041620Y018373*
X041628Y018314*
X041681Y018188*
X041764Y018080*
X041872Y017997*
X041998Y017944*
X042134Y017926*
X042266Y017944*
X042429Y017966*
X042514Y017920*
X042557Y017898*
X042642Y017841*
X042750Y017819*
X042857Y017841*
X042947Y017901*
X043009Y017992*
X043030Y018100*
X043009Y018207*
X042947Y018298*
X042857Y018358*
X042765Y018377*
X042637Y018590*
X042586Y018711*
X042503Y018819*
X042395Y018902*
X042269Y018955*
X042210Y018963*
X042102Y019128*
X042009Y019425*
X042401Y019817*
X042461Y019894*
X042494Y019973*
X042738Y020098*
X042978Y020137*
X043883Y019231*
X043960Y019172*
X044052Y019134*
X044148Y019122*
X045677*
X047262Y017537*
Y017352*
X047271Y017306*
X047298Y017264*
X047340Y017237*
X047386Y017228*
X047982*
X048028Y017237*
X048070Y017264*
X048097Y017306*
X048106Y017352*
Y017947*
X048097Y017993*
X048070Y018035*
X048028Y018062*
X047982Y018072*
X047796*
X046100Y019768*
X046023Y019827*
X045932Y019865*
X045835Y019878*
X044793*
X044502Y020317*
X044650Y020655*
X044999Y021003*
X045059Y021092*
X045080Y021200*
X045059Y021307*
X044997Y021398*
X044907Y021458*
X044800Y021480*
X044692Y021458*
X044604Y021399*
X044251Y021047*
X043955Y020705*
X043549Y020711*
X043448Y020735*
X043378Y020806*
Y022402*
X043616Y022822*
X043707Y022840*
X043797Y022902*
X043859Y022992*
X043880Y023100*
X043859Y023207*
X043803Y023289*
X043771Y023483*
Y023616*
X043803Y023810*
X043859Y023892*
X043880Y024000*
X043859Y024107*
X043797Y024198*
X043707Y024258*
X043616Y024277*
X043378Y024697*
Y025193*
X044377Y026193*
X044702Y026076*
X044834Y025986*
X044840Y025940*
X044883Y025838*
X044950Y025750*
X045038Y025683*
X045140Y025640*
X045250Y025625*
X045359Y025640*
X045437Y025672*
X045457Y025681*
X045650Y025743*
X045849*
X046042Y025681*
X046062Y025673*
X046140Y025640*
X046225Y025629*
Y026050*
Y026470*
X046140Y026459*
X046062Y026427*
X046042Y026418*
X045849Y026357*
X045650*
X045457Y026418*
X045437Y026426*
X045359Y026459*
X045313Y026465*
X045223Y026597*
X045106Y026922*
X045506Y027322*
X051151*
X051247Y027334*
X051339Y027372*
X051416Y027431*
X051625Y027641*
X052095Y027447*
Y026590*
X051886Y026188*
X051651Y025997*
X051590Y025907*
X051574Y025825*
X051825*
Y025775*
X051875*
Y025524*
X051957Y025540*
X052045Y025600*
X052205Y025736*
X052631Y025892*
X055157*
X055260Y025782*
X055404Y025547*
X055471Y025440*
X055490Y025342*
X055552Y025251*
X055642Y025191*
X055750Y025169*
X055857Y025191*
X055948Y025251*
X056008Y025342*
X056029Y025445*
X056049Y025562*
X056062Y025631*
X056075Y025707*
X056182Y025776*
X056294Y025819*
X056693Y025633*
X056793Y025539*
Y025400*
X056731Y025207*
X056723Y025187*
X056690Y025109*
X056675Y025000*
X056690Y024890*
X056722Y024812*
X056731Y024792*
X056793Y024599*
Y024400*
X056731Y024207*
X056723Y024187*
X056690Y024109*
X056675Y024000*
X056690Y023890*
X056733Y023788*
X056800Y023700*
X056888Y023633*
X056990Y023590*
X057100Y023575*
X057209Y023590*
X057311Y023633*
X057399Y023700*
X057466Y023788*
X057509Y023890*
X057524Y024000*
X057509Y024109*
X057477Y024187*
X057468Y024207*
X057407Y024400*
Y024599*
X057468Y024792*
X057476Y024812*
X057509Y024890*
X057524Y025000*
X057509Y025109*
X057477Y025187*
X057468Y025207*
X057407Y025400*
Y025599*
X057468Y025792*
X057476Y025812*
X057509Y025890*
X057524Y026000*
X057509Y026109*
X057477Y026187*
X057468Y026207*
X057407Y026400*
Y026599*
X057468Y026792*
X057476Y026812*
X057509Y026890*
X057524Y027000*
X057509Y027109*
X057466Y027211*
X057399Y027299*
X057360Y027329*
X057359Y027364*
X057648Y027792*
X059551*
X059840Y027364*
X059839Y027329*
X059800Y027299*
X059733Y027211*
X059690Y027109*
X059679Y027025*
X060075*
Y026975*
X059679*
X059690Y026890*
X059722Y026812*
X059731Y026792*
X059793Y026599*
Y026400*
X059731Y026207*
X059723Y026187*
X059690Y026109*
X059679Y026025*
X060075*
Y025975*
X059679*
X059690Y025890*
X059722Y025812*
X059731Y025792*
X059793Y025599*
Y025400*
X059731Y025207*
X059723Y025187*
X059690Y025109*
X059679Y025025*
X060075*
Y024975*
X059679*
X059690Y024890*
X059695Y024878*
X059712Y024692*
X059711Y024606*
X059687Y024348*
X059678Y024297*
Y024199*
Y024025*
X060075*
Y023975*
X060125*
Y023578*
X060260*
X060385*
X060599Y023384*
X060735Y023229*
Y011078*
X011878*
Y038281*
X052825*
Y037581*
G54D23*
X052775Y037609D02*
X052374Y037372D01*
X052350*
X051797*
X051736Y037359*
X051678Y037321*
X051640Y037263*
X051628Y037202*
Y036701*
Y036598*
X051637Y036544*
X051661Y036290*
X051662Y036209*
X051646Y036033*
X051641Y036022*
X051625Y035900*
X051641Y035777*
X051689Y035663*
X051764Y035564*
X051863Y035489*
X051977Y035441*
X052009Y035437*
X052082Y035330*
X052189Y035042*
X052055Y034908*
X051897Y034478*
X050777*
X050714Y034515*
X050434Y034777*
X050403Y034880*
X050334Y034984*
X050227Y035055*
X050075Y035087*
Y034825*
X050050Y034800*
X050041Y034775*
X049774*
X049751Y034646*
X049739Y034575*
X049722Y034469*
X049670Y034320*
X049591Y034196*
X049228Y033833*
X049163Y033748*
X049120Y033645*
X049107Y033539*
Y032088*
X046060*
X045954Y032074*
X045851Y032031*
X045762Y031963*
X045694Y031875*
X045650Y031771*
X045637Y031664*
Y028128*
X045345*
X045239Y028114*
X045135Y028071*
X045050Y028006*
X043830Y026785*
X043406Y026945*
X043406Y026949*
X043456Y027022*
X043481Y027150*
X043456Y027277*
X043383Y027384*
X043277Y027455*
X043150Y027481*
X043022Y027455*
X042928Y027392*
X042906Y027378*
X042429*
X041492*
X041411Y027361*
X041344Y027316*
X039005Y024978*
X025754*
X024955*
X024886*
X024353*
X018199*
X017842*
X017761Y024961*
X017694Y024916*
X017530Y024753*
X017207Y024430*
X017192*
X017072Y024405*
X016966Y024334*
X016893Y024227*
X016868Y024100*
X016893Y023972*
X016966Y023865*
X017072Y023794*
X017200Y023768*
X017327Y023794*
X017434Y023865*
X017505Y023972*
X017530Y024092*
Y024107*
X017831Y024408*
X017944Y024522*
X018198*
X024124*
X024524*
X024566Y024473*
X024710Y024187*
X024727Y024097*
X024718Y024049*
X024744Y023922*
X024815Y023816*
X024922Y023743*
X025050Y023718*
X025177Y023743*
X025284Y023816*
X025355Y023922*
X025374Y024013*
X025675Y024322*
X025798*
X039257*
X039338Y024338*
X039405Y024383*
X041351Y026329*
X041507Y026275*
X041711Y026117*
X041702Y026136*
X041701Y026126*
X041720Y025977*
X041778Y025839*
X041869Y025719*
X041988Y025628*
X042126Y025571*
X042178Y025564*
X042270Y025525*
X042527Y025266*
X042572Y025184*
Y024035*
X042561Y024019*
X042506Y023970*
X042129Y023747*
X042131Y023747*
X041985Y023728*
X041847Y023671*
X041728Y023580*
X041637Y023460*
X041579Y023322*
X041560Y023173*
X041579Y023026*
X041637Y022887*
X041706Y022797*
Y021960*
X041328Y021892*
X041276Y021939*
X041177Y022006*
X041025Y022035*
Y021700*
Y021362*
X041177Y021394*
X041276Y021460*
X041328Y021507*
X041706Y021439*
Y020261*
X039987Y018542*
X039756Y018460*
X039495Y018440*
X039438Y018445*
X039373Y018458*
X039246Y018433*
X039137Y018362*
X039066Y018253*
X039041Y018126*
X039066Y018000*
X039137Y017892*
X039246Y017821*
X039345Y017801*
X039369Y017786*
X039445Y017741*
X039692Y017593*
X039772Y017522*
Y016705*
X039568Y016588*
X039408Y016549*
X039331Y016555*
X039232Y016595*
X039075Y016618*
Y016100*
Y015581*
X039232Y015604*
X039356Y015654*
X039437Y015716*
X039532Y015722*
X039823Y015707*
X039910Y015683*
X040488Y015106*
Y014011*
X040441Y013974*
X040358Y013872*
X040296Y013756*
X040258Y013630*
X040245Y013500*
X040258Y013369*
X040296Y013243*
X040358Y013127*
X040441Y013025*
X040543Y012942*
X040659Y012880*
X040785Y012842*
X040916Y012829*
X041046Y012842*
X041171Y012880*
X041287Y012942*
X041389Y013025*
X041472Y013127*
X041534Y013243*
X041572Y013369*
X041586Y013500*
X041572Y013630*
X041534Y013756*
X041472Y013872*
X041389Y013974*
X041344Y014011*
Y015289*
X041338Y015330*
X041339Y015437*
X041357Y015579*
X041375Y015666*
X041416Y015782*
X041463Y015902*
X041501Y015992*
X041514Y016100*
X041501Y016207*
X041459Y016307*
X041393Y016393*
X041307Y016459*
X041207Y016501*
X041099Y016514*
X041053Y016508*
X041008Y016514*
X040764Y016643*
X040628Y016765*
Y017972*
X041172Y018516*
X041433Y018434*
X041574Y018343*
X041579Y018301*
X041637Y018163*
X041728Y018044*
X041847Y017953*
X041985Y017895*
X042134Y017876*
X042272Y017894*
X042420Y017914*
X042490Y017876*
X042531Y017855*
X042622Y017794*
X042750Y017768*
X042877Y017794*
X042983Y017865*
X043056Y017972*
X043081Y018100*
X043056Y018227*
X042983Y018334*
X042877Y018405*
X042797Y018421*
X042682Y018612*
X042630Y018736*
X042539Y018855*
X042420Y018946*
X042282Y019004*
X042240Y019009*
X042148Y019150*
X042066Y019411*
X042439Y019784*
X042505Y019868*
X042533Y019937*
X042754Y020050*
X042961Y020083*
X043850Y019193*
X043935Y019128*
X044039Y019085*
X044145Y019072*
X045656*
X047212Y017516*
Y017347*
X047224Y017286*
X047262Y017228*
X047320Y017190*
X047381Y017178*
X047987*
X048048Y017190*
X048106Y017228*
X048145Y017287*
X048156Y017348*
Y017951*
X048145Y018012*
X048106Y018071*
X048048Y018109*
X047987Y018122*
X047817*
X046133Y019806*
X046048Y019871*
X045945Y019914*
X045838Y019928*
X044820*
X044559Y020322*
X044692Y020626*
X045037Y020971*
X045106Y021072*
X045131Y021200*
X045106Y021327*
X045033Y021434*
X044927Y021505*
X044800Y021531*
X044672Y021505*
X044572Y021438*
X044215Y021081*
X043933Y020755*
X043555Y020761*
X043473Y020781*
X043428Y020827*
Y022389*
X043648Y022777*
X043727Y022793*
X043833Y022866*
X043906Y022972*
X043931Y023100*
X043906Y023227*
X043851Y023308*
X043821Y023487*
Y023612*
X043851Y023791*
X043906Y023872*
X043931Y024000*
X043906Y024127*
X043833Y024234*
X043727Y024305*
X043648Y024321*
X043428Y024710*
Y025172*
X044390Y026135*
X044679Y026031*
X044787Y025957*
X044791Y025927*
X044839Y025813*
X044914Y025714*
X045013Y025639*
X045127Y025591*
X045250Y025575*
X045372Y025591*
X045456Y025626*
X045475Y025634*
X045658Y025693*
X045841*
X046024Y025634*
X046042Y025627*
X046127Y025591*
X046275Y025572*
Y026050*
Y026527*
X046127Y026508*
X046043Y026473*
X046024Y026465*
X045841Y026407*
X045658*
X045475Y026465*
X045457Y026472*
X045372Y026508*
X045342Y026512*
X045268Y026620*
X045164Y026909*
X045527Y027272*
X051154*
X051260Y027285*
X051364Y027328*
X051449Y027393*
X051637Y027582*
X052045Y027413*
Y026602*
X051846Y026220*
X051614Y026031*
X051543Y025927*
X051514Y025775*
X051775*
X051800Y025750*
X051825Y025741*
Y025464*
X051977Y025493*
X052075Y025560*
X052231Y025692*
X052640Y025842*
X055135*
X055220Y025752*
X055362Y025521*
X055423Y025422*
X055443Y025322*
X055516Y025215*
X055622Y025144*
X055750Y025118*
X055877Y025144*
X055984Y025215*
X056055Y025322*
X056078Y025435*
X056098Y025554*
X056111Y025622*
X056121Y025677*
X056205Y025731*
X056292Y025765*
X056665Y025591*
X056743Y025517*
Y025408*
X056684Y025225*
X056677Y025207*
X056641Y025122*
X056625Y025000*
X056641Y024877*
X056676Y024793*
X056684Y024774*
X056743Y024591*
Y024408*
X056684Y024225*
X056677Y024207*
X056641Y024122*
X056625Y024000*
X056641Y023877*
X056689Y023763*
X056764Y023664*
X056863Y023589*
X056977Y023541*
X057100Y023525*
X057222Y023541*
X057336Y023589*
X057435Y023664*
X057510Y023763*
X057557Y023877*
X057574Y024000*
X057558Y024122*
X057523Y024206*
X057515Y024225*
X057457Y024408*
Y024591*
X057515Y024774*
X057522Y024792*
X057558Y024877*
X057574Y025000*
X057558Y025122*
X057523Y025206*
X057515Y025225*
X057457Y025408*
Y025591*
X057515Y025774*
X057522Y025792*
X057558Y025877*
X057574Y026000*
X057558Y026122*
X057523Y026206*
X057515Y026225*
X057457Y026408*
Y026591*
X057515Y026774*
X057522Y026792*
X057558Y026877*
X057574Y026999*
X057557Y027122*
X057510Y027236*
X057435Y027335*
X057409Y027355*
X057409Y027350*
X057674Y027742*
X059525*
X059790Y027350*
X059790Y027355*
X059764Y027335*
X059689Y027236*
X059641Y027122*
X059622Y026975*
X060025*
X060050Y027000*
X059621Y027028*
X059641Y026877*
X059676Y026793*
X059684Y026774*
X059743Y026591*
Y026408*
X059684Y026225*
X059677Y026207*
X059641Y026122*
X059622Y025975*
X060025*
X060050Y026000*
X059621Y026028*
X059641Y025877*
X059676Y025793*
X059684Y025774*
X059743Y025591*
Y025408*
X059684Y025225*
X059677Y025207*
X059641Y025122*
X059622Y024975*
X060025*
X060050Y025000*
X059621Y025028*
X059641Y024877*
X059646Y024866*
X059662Y024690*
X059661Y024609*
X059637Y024355*
X059628Y024301*
Y024199*
Y023975*
X060025*
X060050Y023950*
X060075Y023941*
Y023528*
X060260*
X060366*
X060563Y023349*
X060685Y023210*
Y011128*
X011928*
Y038231*
X052775*
Y037609*
G54D25*
X052675Y037666D02*
X052346Y037472D01*
X052350*
X051787*
X051697Y037453*
X051606Y037393*
X051546Y037302*
X051528Y037212*
Y036701*
Y036589*
X051538Y036531*
X051561Y036284*
X051562Y036213*
X051548Y036057*
X051544Y036049*
X051524Y035900*
X051544Y035750*
X051602Y035613*
X051693Y035493*
X051813Y035402*
X051951Y035344*
X051952Y035344*
X051993Y035284*
X052073Y035068*
X051968Y034963*
X051827Y034578*
X050804*
X050774Y034595*
X050522Y034832*
X050494Y034923*
X050406Y035056*
X050267Y035149*
X049975Y035210*
Y034866*
X049962Y034854*
X049969Y034875*
X049690*
X049652Y034662*
X049641Y034591*
X049624Y034494*
X049580Y034364*
X049512Y034259*
X049153Y033899*
X049076Y033799*
X049023Y033671*
X049007Y033546*
Y032188*
X046053*
X045928Y032171*
X045800Y032118*
X045691Y032034*
X045607Y031925*
X045553Y031798*
X045537Y031671*
Y028228*
X045338*
X045213Y028211*
X045085Y028159*
X044984Y028081*
X043805Y026901*
X043502Y027015*
X043508Y026921*
X043550Y026983*
X043583Y027150*
X043550Y027316*
X043455Y027456*
X043316Y027549*
X043150Y027583*
X042983Y027549*
X042872Y027475*
X042876Y027478*
X042429*
X041482*
X041372Y027455*
X041280Y027393*
X038964Y025078*
X025754*
X024955*
X024886*
X024353*
X018199*
X017832*
X017722Y025055*
X017630Y024993*
X017460Y024823*
X017166Y024530*
X017182*
X017033Y024499*
X016894Y024406*
X016799Y024266*
X016766Y024100*
X016799Y023933*
X016894Y023793*
X017033Y023700*
X017200Y023666*
X017366Y023700*
X017506Y023793*
X017599Y023933*
X017630Y024082*
Y024066*
X017901Y024338*
X017985Y024422*
X018198*
X024124*
X024478*
X024482Y024417*
X024614Y024155*
X024625Y024097*
X024616Y024048*
X024650Y023883*
X024743Y023744*
X024883Y023649*
X025050Y023616*
X025216Y023649*
X025356Y023744*
X025449Y023883*
X025466Y023964*
X025717Y024222*
X025798*
X039267*
X039377Y024244*
X039469Y024306*
X041378Y026214*
X041459Y026186*
X041964Y025794*
X041652Y026494*
X041600Y026126*
X041623Y025951*
X041691Y025788*
X041797Y025648*
X041938Y025540*
X042100Y025474*
X042152Y025467*
X042212Y025441*
X042446Y025206*
X042472Y025159*
Y024064*
X042485Y024085*
X042447Y024052*
X041804Y023671*
X041161Y023720*
X041959Y023825*
X041797Y023759*
X041656Y023651*
X041550Y023510*
X041482Y023348*
X041459Y023173*
X041482Y023000*
X041550Y022836*
X041606Y022763*
Y022044*
X041358Y021999*
X041338Y022017*
X041216Y022101*
X040925Y022155*
Y021700*
Y021239*
X041217Y021300*
X041338Y021381*
X041358Y021400*
X041606Y021355*
Y020302*
X039933Y018629*
X039735Y018558*
X039496Y018540*
X039453Y018544*
X039373Y018560*
X039207Y018528*
X039065Y018434*
X038971Y018292*
X038939Y018126*
X038971Y017962*
X039065Y017820*
X039207Y017726*
X039308Y017707*
X039317Y017701*
X039393Y017655*
X039632Y017512*
X039672Y017477*
Y016763*
X039531Y016682*
X039400Y016650*
X039354Y016654*
X039258Y016693*
X038975Y016733*
Y016100*
Y015466*
X039258Y015506*
X039406Y015566*
X039474Y015618*
X039533Y015622*
X039807Y015608*
X039858Y015593*
X040388Y015065*
Y014059*
X040371Y014045*
X040274Y013928*
X040203Y013795*
X040159Y013650*
X040145Y013500*
X040159Y013349*
X040203Y013204*
X040274Y013071*
X040370Y012954*
X040487Y012858*
X040620Y012787*
X040765Y012743*
X040916Y012729*
X041066Y012743*
X041210Y012787*
X041343Y012858*
X041460Y012954*
X041556Y013071*
X041627Y013204*
X041671Y013349*
X041686Y013500*
X041671Y013650*
X041627Y013795*
X041556Y013928*
X041460Y014045*
X041444Y014058*
Y015296*
X041438Y015336*
X041439Y015430*
X041455Y015563*
X041471Y015639*
X041510Y015747*
X041556Y015865*
X041598Y015966*
X041615Y016100*
X041598Y016233*
X041546Y016358*
X041464Y016464*
X041358Y016546*
X041233Y016598*
X041099Y016615*
X041053Y016609*
X041038Y016611*
X040821Y016725*
X040728Y016809*
Y017931*
X041200Y018403*
X041390Y018343*
X041481Y018284*
X041482Y018274*
X041550Y018112*
X041657Y017973*
X041796Y017866*
X041959Y017798*
X042134Y017775*
X042285Y017795*
X042401Y017811*
X042443Y017788*
X042480Y017769*
X042583Y017700*
X042750Y017666*
X042916Y017700*
X043055Y017793*
X043150Y017933*
X043183Y018100*
X043150Y018266*
X043055Y018406*
X042916Y018499*
X042860Y018511*
X042771Y018658*
X042717Y018787*
X042610Y018926*
X042471Y019033*
X042309Y019101*
X042298Y019102*
X042239Y019193*
X042179Y019383*
X042514Y019717*
X042592Y019818*
X042612Y019865*
X042786Y019954*
X042926Y019977*
X043784Y019118*
X043885Y019040*
X044013Y018988*
X044138Y018972*
X045615*
X047112Y017475*
Y017337*
X047130Y017247*
X047190Y017156*
X047281Y017096*
X047371Y017078*
X047997*
X048087Y017096*
X048178Y017156*
X048239Y017249*
X048256Y017339*
Y017960*
X048239Y018050*
X048178Y018143*
X048087Y018203*
X047997Y018222*
X047858*
X046199Y019881*
X046099Y019958*
X045971Y020011*
X045845Y020028*
X044873*
X044672Y020332*
X044776Y020569*
X045115Y020907*
X045200Y021033*
X045233Y021200*
X045200Y021366*
X045105Y021506*
X044966Y021599*
X044800Y021633*
X044633Y021599*
X044508Y021515*
X044141Y021149*
X043888Y020856*
X043567Y020861*
X043524Y020871*
X043528Y020868*
Y022362*
X043712Y022688*
X043766Y022699*
X043905Y022794*
X044000Y022933*
X044033Y023100*
X044000Y023266*
X043946Y023346*
X043921Y023495*
Y023604*
X043946Y023752*
X044000Y023833*
X044033Y024000*
X044000Y024166*
X043905Y024306*
X043766Y024399*
X043713Y024410*
X043528Y024737*
Y025131*
X044416Y026019*
X044633Y025941*
X044694Y025900*
X044694Y025901*
X044752Y025763*
X044843Y025643*
X044963Y025552*
X045100Y025494*
X045250Y025474*
X045398Y025494*
X045495Y025534*
X045510Y025540*
X045674Y025593*
X045825*
X045989Y025540*
X046003Y025534*
X046101Y025494*
X046375Y025458*
Y026050*
Y026641*
X046101Y026605*
X046004Y026565*
X045989Y026559*
X045825Y026507*
X045674*
X045510Y026559*
X045496Y026565*
X045398Y026605*
X045399Y026605*
X045358Y026666*
X045280Y026883*
X045568Y027172*
X051161*
X051286Y027188*
X051414Y027240*
X051515Y027318*
X051661Y027464*
X051945Y027347*
Y026626*
X051767Y026284*
X051539Y026099*
X051448Y025966*
X051394Y025675*
X051733*
X051745Y025662*
X051725Y025669*
Y025344*
X052016Y025398*
X052136Y025480*
X052282Y025604*
X052658Y025742*
X055092*
X055140Y025691*
X055276Y025469*
X055329Y025385*
X055349Y025283*
X055444Y025143*
X055583Y025050*
X055750Y025016*
X055916Y025050*
X056056Y025143*
X056149Y025283*
X056176Y025417*
X056197Y025536*
X056210Y025604*
X056212Y025616*
X056251Y025642*
X056288Y025656*
X056608Y025507*
X056643Y025474*
Y025424*
X056590Y025260*
X056584Y025246*
X056544Y025148*
X056524Y025000*
X056544Y024851*
X056584Y024754*
X056590Y024739*
X056643Y024575*
Y024424*
X056590Y024260*
X056584Y024246*
X056544Y024148*
X056524Y024000*
X056544Y023850*
X056602Y023713*
X056693Y023593*
X056813Y023502*
X056950Y023444*
X057100Y023424*
X057249Y023444*
X057386Y023502*
X057506Y023593*
X057597Y023713*
X057655Y023850*
X057675Y024000*
X057655Y024148*
X057615Y024245*
X057609Y024260*
X057557Y024424*
Y024575*
X057609Y024739*
X057615Y024753*
X057655Y024851*
X057675Y025000*
X057655Y025148*
X057615Y025245*
X057609Y025260*
X057557Y025424*
Y025575*
X057609Y025739*
X057615Y025753*
X057655Y025851*
X057675Y026000*
X057655Y026148*
X057615Y026245*
X057609Y026260*
X057557Y026424*
Y026575*
X057609Y026739*
X057615Y026753*
X057655Y026851*
X057675Y026999*
X057655Y027149*
X057597Y027286*
X057506Y027406*
X057302Y027562*
X057321Y027040*
X057727Y027642*
X059472*
X059878Y027040*
X059897Y027562*
X059693Y027406*
X059602Y027286*
X059544Y027148*
X059508Y026875*
X060066*
X060276Y027084*
X059506Y027136*
X059544Y026851*
X059584Y026754*
X059590Y026739*
X059643Y026575*
Y026424*
X059590Y026260*
X059584Y026246*
X059544Y026148*
X059508Y025875*
X060066*
X060276Y026084*
X059506Y026136*
X059544Y025851*
X059584Y025754*
X059590Y025739*
X059643Y025575*
Y025424*
X059590Y025260*
X059584Y025246*
X059544Y025148*
X059508Y024875*
X060066*
X060276Y025084*
X059506Y025136*
X059544Y024851*
X059548Y024842*
X059562Y024686*
X059561Y024615*
X059538Y024368*
X059528Y024310*
Y024199*
Y023875*
X059983*
X059995Y023862*
X059975Y023869*
Y023428*
X060260*
X060327*
X060492Y023279*
X060585Y023173*
Y011228*
X012028*
Y038131*
X052675*
Y037666*
X012040Y011330D02*
X060580D01*
X012040Y011530D02*
X060580D01*
X012040Y011730D02*
X060580D01*
X012040Y011930D02*
X060580D01*
X012040Y012130D02*
X060580D01*
X012040Y012330D02*
X060580D01*
X012040Y012530D02*
X060580D01*
X012040Y012730D02*
X060580D01*
X012040Y012930D02*
X040380D01*
X041490D02*
X060580D01*
X012040Y013130D02*
X040230D01*
X041640D02*
X060580D01*
X012040Y013330D02*
X040130D01*
X041690D02*
X060580D01*
X012040Y013530D02*
X040130D01*
X041740D02*
X060580D01*
X012040Y013730D02*
X040180D01*
X041690D02*
X060580D01*
X012040Y013930D02*
X040230D01*
X041590D02*
X060580D01*
X012040Y014130D02*
X040380D01*
X041490D02*
X060580D01*
X012040Y014330D02*
X040380D01*
X041490D02*
X060580D01*
X012040Y014530D02*
X040380D01*
X041490D02*
X060580D01*
X012040Y014730D02*
X040380D01*
X041490D02*
X060580D01*
X012040Y014930D02*
X040380D01*
X041490D02*
X060580D01*
X012040Y015130D02*
X040280D01*
X041490D02*
X060580D01*
X012040Y015330D02*
X040080D01*
X041490D02*
X060580D01*
X012040Y015530D02*
X038930D01*
X039340D02*
X039880D01*
X041490D02*
X060580D01*
X012040Y015730D02*
X038930D01*
X041540D02*
X060580D01*
X012040Y015930D02*
X038930D01*
X041640D02*
X060580D01*
X012040Y016130D02*
X038930D01*
X041640D02*
X060580D01*
X012040Y016330D02*
X038930D01*
X041590D02*
X060580D01*
X012040Y016530D02*
X038930D01*
X041440D02*
X060580D01*
X012040Y016730D02*
X039580D01*
X040840D02*
X060580D01*
X012040Y016930D02*
X039630D01*
X040740D02*
X060580D01*
X012040Y017130D02*
X039630D01*
X040740D02*
X047230D01*
X048190D02*
X060580D01*
X012040Y017330D02*
X039630D01*
X040740D02*
X047080D01*
X048290D02*
X060580D01*
X012040Y017530D02*
X039580D01*
X040740D02*
X047030D01*
X048290D02*
X060580D01*
X012040Y017730D02*
X039180D01*
X040740D02*
X042530D01*
X042990D02*
X046830D01*
X048290D02*
X060580D01*
X012040Y017930D02*
X038980D01*
X040740D02*
X041680D01*
X043190D02*
X046630D01*
X048290D02*
X060580D01*
X012040Y018130D02*
X038930D01*
X040940D02*
X041530D01*
X043190D02*
X046430D01*
X048240D02*
X060580D01*
X012040Y018330D02*
X038980D01*
X041140D02*
X041380D01*
X043140D02*
X046230D01*
X047790D02*
X060580D01*
X012040Y018530D02*
X039180D01*
X042890D02*
X046030D01*
X047590D02*
X060580D01*
X012040Y018730D02*
X040030D01*
X042790D02*
X045830D01*
X047390D02*
X060580D01*
X012040Y018930D02*
X040230D01*
X042640D02*
X045630D01*
X047190D02*
X060580D01*
X012040Y019130D02*
X040430D01*
X042290D02*
X043730D01*
X046990D02*
X060580D01*
X012040Y019330D02*
X040630D01*
X042240D02*
X043530D01*
X046790D02*
X060580D01*
X012040Y019530D02*
X040830D01*
X042340D02*
X043330D01*
X046590D02*
X060580D01*
X012040Y019730D02*
X041030D01*
X042540D02*
X043130D01*
X046390D02*
X060580D01*
X012040Y019930D02*
X041230D01*
X042790D02*
X042930D01*
X046190D02*
X060580D01*
X012040Y020130D02*
X041430D01*
X044840D02*
X060580D01*
X012040Y020330D02*
X041580D01*
X044690D02*
X060580D01*
X012040Y020530D02*
X041580D01*
X044790D02*
X060580D01*
X012040Y020730D02*
X041580D01*
X044990D02*
X060580D01*
X012040Y020930D02*
X041580D01*
X043540D02*
X043930D01*
X045190D02*
X060580D01*
X012040Y021130D02*
X041580D01*
X043540D02*
X044080D01*
X045240D02*
X060580D01*
X012040Y021330D02*
X040880D01*
X041290D02*
X041580D01*
X043540D02*
X044280D01*
X045240D02*
X060580D01*
X012040Y021530D02*
X040880D01*
X043540D02*
X044480D01*
X045090D02*
X060580D01*
X012040Y021730D02*
X040880D01*
X043540D02*
X060580D01*
X012040Y021930D02*
X040880D01*
X043540D02*
X060580D01*
X012040Y022130D02*
X040880D01*
X041090D02*
X041580D01*
X043540D02*
X060580D01*
X012040Y022330D02*
X041580D01*
X043540D02*
X060580D01*
X012040Y022530D02*
X041580D01*
X043640D02*
X060580D01*
X012040Y022730D02*
X041580D01*
X043840D02*
X060580D01*
X012040Y022930D02*
X041480D01*
X044040D02*
X060580D01*
X012040Y023130D02*
X041430D01*
X044040D02*
X060580D01*
X012040Y023330D02*
X041430D01*
X043990D02*
X060430D01*
X012040Y023530D02*
X041530D01*
X043940D02*
X056730D01*
X057440D02*
X059930D01*
X012040Y023730D02*
X016980D01*
X017440D02*
X024730D01*
X025390D02*
X041880D01*
X043990D02*
X056580D01*
X057640D02*
X059930D01*
X012040Y023930D02*
X016780D01*
X017640D02*
X024630D01*
X025490D02*
X042230D01*
X044040D02*
X056480D01*
X057690D02*
X059480D01*
X012040Y024130D02*
X016730D01*
X017740D02*
X024580D01*
X025690D02*
X042430D01*
X044040D02*
X056530D01*
X057690D02*
X059480D01*
X012040Y024330D02*
X016830D01*
X017940D02*
X024480D01*
X039540D02*
X042430D01*
X043890D02*
X056580D01*
X057640D02*
X059530D01*
X012040Y024530D02*
X017130D01*
X039740D02*
X042430D01*
X043690D02*
X056630D01*
X057590D02*
X059530D01*
X012040Y024730D02*
X017330D01*
X039940D02*
X042430D01*
X043590D02*
X056580D01*
X057640D02*
X059530D01*
X012040Y024930D02*
X017530D01*
X040140D02*
X042430D01*
X043540D02*
X056480D01*
X057690D02*
X059480D01*
X059590D02*
X060080D01*
X012040Y025130D02*
X038980D01*
X040340D02*
X042430D01*
X043540D02*
X055430D01*
X056090D02*
X056530D01*
X057690D02*
X059480D01*
X059590D02*
X059630D01*
X012040Y025330D02*
X039180D01*
X040540D02*
X042280D01*
X043740D02*
X055330D01*
X056190D02*
X056580D01*
X057640D02*
X059580D01*
X012040Y025530D02*
X039380D01*
X040740D02*
X041930D01*
X043940D02*
X044980D01*
X045540D02*
X045980D01*
X046390D02*
X051680D01*
X052240D02*
X055230D01*
X056240D02*
X056530D01*
X057590D02*
X059630D01*
X012040Y025730D02*
X039580D01*
X040940D02*
X041730D01*
X044140D02*
X044730D01*
X046390D02*
X051380D01*
X052690D02*
X055080D01*
X057640D02*
X059580D01*
X012040Y025930D02*
X039780D01*
X041140D02*
X041580D01*
X041840D02*
X041880D01*
X044340D02*
X044630D01*
X046390D02*
X051430D01*
X057690D02*
X059480D01*
X059590D02*
X060080D01*
X012040Y026130D02*
X039980D01*
X041340D02*
X041530D01*
X041640D02*
X041780D01*
X046390D02*
X051530D01*
X057690D02*
X059480D01*
X059590D02*
X059630D01*
X012040Y026330D02*
X040180D01*
X041640D02*
X041680D01*
X046390D02*
X051780D01*
X057640D02*
X059580D01*
X012040Y026530D02*
X040380D01*
X045640D02*
X045880D01*
X046390D02*
X051880D01*
X057590D02*
X059630D01*
X012040Y026730D02*
X040580D01*
X045390D02*
X051930D01*
X057640D02*
X059580D01*
X012040Y026930D02*
X040780D01*
X043790D02*
X043830D01*
X045340D02*
X051930D01*
X057690D02*
X059480D01*
X059590D02*
X060080D01*
X012040Y027130D02*
X040980D01*
X043590D02*
X044030D01*
X045540D02*
X051930D01*
X057340D02*
X057380D01*
X057690D02*
X059480D01*
X059590D02*
X059630D01*
X059840D02*
X059880D01*
X012040Y027330D02*
X041180D01*
X043590D02*
X044230D01*
X051540D02*
X051930D01*
X057340D02*
X057480D01*
X057590D02*
X059580D01*
X059740D02*
X059880D01*
X012040Y027530D02*
X042930D01*
X043390D02*
X044430D01*
X057340D02*
X057330D01*
X057690D02*
X059530D01*
X059890D02*
X059880D01*
X012040Y027730D02*
X044630D01*
X012040Y027930D02*
X044830D01*
X012040Y028130D02*
X045030D01*
X012040Y028330D02*
X045530D01*
X012040Y028530D02*
X045530D01*
X012040Y028730D02*
X045530D01*
X012040Y028930D02*
X045530D01*
X012040Y029130D02*
X045530D01*
X012040Y029330D02*
X045530D01*
X012040Y029530D02*
X045530D01*
X012040Y029730D02*
X045530D01*
X012040Y029930D02*
X045530D01*
X012040Y030130D02*
X045530D01*
X012040Y030330D02*
X045530D01*
X012040Y030530D02*
X045530D01*
X012040Y030730D02*
X045530D01*
X012040Y030930D02*
X045530D01*
X012040Y031130D02*
X045530D01*
X012040Y031330D02*
X045530D01*
X012040Y031530D02*
X045530D01*
X012040Y031730D02*
X045530D01*
X012040Y031930D02*
X045580D01*
X012040Y032130D02*
X045780D01*
X012040Y032330D02*
X048980D01*
X012040Y032530D02*
X048980D01*
X012040Y032730D02*
X048980D01*
X012040Y032930D02*
X048980D01*
X012040Y033130D02*
X048980D01*
X012040Y033330D02*
X048980D01*
X012040Y033530D02*
X048980D01*
X012040Y033730D02*
X049030D01*
X012040Y033930D02*
X049130D01*
X012040Y034130D02*
X049330D01*
X012040Y034330D02*
X049530D01*
X012040Y034530D02*
X049580D01*
X012040Y034730D02*
X049630D01*
X050640D02*
X051880D01*
X012040Y034930D02*
X049930D01*
X050540D02*
X051930D01*
X012040Y035130D02*
X049930D01*
X050340D02*
X052030D01*
X012040Y035330D02*
X051930D01*
X012040Y035530D02*
X051630D01*
X012040Y035730D02*
X051530D01*
X012040Y035930D02*
X051480D01*
X012040Y036130D02*
X051530D01*
X012040Y036330D02*
X051530D01*
X012040Y036530D02*
X051530D01*
X012040Y036730D02*
X051480D01*
X012040Y036930D02*
X051480D01*
X012040Y037130D02*
X051480D01*
X012040Y037330D02*
X051530D01*
X012040Y037530D02*
X052430D01*
X012040Y037730D02*
X052630D01*
X012040Y037930D02*
X052630D01*
%LNde-010824-2*%
%LPC*%
G36*
X050750Y029150D02*
X050403D01*
X050410Y029096*
X050451Y028998*
X050515Y028915*
X050598Y028851*
X050696Y028810*
X050750Y028803*
Y029150*
G37*
G36*
Y029597D02*
X050696Y029590D01*
X050598Y029549*
X050515Y029485*
X050451Y029402*
X050447Y029394*
X050410Y029304*
X050403Y029250*
X050750*
Y029597*
G37*
G36*
X050800Y032295D02*
Y032100D01*
X050995*
X050985Y032148*
X050930Y032230*
X050848Y032285*
X050800Y032295*
G37*
G36*
X050700D02*
X050652Y032285D01*
X050570Y032230*
X050514Y032148*
X050505Y032100*
X050700*
Y032295*
G37*
G36*
X050995Y032000D02*
X050800D01*
Y031805*
X050848Y031814*
X050930Y031870*
X050985Y031952*
X050995Y032000*
G37*
G36*
X050700D02*
X050505D01*
X050514Y031952*
X050570Y031870*
X050652Y031814*
X050700Y031805*
Y032000*
G37*
G36*
X054550Y034845D02*
Y034650D01*
X054745*
X054735Y034698*
X054680Y034780*
X054598Y034836*
X054550Y034845*
G37*
G36*
X054450Y034550D02*
X054255D01*
X054264Y034502*
X054310Y034434*
X054320Y034420*
X054402Y034365*
X054450Y034355*
Y034550*
G37*
G36*
X054745D02*
X054550D01*
Y034355*
X054598Y034365*
X054611Y034374*
X054680Y034420*
X054735Y034502*
X054745Y034550*
G37*
G36*
X057100Y033850D02*
X056905D01*
X056915Y033802*
X056970Y033720*
X057052Y033665*
X057100Y033655*
Y033850*
G37*
G36*
X057395D02*
X057200D01*
Y033655*
X057248Y033665*
X057330Y033720*
X057386Y033802*
X057395Y033850*
G37*
G36*
X057200Y034145D02*
Y033950D01*
X057395*
X057386Y033998*
X057330Y034080*
X057248Y034135*
X057200Y034145*
G37*
G36*
X057100D02*
X057052Y034135D01*
X056970Y034080*
X056915Y033998*
X056905Y033950*
X057100*
Y034145*
G37*
G36*
X057350Y036495D02*
X057234Y036484D01*
X057122Y036450*
X057019Y036395*
X056929Y036321*
X056855Y036231*
X056800Y036128*
X056766Y036016*
X056755Y035900*
X056766Y035784*
X056800Y035672*
X056855Y035569*
X056929Y035479*
X057019Y035405*
X057122Y035350*
X057234Y035316*
X057350Y035305*
X057466Y035316*
X057578Y035350*
X057681Y035405*
X057771Y035479*
X057845Y035569*
X057900Y035672*
X057934Y035784*
X057945Y035900*
X057934Y036016*
X057900Y036128*
X057845Y036231*
X057771Y036321*
X057681Y036395*
X057578Y036450*
X057466Y036484*
X057350Y036495*
G37*
G36*
X059350D02*
X059234Y036484D01*
X059122Y036450*
X059019Y036395*
X058929Y036321*
X058855Y036231*
X058800Y036128*
X058766Y036016*
X058755Y035900*
X058766Y035784*
X058800Y035672*
X058855Y035569*
X058929Y035479*
X059019Y035405*
X059122Y035350*
X059234Y035316*
X059350Y035305*
X059466Y035316*
X059578Y035350*
X059681Y035405*
X059771Y035479*
X059845Y035569*
X059900Y035672*
X059934Y035784*
X059945Y035900*
X059934Y036016*
X059900Y036128*
X059845Y036231*
X059771Y036321*
X059681Y036395*
X059578Y036450*
X059466Y036484*
X059350Y036495*
G37*
G36*
X055350D02*
X055234Y036484D01*
X055122Y036450*
X055019Y036395*
X054929Y036321*
X054855Y036231*
X054800Y036128*
X054766Y036016*
X054755Y035900*
X054766Y035784*
X054800Y035672*
X054855Y035569*
X054929Y035479*
X055019Y035405*
X055122Y035350*
X055234Y035316*
X055350Y035305*
X055466Y035316*
X055578Y035350*
X055681Y035405*
X055771Y035479*
X055845Y035569*
X055900Y035672*
X055934Y035784*
X055945Y035900*
X055934Y036016*
X055900Y036128*
X055845Y036231*
X055771Y036321*
X055681Y036395*
X055578Y036450*
X055466Y036484*
X055350Y036495*
G37*
G36*
X056500Y029350D02*
X056305D01*
X056315Y029302*
X056370Y029220*
X056452Y029165*
X056500Y029155*
Y029350*
G37*
G36*
X056795D02*
X056600D01*
Y029155*
X056648Y029165*
X056730Y029220*
X056785Y029302*
X056795Y029350*
G37*
G36*
X056500Y029645D02*
X056452Y029636D01*
X056370Y029580*
X056315Y029498*
X056305Y029450*
X056500*
Y029645*
G37*
G36*
X056600D02*
Y029450D01*
X056795*
X056785Y029498*
X056730Y029580*
X056648Y029636*
X056600Y029645*
G37*
G36*
X053800Y029603D02*
X053696Y029590D01*
X053598Y029549*
X053515Y029485*
X053466Y029422*
X053316Y029402*
X053284*
X053134Y029422*
X053085Y029485*
X053002Y029549*
X052904Y029590*
X052850Y029597*
Y029200*
Y028803*
X052904Y028810*
X053002Y028851*
X053085Y028915*
X053134Y028978*
X053284Y028998*
X053316*
X053466Y028978*
X053515Y028915*
X053598Y028851*
X053696Y028810*
X053800Y028797*
X053904Y028810*
X054002Y028851*
X054085Y028915*
X054149Y028998*
X054190Y029096*
X054203Y029200*
X054190Y029304*
X054149Y029402*
X054085Y029485*
X054002Y029549*
X053904Y029590*
X053800Y029603*
G37*
G36*
X059800Y032599D02*
X059697Y032585D01*
X059601Y032545*
X059518Y032482*
X059497Y032455*
X059280Y032484*
X059191Y032527*
X059189Y032534*
X059167Y032567*
X059134Y032589*
X059095Y032597*
X058505*
X058466Y032589*
X058433Y032567*
X058411Y032534*
X058403Y032495*
Y031905*
X058411Y031866*
X058433Y031833*
X058466Y031811*
X058505Y031803*
X059095*
X059134Y031811*
X059167Y031833*
X059189Y031866*
X059191Y031873*
X059280Y031916*
X059497Y031945*
X059518Y031918*
X059601Y031855*
X059697Y031815*
X059800Y031801*
X059903Y031815*
X059999Y031855*
X060082Y031918*
X060145Y032001*
X060185Y032097*
X060199Y032200*
X060185Y032303*
X060145Y032399*
X060082Y032482*
X059999Y032545*
X059903Y032585*
X059800Y032599*
G37*
G36*
X058800Y033799D02*
X058697Y033785D01*
X058601Y033745*
X058518Y033682*
X058455Y033599*
X058415Y033503*
X058401Y033400*
X058415Y033297*
X058455Y033201*
X058518Y033118*
X058601Y033055*
X058697Y033015*
X058800Y033001*
X058903Y033015*
X058999Y033055*
X059082Y033118*
X059103Y033145*
X059320Y033116*
X059409Y033073*
X059411Y033066*
X059433Y033033*
X059466Y033011*
X059505Y033003*
X060095*
X060134Y033011*
X060167Y033033*
X060189Y033066*
X060197Y033105*
Y033695*
X060189Y033734*
X060167Y033767*
X060134Y033789*
X060095Y033797*
X059505*
X059466Y033789*
X059433Y033767*
X059411Y033734*
X059409Y033727*
X059320Y033684*
X059103Y033655*
X059082Y033682*
X058999Y033745*
X058903Y033785*
X058800Y033799*
G37*
G36*
X054500Y033655D02*
X054402Y033635D01*
X054320Y033580*
X054264Y033498*
X054245Y033400*
X054264Y033302*
X054320Y033220*
X054402Y033165*
X054500Y033145*
X054598Y033165*
X054680Y033220*
X054735Y033302*
X054755Y033400*
X054735Y033498*
X054680Y033580*
X054598Y033635*
X054500Y033655*
G37*
G36*
X059000Y030045D02*
Y029850D01*
X059195*
X059186Y029898*
X059130Y029980*
X059048Y030036*
X059000Y030045*
G37*
G36*
X058900D02*
X058852Y030036D01*
X058770Y029980*
X058714Y029898*
X058705Y029850*
X058900*
Y030045*
G37*
G36*
Y029750D02*
X058705D01*
X058714Y029702*
X058770Y029620*
X058852Y029564*
X058900Y029555*
Y029750*
G37*
G36*
X059195D02*
X059000D01*
Y029555*
X059048Y029564*
X059130Y029620*
X059186Y029702*
X059195Y029750*
G37*
G36*
X058800Y031299D02*
X058697Y031285D01*
X058601Y031245*
X058518Y031182*
X058455Y031099*
X058415Y031003*
X058401Y030900*
X058415Y030797*
X058455Y030701*
X058518Y030618*
X058601Y030555*
X058697Y030515*
X058800Y030501*
X058903Y030515*
X058999Y030555*
X059082Y030618*
X059103Y030645*
X059320Y030616*
X059409Y030573*
X059411Y030566*
X059433Y030533*
X059466Y030511*
X059505Y030503*
X060095*
X060134Y030511*
X060167Y030533*
X060189Y030566*
X060197Y030605*
Y031195*
X060189Y031234*
X060167Y031267*
X060134Y031289*
X060095Y031297*
X059505*
X059466Y031289*
X059433Y031267*
X059411Y031234*
X059409Y031227*
X059320Y031184*
X059103Y031155*
X059082Y031182*
X058999Y031245*
X058903Y031285*
X058800Y031299*
G37*
G36*
X034306Y026624D02*
X034177Y026607D01*
X034057Y026557*
X033954Y026478*
X033875Y026375*
X033825Y026254*
X033808Y026126*
X033825Y025997*
X033875Y025877*
X033954Y025773*
X034057Y025694*
X034177Y025645*
X034306Y025628*
X034435Y025645*
X034555Y025694*
X034658Y025773*
X034738Y025877*
X034787Y025997*
X034804Y026126*
X034787Y026254*
X034738Y026375*
X034658Y026478*
X034555Y026557*
X034435Y026607*
X034306Y026624*
G37*
G36*
X026491D02*
X026362Y026607D01*
X026242Y026557*
X026138Y026478*
X026059Y026375*
X026010Y026254*
X025993Y026126*
X026010Y025997*
X026059Y025877*
X026138Y025773*
X026242Y025694*
X026362Y025645*
X026491Y025628*
X026619Y025645*
X026740Y025694*
X026843Y025773*
X026922Y025877*
X026972Y025997*
X026989Y026126*
X026972Y026254*
X026922Y026375*
X026843Y026478*
X026740Y026557*
X026619Y026607*
X026491Y026624*
G37*
G36*
X051800Y021055D02*
X051702Y021035D01*
X051620Y020980*
X051564Y020898*
X051545Y020800*
X051432Y020705*
X051350Y020650*
X051294Y020568*
X051275Y020470*
X051294Y020372*
X051350Y020290*
X051432Y020234*
X051530Y020215*
X051628Y020234*
X051710Y020290*
X051765Y020372*
X051785Y020470*
X051898Y020564*
X051980Y020620*
X052035Y020702*
X052055Y020800*
X052035Y020898*
X051980Y020980*
X051898Y021035*
X051800Y021055*
G37*
G36*
X018496Y023672D02*
X018367Y023655D01*
X018247Y023606*
X018144Y023527*
X018065Y023423*
X018015Y023303*
X017998Y023174*
X018015Y023046*
X018065Y022925*
X018143Y022823*
Y020192*
X017137Y019186*
X016786Y019221*
X016388Y019468*
X016282Y019725*
X016223Y020000*
X016203Y020098*
X016148Y020180*
X016065Y020236*
X015968Y020255*
X015870Y020236*
X015787Y020180*
X015732Y020098*
X015713Y020000*
X015732Y019902*
X015828Y019703*
X015868Y019565*
X015906Y019416*
X015926Y019277*
X015950Y019111*
Y019085*
X015933Y018951*
X015900Y018758*
X015869Y018665*
X015859Y018641*
X015847Y018550*
Y016974*
X015798Y016873*
X015687Y016741*
X015549Y016649*
X015300Y016483*
X015291Y016479*
X014886Y016467*
X014847Y016472*
X014645Y016517*
X014629Y016523*
X014516Y016538*
X014398Y016523*
X014054Y016529*
X013883Y016534*
X013850Y016537*
X013700*
X013181*
X013142Y016529*
X013109Y016507*
X013087Y016474*
X013079Y016435*
Y015939*
X013061Y015803*
X012965Y015398*
X012945Y015300*
X012965Y015202*
X013020Y015120*
X013102Y015065*
X013200Y015045*
X013298Y015065*
X013380Y015120*
X013435Y015202*
X013455Y015300*
X013750Y015599*
X013850Y015663*
X013993Y015676*
X014184Y015684*
X014401Y015677*
X014406Y015676*
X014442Y015671*
X014516Y015662*
X014629Y015677*
X014704Y015708*
X014737Y015721*
X015016Y015770*
X015295Y015721*
X015327Y015708*
X015402Y015677*
X015466Y015668*
Y016100*
X015566*
Y015668*
X015629Y015677*
X015735Y015720*
X015826Y015790*
X016245Y015797*
X016388Y015763*
X016978Y015172*
Y013976*
X016911Y013921*
X016837Y013831*
X016782Y013728*
X016748Y013616*
X016737Y013500*
X016748Y013384*
X016782Y013272*
X016837Y013169*
X016911Y013079*
X017001Y013005*
X017104Y012950*
X017215Y012916*
X017332Y012905*
X017448Y012916*
X017559Y012950*
X017662Y013005*
X017752Y013079*
X017826Y013169*
X017881Y013272*
X017915Y013384*
X017926Y013500*
X017915Y013616*
X017881Y013728*
X017826Y013831*
X017752Y013921*
X017685Y013976*
Y015318*
X017672Y015410*
X017649Y015532*
X017756Y015860*
X017809Y015930*
X017843Y016012*
X017855Y016100*
X017843Y016188*
X017809Y016270*
X017756Y016340*
X017685Y016394*
X017604Y016428*
X017516Y016439*
X017428Y016428*
X017346Y016394*
X017276Y016340*
X016881Y016369*
X016739Y016410*
X016553Y016596*
Y018197*
X017000*
X017091Y018209*
X017177Y018244*
X017250Y018300*
X017508Y018559*
X017752Y018504*
X018010Y018354*
X018015Y018321*
X018065Y018201*
X018144Y018098*
X018247Y018019*
X018367Y017969*
X018431Y017961*
X018555Y017933*
X018705Y017884*
X018927Y017788*
X018938Y017784*
X019037Y017725*
X019052Y017715*
X019150Y017695*
X019248Y017715*
X019330Y017770*
X019385Y017852*
X019405Y017950*
X019385Y018048*
X019330Y018130*
X019293Y018166*
X019225Y018251*
X019205Y018278*
X018986Y018565*
Y018566*
X018927Y018699*
X018848Y018802*
X018745Y018881*
X018625Y018931*
X018592Y018935*
X018441Y019193*
X018387Y019438*
X018745Y019796*
X018801Y019869*
X018837Y019954*
X018849Y020046*
Y022823*
X018927Y022925*
X018977Y023046*
X018994Y023174*
X018977Y023303*
X018927Y023423*
X018848Y023527*
X018745Y023606*
X018625Y023655*
X018496Y023672*
G37*
G36*
X040050Y020655D02*
X039952Y020635D01*
X039870Y020580*
X039815Y020498*
X039795Y020400*
X039815Y020302*
X039870Y020220*
X039952Y020164*
X040050Y020145*
X040148Y020164*
X040230Y020220*
X040286Y020302*
X040305Y020400*
X040286Y020498*
X040230Y020580*
X040148Y020635*
X040050Y020655*
G37*
G36*
X052450Y022555D02*
D01*
X052352Y022536*
X052270Y022480*
X052214Y022398*
X052195Y022300*
X052214Y022202*
X052270Y022120*
X052490Y021864*
X052520Y021820*
X052655Y021663*
X052770Y021520*
X052905Y021363*
X053020Y021220*
X053155Y021063*
X053270Y020920*
X053391Y020780*
X053520Y020620*
X053532Y020612*
X053546Y020602*
X053820Y020320*
X053902Y020264*
X054000Y020245*
X054098Y020264*
X054180Y020320*
X054236Y020402*
X054255Y020500*
X054236Y020598*
X054180Y020680*
X054098Y020735*
X054045Y020746*
X053976Y020818*
X053943Y020862*
X053935Y020898*
X053880Y020980*
X053764Y021116*
X053660Y021236*
X053630Y021280*
X053495Y021437*
X053380Y021580*
X053245Y021737*
X053130Y021880*
X052995Y022037*
X052880Y022180*
X052860Y022194*
X052630Y022480*
X052548Y022536*
X052462Y022553*
X052450Y022555*
G37*
G36*
X036622Y021310D02*
X036493Y021293D01*
X036373Y021243*
X036270Y021164*
X036191Y021061*
X036141Y020941*
X036124Y020812*
X036141Y020683*
X036191Y020563*
X036270Y020460*
X036373Y020381*
X036493Y020331*
X036622Y020314*
X036751Y020331*
X036871Y020381*
X036974Y020460*
X037053Y020563*
X037103Y020683*
X037120Y020812*
X037103Y020941*
X037053Y021061*
X036974Y021164*
X036871Y021243*
X036751Y021293*
X036622Y021310*
G37*
G36*
X017495Y021650D02*
X017300D01*
Y021455*
X017348Y021465*
X017430Y021520*
X017486Y021602*
X017495Y021650*
G37*
G36*
X028765Y021310D02*
X028636Y021293D01*
X028516Y021243*
X028413Y021164*
X028334Y021061*
X028284Y020941*
X028267Y020812*
X028284Y020683*
X028334Y020563*
X028413Y020460*
X028516Y020381*
X028636Y020331*
X028765Y020314*
X028894Y020331*
X029014Y020381*
X029117Y020460*
X029197Y020563*
X029246Y020683*
X029263Y020812*
X029246Y020941*
X029197Y021061*
X029117Y021164*
X029014Y021243*
X028894Y021293*
X028765Y021310*
G37*
G36*
X012984D02*
X012855Y021293D01*
X012735Y021243*
X012632Y021164*
X012553Y021061*
X012503Y020941*
X012486Y020812*
X012503Y020683*
X012553Y020563*
X012632Y020460*
X012735Y020381*
X012855Y020331*
X012984Y020314*
X013113Y020331*
X013233Y020381*
X013336Y020460*
X013415Y020563*
X013465Y020683*
X013482Y020812*
X013465Y020941*
X013415Y021061*
X013336Y021164*
X013233Y021243*
X013113Y021293*
X012984Y021310*
G37*
G36*
X020888D02*
X020759Y021293D01*
X020639Y021243*
X020536Y021164*
X020457Y021061*
X020407Y020941*
X020390Y020812*
X020407Y020683*
X020457Y020563*
X020536Y020460*
X020639Y020381*
X020759Y020331*
X020888Y020314*
X021017Y020331*
X021137Y020381*
X021240Y020460*
X021319Y020563*
X021369Y020683*
X021386Y020812*
X021369Y020941*
X021319Y021061*
X021240Y021164*
X021137Y021243*
X021017Y021293*
X020888Y021310*
G37*
G36*
X013771Y018948D02*
X013642Y018931D01*
X013522Y018881*
X013419Y018802*
X013340Y018699*
X013290Y018579*
X013273Y018450*
X013290Y018321*
X013340Y018201*
X013419Y018098*
X013522Y018019*
X013642Y017969*
X013771Y017952*
X013900Y017969*
X014020Y018019*
X014123Y018098*
X014203Y018201*
X014252Y018321*
X014269Y018450*
X014252Y018579*
X014203Y018699*
X014123Y018802*
X014020Y018881*
X013900Y018931*
X013771Y018948*
G37*
G36*
X021675D02*
X021546Y018931D01*
X021426Y018881*
X021323Y018802*
X021244Y018699*
X021194Y018579*
X021177Y018450*
X021194Y018321*
X021244Y018201*
X021323Y018098*
X021426Y018019*
X021546Y017969*
X021675Y017952*
X021804Y017969*
X021924Y018019*
X022027Y018098*
X022106Y018201*
X022156Y018321*
X022173Y018450*
X022156Y018579*
X022106Y018699*
X022027Y018802*
X021924Y018881*
X021804Y018931*
X021675Y018948*
G37*
G36*
X045766Y018042D02*
Y017700D01*
X046108*
X046101Y017753*
X046061Y017849*
X045998Y017932*
X045915Y017995*
X045819Y018035*
X045766Y018042*
G37*
G36*
X057508Y017950D02*
X057166D01*
Y017608*
X057219Y017615*
X057315Y017655*
X057398Y017718*
X057461Y017801*
X057501Y017897*
X057508Y017950*
G37*
G36*
X045666Y018042D02*
X045613Y018035D01*
X045516Y017995*
X045434Y017932*
X045370Y017849*
X045331Y017753*
X045324Y017700*
X045666*
Y018042*
G37*
G36*
X029553Y018948D02*
X029424Y018931D01*
X029304Y018881*
X029201Y018802*
X029122Y018699*
X029072Y018579*
X029055Y018450*
X029072Y018321*
X029122Y018201*
X029201Y018098*
X029304Y018019*
X029424Y017969*
X029553Y017952*
X029682Y017969*
X029802Y018019*
X029905Y018098*
X029984Y018201*
X030034Y018321*
X030051Y018450*
X030034Y018579*
X029984Y018699*
X029905Y018802*
X029802Y018881*
X029682Y018931*
X029553Y018948*
G37*
G36*
X053215Y018437D02*
X053171Y018433D01*
X053056Y018430*
X052668Y018423*
X052600Y018432*
Y018000*
Y017568*
X052624Y017571*
X052660Y017576*
X052664Y017577*
X052882Y017584*
X053073Y017576*
X053215Y017563*
X053366*
X053885*
X053924Y017571*
X053957Y017593*
X053979Y017626*
X053987Y017665*
Y018335*
X053979Y018374*
X053957Y018407*
X053924Y018429*
X053885Y018437*
X053366*
X053215*
G37*
G36*
X034277Y023672D02*
X034148Y023655D01*
X034028Y023606*
X033925Y023527*
X033846Y023423*
X033796Y023303*
X033779Y023174*
X033796Y023046*
X033846Y022925*
X033924Y022823*
Y022206*
X033897Y022181*
X033728Y022077*
X033456Y021963*
X033450Y021961*
Y021700*
Y021439*
X033456Y021437*
X033728Y021323*
X033897Y021219*
X033924Y021194*
Y020123*
X032982Y019181*
X032898Y019193*
X032497Y019311*
X032430Y019330*
X032348Y019385*
X032331Y019393*
X032194Y019626*
X032129Y019884*
X032136Y019902*
X032155Y020000*
X032136Y020098*
X032080Y020180*
X031998Y020236*
X031900Y020255*
X031802Y020236*
X031720Y020180*
X031665Y020098*
X031645Y020000*
X031665Y019902*
X031720Y019820*
X031802Y019764*
X031819Y019757*
X031956Y019524*
X032021Y019266*
X032015Y019248*
X031995Y019150*
X031987Y019074*
X031958Y018806*
X031909Y018591*
X031897Y018500*
Y016777*
X031716Y016647*
X031535Y016572*
X031319Y016531*
X031315Y016532*
Y016100*
Y015668*
X031379Y015677*
X031447Y015705*
X031493Y015720*
X031848Y015706*
X032059Y015642*
X032744Y014957*
Y013976*
X032676Y013921*
X032602Y013831*
X032547Y013728*
X032513Y013616*
X032502Y013500*
X032513Y013384*
X032547Y013272*
X032602Y013169*
X032676Y013079*
X032766Y013005*
X032869Y012950*
X032981Y012916*
X033097Y012905*
X033213Y012916*
X033325Y012950*
X033427Y013005*
X033518Y013079*
X033592Y013169*
X033647Y013272*
X033680Y013384*
X033692Y013500*
X033680Y013616*
X033647Y013728*
X033592Y013831*
X033518Y013921*
X033450Y013976*
Y015103*
X033438Y015195*
X033403Y015280*
X033391Y015399*
X033420Y015588*
X033505Y015860*
X033523Y015883*
X033559Y015930*
X033593Y016012*
X033604Y016100*
X033593Y016188*
X033559Y016270*
X033505Y016340*
X033435Y016394*
X033353Y016428*
X033265Y016439*
X033178Y016428*
X033096Y016394*
X032821Y016471*
X032603Y016610*
Y018147*
X032800*
X032891Y018159*
X032977Y018194*
X033050Y018250*
X033290Y018491*
X033416Y018480*
X033796Y018321*
X033846Y018201*
X033925Y018098*
X034028Y018019*
X034148Y017969*
X034254Y017955*
X034277Y017952*
X034473Y017939*
X034740Y017922*
X035102Y017715*
X035200Y017695*
X035298Y017715*
X035380Y017770*
X035436Y017852*
X035455Y017950*
X035436Y018048*
X035380Y018130*
X035298Y018185*
X034961Y018371*
X034669Y018750*
X034629Y018802*
X034526Y018881*
X034406Y018931*
X034247Y019311*
X034236Y019437*
X034527Y019728*
X034583Y019801*
X034618Y019886*
X034630Y019977*
Y022823*
X034708Y022925*
X034758Y023046*
X034775Y023174*
X034758Y023303*
X034708Y023423*
X034629Y023527*
X034526Y023606*
X034406Y023655*
X034277Y023672*
G37*
G36*
X057166Y018392D02*
Y018050D01*
X057508*
X057501Y018103*
X057461Y018199*
X057398Y018282*
X057315Y018345*
X057219Y018385*
X057166Y018392*
G37*
G36*
X037409Y018948D02*
X037281Y018931D01*
X037160Y018881*
X037057Y018802*
X036978Y018699*
X036928Y018579*
X036911Y018450*
X036928Y018321*
X036978Y018201*
X037057Y018098*
X037160Y018019*
X037281Y017969*
X037409Y017952*
X037538Y017969*
X037658Y018019*
X037762Y018098*
X037841Y018201*
X037890Y018321*
X037907Y018450*
X037890Y018579*
X037841Y018699*
X037762Y018802*
X037658Y018881*
X037538Y018931*
X037409Y018948*
G37*
G36*
X057066Y018392D02*
X057013Y018385D01*
X056916Y018345*
X056834Y018282*
X056770Y018199*
X056731Y018103*
X056724Y018050*
X057066*
Y018392*
G37*
G36*
X017200Y021650D02*
X017005D01*
X017014Y021602*
X017070Y021520*
X017152Y021465*
X017200Y021455*
Y021650*
G37*
G36*
X029553Y023672D02*
X029424Y023655D01*
X029304Y023606*
X029201Y023527*
X029122Y023423*
X029072Y023303*
X029055Y023174*
X029072Y023046*
X029122Y022925*
X029201Y022822*
X029304Y022743*
X029424Y022693*
X029553Y022676*
X029682Y022693*
X029802Y022743*
X029905Y022822*
X029984Y022925*
X030034Y023046*
X030051Y023174*
X030034Y023303*
X029984Y023423*
X029905Y023527*
X029802Y023606*
X029682Y023655*
X029553Y023672*
G37*
G36*
X037409D02*
X037281Y023655D01*
X037160Y023606*
X037057Y023527*
X036978Y023423*
X036928Y023303*
X036911Y023174*
X036928Y023046*
X036978Y022925*
X037057Y022822*
X037160Y022743*
X037281Y022693*
X037409Y022676*
X037538Y022693*
X037658Y022743*
X037762Y022822*
X037841Y022925*
X037890Y023046*
X037907Y023174*
X037890Y023303*
X037841Y023423*
X037762Y023527*
X037658Y023606*
X037538Y023655*
X037409Y023672*
G37*
G36*
X021675D02*
X021546Y023655D01*
X021426Y023606*
X021323Y023527*
X021244Y023423*
X021194Y023303*
X021177Y023174*
X021194Y023046*
X021244Y022925*
X021323Y022822*
X021426Y022743*
X021546Y022693*
X021675Y022676*
X021804Y022693*
X021924Y022743*
X022027Y022822*
X022106Y022925*
X022156Y023046*
X022173Y023174*
X022156Y023303*
X022106Y023423*
X022027Y023527*
X021924Y023606*
X021804Y023655*
X021675Y023672*
G37*
G36*
X054750Y023255D02*
X054652Y023235D01*
X054570Y023180*
X054554Y023157*
X054332Y022922*
X054270Y022880*
X054215Y022798*
X053970Y022580*
X053915Y022498*
X053914*
X053895Y022400*
X053914Y022302*
X053970Y022220*
Y022180*
X053914Y022098*
X053895Y022000*
X053914Y021902*
X053970Y021820*
X054052Y021765*
X054150Y021745*
X054195Y021700*
X054215Y021602*
X054270Y021520*
X054352Y021465*
X054450Y021445*
X054548Y021465*
X054630Y021520*
X054686Y021602*
X054705Y021700*
X054686Y021798*
X054630Y021880*
X054514Y022012*
X054467Y022117*
X054431Y022200*
X054514Y022388*
X054630Y022520*
X054930Y022820*
X054985Y022902*
X055005Y023000*
X054985Y023098*
X054930Y023180*
X054848Y023235*
X054750Y023255*
G37*
G36*
X013771Y023672D02*
X013642Y023655D01*
X013522Y023606*
X013419Y023527*
X013340Y023423*
X013290Y023303*
X013273Y023174*
X013290Y023046*
X013340Y022925*
X013419Y022822*
X013522Y022743*
X013642Y022693*
X013771Y022676*
X013900Y022693*
X014020Y022743*
X014123Y022822*
X014203Y022925*
X014252Y023046*
X014269Y023174*
X014252Y023303*
X014203Y023423*
X014123Y023527*
X014020Y023606*
X013900Y023655*
X013771Y023672*
G37*
G36*
X060050Y023950D02*
X059703D01*
Y023705*
X059711Y023666*
X059733Y023633*
X059766Y023611*
X059805Y023603*
X060050*
Y023950*
G37*
G36*
X049350Y026805D02*
X049252Y026786D01*
X049170Y026730*
X049114Y026648*
X049095Y026550*
X049114Y026452*
X049170Y026370*
X049252Y026314*
X049356Y026261*
X049364Y026253*
X049398Y026152*
X049453Y026070*
X049536Y026014*
X049638Y025962*
X049642Y025959*
X049648Y025952*
X049681Y025852*
X049651Y025501*
X049396Y025293*
X049348Y025303*
X049330Y025330*
X049248Y025385*
X049150Y025405*
X049052Y025385*
X048970Y025330*
X048915Y025248*
X048914*
X048895Y025150*
X048415Y025003*
X046600*
X046509Y024991*
X046423Y024956*
X046350Y024900*
X045916Y024465*
X045860Y024392*
X045824Y024307*
X045812Y024215*
Y023385*
X045824Y023293*
X045860Y023208*
X045916Y023135*
X046221Y022830*
X046228Y022436*
X046217Y022371*
X046174Y022263*
X046050Y022155*
X045650*
X045552Y022136*
X045470Y022080*
X045415Y021998*
X045395Y021900*
X045415Y021802*
X045470Y021720*
X045552Y021665*
X045650Y021645*
X046049*
X046450*
X046548Y021665*
X046630Y021720*
X046826Y021936*
X047315Y021902*
X047370Y021820*
X047452Y021765*
X047545Y021700*
X047565Y021602*
X047620Y021520*
X047702Y021465*
X047800Y021445*
X048011Y021094*
X048047Y021009*
Y019700*
X048059Y019609*
X048094Y019523*
X048150Y019450*
X049797Y017804*
Y016015*
X049790Y016005*
X049782Y015966*
Y015697*
Y015434*
X049784Y015001*
X049783Y014963*
X050150*
Y014913*
X050200*
Y014550*
X050245Y014556*
X050334Y014593*
X050411Y014652*
X050660Y014792*
X050761Y014825*
X050785Y014814*
X051070Y014620*
X051152Y014565*
Y014564*
X051250Y014545*
X051525Y014555*
X051800Y014545*
X052075Y014555*
X052350Y014545*
X052625Y014555*
X052900Y014545*
X053175Y014555*
X053450Y014545*
X053548Y014564*
X053630Y014620*
X053685Y014702*
X053705Y014800*
X053685Y014992*
Y015208*
X053705Y015400*
X053685Y015592*
Y015808*
X053705Y016000*
X053685Y016098*
X053630Y016180*
X053548Y016236*
X053450Y016255*
X053315Y016250*
X053175Y016245*
X052900Y016255*
X052625Y016245*
X052350Y016255*
X052075Y016245*
X051800Y016255*
X051525Y016245*
X051250Y016255*
X051152Y016236*
X051070Y016180*
X050599Y016376*
X050503Y016467*
Y017950*
X050491Y018041*
X050456Y018127*
X050400Y018200*
X048753Y019846*
Y021035*
Y021902*
X048765Y021945*
X048858Y022000*
X049254Y022079*
X049266Y022070*
X049301Y022046*
X049348Y022015*
X049446Y021995*
X049543Y022015*
X049569Y022032*
X049749Y022057*
X050088Y022023*
X050139Y022007*
X050202Y021964*
X050250Y021955*
Y022200*
X050300*
Y022250*
X050545*
X050535Y022298*
X050480Y022380*
X050398Y022436*
X050292Y022550*
X050273Y022648*
X050218Y022730*
X050135Y022785*
X050037Y022805*
X049997Y022900*
X049977Y022998*
X049922Y023080*
X049839Y023135*
X049780Y023163*
X049715Y023217*
X049681Y023298*
X049626Y023380*
X049625Y023381*
X049543Y023435*
X049515Y023441*
X049389Y023582*
X049385Y023598*
X049330Y023680*
X049248Y023735*
X049150Y023755*
X049052Y023735*
X048970Y023680*
X048914Y023598*
X048895Y023500*
X048914Y023402*
X048970Y023320*
X049167Y023120*
X049280Y022865*
X049142Y022579*
X049056Y022555*
X048836Y022525*
X048638Y022511*
X048034Y023115*
X047831Y023395*
X047732Y023696*
X047870Y024148*
X048225Y024297*
X050054*
X050400Y023950*
X050473Y023894*
X050559Y023859*
X050650Y023847*
X052400*
X052491Y023859*
X052577Y023894*
X052650Y023950*
X052706Y024023*
X052741Y024109*
X052753Y024200*
X052741Y024291*
X052706Y024377*
X052650Y024450*
X052577Y024506*
X052491Y024541*
X052400Y024553*
X050796*
X050522Y024828*
X050393Y025275*
X050455Y025600*
X050436Y025698*
X050392Y025763*
X050380Y025780*
X050097Y026130*
X049814Y026430*
X049731Y026486*
X049627Y026539*
X049619Y026548*
X049585Y026648*
X049530Y026730*
X049448Y026786*
X049350Y026805*
G37*
G36*
X051800Y025750D02*
X051605D01*
X051614Y025702*
X051670Y025620*
X051752Y025564*
X051800Y025555*
Y025750*
G37*
G36*
X053850Y025392D02*
Y025050D01*
X054192*
X054185Y025103*
X054145Y025199*
X054091Y025270*
X054082Y025282*
X053999Y025345*
X053986Y025351*
X053903Y025385*
X053850Y025392*
G37*
G36*
X054192Y024950D02*
X053800D01*
X053408*
X053415Y024897*
X053420Y024885*
X053438Y024693*
X053436Y024605*
X053412Y024345*
X053403Y024295*
Y024199*
Y023705*
X053411Y023666*
X053433Y023633*
X053466Y023611*
X053505Y023603*
X054095*
X054134Y023611*
X054167Y023633*
X054189Y023666*
X054197Y023705*
Y024199*
Y024295*
X054188Y024345*
X054164Y024605*
X054162Y024693*
X054180Y024885*
X054185Y024897*
X054192Y024950*
G37*
G36*
X053750Y025392D02*
X053697Y025385D01*
X053601Y025345*
X053518Y025282*
X053455Y025199*
X053449Y025186*
X053415Y025103*
X053408Y025050*
X053750*
Y025392*
G37*
G36*
X033350Y021650D02*
X033155D01*
X033165Y021602*
X033220Y021520*
X033302Y021465*
X033350Y021455*
Y021650*
G37*
G36*
X017200Y021945D02*
X017152Y021936D01*
X017070Y021880*
X017014Y021798*
X017005Y021750*
X017200*
Y021945*
G37*
G36*
X025350Y021650D02*
X025155D01*
X025164Y021602*
X025220Y021520*
X025302Y021465*
X025350Y021455*
Y021650*
G37*
G36*
X041000D02*
X040805D01*
X040814Y021602*
X040870Y021520*
X040952Y021465*
X041000Y021455*
Y021650*
G37*
G36*
X018606Y026624D02*
X018477Y026607D01*
X018357Y026557*
X018254Y026478*
X018175Y026375*
X018125Y026254*
X018108Y026126*
X018125Y025997*
X018175Y025877*
X018254Y025773*
X018357Y025694*
X018477Y025645*
X018606Y025628*
X018735Y025645*
X018855Y025694*
X018958Y025773*
X019038Y025877*
X019087Y025997*
X019104Y026126*
X019087Y026254*
X019038Y026375*
X018958Y026478*
X018855Y026557*
X018735Y026607*
X018606Y026624*
G37*
G36*
X017300Y021945D02*
Y021750D01*
X017495*
X017486Y021798*
X017430Y021880*
X017348Y021936*
X017300Y021945*
G37*
G36*
X026400Y023672D02*
X026271Y023655D01*
X026151Y023606*
X026047Y023527*
X025968Y023423*
X025919Y023303*
X025902Y023174*
X025919Y023046*
X025968Y022925*
X026047Y022823*
Y022082*
X025766Y021961*
X025722Y021942*
X025547Y021903*
X025498Y021936*
X025450Y021945*
Y021700*
Y021455*
X025498Y021465*
X025547Y021497*
X025722Y021458*
X026047Y021318*
Y020246*
X025082Y019281*
X024998Y019293*
X024561Y019421*
X024530Y019430*
X024448Y019485*
X024420Y019491*
X024251Y019735*
X024149Y019972*
X024155Y020000*
X024135Y020098*
X024080Y020180*
X023998Y020236*
X023900Y020255*
X023802Y020236*
X023720Y020180*
X023665Y020098*
X023645Y020000*
X023665Y019902*
X023720Y019820*
X023802Y019764*
X023830Y019759*
X023965Y019564*
X024036Y019350*
X024099Y019042*
X024097Y019034*
X024009Y018591*
X023997Y018500*
Y016829*
X023855Y016694*
X023666Y016596*
X023461Y016546*
Y016100*
Y015668*
X023525Y015677*
X023631Y015720*
X023665Y015747*
X023743Y015792*
X024129Y015829*
X024297Y015804*
X024878Y015222*
Y013976*
X024811Y013921*
X024737Y013831*
X024682Y013728*
X024648Y013616*
X024637Y013500*
X024648Y013384*
X024682Y013272*
X024737Y013169*
X024811Y013079*
X024901Y013005*
X025004Y012950*
X025115Y012916*
X025231Y012905*
X025348Y012916*
X025459Y012950*
X025562Y013005*
X025652Y013079*
X025726Y013169*
X025781Y013272*
X025815Y013384*
X025826Y013500*
X025815Y013616*
X025781Y013728*
X025726Y013831*
X025652Y013921*
X025585Y013976*
Y015320*
Y015368*
X025570Y015604*
X025711Y015860*
X025765Y015930*
X025799Y016012*
X025811Y016100*
X025799Y016188*
X025765Y016270*
X025711Y016340*
X025641Y016394*
X025559Y016428*
X025471Y016439*
X025384Y016428*
X025302Y016394*
X025232Y016340*
X024814Y016367*
X024703Y016396*
Y018147*
X024800*
X024891Y018159*
X024977Y018194*
X025050Y018250*
X025420Y018621*
X025767Y018498*
X025908Y018402*
X025919Y018321*
X025968Y018201*
X026047Y018098*
X026151Y018019*
X026271Y017969*
X026400Y017952*
X026472Y017962*
X026491Y017961*
X026788Y017893*
X026905Y017831*
X026976Y017793*
X027020Y017770*
X027102Y017715*
X027200Y017695*
X027298Y017715*
X027380Y017770*
X027436Y017852*
X027455Y017950*
X027436Y018048*
X027380Y018130*
X027298Y018185*
X027091Y018332*
X026893Y018565*
X026868Y018610*
X026831Y018699*
X026752Y018802*
X026649Y018881*
X026528Y018931*
X026448Y018942*
X026352Y019083*
X026229Y019430*
X026649Y019850*
X026705Y019923*
X026741Y020008*
X026753Y020100*
Y022823*
X026831Y022925*
X026881Y023046*
X026898Y023174*
X026881Y023303*
X026831Y023423*
X026752Y023527*
X026649Y023606*
X026528Y023655*
X026400Y023672*
G37*
G36*
X050545Y022150D02*
X050350D01*
Y021955*
X050398Y021964*
X050480Y022020*
X050535Y022102*
X050545Y022150*
G37*
G36*
X041000Y021945D02*
X040952Y021936D01*
X040870Y021880*
X040814Y021798*
X040805Y021750*
X041000*
Y021945*
G37*
G36*
X025350D02*
X025302Y021936D01*
X025220Y021880*
X025164Y021798*
X025155Y021750*
X025350*
Y021945*
G37*
G36*
X033350D02*
X033302Y021936D01*
X033220Y021880*
X033165Y021798*
X033155Y021750*
X033350*
Y021945*
G37*
G36*
X057066Y017950D02*
X056724D01*
X056731Y017897*
X056770Y017801*
X056834Y017718*
X056916Y017655*
X057013Y017615*
X057066Y017608*
Y017950*
G37*
G36*
X039574Y013450D02*
X039034D01*
Y012910*
X039100Y012916*
X039212Y012950*
X039315Y013005*
X039405Y013079*
X039479Y013169*
X039534Y013272*
X039568Y013384*
X039574Y013450*
G37*
G36*
X059068Y014145D02*
X058952Y014134D01*
X058841Y014100*
X058738Y014045*
X058648Y013971*
X058574Y013881*
X058519Y013778*
X058485Y013666*
X058474Y013550*
X058485Y013434*
X058519Y013322*
X058574Y013219*
X058648Y013129*
X058738Y013055*
X058841Y013000*
X058952Y012966*
X059068Y012955*
X059185Y012966*
X059296Y013000*
X059399Y013055*
X059489Y013129*
X059563Y013219*
X059618Y013322*
X059652Y013434*
X059664Y013550*
X059652Y013666*
X059618Y013778*
X059563Y013881*
X059489Y013971*
X059399Y014045*
X059296Y014100*
X059185Y014134*
X059068Y014145*
G37*
G36*
X031724Y013450D02*
X031184D01*
Y012910*
X031250Y012916*
X031362Y012950*
X031464Y013005*
X031555Y013079*
X031629Y013169*
X031684Y013272*
X031717Y013384*
X031724Y013450*
G37*
G36*
X015936D02*
X015396D01*
Y012910*
X015462Y012916*
X015574Y012950*
X015677Y013005*
X015767Y013079*
X015841Y013169*
X015896Y013272*
X015930Y013384*
X015936Y013450*
G37*
G36*
X023840D02*
X023300D01*
Y012910*
X023366Y012916*
X023478Y012950*
X023581Y013005*
X023671Y013079*
X023745Y013169*
X023800Y013272*
X023834Y013384*
X023840Y013450*
G37*
G36*
X057050Y013500D02*
X056510D01*
X056516Y013434*
X056550Y013322*
X056605Y013219*
X056679Y013129*
X056769Y013055*
X056872Y013000*
X056984Y012966*
X057050Y012960*
Y013500*
G37*
G36*
X046306Y013600D02*
X045766D01*
Y013060*
X045832Y013066*
X045943Y013100*
X046046Y013155*
X046136Y013229*
X046210Y013319*
X046265Y013422*
X046299Y013534*
X046306Y013600*
G37*
G36*
X015296Y014090D02*
X015230Y014084D01*
X015118Y014050*
X015016Y013995*
X014925Y013921*
X014851Y013831*
X014796Y013728*
X014763Y013616*
X014756Y013550*
X015296*
Y014090*
G37*
G36*
X045666Y013600D02*
X045126D01*
X045132Y013534*
X045166Y013422*
X045221Y013319*
X045295Y013229*
X045385Y013155*
X045488Y013100*
X045600Y013066*
X045666Y013060*
Y013600*
G37*
G36*
X057690Y013500D02*
X057150D01*
Y012960*
X057216Y012966*
X057328Y013000*
X057431Y013055*
X057521Y013129*
X057595Y013219*
X057650Y013322*
X057684Y013434*
X057690Y013500*
G37*
G36*
X047684Y014245D02*
X047568Y014234D01*
X047457Y014200*
X047354Y014145*
X047264Y014071*
X047190Y013981*
X047135Y013878*
X047101Y013766*
X047089Y013650*
X047101Y013534*
X047135Y013422*
X047190Y013319*
X047264Y013229*
X047354Y013155*
X047457Y013100*
X047568Y013066*
X047684Y013055*
X047800Y013066*
X047912Y013100*
X048015Y013155*
X048105Y013229*
X048179Y013319*
X048234Y013422*
X048268Y013534*
X048279Y013650*
X048268Y013766*
X048234Y013878*
X048179Y013981*
X048105Y014071*
X048015Y014145*
X047912Y014200*
X047800Y014234*
X047684Y014245*
G37*
G36*
X038934Y013450D02*
X038394D01*
X038401Y013384*
X038435Y013272*
X038490Y013169*
X038564Y013079*
X038654Y013005*
X038757Y012950*
X038868Y012916*
X038934Y012910*
Y013450*
G37*
G36*
X027200Y014095D02*
X027084Y014084D01*
X026972Y014050*
X026869Y013995*
X026779Y013921*
X026705Y013831*
X026650Y013728*
X026616Y013616*
X026605Y013500*
X026616Y013384*
X026650Y013272*
X026705Y013169*
X026779Y013079*
X026869Y013005*
X026972Y012950*
X027084Y012916*
X027200Y012905*
X027316Y012916*
X027428Y012950*
X027531Y013005*
X027621Y013079*
X027695Y013169*
X027750Y013272*
X027784Y013384*
X027795Y013500*
X027784Y013616*
X027750Y013728*
X027695Y013831*
X027621Y013921*
X027531Y013995*
X027428Y014050*
X027316Y014084*
X027200Y014095*
G37*
G36*
X029165D02*
X029049Y014084D01*
X028938Y014050*
X028835Y013995*
X028745Y013921*
X028671Y013831*
X028616Y013728*
X028582Y013616*
X028570Y013500*
X028582Y013384*
X028616Y013272*
X028671Y013169*
X028745Y013079*
X028835Y013005*
X028938Y012950*
X029049Y012916*
X029165Y012905*
X029281Y012916*
X029393Y012950*
X029496Y013005*
X029586Y013079*
X029660Y013169*
X029715Y013272*
X029749Y013384*
X029760Y013500*
X029749Y013616*
X029715Y013728*
X029660Y013831*
X029586Y013921*
X029496Y013995*
X029393Y014050*
X029281Y014084*
X029165Y014095*
G37*
G36*
X021281D02*
X021165Y014084D01*
X021054Y014050*
X020951Y013995*
X020861Y013921*
X020787Y013831*
X020732Y013728*
X020698Y013616*
X020687Y013500*
X020698Y013384*
X020732Y013272*
X020787Y013169*
X020861Y013079*
X020951Y013005*
X021054Y012950*
X021165Y012916*
X021281Y012905*
X021398Y012916*
X021509Y012950*
X021612Y013005*
X021702Y013079*
X021776Y013169*
X021831Y013272*
X021865Y013384*
X021876Y013500*
X021865Y013616*
X021831Y013728*
X021776Y013831*
X021702Y013921*
X021612Y013995*
X021509Y014050*
X021398Y014084*
X021281Y014095*
G37*
G36*
X013378D02*
X013262Y014084D01*
X013150Y014050*
X013047Y013995*
X012957Y013921*
X012883Y013831*
X012828Y013728*
X012794Y013616*
X012783Y013500*
X012794Y013384*
X012828Y013272*
X012883Y013169*
X012957Y013079*
X013047Y013005*
X013150Y012950*
X013262Y012916*
X013378Y012905*
X013494Y012916*
X013605Y012950*
X013708Y013005*
X013798Y013079*
X013872Y013169*
X013927Y013272*
X013961Y013384*
X013973Y013500*
X013961Y013616*
X013927Y013728*
X013872Y013831*
X013798Y013921*
X013708Y013995*
X013605Y014050*
X013494Y014084*
X013378Y014095*
G37*
G36*
X019300D02*
X019184Y014084D01*
X019072Y014050*
X018969Y013995*
X018879Y013921*
X018805Y013831*
X018750Y013728*
X018716Y013616*
X018705Y013500*
X018716Y013384*
X018750Y013272*
X018805Y013169*
X018879Y013079*
X018969Y013005*
X019072Y012950*
X019184Y012916*
X019300Y012905*
X019416Y012916*
X019528Y012950*
X019631Y013005*
X019721Y013079*
X019795Y013169*
X019850Y013272*
X019884Y013384*
X019895Y013500*
X019884Y013616*
X019850Y013728*
X019795Y013831*
X019721Y013921*
X019631Y013995*
X019528Y014050*
X019416Y014084*
X019300Y014095*
G37*
G36*
X035065D02*
X034949Y014084D01*
X034838Y014050*
X034735Y013995*
X034645Y013921*
X034571Y013831*
X034516Y013728*
X034482Y013616*
X034470Y013500*
X034482Y013384*
X034516Y013272*
X034571Y013169*
X034645Y013079*
X034735Y013005*
X034838Y012950*
X034949Y012916*
X035065Y012905*
X035181Y012916*
X035293Y012950*
X035396Y013005*
X035486Y013079*
X035560Y013169*
X035615Y013272*
X035649Y013384*
X035660Y013500*
X035649Y013616*
X035615Y013728*
X035560Y013831*
X035486Y013921*
X035396Y013995*
X035293Y014050*
X035181Y014084*
X035065Y014095*
G37*
G36*
X023200Y013450D02*
X022660D01*
X022666Y013384*
X022700Y013272*
X022755Y013169*
X022829Y013079*
X022919Y013005*
X023022Y012950*
X023134Y012916*
X023200Y012910*
Y013450*
G37*
G36*
X031084D02*
X030544D01*
X030550Y013384*
X030584Y013272*
X030639Y013169*
X030713Y013079*
X030803Y013005*
X030906Y012950*
X031018Y012916*
X031084Y012910*
Y013450*
G37*
G36*
X015296D02*
X014756D01*
X014763Y013384*
X014796Y013272*
X014851Y013169*
X014925Y013079*
X015016Y013005*
X015118Y012950*
X015230Y012916*
X015296Y012910*
Y013450*
G37*
G36*
X037016Y014095D02*
X036900Y014084D01*
X036788Y014050*
X036685Y013995*
X036595Y013921*
X036521Y013831*
X036466Y013728*
X036432Y013616*
X036421Y013500*
X036432Y013384*
X036466Y013272*
X036521Y013169*
X036595Y013079*
X036685Y013005*
X036788Y012950*
X036900Y012916*
X037016Y012905*
X037132Y012916*
X037243Y012950*
X037346Y013005*
X037436Y013079*
X037510Y013169*
X037565Y013272*
X037599Y013384*
X037611Y013500*
X037599Y013616*
X037565Y013728*
X037510Y013831*
X037436Y013921*
X037346Y013995*
X037243Y014050*
X037132Y014084*
X037016Y014095*
G37*
G36*
X042884D02*
X042768Y014084D01*
X042657Y014050*
X042554Y013995*
X042464Y013921*
X042390Y013831*
X042335Y013728*
X042301Y013616*
X042289Y013500*
X042301Y013384*
X042335Y013272*
X042390Y013169*
X042464Y013079*
X042554Y013005*
X042657Y012950*
X042768Y012916*
X042884Y012905*
X043000Y012916*
X043112Y012950*
X043215Y013005*
X043305Y013079*
X043379Y013169*
X043434Y013272*
X043468Y013384*
X043479Y013500*
X043468Y013616*
X043434Y013728*
X043379Y013831*
X043305Y013921*
X043215Y013995*
X043112Y014050*
X043000Y014084*
X042884Y014095*
G37*
G36*
X043100Y016439D02*
X043012Y016428D01*
X042930Y016394*
X042860Y016340*
X042806Y016270*
X042772Y016188*
X042761Y016100*
X042772Y016012*
X042806Y015930*
X042860Y015860*
X042930Y015806*
X043012Y015772*
X043100Y015761*
X043188Y015772*
X043270Y015806*
X043340Y015860*
X043394Y015930*
X043428Y016012*
X043439Y016100*
X043428Y016188*
X043394Y016270*
X043340Y016340*
X043270Y016394*
X043188Y016428*
X043100Y016439*
G37*
G36*
X022411Y016538D02*
X022293Y016523D01*
X021950Y016529*
X021779Y016534*
X021746Y016537*
X021596*
X021077*
X021038Y016529*
X021005Y016507*
X020983Y016474*
X020975Y016435*
Y015940*
X020960Y015813*
X020865Y015398*
X020845Y015300*
X020865Y015202*
X020920Y015120*
X021002Y015065*
X021100Y015045*
X021198Y015065*
X021280Y015120*
X021335Y015202*
X021355Y015300*
X021656Y015605*
X021746Y015663*
X021790Y015667*
X021906Y015670*
X022293Y015677*
X022411Y015662*
X022525Y015677*
X022614Y015713*
X022850Y015721*
X023162Y015710*
X023298Y015677*
X023361Y015668*
Y016100*
Y016532*
X023298Y016523*
X023262Y016509*
X023112Y016477*
X022911Y016471*
X022724Y016477*
X022541Y016517*
X022525Y016523*
X022411Y016538*
G37*
G36*
X035265Y016439D02*
X035178Y016428D01*
X035096Y016394*
X035026Y016340*
X034972Y016270*
X034938Y016188*
X034926Y016100*
X034938Y016012*
X034972Y015930*
X035026Y015860*
X035096Y015806*
X035178Y015772*
X035265Y015761*
X035353Y015772*
X035435Y015806*
X035505Y015860*
X035559Y015930*
X035593Y016012*
X035604Y016100*
X035593Y016188*
X035559Y016270*
X035505Y016340*
X035435Y016394*
X035353Y016428*
X035265Y016439*
G37*
G36*
X019516D02*
X019428Y016428D01*
X019346Y016394*
X019276Y016340*
X019222Y016270*
X019188Y016188*
X019177Y016100*
X019188Y016012*
X019222Y015930*
X019276Y015860*
X019346Y015806*
X019428Y015772*
X019516Y015761*
X019604Y015772*
X019685Y015806*
X019756Y015860*
X019809Y015930*
X019843Y016012*
X019855Y016100*
X019843Y016188*
X019809Y016270*
X019756Y016340*
X019685Y016394*
X019604Y016428*
X019516Y016439*
G37*
G36*
X027471D02*
X027384Y016428D01*
X027302Y016394*
X027232Y016340*
X027178Y016270*
X027144Y016188*
X027132Y016100*
X027144Y016012*
X027178Y015930*
X027232Y015860*
X027302Y015806*
X027384Y015772*
X027471Y015761*
X027559Y015772*
X027641Y015806*
X027711Y015860*
X027765Y015930*
X027799Y016012*
X027811Y016100*
X027799Y016188*
X027765Y016270*
X027711Y016340*
X027641Y016394*
X027559Y016428*
X027471Y016439*
G37*
G36*
X030265Y016538D02*
X030147Y016523D01*
X029804Y016529*
X029633Y016534*
X029600Y016537*
X029450*
X028931*
X028892Y016529*
X028859Y016507*
X028837Y016474*
X028829Y016435*
Y015939*
X028811Y015804*
X028714Y015398*
X028695Y015300*
X028714Y015202*
X028770Y015120*
X028852Y015065*
X028950Y015045*
X029048Y015065*
X029130Y015120*
X029185Y015202*
X029186*
X029205Y015300*
X029500Y015600*
X029600Y015663*
X029644Y015667*
X029760Y015670*
X030147Y015677*
X030265Y015662*
X030379Y015677*
X030454Y015708*
X030486Y015721*
X030620Y015744*
X030765Y015770*
X031044Y015721*
X031077Y015708*
X031152Y015677*
X031215Y015668*
Y016100*
Y016532*
X031152Y016523*
X031116Y016509*
X030966Y016477*
X030765Y016471*
X030578Y016477*
X030395Y016517*
X030379Y016523*
X030265Y016538*
G37*
G36*
X051550Y018438D02*
X051437Y018423D01*
X051331Y018380*
X051240Y018310*
X051170Y018219*
X051127Y018113*
X051112Y018000*
X051127Y017887*
X051170Y017781*
X051240Y017690*
X051331Y017620*
X051437Y017577*
X051550Y017562*
X051663Y017577*
X051800Y017610*
X052111Y017621*
X052348Y017613*
X052437Y017577*
X052500Y017568*
Y018000*
Y018432*
X052437Y018423*
X052327Y018379*
X051920Y018367*
X051881Y018372*
X051679Y018417*
X051663Y018423*
X051550Y018438*
G37*
G36*
X059380Y018397D02*
X058789D01*
X058750Y018389*
X058717Y018367*
X058695Y018334*
X058687Y018295*
Y017705*
X058695Y017666*
X058717Y017633*
X058750Y017611*
X058789Y017603*
X059380*
X059419Y017611*
X059452Y017633*
X059474Y017666*
X059481Y017705*
Y018295*
X059474Y018334*
X059452Y018367*
X059419Y018389*
X059380Y018397*
G37*
G36*
X046108Y017600D02*
X045766D01*
Y017258*
X045819Y017265*
X045915Y017305*
X045998Y017368*
X046061Y017451*
X046101Y017547*
X046108Y017600*
G37*
G36*
X038100Y016538D02*
X038026Y016529D01*
X037990Y016524*
X037986Y016523*
X037768Y016516*
X037577Y016524*
X037435Y016537*
X037284*
X036765*
X036726Y016529*
X036693Y016507*
X036671Y016474*
X036663Y016435*
Y015998*
Y015767*
X036653Y015503*
X036645Y015300*
X036665Y015202*
X036720Y015120*
X036802Y015065*
X036900Y015045*
X036998Y015065*
X037080Y015120*
X037135Y015202*
X037136*
X037147Y015262*
X037273Y015437*
X037465Y015661*
X037472Y015667*
X037577Y015676*
X037768Y015684*
X037986Y015677*
X037990Y015676*
X038026Y015671*
X038100Y015662*
X038213Y015677*
X038289Y015708*
X038321Y015721*
X038600Y015770*
X038879Y015721*
X038911Y015708*
X038987Y015677*
X039050Y015668*
Y016100*
Y016532*
X038987Y016523*
X038850Y016490*
X038539Y016479*
X038302Y016487*
X038213Y016523*
X038100Y016538*
G37*
G36*
X045666Y017600D02*
X045324D01*
X045331Y017547*
X045370Y017451*
X045434Y017368*
X045516Y017305*
X045613Y017265*
X045666Y017258*
Y017600*
G37*
G36*
X050100Y014863D02*
X049788D01*
X049794Y014817*
X049831Y014728*
X049889Y014652*
X049966Y014593*
X050055Y014556*
X050100Y014550*
Y014863*
G37*
G36*
X015396Y014090D02*
Y013550D01*
X015936*
X015930Y013616*
X015896Y013728*
X015841Y013831*
X015767Y013921*
X015677Y013995*
X015574Y014050*
X015462Y014084*
X015396Y014090*
G37*
G36*
X023300D02*
Y013550D01*
X023840*
X023834Y013616*
X023800Y013728*
X023745Y013831*
X023671Y013921*
X023581Y013995*
X023478Y014050*
X023366Y014084*
X023300Y014090*
G37*
G36*
X038934D02*
X038868Y014084D01*
X038757Y014050*
X038654Y013995*
X038564Y013921*
X038490Y013831*
X038435Y013728*
X038401Y013616*
X038394Y013550*
X038934*
Y014090*
G37*
G36*
X023200D02*
X023134Y014084D01*
X023022Y014050*
X022919Y013995*
X022829Y013921*
X022755Y013831*
X022700Y013728*
X022666Y013616*
X022660Y013550*
X023200*
Y014090*
G37*
G36*
X031084D02*
X031018Y014084D01*
X030906Y014050*
X030803Y013995*
X030713Y013921*
X030639Y013831*
X030584Y013728*
X030550Y013616*
X030544Y013550*
X031084*
Y014090*
G37*
G36*
X031184D02*
Y013550D01*
X031724*
X031717Y013616*
X031684Y013728*
X031629Y013831*
X031555Y013921*
X031464Y013995*
X031362Y014050*
X031250Y014084*
X031184Y014090*
G37*
G36*
X045666Y014240D02*
X045600Y014234D01*
X045488Y014200*
X045385Y014145*
X045295Y014071*
X045221Y013981*
X045166Y013878*
X045132Y013766*
X045126Y013700*
X045666*
Y014240*
G37*
G36*
X045766D02*
Y013700D01*
X046306*
X046299Y013766*
X046265Y013878*
X046210Y013981*
X046136Y014071*
X046046Y014145*
X045943Y014200*
X045832Y014234*
X045766Y014240*
G37*
G36*
X057150Y014140D02*
Y013600D01*
X057690*
X057684Y013666*
X057650Y013778*
X057595Y013881*
X057521Y013971*
X057431Y014045*
X057328Y014100*
X057216Y014134*
X057150Y014140*
G37*
G36*
X039034Y014090D02*
Y013550D01*
X039574*
X039568Y013616*
X039534Y013728*
X039479Y013831*
X039405Y013921*
X039315Y013995*
X039212Y014050*
X039100Y014084*
X039034Y014090*
G37*
G36*
X057050Y014140D02*
X056984Y014134D01*
X056872Y014100*
X056769Y014045*
X056679Y013971*
X056605Y013881*
X056550Y013778*
X056516Y013666*
X056510Y013600*
X057050*
Y014140*
G37*
G36*
X046955Y026447D02*
X046905Y026438D01*
X046645Y026414*
X046557Y026412*
X046365Y026430*
X046353Y026435*
X046300Y026442*
Y026050*
Y025658*
X046353Y025665*
X046365Y025670*
X046557Y025688*
X046645Y025686*
X046905Y025662*
X046955Y025653*
X047051*
X047545*
X047584Y025661*
X047617Y025683*
X047639Y025716*
X047647Y025755*
Y026345*
X047639Y026384*
X047617Y026417*
X047584Y026439*
X047545Y026447*
X047051*
X046955*
G37*
G36*
X050050Y034995D02*
X050002Y034985D01*
X049920Y034930*
X049865Y034848*
X049855Y034800*
X050050*
Y034995*
G37*
G36*
X013132Y036395D02*
X013015Y036384D01*
X012904Y036350*
X012801Y036295*
X012711Y036221*
X012637Y036131*
X012582Y036028*
X012548Y035916*
X012536Y035800*
X012548Y035684*
X012582Y035572*
X012637Y035469*
X012711Y035379*
X012801Y035305*
X012904Y035250*
X013015Y035216*
X013132Y035205*
X013248Y035216*
X013359Y035250*
X013462Y035305*
X013552Y035379*
X013626Y035469*
X013681Y035572*
X013715Y035684*
X013726Y035800*
X013715Y035916*
X013681Y036028*
X013626Y036131*
X013552Y036221*
X013462Y036295*
X013359Y036350*
X013248Y036384*
X013132Y036395*
G37*
G36*
X019000D02*
X018884Y036384D01*
X018772Y036350*
X018669Y036295*
X018579Y036221*
X018505Y036131*
X018450Y036028*
X018416Y035916*
X018405Y035800*
X018416Y035684*
X018450Y035572*
X018505Y035469*
X018579Y035379*
X018669Y035305*
X018772Y035250*
X018884Y035216*
X019000Y035205*
X019116Y035216*
X019228Y035250*
X019331Y035305*
X019421Y035379*
X019495Y035469*
X019550Y035572*
X019584Y035684*
X019595Y035800*
X019584Y035916*
X019550Y036028*
X019495Y036131*
X019421Y036221*
X019331Y036295*
X019228Y036350*
X019116Y036384*
X019000Y036395*
G37*
G36*
X034700D02*
X034584Y036384D01*
X034472Y036350*
X034369Y036295*
X034279Y036221*
X034205Y036131*
X034150Y036028*
X034116Y035916*
X034105Y035800*
X034116Y035684*
X034150Y035572*
X034205Y035469*
X034279Y035379*
X034369Y035305*
X034472Y035250*
X034584Y035216*
X034700Y035205*
X034816Y035216*
X034928Y035250*
X035031Y035305*
X035121Y035379*
X035195Y035469*
X035250Y035572*
X035284Y035684*
X035295Y035800*
X035284Y035916*
X035250Y036028*
X035195Y036131*
X035121Y036221*
X035031Y036295*
X034928Y036350*
X034816Y036384*
X034700Y036395*
G37*
G36*
X036716D02*
X036600Y036384D01*
X036488Y036350*
X036385Y036295*
X036295Y036221*
X036221Y036131*
X036166Y036028*
X036132Y035916*
X036121Y035800*
X036132Y035684*
X036166Y035572*
X036221Y035469*
X036295Y035379*
X036385Y035305*
X036488Y035250*
X036600Y035216*
X036716Y035205*
X036832Y035216*
X036943Y035250*
X037046Y035305*
X037136Y035379*
X037210Y035469*
X037265Y035572*
X037299Y035684*
X037311Y035800*
X037299Y035916*
X037265Y036028*
X037210Y036131*
X037136Y036221*
X037046Y036295*
X036943Y036350*
X036832Y036384*
X036716Y036395*
G37*
G36*
X028832D02*
X028715Y036384D01*
X028604Y036350*
X028501Y036295*
X028411Y036221*
X028337Y036131*
X028282Y036028*
X028248Y035916*
X028237Y035800*
X028248Y035684*
X028282Y035572*
X028337Y035469*
X028411Y035379*
X028501Y035305*
X028604Y035250*
X028715Y035216*
X028832Y035205*
X028948Y035216*
X029059Y035250*
X029162Y035305*
X029252Y035379*
X029326Y035469*
X029381Y035572*
X029415Y035684*
X029426Y035800*
X029415Y035916*
X029381Y036028*
X029326Y036131*
X029252Y036221*
X029162Y036295*
X029059Y036350*
X028948Y036384*
X028832Y036395*
G37*
G36*
X021016D02*
X020900Y036384D01*
X020788Y036350*
X020685Y036295*
X020595Y036221*
X020521Y036131*
X020466Y036028*
X020432Y035916*
X020421Y035800*
X020432Y035684*
X020466Y035572*
X020521Y035469*
X020595Y035379*
X020685Y035305*
X020788Y035250*
X020900Y035216*
X021016Y035205*
X021132Y035216*
X021243Y035250*
X021346Y035305*
X021436Y035379*
X021510Y035469*
X021565Y035572*
X021599Y035684*
X021611Y035800*
X021599Y035916*
X021565Y036028*
X021510Y036131*
X021436Y036221*
X021346Y036295*
X021243Y036350*
X021132Y036384*
X021016Y036395*
G37*
G36*
X026884D02*
X026768Y036384D01*
X026657Y036350*
X026554Y036295*
X026464Y036221*
X026390Y036131*
X026335Y036028*
X026301Y035916*
X026289Y035800*
X026301Y035684*
X026335Y035572*
X026390Y035469*
X026464Y035379*
X026554Y035305*
X026657Y035250*
X026768Y035216*
X026884Y035205*
X027000Y035216*
X027112Y035250*
X027215Y035305*
X027305Y035379*
X027379Y035469*
X027434Y035572*
X027468Y035684*
X027479Y035800*
X027468Y035916*
X027434Y036028*
X027379Y036131*
X027305Y036221*
X027215Y036295*
X027112Y036350*
X027000Y036384*
X026884Y036395*
G37*
G36*
X035000Y034255D02*
X034902Y034235D01*
X034820Y034180*
X034765Y034098*
X034764*
X034745Y034000*
X034471Y033706*
X034349Y033624*
X034281*
X034139Y033612*
X033948Y033604*
X033730Y033611*
X033726Y033612*
X033689Y033616*
X033616Y033626*
X033502Y033611*
X033393Y033567*
X032986Y033555*
X032947Y033560*
X032745Y033605*
X032729Y033611*
X032666Y033620*
Y033188*
Y032756*
X032729Y032764*
X032818Y032800*
X033055Y032809*
X033366Y032798*
X033502Y032764*
X033616Y032749*
X033689Y032759*
X033726Y032764*
X033730*
X033948Y032772*
X034139Y032764*
X034281Y032751*
X034431*
X034950*
X034989Y032759*
X035022Y032781*
X035045Y032814*
X035052Y032853*
Y033285*
X035065Y033418*
X035137Y033670*
X035236Y033902*
X035255Y034000*
X035236Y034098*
X035180Y034180*
X035098Y034235*
X035000Y034255*
G37*
G36*
X046300Y033850D02*
X046105D01*
X046115Y033802*
X046170Y033720*
X046252Y033665*
X046300Y033655*
Y033850*
G37*
G36*
X046595D02*
X046400D01*
Y033655*
X046448Y033665*
X046530Y033720*
X046585Y033802*
X046595Y033850*
G37*
G36*
X038684Y036395D02*
X038568Y036384D01*
X038457Y036350*
X038354Y036295*
X038264Y036221*
X038190Y036131*
X038135Y036028*
X038101Y035916*
X038089Y035800*
X038101Y035684*
X038135Y035572*
X038190Y035469*
X038264Y035379*
X038331Y035324*
Y034566*
X038343Y034474*
X038379Y034389*
X038435Y034316*
X038761Y033990*
X038628Y033664*
X038508Y033536*
X038484Y033539*
X038396Y033528*
X038315Y033494*
X038244Y033440*
X038191Y033370*
X038157Y033288*
X038145Y033200*
X038157Y033112*
X038191Y033030*
X038244Y032960*
X038315Y032906*
X038396Y032872*
X038484Y032861*
X038572Y032872*
X038654Y032906*
X038928Y032830*
X039147Y032690*
Y031553*
X039059Y031541*
X038973Y031506*
X038900Y031450*
X038515Y031065*
X038430Y031050*
X038313Y031062*
X037921Y031178*
X037903Y031202*
X037799Y031281*
X037679Y031331*
X037550Y031348*
X037359Y031343*
X037313Y031351*
X037046Y031422*
X036848Y031486*
X036750Y031505*
X036652Y031486*
X036570Y031430*
X036515Y031348*
X036514*
X036495Y031250*
X036514Y031152*
X036570Y031070*
X036652Y031015*
X036914Y030839*
X037044Y030716*
X037119Y030601*
X037198Y030498*
X037223Y030479*
X037338Y030088*
X037351Y029970*
X037336Y029885*
X037301Y029850*
X037245Y029777*
X037209Y029692*
X037197Y029600*
Y026477*
X037119Y026375*
X037069Y026254*
X037052Y026126*
X037069Y025997*
X037119Y025877*
X037198Y025773*
X037301Y025694*
X037422Y025645*
X037550Y025628*
X037679Y025645*
X037799Y025694*
X037903Y025773*
X037982Y025877*
X038031Y025997*
X038048Y026126*
X038031Y026254*
X037982Y026375*
X037903Y026477*
Y027962*
X037967Y028010*
X038286Y028183*
X038350Y028218*
Y028500*
Y028782*
X037977Y028985*
X037965Y029067*
X037952Y029503*
X038771Y030322*
X038921Y030346*
X039320Y030320*
X039402Y030264*
X039500Y030245*
X039598Y030264*
X039680Y030320*
X039736Y030402*
X039755Y030500*
X039766Y030623*
X039790Y030871*
X039841Y031109*
X039853Y031200*
Y031477*
Y032618*
X040059Y032751*
X040331Y032824*
X040361Y032823*
X040365Y032820*
X040471Y032777*
X040534Y032768*
Y033200*
Y033632*
X040471Y033623*
X040365Y033580*
X040353Y033570*
X040024Y033659*
X039849Y033778*
X039841Y033841*
X039806Y033927*
X039750Y034000*
X039037Y034712*
Y035324*
X039105Y035379*
X039179Y035469*
X039234Y035572*
X039268Y035684*
X039279Y035800*
X039268Y035916*
X039234Y036028*
X039179Y036131*
X039105Y036221*
X039015Y036295*
X038912Y036350*
X038800Y036384*
X038684Y036395*
G37*
G36*
X043419Y034436D02*
X043321Y034417D01*
X043239Y034361*
X043183Y034279*
X043164Y034181*
X043156Y034031*
X043101Y033818*
X043046Y033746*
X042777Y033637*
X042565*
X042561*
X042250*
X042107Y033624*
X041916Y033616*
X041699Y033623*
X041694Y033624*
X041658Y033629*
X041584Y033638*
X041471Y033623*
X041362Y033579*
X040954Y033567*
X040916Y033572*
X040713Y033617*
X040698Y033623*
X040634Y033632*
Y033200*
Y032768*
X040698Y032777*
X040787Y032813*
X041023Y032821*
X041335Y032810*
X041471Y032777*
X041584Y032762*
X041658Y032771*
X041694Y032776*
X041699Y032777*
X041916Y032784*
X042107Y032776*
X042250Y032763*
X042400*
X042919*
X042958Y032771*
X042991Y032793*
X043013Y032826*
X043021Y032865*
Y033135*
Y033237*
Y033379*
X043079Y033628*
X043214Y033807*
X043446Y033920*
X043516Y033946*
X043599Y034001*
X043654Y034084*
X043674Y034181*
X043654Y034279*
X043599Y034361*
X043516Y034417*
X043419Y034436*
G37*
G36*
X019300Y034255D02*
X019202Y034235D01*
X019120Y034180*
X019065Y034098*
X019045Y034000*
X018771Y033706*
X018649Y033624*
X018581*
X018439Y033612*
X018248Y033604*
X018030Y033611*
X018026Y033612*
X017989Y033616*
X017916Y033626*
X017802Y033611*
X017766Y033597*
X017617Y033565*
X017416Y033559*
X017228Y033564*
X017045Y033605*
X017029Y033611*
X016966Y033620*
Y033188*
Y032756*
X017029Y032764*
X017118Y032800*
X017355Y032809*
X017666Y032798*
X017802Y032764*
X017916Y032749*
X017989Y032759*
X018026Y032764*
X018030*
X018248Y032772*
X018439Y032764*
X018581Y032751*
X018731*
X019250*
X019289Y032759*
X019322Y032781*
X019345Y032814*
X019352Y032853*
Y033285*
X019365Y033418*
X019437Y033670*
X019535Y033902*
X019555Y034000*
X019535Y034098*
X019480Y034180*
X019398Y034235*
X019300Y034255*
G37*
G36*
X046300Y034145D02*
X046252Y034135D01*
X046170Y034080*
X046115Y033998*
X046105Y033950*
X046300*
Y034145*
G37*
G36*
X046400D02*
Y033950D01*
X046595*
X046585Y033998*
X046530Y034080*
X046448Y034135*
X046400Y034145*
G37*
G36*
X016982Y036390D02*
X016915Y036384D01*
X016804Y036350*
X016701Y036295*
X016611Y036221*
X016537Y036131*
X016482Y036028*
X016448Y035916*
X016441Y035850*
X016982*
Y036390*
G37*
G36*
X024866D02*
X024800Y036384D01*
X024688Y036350*
X024585Y036295*
X024495Y036221*
X024421Y036131*
X024366Y036028*
X024332Y035916*
X024326Y035850*
X024866*
Y036390*
G37*
G36*
X050800Y037299D02*
X050697Y037285D01*
X050601Y037245*
X050518Y037182*
X050455Y037099*
X050415Y037003*
X050401Y036900*
X050415Y036797*
X050420Y036785*
X050438Y036593*
X050436Y036505*
X050412Y036245*
X050403Y036195*
Y036099*
Y035605*
X050411Y035566*
X050433Y035533*
X050466Y035511*
X050505Y035503*
X051095*
X051134Y035511*
X051167Y035533*
X051189Y035566*
X051197Y035605*
Y036099*
Y036195*
X051188Y036245*
X051164Y036505*
X051162Y036593*
X051180Y036785*
X051185Y036797*
X051199Y036900*
X051185Y037003*
X051145Y037099*
X051082Y037182*
X050999Y037245*
X050903Y037285*
X050800Y037299*
G37*
G36*
X032682Y036390D02*
X032615Y036384D01*
X032504Y036350*
X032401Y036295*
X032311Y036221*
X032237Y036131*
X032182Y036028*
X032148Y035916*
X032141Y035850*
X032682*
Y036390*
G37*
G36*
X032782D02*
Y035850D01*
X033322*
X033315Y035916*
X033281Y036028*
X033226Y036131*
X033152Y036221*
X033062Y036295*
X032959Y036350*
X032848Y036384*
X032782Y036390*
G37*
G36*
X040750D02*
Y035850D01*
X041290*
X041284Y035916*
X041250Y036028*
X041195Y036131*
X041121Y036221*
X041031Y036295*
X040928Y036350*
X040816Y036384*
X040750Y036390*
G37*
G36*
X024966D02*
Y035850D01*
X025506*
X025499Y035916*
X025465Y036028*
X025410Y036131*
X025336Y036221*
X025246Y036295*
X025143Y036350*
X025032Y036384*
X024966Y036390*
G37*
G36*
X040650D02*
X040584Y036384D01*
X040472Y036350*
X040369Y036295*
X040279Y036221*
X040205Y036131*
X040150Y036028*
X040116Y035916*
X040110Y035850*
X040650*
Y036390*
G37*
G36*
X017082D02*
Y035850D01*
X017622*
X017615Y035916*
X017581Y036028*
X017526Y036131*
X017452Y036221*
X017362Y036295*
X017259Y036350*
X017148Y036384*
X017082Y036390*
G37*
G36*
X024866Y035750D02*
X024326D01*
X024332Y035684*
X024366Y035572*
X024421Y035469*
X024495Y035379*
X024585Y035305*
X024688Y035250*
X024800Y035216*
X024866Y035210*
Y035750*
G37*
G36*
X040650D02*
X040110D01*
X040116Y035684*
X040150Y035572*
X040205Y035469*
X040279Y035379*
X040369Y035305*
X040472Y035250*
X040584Y035216*
X040650Y035210*
Y035750*
G37*
G36*
X032682D02*
X032141D01*
X032148Y035684*
X032182Y035572*
X032237Y035469*
X032311Y035379*
X032401Y035305*
X032504Y035250*
X032615Y035216*
X032682Y035210*
Y035750*
G37*
G36*
X042668Y036395D02*
X042552Y036384D01*
X042441Y036350*
X042338Y036295*
X042248Y036221*
X042174Y036131*
X042119Y036028*
X042085Y035916*
X042074Y035800*
X042085Y035684*
X042119Y035572*
X042174Y035469*
X042248Y035379*
X042338Y035305*
X042441Y035250*
X042552Y035216*
X042668Y035205*
X042785Y035216*
X042896Y035250*
X042999Y035305*
X043089Y035379*
X043163Y035469*
X043218Y035572*
X043252Y035684*
X043264Y035800*
X043252Y035916*
X043218Y036028*
X043163Y036131*
X043089Y036221*
X042999Y036295*
X042896Y036350*
X042785Y036384*
X042668Y036395*
G37*
G36*
X016982Y035750D02*
X016441D01*
X016448Y035684*
X016482Y035572*
X016537Y035469*
X016611Y035379*
X016701Y035305*
X016804Y035250*
X016915Y035216*
X016982Y035210*
Y035750*
G37*
G36*
X025506D02*
X024966D01*
Y035210*
X025032Y035216*
X025143Y035250*
X025246Y035305*
X025336Y035379*
X025410Y035469*
X025465Y035572*
X025499Y035684*
X025506Y035750*
G37*
G36*
X046795Y036495D02*
X046679Y036484D01*
X046567Y036450*
X046464Y036395*
X046374Y036321*
X046300Y036231*
X046245Y036128*
X046211Y036016*
X046200Y035900*
X046211Y035784*
X046245Y035672*
X046300Y035569*
X046374Y035479*
X046464Y035405*
X046567Y035350*
X046679Y035316*
X046795Y035305*
X046911Y035316*
X047023Y035350*
X047125Y035405*
X047216Y035479*
X047290Y035569*
X047345Y035672*
X047378Y035784*
X047390Y035900*
X047378Y036016*
X047345Y036128*
X047290Y036231*
X047216Y036321*
X047125Y036395*
X047023Y036450*
X046911Y036484*
X046795Y036495*
G37*
G36*
X048763D02*
X048647Y036484D01*
X048536Y036450*
X048433Y036395*
X048343Y036321*
X048269Y036231*
X048214Y036128*
X048180Y036016*
X048168Y035900*
X048180Y035784*
X048214Y035672*
X048269Y035569*
X048343Y035479*
X048433Y035405*
X048536Y035350*
X048647Y035316*
X048763Y035305*
X048879Y035316*
X048991Y035350*
X049094Y035405*
X049184Y035479*
X049258Y035569*
X049313Y035672*
X049347Y035784*
X049358Y035900*
X049347Y036016*
X049313Y036128*
X049258Y036231*
X049184Y036321*
X049094Y036395*
X048991Y036450*
X048879Y036484*
X048763Y036495*
G37*
G36*
X033322Y035750D02*
X032782D01*
Y035210*
X032848Y035216*
X032959Y035250*
X033062Y035305*
X033152Y035379*
X033226Y035469*
X033281Y035572*
X033315Y035684*
X033322Y035750*
G37*
G36*
X041290D02*
X040750D01*
Y035210*
X040816Y035216*
X040928Y035250*
X041031Y035305*
X041121Y035379*
X041195Y035469*
X041250Y035572*
X041284Y035684*
X041290Y035750*
G37*
G36*
X017622D02*
X017082D01*
Y035210*
X017148Y035216*
X017259Y035250*
X017362Y035305*
X017452Y035379*
X017526Y035469*
X017581Y035572*
X017615Y035684*
X017622Y035750*
G37*
G36*
X039800Y029555D02*
X039702Y029536D01*
X039620Y029480*
X039564Y029398*
X039545Y029300*
X039564Y029202*
X039620Y029120*
X039702Y029065*
X039800Y029045*
X039898Y029065*
X039980Y029120*
X040036Y029202*
X040055Y029300*
X040036Y029398*
X039980Y029480*
X039898Y029536*
X039800Y029555*
G37*
G36*
X031800D02*
X031702Y029536D01*
X031620Y029480*
X031565Y029398*
X031545Y029300*
X031565Y029202*
X031620Y029120*
X031702Y029065*
X031800Y029045*
X031898Y029065*
X031980Y029120*
X032036Y029202*
X032055Y029300*
X032036Y029398*
X031980Y029480*
X031898Y029536*
X031800Y029555*
G37*
G36*
X016300Y029543D02*
X016202Y029523D01*
X016120Y029468*
X016064Y029385*
X016045Y029288*
X016064Y029190*
X016120Y029108*
X016202Y029052*
X016300Y029033*
X016398Y029052*
X016480Y029108*
X016536Y029190*
X016555Y029288*
X016536Y029385*
X016480Y029468*
X016398Y029523*
X016300Y029543*
G37*
G36*
X043700Y030605D02*
D01*
X043602Y030585*
X043520Y030530*
X043464Y030448*
X043445Y030350*
X043464Y030252*
X043520Y030170*
X043602Y030115*
X043700Y030095*
X043778Y030021*
X043781Y030002*
X043836Y029920*
X044103Y029600*
X044370Y029320*
X044452Y029265*
X044550Y029245*
X044648Y029265*
X044730Y029320*
X044785Y029402*
X044805Y029500*
X044785Y029598*
X044730Y029680*
X044464Y029960*
X044296Y030162*
X044197Y030280*
X044114Y030336*
X044017Y030355*
X043935Y030448*
X043880Y030530*
X043798Y030585*
X043712Y030603*
X043700Y030605*
G37*
G36*
X038450Y028745D02*
Y028550D01*
X038645*
X038635Y028598*
X038580Y028680*
X038498Y028735*
X038450Y028745*
G37*
G36*
X043062Y028986D02*
X042933Y028969D01*
X042813Y028919*
X042710Y028840*
X042631Y028737*
X042581Y028617*
X042564Y028488*
X042581Y028359*
X042631Y028239*
X042710Y028136*
X042813Y028057*
X042933Y028007*
X043062Y027990*
X043191Y028007*
X043311Y028057*
X043414Y028136*
X043493Y028239*
X043543Y028359*
X043560Y028488*
X043543Y028617*
X043493Y028737*
X043414Y028840*
X043311Y028919*
X043191Y028969*
X043062Y028986*
G37*
G36*
X023080Y028450D02*
X022885D01*
Y028255*
X022932Y028265*
X023015Y028320*
X023070Y028402*
X023080Y028450*
G37*
G36*
X035094Y028986D02*
X034965Y028969D01*
X034845Y028919*
X034742Y028840*
X034662Y028737*
X034613Y028617*
X034596Y028488*
X034613Y028359*
X034662Y028239*
X034742Y028136*
X034845Y028057*
X034965Y028007*
X035094Y027990*
X035223Y028007*
X035343Y028057*
X035446Y028136*
X035525Y028239*
X035575Y028359*
X035592Y028488*
X035575Y028617*
X035525Y028737*
X035446Y028840*
X035343Y028919*
X035223Y028969*
X035094Y028986*
G37*
G36*
X019394D02*
X019265Y028969D01*
X019145Y028919*
X019042Y028840*
X018962Y028737*
X018913Y028617*
X018896Y028488*
X018913Y028359*
X018962Y028239*
X019042Y028136*
X019145Y028057*
X019265Y028007*
X019394Y027990*
X019523Y028007*
X019643Y028057*
X019746Y028136*
X019825Y028239*
X019875Y028359*
X019892Y028488*
X019875Y028617*
X019825Y028737*
X019746Y028840*
X019643Y028919*
X019523Y028969*
X019394Y028986*
G37*
G36*
X027278D02*
X027149Y028969D01*
X027029Y028919*
X026926Y028840*
X026847Y028737*
X026797Y028617*
X026780Y028488*
X026797Y028359*
X026847Y028239*
X026926Y028136*
X027029Y028057*
X027149Y028007*
X027278Y027990*
X027407Y028007*
X027527Y028057*
X027630Y028136*
X027709Y028239*
X027759Y028359*
X027776Y028488*
X027759Y028617*
X027709Y028737*
X027630Y028840*
X027527Y028919*
X027407Y028969*
X027278Y028986*
G37*
G36*
X030745Y028450D02*
X030550D01*
Y028255*
X030598Y028265*
X030680Y028320*
X030735Y028402*
X030745Y028450*
G37*
G36*
X022885Y028745D02*
Y028550D01*
X023080*
X023070Y028598*
X023015Y028680*
X022932Y028735*
X022885Y028745*
G37*
G36*
X030550D02*
Y028550D01*
X030745*
X030735Y028598*
X030680Y028680*
X030598Y028735*
X030550Y028745*
G37*
G36*
X014850D02*
Y028550D01*
X015045*
X015036Y028598*
X014980Y028680*
X014898Y028735*
X014850Y028745*
G37*
G36*
X015045Y028450D02*
X014850D01*
Y028255*
X014898Y028265*
X014980Y028320*
X015036Y028402*
X015045Y028450*
G37*
G36*
X038645D02*
X038450D01*
Y028255*
X038498Y028265*
X038580Y028320*
X038635Y028402*
X038645Y028450*
G37*
G36*
X015100Y036395D02*
X014984Y036384D01*
X014872Y036350*
X014769Y036295*
X014679Y036221*
X014605Y036131*
X014550Y036028*
X014516Y035916*
X014505Y035800*
X014516Y035684*
X014550Y035572*
X014605Y035469*
X014679Y035379*
X014747Y035324*
Y034500*
X014759Y034409*
X014794Y034323*
X014850Y034250*
X015089Y034011*
X014976Y033703*
X014862Y033532*
X014828Y033528*
X014746Y033494*
X014676Y033440*
X014622Y033370*
X014588Y033288*
X014577Y033200*
X014588Y033112*
X014622Y033030*
X014676Y032960*
X014746Y032906*
X014828Y032872*
X014916Y032861*
X014997Y032872*
X015004*
X015352Y032726*
X015485Y032636*
X015497Y032624*
Y031053*
X015100*
X015009Y031041*
X014923Y031006*
X014850Y030950*
X014729Y030957*
X014315Y031098*
X014304Y031111*
X014234Y031202*
X014131Y031281*
X014011Y031331*
X013882Y031348*
X013753Y031331*
X013740Y031325*
X013493Y031312*
X013221Y031371*
X013206Y031375*
X013122Y031419*
X013098Y031435*
X013000Y031455*
X012902Y031435*
X012820Y031380*
X012765Y031298*
X012745Y031200*
X012765Y031102*
X012820Y031020*
X012902Y030965*
X012935Y030958*
X012982Y030947*
X013031Y030920*
X013261Y030797*
X013451Y030601*
X013452Y030600*
X013530Y030498*
X013621Y030428*
X013634Y030417*
X013760Y030047*
X013764Y029863*
X013632Y029732*
X013576Y029658*
X013541Y029573*
X013529Y029482*
Y026477*
X013451Y026375*
X013401Y026254*
X013384Y026126*
X013401Y025997*
X013451Y025877*
X013530Y025773*
X013633Y025694*
X013753Y025645*
X013882Y025628*
X014011Y025645*
X014131Y025694*
X014234Y025773*
X014313Y025877*
X014363Y025997*
X014380Y026126*
X014363Y026254*
X014313Y026375*
X014235Y026477*
Y028021*
X014359Y028117*
X014685Y028257*
X014735Y028258*
X014750Y028255*
Y028500*
Y028786*
X014348Y029039*
X014331Y029431*
X014595Y029696*
X015070Y029873*
X015152Y029818*
X015250Y029798*
X015348Y029818*
X015430Y029873*
X015485Y029956*
X015486*
X015505Y030053*
X015892Y030344*
X015916Y030356*
X015941Y030359*
X016027Y030394*
X016100Y030450*
X016156Y030523*
X016191Y030609*
X016203Y030700*
Y032581*
X016371Y032705*
X016659Y032796*
X016721Y032798*
X016802Y032764*
X016866Y032756*
Y033188*
Y033620*
X016802Y033611*
X016721Y033578*
X016659Y033579*
X016356Y033676*
X016198Y033788*
X016191Y033841*
X016156Y033927*
X016100Y034000*
X015453Y034646*
Y035324*
X015521Y035379*
X015595Y035469*
X015650Y035572*
X015684Y035684*
X015695Y035800*
X015684Y035916*
X015650Y036028*
X015595Y036131*
X015521Y036221*
X015431Y036295*
X015328Y036350*
X015216Y036384*
X015100Y036395*
G37*
G36*
X030800D02*
X030684Y036384D01*
X030572Y036350*
X030469Y036295*
X030379Y036221*
X030305Y036131*
X030250Y036028*
X030216Y035916*
X030205Y035800*
X030216Y035684*
X030250Y035572*
X030305Y035469*
X030379Y035379*
X030447Y035324*
Y034250*
X030459Y034159*
X030494Y034073*
X030526Y034032*
X030527Y033842*
X030474Y033615*
X030392Y033452*
X030376Y033440*
X030322Y033370*
X030288Y033288*
X030277Y033200*
X030288Y033112*
X030322Y033030*
X030376Y032960*
X030446Y032906*
X030528Y032872*
X030597Y032863*
X030616Y032861*
X031018Y032615*
X031097Y032515*
Y031403*
X031000*
X030909Y031391*
X030823Y031356*
X030750Y031300*
X030535Y031085*
X030495Y031076*
X030395Y031080*
X029939Y031195*
X029934Y031202*
X029831Y031281*
X029711Y031331*
X029582Y031348*
X029453Y031331*
X029440Y031325*
X029193Y031312*
X028921Y031371*
X028906Y031375*
X028822Y031419*
X028798Y031435*
X028700Y031455*
X028602Y031435*
X028520Y031380*
X028465Y031298*
X028445Y031200*
X028465Y031102*
X028520Y031020*
X028602Y030965*
X028635Y030958*
X028682Y030947*
X028731Y030920*
X028961Y030797*
X029151Y030601*
X029152Y030600*
X029230Y030498*
X029236Y030493*
X029351Y030037*
X029356Y029937*
X029347Y029897*
X029332Y029882*
X029276Y029808*
X029241Y029723*
X029229Y029632*
Y026477*
X029151Y026375*
X029101Y026254*
X029084Y026126*
X029101Y025997*
X029151Y025877*
X029230Y025773*
X029333Y025694*
X029453Y025645*
X029582Y025628*
X029711Y025645*
X029831Y025694*
X029934Y025773*
X030013Y025877*
X030063Y025997*
X030080Y026126*
X030063Y026254*
X030013Y026375*
X029935Y026477*
Y028021*
X030059Y028117*
X030385Y028257*
X030435Y028258*
X030450Y028255*
Y028500*
Y028745*
X030435Y028742*
X030385Y028743*
X030059Y028883*
X029935Y028979*
Y029486*
X030705Y030256*
X030884Y030255*
X031229Y030179*
X031270Y030170*
X031352Y030115*
X031450Y030095*
X031548Y030115*
X031630Y030170*
X031685Y030252*
X031686*
X031705Y030350*
X031710Y030537*
X031735Y030721*
X031762Y030870*
X031791Y030959*
X031803Y031050*
Y032748*
X031952Y032824*
X032303Y032881*
X032306Y032878*
X032367Y032831*
X032397Y032808*
X032502Y032764*
X032566Y032756*
Y033188*
Y033620*
X032502Y033611*
X032397Y033567*
X032306Y033498*
X032303Y033494*
X031903Y033559*
X031800Y033624*
X031791Y033691*
X031756Y033777*
X031700Y033850*
X031153Y034396*
Y035324*
X031221Y035379*
X031295Y035469*
X031350Y035572*
X031384Y035684*
X031395Y035800*
X031384Y035916*
X031350Y036028*
X031295Y036131*
X031221Y036221*
X031131Y036295*
X031028Y036350*
X030916Y036384*
X030800Y036395*
G37*
G36*
X022984D02*
X022868Y036384D01*
X022757Y036350*
X022654Y036295*
X022564Y036221*
X022490Y036131*
X022435Y036028*
X022401Y035916*
X022389Y035800*
X022401Y035684*
X022435Y035572*
X022490Y035469*
X022564Y035379*
X022631Y035324*
Y034516*
X022643Y034424*
X022679Y034339*
X022735Y034266*
X023011Y033990*
X022874Y033697*
X022760Y033534*
X022712Y033528*
X022630Y033494*
X022560Y033440*
X022506Y033370*
X022472Y033288*
X022461Y033200*
X022472Y033112*
X022506Y033030*
X022560Y032960*
X022630Y032906*
X022712Y032872*
X022800Y032861*
X022888Y032872*
X022970Y032906*
X023040Y032960*
X023094Y033030*
X023128Y033112*
X023597Y033001*
Y031103*
X023100*
X023009Y031091*
X022923Y031056*
X022850Y031000*
X022758Y030907*
X022510Y030942*
X022211Y031067*
X022197Y031099*
X022118Y031202*
X022015Y031281*
X021895Y031331*
X021766Y031348*
X021637Y031331*
X021628Y031327*
X021141Y031358*
X020948Y031435*
X020850Y031455*
X020752Y031435*
X020670Y031380*
X020615Y031298*
X020595Y031200*
X020615Y031102*
X020670Y031020*
X020752Y030965*
X020933Y030897*
X021065Y030809*
X021349Y030582*
X021414Y030498*
X021517Y030419*
X021549Y030405*
X021674Y030106*
X021709Y029859*
X021517Y029666*
X021460Y029593*
X021425Y029508*
X021413Y029416*
Y026477*
X021335Y026375*
X021285Y026254*
X021268Y026126*
X021285Y025997*
X021335Y025877*
X021414Y025773*
X021517Y025694*
X021637Y025645*
X021766Y025628*
X021895Y025645*
X022015Y025694*
X022118Y025773*
X022197Y025877*
X022247Y025997*
X022264Y026126*
X022247Y026254*
X022197Y026375*
X022119Y026477*
Y028121*
X022287Y028214*
X022582Y028378*
X022602Y028375*
X022654Y028320*
X022737Y028265*
X022785Y028255*
Y028500*
Y028745*
X022737Y028735*
X022654Y028680*
X022602Y028625*
X022582Y028622*
X022287Y028786*
X022232Y028816*
X022185Y029336*
X023246Y030397*
X023276Y030384*
X023697Y030192*
X023714Y030102*
X023770Y030020*
X023777Y030015*
X023847Y029965*
X023957Y029800*
X023978Y029739*
X024012Y029485*
X023965Y029385*
X023945Y029288*
X023965Y029190*
X024020Y029108*
X024102Y029052*
X024200Y029033*
X024298Y029052*
X024380Y029108*
X024436Y029190*
X024455Y029288*
X024436Y029385*
X024380Y029468*
X024373Y029473*
X024280Y029539*
X024260Y029557*
X024228Y029590*
X024172Y029749*
X024152Y029901*
X024150Y030028*
X024186Y030102*
X024205Y030200*
X024186Y030298*
X024145Y030398*
X024202Y030489*
X024256Y030573*
X024291Y030659*
X024303Y030750*
Y030833*
Y032404*
X024351Y032474*
X024377Y032496*
X024568Y032611*
X025002Y032800*
X025239Y032809*
X025550Y032798*
X025687Y032764*
X025800Y032749*
X025874Y032759*
X025910Y032764*
X025914*
X026132Y032772*
X026323Y032764*
X026465Y032751*
X026616*
X027135*
X027174Y032759*
X027207Y032781*
X027229Y032814*
X027237Y032853*
Y033291*
X027239Y033377*
X027281Y033583*
X027385Y033902*
X027405Y034000*
X027385Y034098*
X027330Y034180*
X027248Y034235*
X027150Y034255*
X027052Y034235*
X026970Y034180*
X026915Y034098*
X026895Y034000*
X026621Y033706*
X026499Y033624*
X026465*
X026323Y033612*
X026132Y033604*
X025914Y033611*
X025910Y033612*
X025874Y033616*
X025800Y033626*
X025687Y033611*
X025577Y033567*
X025170Y033555*
X025131Y033560*
X024929Y033605*
X024913Y033611*
X024850Y033620*
Y033188*
X024750*
Y033620*
X024700Y033622*
X024455Y033680*
X024380Y033702*
X024284Y033754*
X024180Y033820*
X024156Y033843*
X023337Y034662*
Y035324*
X023405Y035379*
X023479Y035469*
X023534Y035572*
X023568Y035684*
X023579Y035800*
X023568Y035916*
X023534Y036028*
X023479Y036131*
X023405Y036221*
X023315Y036295*
X023212Y036350*
X023100Y036384*
X022984Y036395*
G37*
G36*
X012916Y033539D02*
X012828Y033528D01*
X012746Y033494*
X012676Y033440*
X012622Y033370*
X012588Y033288*
X012577Y033200*
X012588Y033112*
X012622Y033030*
X012676Y032960*
X012746Y032906*
X012828Y032872*
X012916Y032861*
X013004Y032872*
X013085Y032906*
X013156Y032960*
X013209Y033030*
X013243Y033112*
X013255Y033200*
X013243Y033288*
X013209Y033370*
X013156Y033440*
X013085Y033494*
X013004Y033528*
X012916Y033539*
G37*
G36*
X036484D02*
X036396Y033528D01*
X036315Y033494*
X036244Y033440*
X036191Y033370*
X036157Y033288*
X036145Y033200*
X036157Y033112*
X036191Y033030*
X036244Y032960*
X036315Y032906*
X036396Y032872*
X036484Y032861*
X036572Y032872*
X036654Y032906*
X036724Y032960*
X036778Y033030*
X036812Y033112*
X036823Y033200*
X036812Y033288*
X036778Y033370*
X036724Y033440*
X036654Y033494*
X036572Y033528*
X036484Y033539*
G37*
G36*
X020800D02*
X020712Y033528D01*
X020630Y033494*
X020560Y033440*
X020506Y033370*
X020472Y033288*
X020461Y033200*
X020472Y033112*
X020506Y033030*
X020560Y032960*
X020630Y032906*
X020712Y032872*
X020800Y032861*
X020888Y032872*
X020970Y032906*
X021040Y032960*
X021094Y033030*
X021128Y033112*
X021139Y033200*
X021128Y033288*
X021094Y033370*
X021040Y033440*
X020970Y033494*
X020888Y033528*
X020800Y033539*
G37*
G36*
X028616D02*
X028528Y033528D01*
X028446Y033494*
X028376Y033440*
X028322Y033370*
X028288Y033288*
X028277Y033200*
X028288Y033112*
X028322Y033030*
X028376Y032960*
X028446Y032906*
X028528Y032872*
X028616Y032861*
X028704Y032872*
X028785Y032906*
X028856Y032960*
X028909Y033030*
X028943Y033112*
X028955Y033200*
X028943Y033288*
X028909Y033370*
X028856Y033440*
X028785Y033494*
X028704Y033528*
X028616Y033539*
G37*
G36*
X018606Y031348D02*
X018477Y031331D01*
X018357Y031281*
X018254Y031202*
X018175Y031099*
X018125Y030979*
X018108Y030850*
X018125Y030721*
X018175Y030601*
X018254Y030498*
X018357Y030419*
X018477Y030369*
X018606Y030352*
X018735Y030369*
X018855Y030419*
X018958Y030498*
X019038Y030601*
X019087Y030721*
X019104Y030850*
X019087Y030979*
X019038Y031099*
X018958Y031202*
X018855Y031281*
X018735Y031331*
X018606Y031348*
G37*
G36*
X026491D02*
X026362Y031331D01*
X026242Y031281*
X026138Y031202*
X026059Y031099*
X026010Y030979*
X025993Y030850*
X026010Y030721*
X026059Y030601*
X026138Y030498*
X026242Y030419*
X026362Y030369*
X026491Y030352*
X026619Y030369*
X026740Y030419*
X026843Y030498*
X026922Y030601*
X026972Y030721*
X026989Y030850*
X026972Y030979*
X026922Y031099*
X026843Y031202*
X026740Y031281*
X026619Y031331*
X026491Y031348*
G37*
G36*
X034306D02*
X034177Y031331D01*
X034057Y031281*
X033954Y031202*
X033875Y031099*
X033825Y030979*
X033808Y030850*
X033825Y030721*
X033875Y030601*
X033954Y030498*
X034057Y030419*
X034177Y030369*
X034306Y030352*
X034435Y030369*
X034555Y030419*
X034658Y030498*
X034738Y030601*
X034787Y030721*
X034804Y030850*
X034787Y030979*
X034738Y031099*
X034658Y031202*
X034555Y031281*
X034435Y031331*
X034306Y031348*
G37*
G36*
X042275D02*
X042146Y031331D01*
X042026Y031281*
X041923Y031202*
X041844Y031099*
X041794Y030979*
X041777Y030850*
X041794Y030721*
X041844Y030601*
X041923Y030498*
X042026Y030419*
X042146Y030369*
X042275Y030352*
X042404Y030369*
X042524Y030419*
X042627Y030498*
X042706Y030601*
X042756Y030721*
X042773Y030850*
X042756Y030979*
X042706Y031099*
X042627Y031202*
X042524Y031281*
X042404Y031331*
X042275Y031348*
G37*
%LNde-010824-3*%
%LPD*%
G54D23*
X017850Y024750D02*
X039100D01*
X017200Y024100D02*
X017850Y024750D01*
X039100D02*
X041500Y027150D01*
X043150*
X041500Y026800D02*
X042900D01*
X039250Y024550D02*
X041500Y026800D01*
X025550Y024550D02*
X039250D01*
X025050Y024050D02*
X025550Y024550D01*
G54D27*
X050150Y015700D02*
Y017950D01*
X048400Y019700D02*
X050150Y017950D01*
X048400Y019700D02*
Y021035D01*
Y022250*
X047700Y022950D02*
X048400Y022250D01*
X046600Y022950D02*
X047700D01*
X046165Y023385D02*
X046600Y022950D01*
X046165Y023385D02*
Y024150D01*
Y024215*
X046600Y024650*
X050200*
X050650Y024200*
X052400*
X045834Y019500D02*
X047684Y017650D01*
X044150Y019500D02*
X045834D01*
X043000Y020650D02*
X044150Y019500D01*
X043000Y020650D02*
Y025350D01*
X045350Y027700*
X051150D02*
X051800Y028350D01*
Y029200*
X045350Y027700D02*
X046100D01*
X051150*
X046065Y027735D02*
Y031660D01*
Y027735D02*
X046100Y027700D01*
X046065Y031660D02*
X049530D01*
X049535Y031665*
Y033535*
X050050Y034050*
X051950*
X022984Y034516D02*
Y035800D01*
Y034516D02*
X023950Y033550D01*
X021766Y026126D02*
Y029416D01*
X015100Y034500D02*
Y035800D01*
Y034500D02*
X015850Y033750D01*
X013882Y026126D02*
Y029482D01*
X015100Y030700*
X015250*
X021766Y029416D02*
X023100Y030750D01*
X023950*
Y033550*
X015250Y030700D02*
X015850D01*
Y033750*
X030800Y034250D02*
Y035800D01*
Y034250D02*
X031450Y033600D01*
Y031050D02*
Y033600D01*
X029582Y026126D02*
Y029632D01*
X031000Y031050*
X031450*
X037550Y026126D02*
Y029600D01*
X039150Y031200*
X039500*
X038684Y034566D02*
Y035800D01*
Y034566D02*
X039500Y033750D01*
Y031200D02*
Y033750D01*
X017332Y013500D02*
Y015318D01*
X016200Y016450D02*
X017332Y015318D01*
X016200Y016450D02*
Y018550D01*
X025231Y013500D02*
Y015368D01*
X024350Y016250D02*
X025231Y015368D01*
X024350Y016250D02*
Y018500D01*
X033097Y013500D02*
Y015103D01*
X032250Y015950D02*
X033097Y015103D01*
X032250Y015950D02*
Y018500D01*
X032800*
X034277Y019977*
Y023174*
X040916Y013500D02*
Y015284D01*
X040200Y016000D02*
X040916Y015284D01*
X040200Y016000D02*
Y018150D01*
X042134Y020084*
Y023174*
X016200Y018550D02*
X017000D01*
X018496Y020046*
Y023174*
X024350Y018500D02*
X024800D01*
X026400Y020100*
Y023174*
G54D30*
X050800Y029200D03*
X051800D03*
X052800D03*
G54D32*
X052550Y018000D03*
X016916Y033188D03*
X039100Y016100D03*
X024800Y033188D03*
X031265Y016100D03*
X032616Y033188D03*
X023412Y016100D03*
X040584Y033200D03*
X015516Y016100D03*
G54D33*
X060100Y027000D03*
Y026000D03*
Y025000D03*
X053800D03*
X046250Y026050D03*
X045716Y017650D03*
X057116Y018000D03*
G54D34*
X060100Y024000D03*
X047684Y017650D03*
G54D36*
X017032Y035800D03*
X015100D03*
X024916D03*
X022984D03*
X032731D03*
X030800D03*
X040700D03*
X038684D03*
X038984Y013500D03*
X040916D03*
X031134D03*
X033097D03*
X023250D03*
X025231D03*
X015346D03*
X017332D03*
X057100Y013550D03*
X045716Y013650D03*
G54D38*
X029582Y026126D03*
X037550D03*
X013882D03*
X021766D03*
X042134Y023174D03*
X034277D03*
X026400D03*
X018496D03*
G54D40*
X050150Y015700D03*
G54D41*
X050150Y014913D03*
G54D42*
X056550Y029400D03*
X058950Y029800D03*
X052400Y024200D03*
X050300Y022200D03*
X054500Y034600D03*
X050100Y034750D03*
X051950Y034050D03*
X057150Y033900D03*
X015250Y030700D03*
X023950Y030750D03*
X031450Y031050D03*
X039500Y031200D03*
X014800Y028500D03*
X022835D03*
X030500D03*
X038400D03*
X016200Y018550D03*
X024350Y018500D03*
X032250D03*
X040200Y018150D03*
X048400Y021035D03*
X046165Y024150D03*
X046100Y027700D03*
X046065Y031660D03*
X049535Y031665D03*
X046350Y033900D03*
X017250Y021700D03*
X025400D03*
X033400D03*
X041050D03*
X051850Y025800D03*
X017200Y024100D03*
X042900Y026800D03*
X043150Y027150D03*
X025050Y024050D03*
X050750Y032050D03*
M02*