%FSDAX24Y24*%
%MOIN*%
%SFA1B1*%

%IPPOS*%
%ADD96C,0.003900*%
%LNde-010824-1*%
%LPD*%
G54D96*
X055987Y031787D02*
D01*
X055986Y031800*
X055985Y031814*
X055982Y031827*
X055979Y031841*
X055975Y031854*
X055969Y031867*
X055963Y031879*
X055957Y031891*
X055949Y031902*
X055940Y031913*
X055931Y031923*
X055921Y031933*
X055911Y031942*
X055900Y031950*
X055888Y031957*
X055876Y031964*
X055863Y031969*
X055850Y031974*
X055837Y031978*
X055824Y031981*
X055810Y031982*
X055796Y031983*
X055783*
X055769Y031982*
X055755Y031981*
X055742Y031978*
X055729Y031974*
X055716Y031969*
X055703Y031964*
X055691Y031957*
X055679Y031950*
X055668Y031942*
X055658Y031933*
X055648Y031923*
X055639Y031913*
X055630Y031902*
X055622Y031891*
X055616Y031879*
X055610Y031867*
X055604Y031854*
X055600Y031841*
X055597Y031827*
X055594Y031814*
X055593Y031800*
X055593Y031787*
X055593Y031773*
X055594Y031759*
X055597Y031746*
X055600Y031732*
X055604Y031719*
X055610Y031706*
X055616Y031694*
X055622Y031682*
X055630Y031671*
X055639Y031660*
X055648Y031650*
X055658Y031640*
X055668Y031631*
X055679Y031623*
X055691Y031616*
X055703Y031609*
X055716Y031604*
X055729Y031599*
X055742Y031595*
X055755Y031592*
X055769Y031591*
X055783Y031590*
X055796*
X055810Y031591*
X055824Y031592*
X055837Y031595*
X055850Y031599*
X055863Y031604*
X055876Y031609*
X055888Y031616*
X055900Y031623*
X055911Y031631*
X055921Y031640*
X055931Y031650*
X055940Y031660*
X055949Y031671*
X055957Y031682*
X055963Y031694*
X055969Y031706*
X055975Y031719*
X055979Y031732*
X055982Y031746*
X055985Y031759*
X055986Y031773*
X055987Y031787*
X047910Y032090D02*
D01*
X047909Y032103*
X047908Y032117*
X047905Y032130*
X047902Y032144*
X047898Y032157*
X047892Y032170*
X047886Y032182*
X047880Y032194*
X047872Y032205*
X047863Y032216*
X047854Y032226*
X047844Y032236*
X047834Y032245*
X047823Y032253*
X047811Y032260*
X047799Y032267*
X047786Y032272*
X047773Y032277*
X047760Y032281*
X047747Y032284*
X047733Y032285*
X047719Y032286*
X047706*
X047692Y032285*
X047678Y032284*
X047665Y032281*
X047652Y032277*
X047639Y032272*
X047626Y032267*
X047614Y032260*
X047602Y032253*
X047591Y032245*
X047581Y032236*
X047571Y032226*
X047562Y032216*
X047553Y032205*
X047545Y032194*
X047539Y032182*
X047533Y032170*
X047527Y032157*
X047523Y032144*
X047520Y032130*
X047517Y032117*
X047516Y032103*
X047516Y032090*
X047516Y032076*
X047517Y032062*
X047520Y032049*
X047523Y032035*
X047527Y032022*
X047533Y032009*
X047539Y031997*
X047545Y031985*
X047553Y031974*
X047562Y031963*
X047571Y031953*
X047581Y031943*
X047591Y031934*
X047602Y031926*
X047614Y031919*
X047626Y031912*
X047639Y031907*
X047652Y031902*
X047665Y031898*
X047678Y031895*
X047692Y031894*
X047706Y031893*
X047719*
X047733Y031894*
X047747Y031895*
X047760Y031898*
X047773Y031902*
X047786Y031907*
X047799Y031912*
X047811Y031919*
X047823Y031926*
X047834Y031934*
X047844Y031943*
X047854Y031953*
X047863Y031963*
X047872Y031974*
X047880Y031985*
X047886Y031997*
X047892Y032009*
X047898Y032022*
X047902Y032035*
X047905Y032049*
X047908Y032062*
X047909Y032076*
X047910Y032090*
Y029290D02*
D01*
X047909Y029303*
X047908Y029317*
X047905Y029330*
X047902Y029344*
X047898Y029357*
X047892Y029370*
X047886Y029382*
X047880Y029394*
X047872Y029405*
X047863Y029416*
X047854Y029426*
X047844Y029436*
X047834Y029445*
X047823Y029453*
X047811Y029460*
X047799Y029467*
X047786Y029472*
X047773Y029477*
X047760Y029481*
X047747Y029484*
X047733Y029485*
X047719Y029486*
X047706*
X047692Y029485*
X047678Y029484*
X047665Y029481*
X047652Y029477*
X047639Y029472*
X047626Y029467*
X047614Y029460*
X047602Y029453*
X047591Y029445*
X047581Y029436*
X047571Y029426*
X047562Y029416*
X047553Y029405*
X047545Y029394*
X047539Y029382*
X047533Y029370*
X047527Y029357*
X047523Y029344*
X047520Y029330*
X047517Y029317*
X047516Y029303*
X047516Y029290*
X047516Y029276*
X047517Y029262*
X047520Y029249*
X047523Y029235*
X047527Y029222*
X047533Y029209*
X047539Y029197*
X047545Y029185*
X047553Y029174*
X047562Y029163*
X047571Y029153*
X047581Y029143*
X047591Y029134*
X047602Y029126*
X047614Y029119*
X047626Y029112*
X047639Y029107*
X047652Y029102*
X047665Y029098*
X047678Y029095*
X047692Y029094*
X047706Y029093*
X047719*
X047733Y029094*
X047747Y029095*
X047760Y029098*
X047773Y029102*
X047786Y029107*
X047799Y029112*
X047811Y029119*
X047823Y029126*
X047834Y029134*
X047844Y029143*
X047854Y029153*
X047863Y029163*
X047872Y029174*
X047880Y029185*
X047886Y029197*
X047892Y029209*
X047898Y029222*
X047902Y029235*
X047905Y029249*
X047908Y029262*
X047909Y029276*
X047910Y029290*
X059860Y023827D02*
D01*
X059859Y023840*
X059858Y023854*
X059855Y023867*
X059852Y023881*
X059848Y023894*
X059842Y023907*
X059836Y023919*
X059830Y023931*
X059822Y023942*
X059813Y023953*
X059804Y023963*
X059794Y023973*
X059784Y023982*
X059773Y023990*
X059761Y023997*
X059749Y024004*
X059736Y024009*
X059723Y024014*
X059710Y024018*
X059697Y024021*
X059683Y024022*
X059669Y024023*
X059656*
X059642Y024022*
X059628Y024021*
X059615Y024018*
X059602Y024014*
X059589Y024009*
X059576Y024004*
X059564Y023997*
X059552Y023990*
X059541Y023982*
X059531Y023973*
X059521Y023963*
X059512Y023953*
X059503Y023942*
X059495Y023931*
X059489Y023919*
X059483Y023907*
X059477Y023894*
X059473Y023881*
X059470Y023867*
X059467Y023854*
X059466Y023840*
X059466Y023827*
X059466Y023813*
X059467Y023799*
X059470Y023786*
X059473Y023772*
X059477Y023759*
X059483Y023746*
X059489Y023734*
X059495Y023722*
X059503Y023711*
X059512Y023700*
X059521Y023690*
X059531Y023680*
X059541Y023671*
X059552Y023663*
X059564Y023656*
X059576Y023649*
X059589Y023644*
X059602Y023639*
X059615Y023635*
X059628Y023632*
X059642Y023631*
X059656Y023630*
X059669*
X059683Y023631*
X059697Y023632*
X059710Y023635*
X059723Y023639*
X059736Y023644*
X059749Y023649*
X059761Y023656*
X059773Y023663*
X059784Y023671*
X059794Y023680*
X059804Y023690*
X059813Y023700*
X059822Y023711*
X059830Y023722*
X059836Y023734*
X059842Y023746*
X059848Y023759*
X059852Y023772*
X059855Y023786*
X059858Y023799*
X059859Y023813*
X059860Y023827*
X051320Y023724D02*
D01*
X051319Y023737*
X051318Y023751*
X051315Y023764*
X051312Y023778*
X051308Y023791*
X051302Y023804*
X051296Y023816*
X051290Y023828*
X051282Y023839*
X051273Y023850*
X051264Y023860*
X051254Y023870*
X051244Y023879*
X051233Y023887*
X051221Y023894*
X051209Y023901*
X051196Y023906*
X051183Y023911*
X051170Y023915*
X051157Y023918*
X051143Y023919*
X051129Y023920*
X051116*
X051102Y023919*
X051088Y023918*
X051075Y023915*
X051062Y023911*
X051049Y023906*
X051036Y023901*
X051024Y023894*
X051012Y023887*
X051001Y023879*
X050991Y023870*
X050981Y023860*
X050972Y023850*
X050963Y023839*
X050955Y023828*
X050949Y023816*
X050943Y023804*
X050937Y023791*
X050933Y023778*
X050930Y023764*
X050927Y023751*
X050926Y023737*
X050926Y023724*
X050926Y023710*
X050927Y023696*
X050930Y023683*
X050933Y023669*
X050937Y023656*
X050943Y023643*
X050949Y023631*
X050955Y023619*
X050963Y023608*
X050972Y023597*
X050981Y023587*
X050991Y023577*
X051001Y023568*
X051012Y023560*
X051024Y023553*
X051036Y023546*
X051049Y023541*
X051062Y023536*
X051075Y023532*
X051088Y023529*
X051102Y023528*
X051116Y023527*
X051129*
X051143Y023528*
X051157Y023529*
X051170Y023532*
X051183Y023536*
X051196Y023541*
X051209Y023546*
X051221Y023553*
X051233Y023560*
X051244Y023568*
X051254Y023577*
X051264Y023587*
X051273Y023597*
X051282Y023608*
X051290Y023619*
X051296Y023631*
X051302Y023643*
X051308Y023656*
X051312Y023669*
X051315Y023683*
X051318Y023696*
X051319Y023710*
X051320Y023724*
X057365Y031432D02*
Y032968D01*
X055435Y031432D02*
Y032968D01*
X057365*
X055435Y031432D02*
X057365D01*
X046532Y033665D02*
X048068D01*
X046532Y031735D02*
X048068D01*
X046532D02*
Y033665D01*
X048068Y031735D02*
Y033665D01*
X050172Y031723D02*
Y032589D01*
X049621Y031723D02*
Y032589D01*
Y031723D02*
X050172D01*
X049621Y032589D02*
X050172D01*
X055467Y029524D02*
X056333D01*
X055467Y030076D02*
X056333D01*
X055467Y029524D02*
Y030076D01*
X056333Y029524D02*
Y030076D01*
X050503Y017390D02*
X054597D01*
X050503Y016878D02*
Y018689D01*
Y016878D02*
X054597D01*
Y018689D01*
X050503D02*
X054597D01*
X055124Y024202D02*
X055676D01*
X055124Y025398D02*
X055676D01*
Y024202D02*
Y025398D01*
X055124Y024202D02*
Y025398D01*
X046532Y030865D02*
X048068D01*
X046532Y028935D02*
X048068D01*
X046532D02*
Y030865D01*
X048068Y028935D02*
Y030865D01*
X057183Y027528D02*
X060017D01*
X057183Y023472D02*
X060017D01*
X057183D02*
Y027528D01*
X060017Y023472D02*
Y027528D01*
X015819Y033932D02*
X020012D01*
X015819Y032003D02*
X020012D01*
Y033932*
X015819Y032003D02*
Y033932D01*
Y033026D02*
X020012D01*
X036004Y015356D02*
X040196D01*
X036004Y017285D02*
X040196D01*
X036004Y015356D02*
Y017285D01*
X040196Y015356D02*
Y017285D01*
X036004Y016261D02*
X040196D01*
X023704Y033932D02*
X027896D01*
X023704Y032003D02*
X027896D01*
Y033932*
X023704Y032003D02*
Y033932D01*
Y033026D02*
X027896D01*
X028169Y015356D02*
X032362D01*
X028169Y017285D02*
X032362D01*
X028169Y015356D02*
Y017285D01*
X032362Y015356D02*
Y017285D01*
X028169Y016261D02*
X032362D01*
X031519Y033932D02*
X035712D01*
X031519Y032003D02*
X035712D01*
Y033932*
X031519Y032003D02*
Y033932D01*
Y033026D02*
X035712D01*
X020315Y015356D02*
X024508D01*
X020315Y017285D02*
X024508D01*
X020315Y015356D02*
Y017285D01*
X024508Y015356D02*
Y017285D01*
X020315Y016261D02*
X024508D01*
X039488Y033944D02*
X043681D01*
X039488Y032015D02*
X043681D01*
Y033944*
X039488Y032015D02*
Y033944D01*
Y033039D02*
X043681D01*
X012419Y015356D02*
X016612D01*
X012419Y017285D02*
X016612D01*
X012419Y015356D02*
Y017285D01*
X016612Y015356D02*
Y017285D01*
X012419Y016261D02*
X016612D01*
X046146Y024190D02*
X046854D01*
X046146Y025410D02*
X046854D01*
X046146Y024190D02*
Y025410D01*
X046854Y024190D02*
Y025410D01*
X051478Y021322D02*
Y024078D01*
X048722Y021322D02*
Y024078D01*
X051478*
X048722Y021322D02*
X051478D01*
X032227Y025797D02*
Y026978D01*
X032778Y025797D02*
Y026978D01*
X032227Y025797D02*
X032778D01*
X032227Y026978D02*
X032778D01*
X040209Y025809D02*
Y026991D01*
X040760Y025809D02*
Y026991D01*
X040209Y025809D02*
X040760D01*
X040209Y026991D02*
X040760D01*
X016640Y025797D02*
Y026978D01*
X017191Y025797D02*
Y026978D01*
X016640Y025797D02*
X017191D01*
X016640Y026978D02*
X017191D01*
X024524Y025797D02*
Y026978D01*
X025076Y025797D02*
Y026978D01*
X024524Y025797D02*
X025076D01*
X024524Y026978D02*
X025076D01*
X039376Y022309D02*
Y023491D01*
X038824Y022309D02*
Y023491D01*
X039376*
X038824Y022309D02*
X039376D01*
X016640Y029797D02*
Y030978D01*
X017191Y029797D02*
Y030978D01*
X016640Y029797D02*
X017191D01*
X016640Y030978D02*
X017191D01*
X024524Y029797D02*
Y030978D01*
X025076Y029797D02*
Y030978D01*
X024524Y029797D02*
X025076D01*
X024524Y030978D02*
X025076D01*
X031541Y022309D02*
Y023491D01*
X030990Y022309D02*
Y023491D01*
X031541*
X030990Y022309D02*
X031541D01*
X032040Y029797D02*
Y030978D01*
X032591Y029797D02*
Y030978D01*
X032040Y029797D02*
X032591D01*
X032040Y030978D02*
X032591D01*
X040209Y029809D02*
Y030991D01*
X040760Y029809D02*
Y030991D01*
X040209Y029809D02*
X040760D01*
X040209Y030991D02*
X040760D01*
X023547Y022309D02*
Y023491D01*
X022996Y022309D02*
Y023491D01*
X023547*
X022996Y022309D02*
X023547D01*
X039676Y018309D02*
Y019491D01*
X039124Y018309D02*
Y019491D01*
X039676*
X039124Y018309D02*
X039676D01*
X031541D02*
Y019491D01*
X030990Y018309D02*
Y019491D01*
X031541*
X030990Y018309D02*
X031541D01*
X015591Y022409D02*
Y023591D01*
X015040Y022409D02*
Y023591D01*
X015591*
X015040Y022409D02*
X015591D01*
X023547Y018309D02*
Y019491D01*
X022996Y018309D02*
Y019491D01*
X023547*
X022996Y018309D02*
X023547D01*
X015591Y018335D02*
Y019517D01*
X015040Y018335D02*
Y019517D01*
X015591*
X015040Y018335D02*
X015591D01*
M02*