%FSDAX24Y24*%
%MOIN*%
%SFA1B1*%

%IPPOS*%
%ADD17R,0.043300X0.039400*%
%ADD18R,0.039400X0.043300*%
%ADD20R,0.021700X0.057100*%
%ADD23C,0.010000*%
%ADD24C,0.030000*%
%ADD25C,0.020000*%
%ADD26C,0.080000*%
%ADD27C,0.050000*%
%ADD30C,0.060000*%
%ADD31R,0.066900X0.066900*%
%ADD32C,0.066900*%
%ADD33C,0.059100*%
%ADD34R,0.059100X0.059100*%
%ADD35R,0.066900X0.066900*%
%ADD36C,0.098400*%
%ADD37R,0.059100X0.059100*%
%ADD38C,0.078700*%
%ADD39C,0.047200*%
%ADD40R,0.053100X0.053100*%
%ADD41C,0.053100*%
%ADD42C,0.030000*%
%ADD43R,0.059100X0.051200*%
%ADD44R,0.043300X0.025600*%
%ADD45R,0.043300X0.061000*%
%ADD46R,0.043300X0.061000*%
%ADD47R,0.135800X0.061000*%
%ADD48O,0.070900X0.011800*%
%ADD49O,0.011800X0.070900*%
%ADD50R,0.051200X0.023600*%
%ADD51R,0.090600X0.090600*%
%ADD52R,0.090000X0.215000*%
%ADD53R,0.060000X0.060000*%
%ADD54R,0.520000X0.375000*%
%LNde-010824-1*%
%LPD*%
G54D17*
X046165Y023800D03*
X046835D03*
X046165Y023200D03*
X046835D03*
X030681Y025988D03*
X031350D03*
X038650Y026000D03*
X039319D03*
X015081Y025988D03*
X015750D03*
X022965D03*
X023635D03*
X014281Y031988D03*
X014950D03*
X015750Y029288D03*
X015081D03*
X040935Y023300D03*
X040265D03*
X013350Y031988D03*
X012681D03*
X016781Y029288D03*
X017450D03*
X019750Y034588D03*
X019081D03*
X022165Y031988D03*
X022835D03*
X023635Y029288D03*
X022965D03*
X021335Y031988D03*
X020665D03*
X024665Y029288D03*
X025335D03*
X027535Y034588D03*
X026865D03*
X029981Y031988D03*
X030650D03*
X031350Y029288D03*
X030681D03*
X033100Y023300D03*
X032431D03*
X029250Y031988D03*
X028581D03*
X032181Y029288D03*
X032850D03*
X035450Y034588D03*
X034781D03*
X037950Y032000D03*
X038619D03*
X039319Y029300D03*
X038650D03*
X037219Y032000D03*
X036550D03*
X040346Y029300D03*
X041015D03*
X043419Y034600D03*
X042750D03*
X041700Y017300D03*
X041031D03*
X040365Y020000D03*
X041035D03*
X025071Y023300D03*
X024402D03*
X042465Y017300D03*
X043135D03*
X039635Y020000D03*
X038965D03*
X036365Y014700D03*
X037035D03*
X033800Y017300D03*
X033131D03*
X032431Y020000D03*
X033100D03*
X034631Y017300D03*
X035300D03*
X031404Y020000D03*
X030734D03*
X028431Y014700D03*
X029100D03*
X025906Y017200D03*
X025237D03*
X024402Y020000D03*
X025071D03*
X017150Y023400D03*
X016481D03*
X026837Y017200D03*
X027506D03*
X023410Y020000D03*
X022741D03*
X020537Y014700D03*
X021206D03*
X017950Y017100D03*
X017281D03*
X016481Y020000D03*
X017150D03*
X018881Y017100D03*
X019550D03*
X015454Y020000D03*
X014785D03*
X012681Y014700D03*
X013350D03*
X052135Y035100D03*
X051465D03*
X052865D03*
X053535D03*
X051885Y019000D03*
X051215D03*
X052965D03*
X053635D03*
G54D18*
X051550Y025115D03*
Y025785D03*
X047700Y021035D03*
Y020365D03*
X045350Y025135D03*
Y024465D03*
X015716Y030722D03*
Y030053D03*
X023500Y030722D03*
Y030053D03*
X031016Y030722D03*
Y030053D03*
X038984Y030735D03*
Y030065D03*
X040500Y018565D03*
Y019235D03*
X032765Y018565D03*
Y019235D03*
X024871Y018565D03*
Y019235D03*
X016616Y018565D03*
Y019235D03*
X057900Y031635D03*
Y030965D03*
X050100Y035265D03*
Y035935D03*
X057900Y033435D03*
Y032765D03*
X054500Y012665D03*
Y013335D03*
G54D20*
X034316Y027025D03*
Y027950D03*
X042284Y027037D03*
Y027963D03*
X018616Y027025D03*
Y027950D03*
X026500Y027025D03*
Y027950D03*
X037400Y022263D03*
Y021337D03*
X029565Y022263D03*
Y021337D03*
X021637Y022263D03*
Y021337D03*
X013816Y022363D03*
Y021437D03*
G54D23*
X015081Y025519D02*
Y025988D01*
Y025519D02*
X015750Y024850D01*
X022965Y025735D02*
X023670Y025030D01*
X030681Y025369D02*
Y025988D01*
Y025369D02*
X030840Y025210D01*
X033100Y023300D02*
Y024050D01*
X040935Y023935D02*
X041130Y024130D01*
X046835Y023800D02*
X046972Y023938D01*
Y024426*
X046835Y023200D02*
X047200D01*
X047500Y023500*
X047586Y023586*
X046835Y023800D02*
X046852Y023783D01*
X046972Y025174D02*
X046996Y025150D01*
X047350*
X047500Y025000*
Y024100D02*
Y025000D01*
X049150Y025150D02*
X049411Y024889D01*
X049350Y025400D02*
X049608Y025142D01*
X049633Y025417D02*
X049805Y025245D01*
X049917Y025433D02*
X050002Y025348D01*
X043850Y020650D02*
X044050Y020850D01*
X044450*
X049608Y020408D02*
Y021106D01*
X041130Y024130D02*
X043020D01*
X044050Y021200D02*
X044800D01*
X043650Y020800D02*
X044050Y021200D01*
X043650Y019850D02*
Y020800D01*
Y019850D02*
X044210Y019290D01*
X043850Y019905D02*
Y020650D01*
Y019905D02*
X044285Y019470D01*
X044150Y019900D02*
Y020500D01*
Y019900D02*
X044400Y019650D01*
X049105*
X049797Y020342*
Y021098*
X044285Y019470D02*
X049179D01*
X049994Y020285*
Y021098*
X044210Y019290D02*
X049254D01*
X050191Y020227*
Y021098*
X049411Y020466D02*
Y021106D01*
X049917Y025433D02*
Y025950D01*
X049633Y025417D02*
Y026250D01*
X049350Y025400D02*
Y026550D01*
X051694Y021617D02*
X052033D01*
X052250Y021400*
X045000Y026050D02*
X045250D01*
X047200Y022750D02*
X047839Y023389D01*
X047250Y026050D02*
X047800Y025500D01*
X015750Y024850D02*
X043346D01*
X023670Y025030D02*
X043421D01*
X043600Y024000D02*
Y024200D01*
X043346Y024850D02*
X043900Y024296D01*
X044080Y023675D02*
Y024371D01*
X043421Y025030D02*
X044080Y024371D01*
X030840Y025210D02*
X043495D01*
X044260Y024445*
X043574Y025390D02*
X044440Y024524D01*
X043900Y023600D02*
Y024296D01*
X043600Y022900D02*
Y023100D01*
Y022900D02*
X045150Y021350D01*
X043020Y024130D02*
X043900Y023250D01*
Y022855D02*
Y023250D01*
Y022855D02*
X045330Y021425D01*
X043900Y023600D02*
X045600Y021900D01*
X045650*
X045990Y022360D02*
X046450Y021900D01*
X044080Y023675D02*
X045575Y022180D01*
X045766*
X046046Y021900*
X046050*
X044260Y023749D02*
Y024445D01*
Y023749D02*
X045649Y022360D01*
X045990*
X044440Y023824D02*
Y024524D01*
Y023824D02*
X045694Y022570D01*
X045768Y022750D02*
X047200D01*
X044620Y023898D02*
X045768Y022750D01*
X044620Y023898D02*
Y025670D01*
X045000Y026050*
X045694Y022570D02*
X046330D01*
X047500Y021400*
X048288*
X047800Y022300D02*
X047892Y022208D01*
X047300Y022300D02*
X047800D01*
X047550Y022000D02*
X047561Y022011D01*
X047800Y021700D02*
X047914Y021814D01*
X047800Y024600D02*
Y025500D01*
Y024600D02*
X048106Y024294D01*
X052689Y022011D02*
X052700Y022000D01*
X051694Y021814D02*
X052236D01*
X052350Y021700*
X052950*
X052250Y021400D02*
X053200D01*
X051183Y021106D02*
X051188Y021100D01*
X044550Y028954D02*
X044784Y028720D01*
X044270Y028979D02*
X044709Y028540D01*
X050986Y020469D02*
Y021106D01*
Y020469D02*
X051265Y020190D01*
X044550Y028954D02*
Y029500D01*
X044270Y028979D02*
Y029767D01*
X044283Y029780*
X044003Y028992D02*
Y030087D01*
X044017Y030100*
X043700Y029040D02*
Y030350D01*
X044003Y028992D02*
X044635Y028360D01*
X043700Y029040D02*
X044560Y028180D01*
X050789Y020411D02*
Y021106D01*
Y020411D02*
X051190Y020010D01*
X050592Y020353D02*
Y021106D01*
Y020353D02*
X051115Y019830D01*
X050395Y020296D02*
Y021106D01*
Y020296D02*
X051041Y019650D01*
X049030Y019830D02*
X049608Y020408D01*
X048955Y020010D02*
X049411Y020466D01*
X045150Y020350D02*
Y021350D01*
Y020350D02*
X045670Y019830D01*
X049030*
X045330Y020425D02*
Y021425D01*
Y020425D02*
X045745Y020010D01*
X048955*
X033100Y024050D02*
X033720Y024670D01*
X043130*
X043600Y024200*
X040935Y023300D02*
Y023935D01*
X049214Y020664D02*
Y021106D01*
X048915Y020365D02*
X049214Y020664D01*
X047700Y020365D02*
X048915D01*
X052235Y025115D02*
X052250Y025100D01*
X051183Y024883D02*
X051250Y024950D01*
X050986Y023686D02*
Y024294D01*
Y025536D02*
X051235Y025785D01*
X051550*
X051694Y022011D02*
X052689D01*
X051694Y022208D02*
X052358D01*
X052450Y022300*
X050395Y023600D02*
Y024294D01*
X051694Y023783D02*
X051744D01*
X048506Y022798D02*
X049123D01*
X048506Y022602D02*
X049502D01*
X049214Y021664D02*
X049450Y021900D01*
X050789Y024294D02*
X050797Y024302D01*
X051694Y023586D02*
X052964D01*
X053550Y023000*
X054700*
X051694Y023389D02*
X052906D01*
X053595Y022700*
X051694Y023192D02*
X052849D01*
X053641Y022400*
X054150*
X053595Y022700D02*
X054450D01*
X054500*
X051694Y022602D02*
X052598D01*
X053800Y021400*
X054700*
X055130Y021830*
Y023720*
X054850Y024000D02*
X055130Y023720D01*
X053800Y024000D02*
X054850D01*
X049214Y023886D02*
Y024294D01*
X050037Y022550D02*
Y023063D01*
X049214Y023886D02*
X050037Y023063D01*
X049608Y024294D02*
Y025142D01*
X047914Y021814D02*
X048506D01*
X050986Y024294D02*
Y025536D01*
X049214Y021106D02*
Y021664D01*
X049411Y024294D02*
Y024889D01*
X048288Y021400D02*
X048506Y021617D01*
X049797Y021098D02*
X049805Y021106D01*
X049600Y021098D02*
X049608Y021106D01*
X049994Y021098D02*
X050002Y021106D01*
X046852Y023783D02*
X048506D01*
X050191Y021098D02*
X050198Y021106D01*
X050592Y024294D02*
Y026208D01*
X050198Y024294D02*
Y025598D01*
X047586Y023586D02*
X048506D01*
X050002Y024294D02*
Y025348D01*
X047839Y023389D02*
X048506D01*
X047892Y022208D02*
X048506D01*
X049805Y024294D02*
Y025245D01*
X048106Y024294D02*
X049017D01*
X047561Y022011D02*
X048506D01*
X051183Y024294D02*
Y024883D01*
Y024294D02*
X051694Y023783D01*
X048946Y021035D02*
X049017Y021106D01*
X048506Y023192D02*
X048942D01*
X049150Y023400*
Y023500*
X049450Y021900D02*
X050000D01*
X050300Y022200*
Y022305*
X051694Y022995D02*
X052791D01*
X051694Y022798D02*
X052702D01*
X050905Y022405D02*
X051694D01*
X048506D02*
X049291D01*
X049446Y022250*
X051530Y020470D02*
X053970D01*
X054000Y020500*
X051188Y021100D02*
X053450D01*
X051800Y020800D02*
X053700D01*
X052702Y022798D02*
X053800Y021700D01*
X052791Y022995D02*
X053786Y022000D01*
X054150*
X054250*
X053800Y021700D02*
X054450D01*
X054550*
X057965Y030900D02*
X058800D01*
X057350Y035600D02*
Y035900D01*
Y035600D02*
X058250Y034700D01*
X057900Y031635D02*
X059185D01*
X059350Y031800*
X058800Y033400D02*
X059350Y032850D01*
Y031800D02*
Y032850D01*
X058800Y030900D02*
X059350Y031450D01*
X059950*
X060400Y031900*
X058250Y034700D02*
X059800D01*
X060400Y034100*
Y031900D02*
Y034100D01*
X044560Y028180D02*
X051520D01*
X044635Y028360D02*
X051595D01*
X055490Y024465*
X044709Y028540D02*
X051669D01*
X055670Y024539*
X044784Y028720D02*
X051744D01*
X055850Y024614*
X034631Y017300D02*
Y017681D01*
X018881Y017100D02*
Y017581D01*
X026837Y017487D02*
X027200Y017850D01*
X026837Y017200D02*
Y017487D01*
X043100Y016100D02*
X043135Y016135D01*
X035265Y016100D02*
X035300Y016135D01*
X027471Y016100D02*
X027506Y016135D01*
X019516Y016100D02*
X019550Y016135D01*
X038810Y025390D02*
X043574D01*
X038650Y025550D02*
X038810Y025390D01*
X038650Y025550D02*
Y026000D01*
X035450Y034150D02*
Y034588D01*
X035300Y034000D02*
X035450Y034150D01*
X035000Y034000D02*
X035300D01*
X027535Y034165D02*
Y034588D01*
X022965Y025735D02*
Y025988D01*
X027369Y034000D02*
X027535Y034165D01*
X027150Y034000D02*
X027369D01*
X012681Y014700D02*
Y014981D01*
X013000Y015300*
X013200*
X020537Y014700D02*
Y015037D01*
X020800Y015300*
X021100*
X018881Y017581D02*
X019150Y017850D01*
Y017950*
X028431Y014700D02*
Y015031D01*
X028700Y015300*
X028950*
X039373Y018833D02*
X039813Y019274D01*
X039373Y018127D02*
Y018833D01*
X034631Y017681D02*
X034900Y017950D01*
X035200*
X042465Y017300D02*
Y017815D01*
X042750Y018100*
X036365Y014700D02*
Y014965D01*
X036700Y015300*
X036900*
X047700Y021035D02*
X048400D01*
X048946*
X050797Y024302D02*
Y026258D01*
X049955Y027100D02*
X050797Y026258D01*
X017150Y023400D02*
Y024050D01*
X017200Y024100*
X043625Y026920D02*
X049880D01*
X043150Y027150D02*
X043395D01*
X043625Y026920*
X049880D02*
X050592Y026208D01*
X043750Y027100D02*
X049955D01*
X043400Y027450D02*
X043750Y027100D01*
X042850Y027450D02*
X043400D01*
X042750Y027350D02*
X042850Y027450D01*
X042750Y026950D02*
Y027350D01*
Y026950D02*
X042900Y026800D01*
X051520Y028180D02*
X055310Y024390D01*
X051041Y019650D02*
X054550D01*
X055850Y020950*
Y024614*
X051115Y019830D02*
X054475D01*
X055670Y021025*
Y024539*
X051190Y020010D02*
X054401D01*
X055490Y021099*
Y024465*
X051265Y020190D02*
X054326D01*
X055310Y021174*
Y024390*
X049123Y022798D02*
X049525Y023200D01*
X025071Y023300D02*
Y024072D01*
X049502Y022602D02*
X049800Y022900D01*
G54D24*
X051550Y025115D02*
X052235D01*
X052250Y024350D02*
X052400Y024200D01*
X052250Y024350D02*
Y025100D01*
X052187Y025785D02*
X052250Y025848D01*
X050100Y034750D02*
Y035265D01*
X053800Y029200D02*
Y030750D01*
X054500Y031450*
Y033400*
Y034200D02*
Y034600D01*
Y034200D02*
X054924Y033776D01*
X055350*
X057900Y030965D02*
X057965Y030900D01*
X021281Y013500D02*
Y014625D01*
X021206Y014700D02*
X021281Y014625D01*
X013350Y013527D02*
Y014700D01*
Y013527D02*
X013378Y013500D01*
X029100Y014700D02*
X029165Y014635D01*
Y013500D02*
Y014635D01*
X037016Y013500D02*
X037035Y013519D01*
X042750Y034600D02*
Y035719D01*
X042668Y035800D02*
X042750Y035719D01*
X034781Y034588D02*
Y035719D01*
X034700Y035800D02*
X034781Y035719D01*
X026865Y035781D02*
X026884Y035800D01*
X019000Y034669D02*
Y035800D01*
X037035Y013519D02*
Y014700D01*
X023888Y026762D02*
X024387D01*
X030650Y031350D02*
Y031988D01*
X030500Y031200D02*
X030650Y031350D01*
X030500Y027350D02*
X031088Y026762D01*
X032089*
X038619Y031419D02*
Y032000D01*
X038400Y031200D02*
X038619Y031419D01*
X038400Y027700D02*
X039326Y026774D01*
X040071*
X014950Y031400D02*
Y031988D01*
X014800Y031250D02*
X014950Y031400D01*
X014800Y027700D02*
X015738Y026762D01*
X022835Y027815D02*
X023888Y026762D01*
X015729Y022626D02*
X016374D01*
X025237Y017200D02*
Y017687D01*
X025400Y017850*
X033131Y017300D02*
Y017681D01*
X033400Y017950*
X014800Y027700D02*
Y028500D01*
X022835Y027815D02*
Y028500D01*
X030500Y027350D02*
Y028500D01*
X038400Y027700D02*
Y028500D01*
X026865Y034588D02*
Y035781D01*
X015738Y026762D02*
X016502D01*
X019000Y034669D02*
X019081Y034588D01*
X052550Y018000D02*
Y019000D01*
X051885D02*
X052550D01*
X052965*
X031679Y022526D02*
X032574D01*
X033400Y021700*
X039513Y022526D02*
X040274D01*
X041031Y021769*
X023685Y022526D02*
X024574D01*
X025400Y021700*
X054456Y012621D02*
X054500Y012665D01*
X056215*
X057100Y013550*
X017281Y017100D02*
Y021719D01*
X016374Y022626D02*
X017281Y021719D01*
X025400Y017850D02*
Y021700D01*
X033400Y017950D02*
Y021700D01*
X041031Y017300D02*
Y021769D01*
X030500Y028500D02*
Y031200D01*
X014800Y028500D02*
Y031250D01*
X022835Y028500D02*
Y031988D01*
X038400Y028500D02*
Y031200D01*
X053356Y012621D02*
X054456D01*
X051550Y025785D02*
X052187D01*
G54D25*
X046402Y024800D02*
X046972D01*
X046028Y025174D02*
X046402Y024800D01*
X045389Y025174D02*
X046028D01*
X045350Y025135D02*
X045389Y025174D01*
X046028D02*
X046250Y025396D01*
Y026050*
X046165Y023200D02*
Y023800D01*
X046028Y024426D02*
X046165Y024288D01*
X045389Y024426D02*
X046028D01*
X045350Y024465D02*
X045389Y024426D01*
X051415Y025115D02*
X051550D01*
X051250Y024950D02*
X051415Y025115D01*
X055350Y034524D02*
Y035900D01*
X058465Y032200D02*
X058800D01*
X054500Y033400D02*
X054750Y033150D01*
X056850*
X057135Y033435*
X050800Y036900D02*
X051465Y036235D01*
Y035100D02*
Y036235D01*
X050135Y035900D02*
X050800D01*
X050100Y035935D02*
X050135Y035900D01*
X052100Y035135D02*
Y035900D01*
Y035135D02*
X052135Y035100D01*
X053400Y035900D02*
X053535Y035765D01*
Y035100D02*
Y035765D01*
X052865Y034515D02*
Y035100D01*
X052400Y034050D02*
X052865Y034515D01*
X051950Y034050D02*
X052400D01*
X055474Y033900D02*
X057150D01*
X055350Y033776D02*
X055474Y033900D01*
X013350Y014700D02*
X013378Y014673D01*
X013350Y031550D02*
Y031988D01*
X015716Y030053D02*
X015755Y030014D01*
X015716Y030722D02*
X015755Y030762D01*
X017329Y030388D02*
X017450Y030267D01*
X015750Y029288D02*
X016300D01*
X020850Y031200D02*
X021335Y031685D01*
X029250Y031988D02*
X029981D01*
X029250Y031750D02*
Y031988D01*
X037219Y032000D02*
X037950D01*
X033800Y017300D02*
X034631D01*
X017950Y017100D02*
X018881D01*
X025906Y017200D02*
X026837D01*
X041700Y017300D02*
X042465D01*
X043135Y016135D02*
Y017300D01*
X035300Y016135D02*
Y017300D01*
X027506Y016135D02*
Y017200D01*
X019550Y016135D02*
Y017100D01*
X012681Y032381D02*
X012916Y032616D01*
Y033200*
X013000Y031200D02*
X013350Y031550D01*
X020665Y031988D02*
Y032465D01*
X020800Y032600*
X023500Y030053D02*
X023539Y030014D01*
X017329Y030979D02*
X018916Y032566D01*
Y033188*
X025335Y031135D02*
X026800Y032600D01*
X032850Y030950D02*
X034616Y032716D01*
Y033188*
X041015Y031065D02*
X042584Y032634D01*
Y033200*
X036550Y032000D02*
Y033135D01*
X036484Y033200D02*
X036550Y033135D01*
X028581Y031988D02*
Y033165D01*
X028616Y033200*
X015250Y030700D02*
X015272Y030722D01*
X019750Y034150D02*
Y034588D01*
X014785Y019043D02*
Y020000D01*
Y019043D02*
X014902Y018926D01*
Y018452D02*
Y018926D01*
X013516Y017066D02*
X014902Y018452D01*
X013516Y016100D02*
Y017066D01*
X021411Y017112D02*
X022741Y018441D01*
X021411Y016100D02*
Y017112D01*
X029265Y017165D02*
X030734Y018634D01*
X029265Y016100D02*
Y017165D01*
X037100Y016900D02*
X038965Y018765D01*
X037100Y016100D02*
Y016900D01*
X031016Y030722D02*
X031055Y030762D01*
X031016Y030053D02*
X031055Y030014D01*
X024200Y029288D02*
X024665D01*
X039319Y029300D02*
X039800D01*
X040346*
X032916Y026388D02*
X033362D01*
X033624Y026126*
X034306*
X034316Y026135D02*
Y027025D01*
X034306Y026126D02*
X034316Y026135D01*
Y027950D02*
X034853Y028488D01*
X035094*
X025512Y026388D02*
X025774Y026126D01*
X026491*
X026741Y027950D02*
X027278Y028488D01*
X024361Y025988D02*
X024387Y026014D01*
X040898Y026400D02*
X041350D01*
X041624Y026126*
X042275*
X042284Y026135D02*
Y027037D01*
X042275Y026126D02*
X042284Y026135D01*
Y027963D02*
X042537D01*
X043062Y028488*
X039539Y023300D02*
X040265D01*
X039513Y023274D02*
X039539Y023300D01*
X038550Y022900D02*
X038687D01*
X038276Y023174D02*
X038550Y022900D01*
X037409Y023174D02*
X038276D01*
X037400Y022263D02*
Y023165D01*
X037409Y023174*
X037147Y021337D02*
X037400D01*
X036622Y020812D02*
X037147Y021337D01*
X039635Y020000D02*
X040050D01*
X039813Y019274D02*
X040461D01*
X040500Y019235*
X031404Y020000D02*
X031900D01*
X032431*
X029565Y022263D02*
Y023162D01*
X029827Y022900D02*
X030852D01*
X029553Y023174D02*
X029565Y023162D01*
X029827Y022900*
X029291Y021337D02*
X029565D01*
X028765Y020812D02*
X029291Y021337D01*
X023685Y023274D02*
X024376D01*
X024402Y023300*
X021950Y022900D02*
X022858D01*
X021675Y023174D02*
X021950Y022900D01*
X021637Y022263D02*
Y023136D01*
X021675Y023174*
X021413Y021337D02*
X021637D01*
X020888Y020812D02*
X021413Y021337D01*
X023410Y020000D02*
X023900D01*
X024402*
X024832Y019274D02*
X024871Y019235D01*
X015454Y020000D02*
X015968D01*
X016481*
X016550Y019300D02*
X016616Y019235D01*
X015750Y025988D02*
X016476D01*
X017329Y026388D02*
X017762D01*
X018024Y026126*
X018606D02*
X018616Y026135D01*
Y027950D02*
X018856D01*
X036750Y031250D02*
X037219Y031719D01*
Y032000*
X039319Y026000D02*
X040045D01*
X040071Y026026*
X031350Y025988D02*
X032063D01*
X032089Y026014*
X031679Y023274D02*
X032405D01*
X032431Y023300*
X014550Y023000D02*
X014902D01*
X014376Y023174D02*
X014550Y023000D01*
X013771Y023174D02*
X014376D01*
X013816Y022363D02*
Y023130D01*
X013771Y023174D02*
X013816Y023130D01*
X013609Y021437D02*
X013816D01*
X012984Y020812D02*
X013609Y021437D01*
X015729Y023374D02*
X016455D01*
X016481Y023400*
X016602Y018552D02*
X016616Y018565D01*
X024832Y018526D02*
X024871Y018565D01*
X032726Y018526D02*
X032765Y018565D01*
X040461Y018526D02*
X040500Y018565D01*
X023950Y030014D02*
Y030200D01*
X031450Y030014D02*
Y030350D01*
X031055Y030014D02*
X031450D01*
X031902*
X031450Y030762D02*
Y031050D01*
X031055Y030762D02*
X031450D01*
X031902*
X038984Y030065D02*
X039265D01*
X039500Y030300*
Y030400D02*
X039874Y030026D01*
X040071*
X039500Y030300D02*
Y030400D01*
Y030500*
X038984Y030735D02*
X039085D01*
X039500Y031150*
X039876Y030774*
X040071*
X043419Y034181D02*
Y034600D01*
X023500Y030722D02*
X023539Y030762D01*
X023635Y025988D02*
X024361D01*
X026500Y027950D02*
X026741D01*
X026500Y026135D02*
Y027025D01*
X026491Y026126D02*
X026500Y026135D01*
X025213Y026388D02*
X025512D01*
X026800Y032600D02*
Y033188D01*
X020800Y032600D02*
Y033200D01*
X023635Y029288D02*
X024200D01*
X021335Y031988D02*
X022165D01*
X021335Y031685D02*
Y031988D01*
X028700Y031200D02*
X029250Y031750D01*
X019600Y034000D02*
X019750Y034150D01*
X019300Y034000D02*
X019600D01*
X016476Y025988D02*
X016502Y026014D01*
X018616Y026135D02*
Y027025D01*
X018024Y026126D02*
X018606D01*
X018856Y027950D02*
X019394Y028488D01*
X017450Y029288D02*
Y030267D01*
X017329Y030388D02*
Y030979D01*
X012681Y031988D02*
Y032381D01*
X016300Y029288D02*
X016781D01*
X013350Y031988D02*
X014281D01*
X015755Y030014D02*
X016502D01*
X015250Y030053D02*
X015716D01*
X015755Y030762D02*
X016502D01*
X015272Y030722D02*
X015716D01*
X015729Y019300D02*
X016200D01*
X016550*
X032681Y019150D02*
X032765Y019235D01*
X031679Y019274D02*
X032126D01*
X040200Y018150D02*
Y018526D01*
X039813D02*
X040200D01*
X040461*
X046165Y023800D02*
Y024150D01*
Y024288*
X051215Y018335D02*
Y019000D01*
Y018335D02*
X051550Y018000D01*
X053635Y018085D02*
Y019000D01*
X053550Y018000D02*
X053635Y018085D01*
X032250Y019150D02*
X032681D01*
X032126Y019274D02*
X032250Y019150D01*
X057135Y033435D02*
X057900D01*
Y032765D02*
X058465Y032200D01*
X031350Y029288D02*
X032181D01*
X032850D02*
Y030950D01*
X022741Y018441D02*
Y020000D01*
X031679Y018526D02*
X032726D01*
X030734Y018634D02*
Y020000D01*
X038965Y018765D02*
Y020000D01*
X023685Y018526D02*
X024832D01*
X040050Y020000D02*
Y020400D01*
X015729Y018552D02*
X016602D01*
X041015Y029300D02*
Y031065D01*
X023685Y019274D02*
X024832D01*
X025335Y029288D02*
Y031135D01*
X023539Y030014D02*
X023950D01*
X024387*
X023539Y030762D02*
X024387D01*
G54D26*
X040584Y035684D02*
X040700Y035800D01*
X040584Y033200D02*
Y035684D01*
X032616D02*
X032731Y035800D01*
X032616Y033188D02*
Y035684D01*
X024800D02*
X024916Y035800D01*
X024800Y033188D02*
Y035684D01*
X016916D02*
X017032Y035800D01*
X016916Y033188D02*
Y035684D01*
X038984Y013500D02*
X039100Y013616D01*
Y016100*
X031134Y013500D02*
X031265Y013632D01*
Y016100*
X015516Y013670D02*
Y016100D01*
X023250Y013500D02*
X023412Y013662D01*
Y016100*
G54D27*
X015346Y013500D02*
X015516Y013670D01*
X036484Y033200D02*
X036716Y033431D01*
X028616Y035584D02*
X028832Y035800D01*
X020800Y035584D02*
X021016Y035800D01*
X012916Y033200D02*
X013132Y033416D01*
X015100Y034486D02*
Y035800D01*
X014902Y034288D02*
X015100Y034486D01*
X030800Y034586D02*
Y035800D01*
X030502Y034288D02*
X030800Y034586D01*
X038684Y034414D02*
Y035800D01*
X038570Y034300D02*
X038684Y034414D01*
X017332Y013500D02*
Y015098D01*
X017330Y015100D02*
X017332Y015098D01*
X027200Y013500D02*
Y014957D01*
X027157Y015000D02*
X027200Y014957D01*
X035065Y013500D02*
Y014986D01*
X035051Y015000D02*
X035065Y014986D01*
X035265Y015214D02*
Y016100D01*
X035051Y015000D02*
X035265Y015214D01*
X027471Y015314D02*
Y016100D01*
X027157Y015000D02*
X027471Y015314D01*
X019300Y013500D02*
Y014902D01*
X019102Y015100D02*
X019300Y014902D01*
X019516Y015514D02*
Y016100D01*
X019102Y015100D02*
X019516Y015514D01*
X042886Y015000D02*
X043100Y015214D01*
X042884Y014998D02*
X042886Y015000D01*
X043100Y015214D02*
Y016100D01*
X042884Y013500D02*
Y014998D01*
X014516Y016100D02*
Y016666D01*
X014800Y016950*
X031900D02*
X032750Y016100D01*
X033265*
X030265D02*
Y016665D01*
X030550Y016950*
X031900*
X038100Y016100D02*
Y016700D01*
X038350Y016950*
X022411Y016100D02*
Y016711D01*
X022650Y016950*
X024050*
X024900Y016100*
X025471*
X038350Y016950D02*
X039750D01*
X040600Y016100*
X041100*
X014800Y016950D02*
X016100D01*
X016950Y016100*
X017516*
X017916Y032766D02*
Y033188D01*
X017400Y032250D02*
X017916Y032766D01*
X016550Y032250D02*
X017400D01*
X015600Y033200D02*
X016550Y032250D01*
X014916Y033200D02*
X015600D01*
X025250Y032250D02*
X025800Y032800D01*
X023350Y033200D02*
X024300Y032250D01*
X025250*
X033616Y032816D02*
Y033188D01*
X033050Y032250D02*
X033616Y032816D01*
X032200Y032250D02*
X033050D01*
X031250Y033200D02*
X032200Y032250D01*
X030616Y033200D02*
X031250D01*
X041100Y032250D02*
X041584Y032734D01*
Y033200*
X038484D02*
X039050D01*
X040000Y032250*
X041100*
X025800Y032800D02*
Y033188D01*
X022800Y033200D02*
X023350D01*
X022984Y034486D02*
Y035800D01*
X022786Y034288D02*
X022984Y034486D01*
X042275Y029275D02*
Y030850D01*
Y029275D02*
X043062Y028488D01*
X034306Y029275D02*
Y030850D01*
Y029275D02*
X035094Y028488D01*
X026491Y029275D02*
Y030850D01*
Y029275D02*
X027278Y028488D01*
X018606Y029275D02*
Y030850D01*
Y029275D02*
X019394Y028488D01*
X020888Y019237D02*
X021675Y018450D01*
X020888Y019237D02*
Y020812D01*
X028765Y019237D02*
X029553Y018450D01*
X028765Y019237D02*
Y020812D01*
X036622Y019237D02*
X037409Y018450D01*
X036622Y019237D02*
Y020812D01*
X025231Y014846D02*
X025386Y015000D01*
X025231Y013500D02*
Y014846D01*
X033097Y014817D02*
X033280Y015000D01*
X033097Y013500D02*
Y014817D01*
X040916Y014802D02*
X041114Y015000D01*
X040916Y013500D02*
Y014802D01*
X050529Y012621D02*
X051544D01*
X047684Y015466D02*
Y017650D01*
Y015466D02*
X050529Y012621D01*
X050150Y015700D02*
X051550D01*
X052450Y012621D02*
Y013550D01*
X028616Y033200D02*
Y035584D01*
X013132Y033416D02*
Y035800D01*
X036716Y033431D02*
Y035800D01*
X020800Y033200D02*
Y035584D01*
G54D30*
X050800Y029200D03*
X051800D03*
X052800D03*
X053800D03*
G54D31*
X053550Y018000D03*
G54D32*
X052550Y018000D03*
X051550D03*
X017916Y033188D03*
X016916D03*
X038100Y016100D03*
X039100D03*
X025800Y033188D03*
X024800D03*
X030265Y016100D03*
X031265D03*
X033616Y033188D03*
X032616D03*
X022411Y016100D03*
X023412D03*
X041584Y033200D03*
X040584D03*
X014516Y016100D03*
X015516D03*
G54D33*
X057100Y027000D03*
Y026000D03*
Y025000D03*
Y024000D03*
X060100Y027000D03*
Y026000D03*
Y025000D03*
X052100Y035900D03*
X058800Y033400D03*
X050800Y036900D03*
X058800Y030900D03*
X053400Y036900D03*
X059800Y032200D03*
X053800Y025000D03*
X045250Y026050D03*
X046250D03*
X045716Y017650D03*
X057116Y018000D03*
G54D34*
X060100Y024000D03*
X059800Y033400D03*
Y030900D03*
X058800Y032200D03*
X047250Y026050D03*
X047684Y017650D03*
X059084Y018000D03*
G54D35*
X018916Y033188D03*
X037100Y016100D03*
X026800Y033188D03*
X029265Y016100D03*
X034616Y033188D03*
X021411Y016100D03*
X042584Y033200D03*
X013516Y016100D03*
G54D36*
X017032Y035800D03*
X019000D03*
X013132D03*
X015100D03*
X024916D03*
X026884D03*
X021016D03*
X022984D03*
X032731D03*
X034700D03*
X028832D03*
X030800D03*
X040700D03*
X042668D03*
X036716D03*
X038684D03*
X038984Y013500D03*
X037016D03*
X042884D03*
X040916D03*
X031134D03*
X029165D03*
X035065D03*
X033097D03*
X023250D03*
X021281D03*
X027200D03*
X025231D03*
X015346D03*
X013378D03*
X019300D03*
X017332D03*
X048763Y035900D03*
X046795D03*
X059350D03*
X057350D03*
X055350D03*
X057100Y013550D03*
X059068D03*
X045716Y013650D03*
X047684D03*
G54D37*
X052100Y036900D03*
X050800Y035900D03*
X053400D03*
X053800Y024000D03*
G54D38*
X029582Y030850D03*
Y026126D03*
X034306Y030850D03*
Y026126D03*
X035094Y028488D03*
X037550Y030850D03*
Y026126D03*
X042275Y030850D03*
Y026126D03*
X043062Y028488D03*
X013882Y030850D03*
Y026126D03*
X018606Y030850D03*
Y026126D03*
X019394Y028488D03*
X021766Y030850D03*
Y026126D03*
X026491Y030850D03*
Y026126D03*
X027278Y028488D03*
X042134Y018450D03*
Y023174D03*
X037409Y018450D03*
Y023174D03*
X036622Y020812D03*
X034277Y018450D03*
Y023174D03*
X029553Y018450D03*
Y023174D03*
X028765Y020812D03*
X026400Y018450D03*
Y023174D03*
X021675Y018450D03*
Y023174D03*
X020888Y020812D03*
X018496Y018450D03*
Y023174D03*
X013771Y018450D03*
Y023174D03*
X012984Y020812D03*
G54D39*
X014916Y033200D03*
X012916D03*
X041100Y016100D03*
X043100D03*
X022800Y033200D03*
X020800D03*
X033265Y016100D03*
X035265D03*
X030616Y033200D03*
X028616D03*
X025471Y016100D03*
X027471D03*
X038484Y033200D03*
X036484D03*
X017516Y016100D03*
X019516D03*
G54D40*
X050150Y015700D03*
G54D41*
X050150Y014913D03*
G54D42*
X056550Y029400D03*
X058950Y029800D03*
X023900Y020000D03*
X031900D03*
X040050Y020400D03*
X027200Y017950D03*
X035200D03*
X031800Y029300D03*
X039800D03*
X020850Y031200D03*
X015968Y020000D03*
X047500Y023500D03*
Y024100D03*
X049150Y025150D03*
X050200Y025600D03*
X049350Y026550D03*
X049633Y026250D03*
X049917Y025950D03*
X044150Y020500D03*
X044450Y020850D03*
X044800Y021200D03*
X043600Y024000D03*
Y023100D03*
X046450Y021900D03*
X046050D03*
X047800Y021700D03*
X047550Y022000D03*
X047300Y022300D03*
X045650Y021900D03*
X052700Y022000D03*
X052950Y021700D03*
X053200Y021400D03*
X053450Y021100D03*
X044550Y029500D03*
X044283Y029780D03*
X044017Y030100D03*
X043700Y030350D03*
X052400Y024200D03*
X052450Y022300D03*
X050300Y022200D03*
X049742Y022900D03*
X054750Y023000D03*
X054450Y022700D03*
X054150Y022400D03*
X050037Y022550D03*
X049150Y023500D03*
X049446Y023200D03*
Y022250D03*
X051530Y020470D03*
X051800Y020800D03*
X054000Y020500D03*
X053700Y020800D03*
X054450Y021700D03*
X054150Y022000D03*
X054500Y034600D03*
Y033400D03*
X050100Y034750D03*
X051950Y034050D03*
X057150Y033900D03*
X016300Y029288D03*
X015250Y030700D03*
X013000Y031200D03*
X015250Y030053D03*
X024200Y029288D03*
X036750Y031250D03*
X023950Y030750D03*
Y030200D03*
X031450Y030350D03*
Y031050D03*
X039500Y030500D03*
Y031200D03*
X043419Y034181D03*
X014800Y028500D03*
X022835D03*
X030500D03*
X038400D03*
X035000Y034000D03*
X027150D03*
X028700Y031200D03*
X019300Y034000D03*
X013200Y015300D03*
X016200Y019300D03*
X021100Y015300D03*
X024350Y019250D03*
X019150Y017950D03*
X016200Y018550D03*
X024350Y018500D03*
X032250D03*
X028950Y015300D03*
X040200Y018150D03*
X039373Y018127D03*
X042750Y018100D03*
X036900Y015300D03*
X051250Y014800D03*
X051800D03*
X052350D03*
X052900D03*
X053450D03*
Y015400D03*
X052900D03*
X052350D03*
X051800D03*
X051250D03*
X053450Y016000D03*
X052900D03*
X052350D03*
X051800D03*
X051250D03*
X048400Y021035D03*
X046165Y024150D03*
X055750Y025450D03*
X046100Y027700D03*
X046065Y031660D03*
X049535Y031665D03*
X046350Y033900D03*
X032250Y019150D03*
X017250Y021700D03*
X025400D03*
X033400D03*
X041050D03*
X051850Y025800D03*
X017200Y024100D03*
X042900Y026800D03*
X043150Y027150D03*
X025050Y024050D03*
X050750Y032050D03*
G54D43*
X052250Y025848D03*
Y025100D03*
X055350Y033776D03*
Y034524D03*
G54D44*
X046028Y025174D03*
Y024426D03*
X046972D03*
Y024800D03*
Y025174D03*
G54D45*
X053361Y012650D03*
G54D46*
X052456Y012650D03*
X051550D03*
G54D47*
X052456Y015307D03*
G54D48*
X051694Y023783D03*
Y023586D03*
Y023389D03*
Y023192D03*
Y022995D03*
Y022798D03*
Y022602D03*
Y022405D03*
Y022208D03*
Y022011D03*
Y021814D03*
Y021617D03*
X048506D03*
Y021814D03*
Y022011D03*
Y022208D03*
Y022405D03*
Y022602D03*
Y022798D03*
Y022995D03*
Y023192D03*
Y023389D03*
Y023586D03*
Y023783D03*
G54D49*
X051183Y021106D03*
X050986D03*
X050789D03*
X050592D03*
X050395D03*
X050198D03*
X050002D03*
X049805D03*
X049608D03*
X049411D03*
X049214D03*
X049017D03*
Y024294D03*
X049214D03*
X049411D03*
X049608D03*
X049805D03*
X050002D03*
X050198D03*
X050395D03*
X050592D03*
X050789D03*
X050986D03*
X051183D03*
G54D50*
X032089Y026014D03*
Y026762D03*
X032916Y026388D03*
X040071Y026026D03*
Y026774D03*
X040898Y026400D03*
X016502Y026014D03*
Y026762D03*
X017329Y026388D03*
X024387Y026014D03*
Y026762D03*
X025213Y026388D03*
X039513Y023274D03*
Y022526D03*
X038687Y022900D03*
X016502Y030014D03*
Y030762D03*
X017329Y030388D03*
X024387Y030014D03*
Y030762D03*
X025213Y030388D03*
X031679Y023274D03*
Y022526D03*
X030852Y022900D03*
X031902Y030014D03*
Y030762D03*
X032729Y030388D03*
X040071Y030026D03*
Y030774D03*
X040898Y030400D03*
X023685Y023274D03*
Y022526D03*
X022858Y022900D03*
X039813Y019274D03*
Y018526D03*
X038987Y018900D03*
X031679Y019274D03*
Y018526D03*
X030852Y018900D03*
X015729Y023374D03*
Y022626D03*
X014902Y023000D03*
X023685Y019274D03*
Y018526D03*
X022858Y018900D03*
X015729Y019300D03*
Y018552D03*
X014902Y018926D03*
G54D51*
X014902Y034288D03*
X013130D03*
X041114Y015000D03*
X042886D03*
X022786Y034288D03*
X021014D03*
X033280Y015000D03*
X035051D03*
X030502Y034288D03*
X028730D03*
X025386Y015000D03*
X027157D03*
X038570Y034300D03*
X036798D03*
X017330Y015100D03*
X019102D03*
G54D52*
X050750Y022725D03*
G54D53*
X050250Y021950D03*
G54D54*
X053400Y015175D03*
M02*