%FSDAX24Y24*%
%MOIN*%
%SFA1B1*%

%IPPOS*%
%ADD9500C,0.010000*%
%ADD9501C,0.027600*%
%ADD9502C,0.030000*%
%ADD9503C,0.031500*%
%ADD9504C,0.035400*%
%ADD9505C,0.039400*%
%ADD9506C,0.043300*%
%ADD9507C,0.055100*%
%LNde-010824-1*%
%LPD*%
G54D9500*
X013200Y015300D03*
X021100D03*
X028950D03*
X036900D03*
X051250Y015400D03*
X051800D03*
X052350D03*
X052900D03*
X053450D03*
Y014800D03*
X052900D03*
X052350D03*
X051800D03*
X051250D03*
Y016000D03*
X051800D03*
X052350D03*
X052900D03*
X053450D03*
X054000Y020500D03*
X053700Y020800D03*
X053450Y021100D03*
X053200Y021400D03*
X052950Y021700D03*
X052700Y022000D03*
X052450Y022300D03*
X054150Y022400D03*
Y022000D03*
X054450Y021700D03*
Y022700D03*
X054750Y023000D03*
X055750Y025450D03*
X051850Y025800D03*
X050200Y025600D03*
X049917Y025950D03*
X049633Y026250D03*
X049350Y026550D03*
X049150Y025150D03*
Y023500D03*
X049446Y023200D03*
X049742Y022900D03*
X050037Y022550D03*
X050300Y022200D03*
X049446Y022250D03*
X047550Y022000D03*
X047800Y021700D03*
X047300Y022300D03*
X047500Y023500D03*
Y024100D03*
X048400Y021035D03*
X051800Y020800D03*
X051530Y020470D03*
X052400Y024200D03*
X056550Y029400D03*
X058950Y029800D03*
X044283Y029780D03*
X044550Y029500D03*
X044017Y030100D03*
X043700Y030350D03*
X043150Y027150D03*
X042900Y026800D03*
X043600Y024000D03*
Y023100D03*
X044450Y020850D03*
X044150Y020500D03*
X044800Y021200D03*
X045650Y021900D03*
X046050D03*
X046450D03*
X046165Y024150D03*
X046100Y027700D03*
X039800Y029300D03*
X039500Y030500D03*
Y031200D03*
X038400Y028500D03*
X031800Y029300D03*
X031450Y030350D03*
Y031050D03*
X033400Y021700D03*
X031900Y020000D03*
X032250Y019150D03*
Y018500D03*
X035200Y017950D03*
X039373Y018127D03*
X040200Y018150D03*
X040050Y020400D03*
X041050Y021700D03*
X042750Y018100D03*
X027200Y017950D03*
X024350Y018500D03*
Y019250D03*
X023900Y020000D03*
X025400Y021700D03*
X025050Y024050D03*
X024200Y029288D03*
X023950Y030200D03*
Y030750D03*
X022835Y028500D03*
X020850Y031200D03*
X016300Y029288D03*
X017200Y024100D03*
X017250Y021700D03*
X015968Y020000D03*
X016200Y019300D03*
Y018550D03*
X019150Y017950D03*
X030500Y028500D03*
X028700Y031200D03*
X015250Y030700D03*
Y030053D03*
X014800Y028500D03*
X013000Y031200D03*
X019300Y034000D03*
X027150D03*
X035000D03*
X036750Y031250D03*
X043419Y034181D03*
X046350Y033900D03*
X046065Y031660D03*
X049535Y031665D03*
X050750Y032050D03*
X051950Y034050D03*
X050100Y034750D03*
X054500Y034600D03*
Y033400D03*
X057150Y033900D03*
G54D9501*
X033265Y016100D03*
X035265D03*
X041100D03*
X043100D03*
X027471D03*
X025471D03*
X019516D03*
X017516D03*
X014916Y033200D03*
X012916D03*
X020800D03*
X022800D03*
X028616D03*
X030616D03*
X036484D03*
X038484D03*
G54D9502*
X050800Y029200D03*
X051800D03*
X052800D03*
X053800D03*
G54D9503*
X050150Y014913D03*
Y015700D03*
G54D9504*
X047684Y017650D03*
X047250Y026050D03*
X053800Y025000D03*
Y024000D03*
X057100D03*
Y025000D03*
Y026000D03*
Y027000D03*
X060100D03*
Y026000D03*
Y025000D03*
Y024000D03*
X059084Y018000D03*
X057116D03*
X058800Y030900D03*
X059800D03*
X046250Y026050D03*
X045250D03*
X045716Y017650D03*
X050800Y035900D03*
Y036900D03*
X052100D03*
Y035900D03*
X053400D03*
Y036900D03*
X058800Y033400D03*
X059800D03*
Y032200D03*
X058800D03*
G54D9505*
X013378Y013500D03*
X015346D03*
X017332D03*
X019300D03*
X021281D03*
X023250D03*
X025231D03*
X027200D03*
X029165D03*
X031134D03*
X033097D03*
X035065D03*
X037016D03*
X038984D03*
X040916D03*
X042884D03*
X045716Y013650D03*
X047684D03*
X057100Y013550D03*
X059068D03*
X015100Y035800D03*
X013132D03*
X017032D03*
X019000D03*
X021016D03*
X022984D03*
X024916D03*
X026884D03*
X028832D03*
X030800D03*
X032731D03*
X034700D03*
X036716D03*
X038684D03*
X040700D03*
X042668D03*
X046795Y035900D03*
X048763D03*
X055350D03*
X057350D03*
X059350D03*
G54D9506*
X051550Y018000D03*
X052550D03*
X053550D03*
X039100Y016100D03*
X038100D03*
X037100D03*
X031265D03*
X030265D03*
X029265D03*
X023412D03*
X022411D03*
X021411D03*
X015516D03*
X014516D03*
X013516D03*
X016916Y033188D03*
X017916D03*
X018916D03*
X024800D03*
X025800D03*
X026800D03*
X032616D03*
X033616D03*
X034616D03*
X040584Y033200D03*
X041584D03*
X042584D03*
G54D9507*
X034277Y018450D03*
X037409D03*
X036622Y020812D03*
X037409Y023174D03*
X037550Y026126D03*
X034306D03*
X034277Y023174D03*
X035094Y028488D03*
X034306Y030850D03*
X037550D03*
X042275D03*
X043062Y028488D03*
X042275Y026126D03*
X042134Y023174D03*
Y018450D03*
X029553D03*
X028765Y020812D03*
X029553Y023174D03*
X029582Y026126D03*
X026491D03*
X026400Y023174D03*
Y018450D03*
X021675D03*
X020888Y020812D03*
X021675Y023174D03*
X021766Y026126D03*
X018606D03*
X018496Y023174D03*
Y018450D03*
X019394Y028488D03*
X018606Y030850D03*
X021766D03*
X026491D03*
X029582D03*
X027278Y028488D03*
X013882Y026126D03*
X013771Y023174D03*
X012984Y020812D03*
X013771Y018450D03*
X013882Y030850D03*
M02*