%FSDAX24Y24*%
%MOIN*%
%SFA1B1*%

%IPPOS*%
%ADD10R,0.059100X0.023600*%
%ADD11O,0.059100X0.023600*%
%ADD12O,0.074800X0.023600*%
%ADD13R,0.043300X0.039400*%
%ADD14R,0.090600X0.090600*%
%ADD15R,0.039400X0.043300*%
%ADD16O,0.013800X0.055100*%
%ADD17O,0.011800X0.070900*%
%ADD18O,0.070900X0.011800*%
%ADD19R,0.051200X0.023600*%
%ADD20R,0.021700X0.057100*%
%ADD21R,0.051200X0.059100*%
%ADD22C,0.059100*%
%ADD23R,0.061000X0.135800*%
%ADD24R,0.061000X0.043300*%
%ADD25R,0.061000X0.043300*%
%ADD26R,0.045300X0.035400*%
%ADD27C,0.030000*%
%ADD28C,0.020000*%
%ADD29C,0.010000*%
%ADD30R,0.215000X0.160000*%
%ADD31R,0.245000X0.480000*%
%ADD32R,0.220000X0.215000*%
%ADD33R,0.053100X0.053100*%
%ADD34C,0.053100*%
%ADD35C,0.060000*%
%ADD36C,0.047200*%
%ADD37R,0.059100X0.059100*%
%ADD38C,0.059100*%
%ADD39R,0.059100X0.059100*%
%ADD40C,0.066900*%
%ADD41R,0.066900X0.066900*%
%ADD42C,0.098400*%
%ADD43R,0.059100X0.059100*%
%ADD44C,0.030000*%
%LNde-080324-1*%
%LPD*%
G54D10*
X021538Y022650D03*
G54D11*
X021538Y021650D03*
X023900Y022650D03*
Y021650D03*
G54D12*
X022475Y018150D03*
Y017650D03*
Y017150D03*
Y016650D03*
X024325Y018150D03*
Y017650D03*
Y017150D03*
Y016650D03*
G54D13*
X023815Y018800D03*
X024485D03*
X015265Y023000D03*
X015935D03*
X016300Y019750D03*
X015631D03*
X021765Y015750D03*
X022435D03*
X023815Y015950D03*
X024485D03*
X013665Y019950D03*
X014335D03*
X013085Y018313D03*
X012415D03*
X013085Y017487D03*
X012415D03*
X017865Y015000D03*
X018535D03*
X013365Y016700D03*
X014035D03*
X013365Y016100D03*
X014035D03*
X013365Y015500D03*
X014035D03*
X013365Y014900D03*
X014035D03*
X012765Y024600D03*
X013435D03*
X016035Y015000D03*
X015365D03*
X016035Y014400D03*
X015365D03*
G54D14*
X024050Y026836D03*
Y025064D03*
G54D15*
X018650Y025635D03*
Y024965D03*
X017950Y020615D03*
Y021285D03*
X018550Y020615D03*
Y021285D03*
X015950Y021615D03*
Y022285D03*
X015350Y021615D03*
Y022285D03*
X014750Y021615D03*
Y022285D03*
X021700Y018185D03*
Y017515D03*
X021100Y018185D03*
Y017515D03*
X012000Y025115D03*
Y025785D03*
Y024135D03*
Y023465D03*
X018650Y026715D03*
Y027385D03*
X018050Y026715D03*
Y027385D03*
X012000Y026765D03*
Y027435D03*
G54D16*
X017334Y022902D03*
X017078D03*
X016822D03*
X016566D03*
X017334Y020698D03*
X017078D03*
X016822D03*
X016566D03*
G54D17*
X015667Y018944D03*
X015864D03*
X016061D03*
X016258D03*
X016455D03*
X016652D03*
X016848D03*
X017045D03*
X017242D03*
X017439D03*
X017636D03*
X017833D03*
Y015756D03*
X017636D03*
X017439D03*
X017242D03*
X017045D03*
X016848D03*
X016652D03*
X016455D03*
X016258D03*
X016061D03*
X015864D03*
X015667D03*
G54D18*
X018344Y018433D03*
Y018236D03*
Y018039D03*
Y017842D03*
Y017645D03*
Y017448D03*
Y017252D03*
Y017055D03*
Y016858D03*
Y016661D03*
Y016464D03*
Y016267D03*
X015156D03*
Y016464D03*
Y016661D03*
Y016858D03*
Y017055D03*
Y017252D03*
Y017448D03*
Y017645D03*
Y017842D03*
Y018039D03*
Y018236D03*
Y018433D03*
G54D19*
X022750Y014500D03*
X021923Y014126D03*
Y014874D03*
G54D20*
X022750Y013313D03*
Y012387D03*
G54D21*
X014300Y019050D03*
X013552D03*
X013524Y025450D03*
X012776D03*
X013524Y026450D03*
X012776D03*
X013524Y027400D03*
X012776D03*
G54D22*
X011300Y011250D03*
X021100Y010550D03*
X016100Y013550D03*
X017100D03*
X018100D03*
X019100D03*
X020100D03*
X021100D03*
X011050Y023450D03*
Y024450D03*
Y025450D03*
Y026450D03*
X022100Y020100D03*
X023100D03*
G54D23*
X014421Y026450D03*
G54D24*
X017079Y027356D03*
Y026450D03*
G54D25*
X017079Y025545D03*
G54D26*
X018150Y022822D03*
Y022050D03*
G54D27*
X024050Y026736D02*
X024533Y027218D01*
X012776Y020724D02*
Y025150D01*
X014335Y019085D02*
Y019950D01*
X013552Y019050D02*
Y019637D01*
X012600Y019050D02*
X013552D01*
X015050D02*
X015350Y018750D01*
X017079Y027356D02*
X019844D01*
X010635Y023465D02*
X012000D01*
X013365Y015500D02*
Y016100D01*
Y016700*
X014421Y026450D02*
X017079D01*
X013524D02*
X014421D01*
X017079Y025545D02*
X017544D01*
X017079Y027356D02*
Y028371D01*
X018800Y023100D02*
Y023450D01*
X018522Y022822D02*
X018800Y023100D01*
X018150Y022822D02*
X018522D01*
X012415Y016700D02*
Y017487D01*
Y011385D02*
Y016700D01*
X013250Y010550D02*
X016100D01*
X012415Y011385D02*
X013250Y010550D01*
X018800Y023450D02*
X022450D01*
X014735Y022300D02*
X014750Y022285D01*
X013700Y022300D02*
X014735D01*
X012950Y014900D02*
X013365D01*
X014335Y019085D02*
X014342Y019069D01*
X012776Y020724D02*
X013050Y020450D01*
X013665Y019950D02*
Y020350D01*
X015300Y020450D02*
X015631Y020119D01*
X013050Y020450D02*
X014750D01*
X015300*
X013665Y019750D02*
Y019950D01*
X015631Y019750D02*
Y020119D01*
X013552Y019637D02*
X013665Y019750D01*
X012415Y018865D02*
X012600Y019050D01*
X012415Y018313D02*
Y018865D01*
Y017487D02*
Y018313D01*
Y016700D02*
X013365D01*
X027750Y020300D02*
Y027750D01*
Y013175D02*
Y020300D01*
X023550Y018800D02*
X023815D01*
X021250D02*
X023550D01*
X023815D02*
Y020735D01*
X023580Y016870D02*
Y018770D01*
X023550Y018800D02*
X023580Y018770D01*
X021100Y018185D02*
Y018650D01*
X021250Y018800*
X023450Y021100D02*
X023815Y020735D01*
X022450Y021100D02*
X023450D01*
X022450Y021650D02*
Y023450D01*
Y021100D02*
Y021650D01*
Y023450D02*
X023550D01*
X022100Y020100D02*
Y020750D01*
X022450Y021100*
X023550Y023450D02*
X024150Y024050D01*
X025350*
X026550Y025250*
X022200Y025950D02*
Y026713D01*
Y025950D02*
X025850D01*
X022200D02*
D01*
X025850D02*
X026550Y025250D01*
X018650Y026000D02*
Y026715D01*
Y025635D02*
Y026000D01*
X018700Y025950*
X020250*
X022200Y025344D02*
Y025950D01*
D01*
X020250D02*
X022200D01*
X017635Y025635D02*
X018650D01*
X017544Y025545D02*
X017635Y025635D01*
X018050Y026715D02*
X018650D01*
X015265Y023000D02*
Y023950D01*
Y022300D02*
Y023000D01*
X012000Y024135D02*
Y025115D01*
X011685Y024450D02*
X012000Y024135D01*
X011050Y024450D02*
X011685D01*
X012776Y025150D02*
Y025450D01*
X012741Y025115D02*
X012776Y025150D01*
X012000Y025115D02*
X012741D01*
X012776Y026450D02*
Y027400D01*
Y025450D02*
Y026450D01*
X010350Y028200D02*
X010700Y028550D01*
X010350Y023750D02*
Y028200D01*
Y023750D02*
X010635Y023465D01*
X016900Y028550D02*
X017079Y028371D01*
X010700Y028550D02*
X016900D01*
X022200Y027500D02*
X022900Y028200D01*
X027300*
X027750Y027750*
X025850Y011275D02*
X027750Y013175D01*
X024600Y021550D02*
X024850Y021300D01*
X026600*
X024350Y022800D02*
X024818Y023268D01*
X026600*
X024533Y027218D02*
X026550D01*
X018650Y024965D02*
X018665Y024950D01*
X020250*
X020950*
X021344Y024556*
X022200*
X023642*
X024050Y024964*
X020800Y027500D02*
X022200D01*
X020250Y026950D02*
X020800Y027500D01*
X019844Y027356D02*
X020250Y026950D01*
X013524Y024974D02*
Y025450D01*
X013435Y024885D02*
X013524Y024974D01*
X013435Y024600D02*
Y024885D01*
X013524Y026450D02*
Y027400D01*
Y025450D02*
Y026450D01*
X014342Y019069D02*
X014360Y019050D01*
X015050*
X014750Y022285D02*
X015250D01*
X015350D02*
X015950D01*
G54D28*
X016350Y022900D02*
X017700D01*
X022750Y014500D02*
X025775D01*
X014035Y015500D02*
Y016100D01*
X024966Y017650D02*
X026600Y019284D01*
X024325Y017650D02*
X024966D01*
X026434Y017150D02*
X026600Y017316D01*
X024325Y017150D02*
X026434D01*
X024800Y020300D02*
X027750D01*
X024485Y019985D02*
X024800Y020300D01*
X024485Y018800D02*
Y019985D01*
X021923Y011373D02*
Y014126D01*
X021100Y010550D02*
X021923Y011373D01*
X020100Y010550D02*
X021100D01*
X019100D02*
X020100D01*
X018100D02*
X019100D01*
X017100D02*
X018100D01*
X016100D02*
X017100D01*
X014035Y014900D02*
Y015500D01*
Y014900D02*
D01*
X024325Y018150D02*
X024485Y018309D01*
Y018800*
Y015950D02*
Y016491D01*
X024325Y016650D02*
X024485Y016491D01*
X023800Y016650D02*
X024325D01*
X023580Y016870D02*
X023800Y016650D01*
X021538Y021650D02*
X022450D01*
X017778Y022822D02*
X018150D01*
X017700Y022900D02*
X017778Y022822D01*
X016250Y023000D02*
X016350Y022900D01*
X015935Y023000D02*
X016250D01*
X023900Y021650D02*
X024500D01*
X024600Y021550*
X023900Y022650D02*
X024200D01*
X024350Y022800*
X023275Y011275D02*
X025850D01*
X022750Y011800D02*
X023275Y011275D01*
X022750Y011800D02*
Y012387D01*
Y013313D02*
Y014500D01*
X011065Y027435D02*
X012000D01*
G54D29*
X014917Y018433D02*
X015156D01*
X015667Y018944*
X017833D02*
Y019483D01*
X017242Y018944D02*
Y019792D01*
X016455Y018944D02*
Y019345D01*
X014906Y015756D02*
X015667D01*
X013085Y017450D02*
X013121Y017487D01*
X014492Y017842D02*
X015156D01*
X016652Y018944D02*
Y020048D01*
X015864Y018944D02*
Y019386D01*
X017636Y015756D02*
Y016214D01*
X015864Y017314D02*
Y018944D01*
X017636Y015230D02*
Y015756D01*
X014561Y018039D02*
X015156D01*
X014708Y016858D02*
X015156D01*
X016848Y018944D02*
Y020152D01*
X017045Y018944D02*
Y020095D01*
X014452Y017252D02*
X015156D01*
X017439Y018944D02*
Y019639D01*
X021923Y014874D02*
X022224D01*
X017833Y015756D02*
X017988Y015600D01*
X017045Y014700D02*
Y015756D01*
X018344Y016267D02*
X018783D01*
X018344Y017842D02*
X020042D01*
X016652Y015252D02*
Y015756D01*
X017439Y013889D02*
Y015756D01*
X018344Y016858D02*
X018956D01*
X015156Y017055D02*
X016045D01*
X017242Y014642D02*
Y015756D01*
X016848Y014848D02*
Y015756D01*
X018344Y016661D02*
X018898D01*
X018344Y016464D02*
X018840D01*
X018344Y017448D02*
X020483D01*
X018344Y018039D02*
X019289D01*
X018344Y017252D02*
X020498D01*
X023050Y016350D02*
X023450Y015950D01*
X023050Y016350D02*
Y017400D01*
X022475D02*
Y017650D01*
Y017150D02*
Y017400D01*
X023050*
X016800Y017050D02*
X017636Y016214D01*
X016050Y017050D02*
X016800D01*
X016045Y017055D02*
X016050Y017050D01*
X018450Y015500D02*
X018535Y015415D01*
X018350Y015600D02*
X018450Y015500D01*
X014900Y014400D02*
X015365D01*
X014900Y015000D02*
X015365D01*
X014900Y015750D02*
X014906Y015756D01*
X012000Y026250D02*
Y026765D01*
Y025785D02*
Y026250D01*
X020550Y017515D02*
X021100D01*
X020483Y017448D02*
X020550Y017515D01*
X021100D02*
X021700D01*
X020450Y019200D02*
X022700D01*
X019289Y018039D02*
X020450Y019200D01*
X018900Y020100D02*
X021100D01*
X018600Y019800D02*
X018900Y020100D01*
X018150Y019800D02*
X018600D01*
X017833Y019483D02*
X018150Y019800D01*
X022700Y019200D02*
X023100Y019600D01*
Y020100*
X025775Y014500D02*
X025850Y014425D01*
X015631Y019619D02*
Y019750D01*
Y019619D02*
X015864Y019386D01*
X011050Y027450D02*
X011065Y027435D01*
X022435Y015085D02*
Y015750D01*
X022224Y014874D02*
X022435Y015085D01*
X019100Y022650D02*
X021538D01*
X018550Y022100D02*
X019100Y022650D01*
X018550Y021285D02*
Y022100D01*
X018150Y021750D02*
Y022050D01*
X017950Y021550D02*
X018150Y021750D01*
X017950Y021285D02*
Y021550D01*
X015250Y022285D02*
X015350D01*
X015250D02*
X015265Y022300D01*
X015950Y022285D02*
X016365D01*
X017334Y021316*
Y020698D02*
Y021316D01*
X016300Y019500D02*
Y019750D01*
Y019500D02*
X016455Y019345D01*
X014035Y016700D02*
Y016835D01*
X014452Y017252*
X014035Y016100D02*
X014300D01*
X014500Y016300*
Y016650*
X014708Y016858*
X018783Y016267D02*
X018920Y016130D01*
Y014370D02*
Y016130D01*
X018100Y013550D02*
X018920Y014370D01*
X018956Y016858D02*
X019460Y016354D01*
Y014445D02*
Y016354D01*
X018898Y016661D02*
X019280Y016279D01*
Y014370D02*
Y016279D01*
X019100Y013550D02*
Y016205D01*
X018840Y016464D02*
X019100Y016205D01*
X019460Y014445D02*
X019855Y014050D01*
X020600*
X019280Y014370D02*
X020100Y013550D01*
X020600Y014050D02*
X021100Y013550D01*
X023450Y015950D02*
X023815D01*
X021700Y018185D02*
X021735Y018150D01*
X022475*
X021100Y016650D02*
X022475D01*
X020498Y017252D02*
X021100Y016650D01*
X015000Y021000D02*
X016500D01*
X014750Y021250D02*
X015000Y021000D01*
X014750Y021250D02*
Y021615D01*
X016566Y020698D02*
Y020934D01*
X016500Y021000D02*
X016566Y020934D01*
X016650Y021200D02*
X016822Y021028D01*
X015450Y021200D02*
X016650D01*
X015350Y021300D02*
X015450Y021200D01*
X016535Y021615D02*
X017078Y021072D01*
X015950Y021615D02*
X016535D01*
X018550Y020200D02*
Y020615D01*
X018450Y020100D02*
X018550Y020200D01*
X017900Y020100D02*
X018450D01*
X017439Y019639D02*
X017900Y020100D01*
X017950Y020500D02*
Y020615D01*
X017242Y019792D02*
X017950Y020500D01*
X017045Y020095D02*
X017078Y020128D01*
Y020698*
X016848Y018944D02*
X016856D01*
X016822Y020178D02*
X016848Y020152D01*
X016822Y020178D02*
Y020698D01*
X016566Y020134D02*
Y020698D01*
Y020134D02*
X016652Y020048D01*
X015350Y021300D02*
Y021615D01*
X016822Y020698D02*
Y021028D01*
X017078Y020698D02*
Y021072D01*
X014050Y018313D02*
X014287D01*
X014561Y018039*
X013085Y018313D02*
X014050D01*
X013121Y017487D02*
X014050D01*
X014137*
X014492Y017842*
X015800Y014000D02*
X016345D01*
X015500Y013700D02*
X015800Y014000D01*
X015500Y013250D02*
Y013700D01*
X015800Y012950D02*
X021350D01*
X015500Y013250D02*
X015800Y012950D01*
X021350D02*
X021600Y013200D01*
Y013800*
X021300Y014100D02*
X021600Y013800D01*
X021450Y015750D02*
X021765D01*
X021300Y015600D02*
X021450Y015750D01*
X021300Y014100D02*
Y015600D01*
X016345Y014000D02*
X017045Y014700D01*
X016400Y014400D02*
X016848Y014848D01*
X016035Y014400D02*
X016400D01*
Y015000D02*
X016652Y015252D01*
X016035Y015000D02*
X016400D01*
X017100Y013550D02*
X017439Y013889D01*
X016100Y013550D02*
X016150D01*
X017242Y014642*
X018535Y015000D02*
Y015415D01*
X017988Y015600D02*
X018350D01*
X017636Y015230D02*
X017865Y015000D01*
G54D30*
X016925Y024250D03*
G54D31*
X015275Y025850D03*
G54D32*
X016750Y017375D03*
G54D33*
X022200Y024556D03*
Y027500D03*
G54D34*
X022200Y025344D03*
Y026713D03*
G54D35*
X025850Y011275D03*
Y014425D03*
G54D36*
X014050Y017487D03*
Y018313D03*
G54D37*
X016100Y010550D03*
G54D38*
X017100Y010550D03*
X018100D03*
X019100D03*
X020100D03*
G54D39*
X011050Y027450D03*
G54D40*
X020250Y026950D03*
Y025950D03*
G54D41*
X020250Y024950D03*
G54D42*
X026550Y027218D03*
Y025250D03*
X026600Y021300D03*
Y023268D03*
Y017316D03*
Y019284D03*
G54D43*
X021100Y020100D03*
G54D44*
X018800Y023450D03*
X012800D03*
X023050Y017400D03*
X020050Y017850D03*
X013700Y022300D03*
X012950Y014900D03*
X014350Y019550D03*
X014750Y020450D03*
X018450Y015500D03*
X014900Y015000D03*
Y014400D03*
Y015750D03*
X012000Y026250D03*
M02*