%FSDAX24Y24*%
%MOIN*%
%SFA1B1*%

%IPPOS*%
%ADD10R,0.059100X0.023600*%
%ADD11O,0.059100X0.023600*%
%ADD12O,0.074800X0.023600*%
%ADD13R,0.043300X0.039400*%
%ADD14R,0.090600X0.090600*%
%ADD15R,0.039400X0.043300*%
%ADD16O,0.013800X0.055100*%
%ADD17O,0.011800X0.070900*%
%ADD18O,0.070900X0.011800*%
%ADD19R,0.051200X0.023600*%
%ADD20R,0.021700X0.057100*%
%ADD21R,0.051200X0.059100*%
%ADD22C,0.059100*%
%ADD23R,0.061000X0.135800*%
%ADD24R,0.061000X0.043300*%
%ADD25R,0.061000X0.043300*%
%ADD26R,0.045300X0.035400*%
%ADD33R,0.053100X0.053100*%
%ADD34C,0.053100*%
%ADD35C,0.060000*%
%ADD36C,0.047200*%
%ADD37R,0.059100X0.059100*%
%ADD38C,0.059100*%
%ADD39R,0.059100X0.059100*%
%ADD40C,0.066900*%
%ADD41R,0.066900X0.066900*%
%ADD42C,0.098400*%
%ADD43R,0.059100X0.059100*%
%LNde-080324-1*%
%LPD*%
G54D10*
X021538Y022650D03*
G54D11*
X021538Y021650D03*
X023900Y022650D03*
Y021650D03*
G54D12*
X022475Y018150D03*
Y017650D03*
Y017150D03*
Y016650D03*
X024325Y018150D03*
Y017650D03*
Y017150D03*
Y016650D03*
G54D13*
X023815Y018800D03*
X024485D03*
X015265Y023000D03*
X015935D03*
X016300Y019750D03*
X015631D03*
X021765Y015750D03*
X022435D03*
X023815Y015950D03*
X024485D03*
X013665Y019950D03*
X014335D03*
X013085Y018313D03*
X012415D03*
X013085Y017487D03*
X012415D03*
X017865Y015000D03*
X018535D03*
X013365Y016700D03*
X014035D03*
X013365Y016100D03*
X014035D03*
X013365Y015500D03*
X014035D03*
X013365Y014900D03*
X014035D03*
X012765Y024600D03*
X013435D03*
X016035Y015000D03*
X015365D03*
X016035Y014400D03*
X015365D03*
G54D14*
X024050Y026836D03*
Y025064D03*
G54D15*
X018650Y025635D03*
Y024965D03*
X017950Y020615D03*
Y021285D03*
X018550Y020615D03*
Y021285D03*
X015950Y021615D03*
Y022285D03*
X015350Y021615D03*
Y022285D03*
X014750Y021615D03*
Y022285D03*
X021700Y018185D03*
Y017515D03*
X021100Y018185D03*
Y017515D03*
X012000Y025115D03*
Y025785D03*
Y024135D03*
Y023465D03*
X018650Y026715D03*
Y027385D03*
X018050Y026715D03*
Y027385D03*
X012000Y026765D03*
Y027435D03*
G54D16*
X017334Y022902D03*
X017078D03*
X016822D03*
X016566D03*
X017334Y020698D03*
X017078D03*
X016822D03*
X016566D03*
G54D17*
X015667Y018944D03*
X015864D03*
X016061D03*
X016258D03*
X016455D03*
X016652D03*
X016848D03*
X017045D03*
X017242D03*
X017439D03*
X017636D03*
X017833D03*
Y015756D03*
X017636D03*
X017439D03*
X017242D03*
X017045D03*
X016848D03*
X016652D03*
X016455D03*
X016258D03*
X016061D03*
X015864D03*
X015667D03*
G54D18*
X018344Y018433D03*
Y018236D03*
Y018039D03*
Y017842D03*
Y017645D03*
Y017448D03*
Y017252D03*
Y017055D03*
Y016858D03*
Y016661D03*
Y016464D03*
Y016267D03*
X015156D03*
Y016464D03*
Y016661D03*
Y016858D03*
Y017055D03*
Y017252D03*
Y017448D03*
Y017645D03*
Y017842D03*
Y018039D03*
Y018236D03*
Y018433D03*
G54D19*
X022750Y014500D03*
X021923Y014126D03*
Y014874D03*
G54D20*
X022750Y013313D03*
Y012387D03*
G54D21*
X014300Y019050D03*
X013552D03*
X013524Y025450D03*
X012776D03*
X013524Y026450D03*
X012776D03*
X013524Y027400D03*
X012776D03*
G54D22*
X011300Y011250D03*
X021100Y010550D03*
X016100Y013550D03*
X017100D03*
X018100D03*
X019100D03*
X020100D03*
X021100D03*
X011050Y023450D03*
Y024450D03*
Y025450D03*
Y026450D03*
X022100Y020100D03*
X023100D03*
G54D23*
X014421Y026450D03*
G54D24*
X017079Y027356D03*
Y026450D03*
G54D25*
X017079Y025545D03*
G54D26*
X018150Y022822D03*
Y022050D03*
G54D33*
X022200Y024556D03*
Y027500D03*
G54D34*
X022200Y025344D03*
Y026713D03*
G54D35*
X025850Y011275D03*
Y014425D03*
G54D36*
X014050Y017487D03*
Y018313D03*
G54D37*
X016100Y010550D03*
G54D38*
X017100Y010550D03*
X018100D03*
X019100D03*
X020100D03*
G54D39*
X011050Y027450D03*
G54D40*
X020250Y026950D03*
Y025950D03*
G54D41*
X020250Y024950D03*
G54D42*
X026550Y027218D03*
Y025250D03*
X026600Y021300D03*
Y023268D03*
Y017316D03*
Y019284D03*
G54D43*
X021100Y020100D03*
M02*