%FSDAX24Y24*%
%MOIN*%
%SFA1B1*%

%IPPOS*%
%ADD29C,0.010000*%
%ADD83C,0.003900*%
%LNde-080324-1*%
%LPD*%
G54D29*
X027337Y027218D02*
D01*
X027335Y027272*
X027329Y027327*
X027319Y027381*
X027306Y027434*
X027289Y027487*
X027268Y027538*
X027244Y027587*
X027217Y027635*
X027186Y027680*
X027152Y027723*
X027116Y027764*
X027076Y027802*
X027034Y027838*
X026990Y027870*
X026943Y027899*
X026894Y027925*
X026844Y027947*
X026793Y027966*
X026740Y027981*
X026686Y027993*
X026632Y028000*
X026577Y028004*
X026522*
X026467Y028000*
X026413Y027993*
X026359Y027981*
X026306Y027966*
X026255Y027947*
X026205Y027925*
X026156Y027899*
X026109Y027870*
X026065Y027838*
X026023Y027802*
X025983Y027764*
X025947Y027723*
X025913Y027680*
X025882Y027635*
X025855Y027587*
X025831Y027538*
X025810Y027487*
X025793Y027434*
X025780Y027381*
X025770Y027327*
X025764Y027272*
X025763Y027218*
X025764Y027163*
X025770Y027108*
X025780Y027054*
X025793Y027001*
X025810Y026948*
X025831Y026897*
X025855Y026848*
X025882Y026800*
X025913Y026755*
X025947Y026712*
X025983Y026671*
X026023Y026633*
X026065Y026597*
X026109Y026565*
X026156Y026536*
X026205Y026510*
X026255Y026488*
X026306Y026469*
X026359Y026454*
X026413Y026442*
X026467Y026435*
X026522Y026431*
X026577*
X026632Y026435*
X026686Y026442*
X026740Y026454*
X026793Y026469*
X026844Y026488*
X026894Y026510*
X026943Y026536*
X026990Y026565*
X027034Y026597*
X027076Y026633*
X027116Y026671*
X027152Y026712*
X027186Y026755*
X027217Y026800*
X027244Y026848*
X027268Y026897*
X027289Y026948*
X027306Y027001*
X027319Y027054*
X027329Y027108*
X027335Y027163*
X027337Y027218*
Y025234D02*
D01*
X027335Y025288*
X027329Y025343*
X027319Y025397*
X027306Y025450*
X027289Y025503*
X027268Y025554*
X027244Y025603*
X027217Y025651*
X027186Y025696*
X027152Y025739*
X027116Y025780*
X027076Y025818*
X027034Y025854*
X026990Y025886*
X026943Y025915*
X026894Y025941*
X026844Y025963*
X026793Y025982*
X026740Y025997*
X026686Y026009*
X026632Y026016*
X026577Y026020*
X026522*
X026467Y026016*
X026413Y026009*
X026359Y025997*
X026306Y025982*
X026255Y025963*
X026205Y025941*
X026156Y025915*
X026109Y025886*
X026065Y025854*
X026023Y025818*
X025983Y025780*
X025947Y025739*
X025913Y025696*
X025882Y025651*
X025855Y025603*
X025831Y025554*
X025810Y025503*
X025793Y025450*
X025780Y025397*
X025770Y025343*
X025764Y025288*
X025763Y025234*
X025764Y025179*
X025770Y025124*
X025780Y025070*
X025793Y025017*
X025810Y024964*
X025831Y024913*
X025855Y024864*
X025882Y024816*
X025913Y024771*
X025947Y024728*
X025983Y024687*
X026023Y024649*
X026065Y024613*
X026109Y024581*
X026156Y024552*
X026205Y024526*
X026255Y024504*
X026306Y024485*
X026359Y024470*
X026413Y024458*
X026467Y024451*
X026522Y024447*
X026577*
X026632Y024451*
X026686Y024458*
X026740Y024470*
X026793Y024485*
X026844Y024504*
X026894Y024526*
X026943Y024552*
X026990Y024581*
X027034Y024613*
X027076Y024649*
X027116Y024687*
X027152Y024728*
X027186Y024771*
X027217Y024816*
X027244Y024864*
X027268Y024913*
X027289Y024964*
X027306Y025017*
X027319Y025070*
X027329Y025124*
X027335Y025179*
X027337Y025234*
X027387Y021300D02*
D01*
X027385Y021354*
X027379Y021409*
X027369Y021463*
X027356Y021516*
X027339Y021569*
X027318Y021620*
X027294Y021669*
X027267Y021717*
X027236Y021762*
X027202Y021805*
X027166Y021846*
X027126Y021884*
X027084Y021920*
X027040Y021952*
X026993Y021981*
X026944Y022007*
X026894Y022029*
X026843Y022048*
X026790Y022063*
X026736Y022075*
X026682Y022082*
X026627Y022086*
X026572*
X026517Y022082*
X026463Y022075*
X026409Y022063*
X026356Y022048*
X026305Y022029*
X026255Y022007*
X026206Y021981*
X026159Y021952*
X026115Y021920*
X026073Y021884*
X026033Y021846*
X025997Y021805*
X025963Y021762*
X025932Y021717*
X025905Y021669*
X025881Y021620*
X025860Y021569*
X025843Y021516*
X025830Y021463*
X025820Y021409*
X025814Y021354*
X025813Y021300*
X025814Y021245*
X025820Y021190*
X025830Y021136*
X025843Y021083*
X025860Y021030*
X025881Y020979*
X025905Y020930*
X025932Y020882*
X025963Y020837*
X025997Y020794*
X026033Y020753*
X026073Y020715*
X026115Y020679*
X026159Y020647*
X026206Y020618*
X026255Y020592*
X026305Y020570*
X026356Y020551*
X026409Y020536*
X026463Y020524*
X026517Y020517*
X026572Y020513*
X026627*
X026682Y020517*
X026736Y020524*
X026790Y020536*
X026843Y020551*
X026894Y020570*
X026944Y020592*
X026993Y020618*
X027040Y020647*
X027084Y020679*
X027126Y020715*
X027166Y020753*
X027202Y020794*
X027236Y020837*
X027267Y020882*
X027294Y020930*
X027318Y020979*
X027339Y021030*
X027356Y021083*
X027369Y021136*
X027379Y021190*
X027385Y021245*
X027387Y021300*
Y023284D02*
D01*
X027385Y023338*
X027379Y023393*
X027369Y023447*
X027356Y023500*
X027339Y023553*
X027318Y023604*
X027294Y023653*
X027267Y023701*
X027236Y023746*
X027202Y023789*
X027166Y023830*
X027126Y023868*
X027084Y023904*
X027040Y023936*
X026993Y023965*
X026944Y023991*
X026894Y024013*
X026843Y024032*
X026790Y024047*
X026736Y024059*
X026682Y024066*
X026627Y024070*
X026572*
X026517Y024066*
X026463Y024059*
X026409Y024047*
X026356Y024032*
X026305Y024013*
X026255Y023991*
X026206Y023965*
X026159Y023936*
X026115Y023904*
X026073Y023868*
X026033Y023830*
X025997Y023789*
X025963Y023746*
X025932Y023701*
X025905Y023653*
X025881Y023604*
X025860Y023553*
X025843Y023500*
X025830Y023447*
X025820Y023393*
X025814Y023338*
X025813Y023284*
X025814Y023229*
X025820Y023174*
X025830Y023120*
X025843Y023067*
X025860Y023014*
X025881Y022963*
X025905Y022914*
X025932Y022866*
X025963Y022821*
X025997Y022778*
X026033Y022737*
X026073Y022699*
X026115Y022663*
X026159Y022631*
X026206Y022602*
X026255Y022576*
X026305Y022554*
X026356Y022535*
X026409Y022520*
X026463Y022508*
X026517Y022501*
X026572Y022497*
X026627*
X026682Y022501*
X026736Y022508*
X026790Y022520*
X026843Y022535*
X026894Y022554*
X026944Y022576*
X026993Y022602*
X027040Y022631*
X027084Y022663*
X027126Y022699*
X027166Y022737*
X027202Y022778*
X027236Y022821*
X027267Y022866*
X027294Y022914*
X027318Y022963*
X027339Y023014*
X027356Y023067*
X027369Y023120*
X027379Y023174*
X027385Y023229*
X027387Y023284*
Y017316D02*
D01*
X027385Y017370*
X027379Y017425*
X027369Y017479*
X027356Y017532*
X027339Y017585*
X027318Y017636*
X027294Y017685*
X027267Y017733*
X027236Y017778*
X027202Y017821*
X027166Y017862*
X027126Y017900*
X027084Y017936*
X027040Y017968*
X026993Y017997*
X026944Y018023*
X026894Y018045*
X026843Y018064*
X026790Y018079*
X026736Y018091*
X026682Y018098*
X026627Y018102*
X026572*
X026517Y018098*
X026463Y018091*
X026409Y018079*
X026356Y018064*
X026305Y018045*
X026255Y018023*
X026206Y017997*
X026159Y017968*
X026115Y017936*
X026073Y017900*
X026033Y017862*
X025997Y017821*
X025963Y017778*
X025932Y017733*
X025905Y017685*
X025881Y017636*
X025860Y017585*
X025843Y017532*
X025830Y017479*
X025820Y017425*
X025814Y017370*
X025813Y017316*
X025814Y017261*
X025820Y017206*
X025830Y017152*
X025843Y017099*
X025860Y017046*
X025881Y016995*
X025905Y016946*
X025932Y016898*
X025963Y016853*
X025997Y016810*
X026033Y016769*
X026073Y016731*
X026115Y016695*
X026159Y016663*
X026206Y016634*
X026255Y016608*
X026305Y016586*
X026356Y016567*
X026409Y016552*
X026463Y016540*
X026517Y016533*
X026572Y016529*
X026627*
X026682Y016533*
X026736Y016540*
X026790Y016552*
X026843Y016567*
X026894Y016586*
X026944Y016608*
X026993Y016634*
X027040Y016663*
X027084Y016695*
X027126Y016731*
X027166Y016769*
X027202Y016810*
X027236Y016853*
X027267Y016898*
X027294Y016946*
X027318Y016995*
X027339Y017046*
X027356Y017099*
X027369Y017152*
X027379Y017206*
X027385Y017261*
X027387Y017316*
Y019300D02*
D01*
X027385Y019354*
X027379Y019409*
X027369Y019463*
X027356Y019516*
X027339Y019569*
X027318Y019620*
X027294Y019669*
X027267Y019717*
X027236Y019762*
X027202Y019805*
X027166Y019846*
X027126Y019884*
X027084Y019920*
X027040Y019952*
X026993Y019981*
X026944Y020007*
X026894Y020029*
X026843Y020048*
X026790Y020063*
X026736Y020075*
X026682Y020082*
X026627Y020086*
X026572*
X026517Y020082*
X026463Y020075*
X026409Y020063*
X026356Y020048*
X026305Y020029*
X026255Y020007*
X026206Y019981*
X026159Y019952*
X026115Y019920*
X026073Y019884*
X026033Y019846*
X025997Y019805*
X025963Y019762*
X025932Y019717*
X025905Y019669*
X025881Y019620*
X025860Y019569*
X025843Y019516*
X025830Y019463*
X025820Y019409*
X025814Y019354*
X025813Y019300*
X025814Y019245*
X025820Y019190*
X025830Y019136*
X025843Y019083*
X025860Y019030*
X025881Y018979*
X025905Y018930*
X025932Y018882*
X025963Y018837*
X025997Y018794*
X026033Y018753*
X026073Y018715*
X026115Y018679*
X026159Y018647*
X026206Y018618*
X026255Y018592*
X026305Y018570*
X026356Y018551*
X026409Y018536*
X026463Y018524*
X026517Y018517*
X026572Y018513*
X026627*
X026682Y018517*
X026736Y018524*
X026790Y018536*
X026843Y018551*
X026894Y018570*
X026944Y018592*
X026993Y018618*
X027040Y018647*
X027084Y018679*
X027126Y018715*
X027166Y018753*
X027202Y018794*
X027236Y018837*
X027267Y018882*
X027294Y018930*
X027318Y018979*
X027339Y019030*
X027356Y019083*
X027369Y019136*
X027379Y019190*
X027385Y019245*
X027387Y019300*
X010002Y010002D02*
X028900D01*
Y028900*
X010002D02*
X028900D01*
X010002Y010002D02*
Y028900D01*
X025900Y024834D02*
X026950Y025884D01*
X027150Y025684D02*
X027200D01*
X026100Y024634D02*
X027150Y025684D01*
X026125Y027859D02*
X027200Y026784D01*
X025950Y027684D02*
X027000Y026634D01*
X026200Y022634D02*
X027250Y023684D01*
X025950Y022834D02*
X026000D01*
X027050Y023884*
X025950Y021734D02*
X027025Y020659D01*
X026150Y021884D02*
X027200Y020834D01*
X026200Y018650D02*
X027250Y019700D01*
X025950Y018850D02*
X026000D01*
X027050Y019900*
X025950Y017750D02*
X027025Y016675D01*
X026150Y017900D02*
X027200Y016850D01*
G54D83*
X015221Y018450D02*
X015379D01*
X015300Y018371D02*
Y018529D01*
X024050Y025871D02*
Y026029D01*
X023971Y025950D02*
X024129D01*
X015221Y020464D02*
X015379D01*
X015300Y020385D02*
Y020543D01*
X018071Y022436D02*
X018229D01*
X018150Y022357D02*
Y022515D01*
M02*