%FSDAX24Y24*%
%MOIN*%
%SFA1B1*%

%IPPOS*%
%ADD29C,0.010000*%
%ADD45C,0.007900*%
%ADD46C,0.009800*%
%ADD47C,0.023600*%
%ADD48C,0.006000*%
%ADD49C,0.007000*%
%ADD50C,0.005000*%
%LNde-080324-1*%
%LPD*%
G54D29*
X028212Y012850D02*
D01*
X028206Y013014*
X028189Y013178*
X028160Y013341*
X028120Y013501*
X028069Y013657*
X028007Y013810*
X027935Y013958*
X027853Y014101*
X027760Y014238*
X027659Y014368*
X027549Y014490*
X027430Y014605*
X027304Y014711*
X027170Y014808*
X027031Y014895*
X026885Y014972*
X026734Y015040*
X026579Y015096*
X026421Y015141*
X026260Y015176*
X026096Y015199*
X025932Y015210*
X025767*
X025603Y015199*
X025439Y015176*
X025278Y015141*
X025120Y015096*
X024965Y015040*
X024814Y014972*
X024668Y014895*
X024529Y014808*
X024395Y014711*
X024269Y014605*
X024150Y014490*
X024040Y014368*
X023939Y014238*
X023846Y014101*
X023764Y013958*
X023692Y013810*
X023630Y013657*
X023579Y013501*
X023539Y013341*
X023510Y013178*
X023493Y013014*
X023488Y012850*
X023493Y012685*
X023510Y012521*
X023539Y012358*
X023579Y012198*
X023630Y012042*
X023692Y011889*
X023764Y011741*
X023846Y011598*
X023939Y011461*
X024040Y011331*
X024150Y011209*
X024269Y011094*
X024395Y010988*
X024529Y010891*
X024669Y010804*
X024814Y010727*
X024965Y010659*
X025120Y010603*
X025278Y010558*
X025439Y010523*
X025603Y010500*
X025767Y010489*
X025932*
X026096Y010500*
X026260Y010523*
X026421Y010558*
X026579Y010603*
X026734Y010659*
X026885Y010727*
X027031Y010804*
X027170Y010891*
X027304Y010988*
X027430Y011094*
X027549Y011209*
X027659Y011331*
X027760Y011461*
X027853Y011598*
X027935Y011741*
X028007Y011889*
X028069Y012042*
X028120Y012198*
X028160Y012358*
X028189Y012521*
X028206Y012685*
X028212Y012850*
X024975Y024266D02*
Y028203D01*
Y024266D02*
X028175D01*
X024975Y028203D02*
X028175D01*
Y024266D02*
Y028203D01*
Y020316D02*
Y024253D01*
X024975D02*
X028175D01*
X024975Y020316D02*
X028175D01*
X024975D02*
Y024253D01*
X028175Y016331D02*
Y020268D01*
X024975D02*
X028175D01*
X024975Y016331D02*
X028175D01*
X024975D02*
Y020268D01*
X028898Y010000D02*
Y028898D01*
X010000D02*
X028898D01*
X010000Y010000D02*
Y028898D01*
Y010000D02*
X028898D01*
G54D45*
X022469Y023150D02*
D01*
X022469Y023132*
X022471Y023115*
X022474Y023098*
X022478Y023081*
X022484Y023064*
X022490Y023048*
X022498Y023032*
X022506Y023017*
X022516Y023003*
X022527Y022989*
X022539Y022976*
X022551Y022964*
X022565Y022952*
X022579Y022942*
X022594Y022933*
X022609Y022925*
X022625Y022918*
X022641Y022912*
X022658Y022907*
X022675Y022903*
X022692Y022901*
X022710Y022900*
X022727*
X022745Y022901*
X022762Y022903*
X022779Y022907*
X022796Y022912*
X022812Y022918*
X022828Y022925*
X022844Y022933*
X022858Y022942*
X022872Y022952*
X022886Y022964*
X022898Y022976*
X022910Y022989*
X022921Y023003*
X022931Y023017*
X022939Y023032*
X022947Y023048*
X022953Y023064*
X022959Y023081*
X022963Y023098*
X022966Y023115*
X022968Y023132*
X022969Y023150*
X023184Y024950D02*
D01*
X023181Y025018*
X023174Y025086*
X023162Y025154*
X023145Y025221*
X023124Y025286*
X023098Y025350*
X023068Y025411*
X023034Y025471*
X022996Y025528*
X022953Y025582*
X022907Y025633*
X022858Y025681*
X022805Y025725*
X022750Y025765*
X022692Y025802*
X022631Y025834*
X022568Y025862*
X022504Y025885*
X022438Y025904*
X022370Y025919*
X022302Y025928*
X022234Y025933*
X022165*
X022097Y025928*
X022029Y025919*
X021961Y025904*
X021895Y025885*
X021831Y025862*
X021768Y025834*
X021708Y025802*
X021649Y025765*
X021594Y025725*
X021541Y025681*
X021492Y025633*
X021446Y025582*
X021403Y025528*
X021365Y025471*
X021331Y025411*
X021301Y025350*
X021275Y025286*
X021254Y025221*
X021237Y025154*
X021225Y025086*
X021218Y025018*
X021216Y024950*
X021218Y024881*
X021225Y024813*
X021237Y024745*
X021254Y024678*
X021275Y024613*
X021301Y024549*
X021331Y024488*
X021365Y024428*
X021403Y024371*
X021446Y024317*
X021492Y024266*
X021541Y024218*
X021594Y024174*
X021649Y024134*
X021708Y024097*
X021768Y024065*
X021831Y024037*
X021895Y024014*
X021961Y023995*
X022029Y023980*
X022097Y023971*
X022165Y023966*
X022234*
X022302Y023971*
X022370Y023980*
X022438Y023995*
X022504Y024014*
X022568Y024037*
X022631Y024065*
X022692Y024097*
X022750Y024134*
X022805Y024174*
X022858Y024218*
X022907Y024266*
X022953Y024317*
X022996Y024371*
X023034Y024428*
X023068Y024488*
X023098Y024549*
X023124Y024613*
X023145Y024678*
X023162Y024745*
X023174Y024813*
X023181Y024881*
X023184Y024950*
X013692Y018107D02*
D01*
X013678Y018081*
X013666Y018055*
X013656Y018028*
X013648Y018000*
X013642Y017972*
X013638Y017943*
X013636Y017914*
X013636Y017885*
X013638Y017857*
X013642Y017828*
X013648Y017800*
X013656Y017772*
X013666Y017745*
X013678Y017718*
X013682Y017712*
X014418D02*
D01*
X014430Y017738*
X014440Y017765*
X014449Y017792*
X014455Y017820*
X014460Y017849*
X014462Y017877*
X014463Y017906*
X014461Y017935*
X014458Y017964*
X014452Y017992*
X014445Y018020*
X014435Y018047*
X014424Y018074*
X014411Y018099*
X014408Y018107*
X015281Y011800D02*
D01*
X015298Y011800*
X015315Y011802*
X015332Y011805*
X015349Y011809*
X015366Y011815*
X015382Y011821*
X015398Y011829*
X015413Y011837*
X015427Y011847*
X015441Y011858*
X015454Y011870*
X015466Y011882*
X015478Y011896*
X015488Y011910*
X015497Y011925*
X015505Y011940*
X015512Y011956*
X015518Y011972*
X015523Y011989*
X015527Y012006*
X015529Y012023*
X015530Y012041*
Y012058*
X015529Y012076*
X015527Y012093*
X015523Y012110*
X015518Y012127*
X015512Y012143*
X015505Y012159*
X015497Y012175*
X015488Y012189*
X015478Y012203*
X015466Y012217*
X015454Y012229*
X015441Y012241*
X015427Y012252*
X015413Y012262*
X015398Y012270*
X015382Y012278*
X015366Y012284*
X015349Y012290*
X015332Y012294*
X015315Y012297*
X015298Y012299*
X015281Y012300*
X023184Y027106D02*
D01*
X023181Y027174*
X023174Y027242*
X023162Y027310*
X023145Y027377*
X023124Y027442*
X023098Y027506*
X023068Y027567*
X023034Y027627*
X022996Y027684*
X022953Y027738*
X022907Y027789*
X022858Y027837*
X022805Y027881*
X022750Y027921*
X022692Y027958*
X022631Y027990*
X022568Y028018*
X022504Y028041*
X022438Y028060*
X022370Y028075*
X022302Y028084*
X022234Y028089*
X022165*
X022097Y028084*
X022029Y028075*
X021961Y028060*
X021895Y028041*
X021831Y028018*
X021768Y027990*
X021708Y027958*
X021649Y027921*
X021594Y027881*
X021541Y027837*
X021492Y027789*
X021446Y027738*
X021403Y027684*
X021365Y027627*
X021331Y027567*
X021301Y027506*
X021275Y027442*
X021254Y027377*
X021237Y027310*
X021225Y027242*
X021218Y027174*
X021216Y027106*
X021218Y027037*
X021225Y026969*
X021237Y026901*
X021254Y026834*
X021275Y026769*
X021301Y026705*
X021331Y026644*
X021365Y026584*
X021403Y026527*
X021446Y026473*
X021492Y026422*
X021541Y026374*
X021594Y026330*
X021649Y026290*
X021708Y026253*
X021768Y026221*
X021831Y026193*
X021895Y026170*
X021961Y026151*
X022029Y026136*
X022097Y026127*
X022165Y026122*
X022234*
X022302Y026127*
X022370Y026136*
X022438Y026151*
X022504Y026170*
X022568Y026193*
X022631Y026221*
X022692Y026253*
X022750Y026290*
X022805Y026330*
X022858Y026374*
X022907Y026422*
X022953Y026473*
X022996Y026527*
X023034Y026584*
X023068Y026644*
X023098Y026705*
X023124Y026769*
X023145Y026834*
X023162Y026901*
X023174Y026969*
X023181Y027037*
X023184Y027106*
X022162Y023150D02*
X022469D01*
X022969D02*
X023276D01*
Y021150D02*
Y023150D01*
X022162Y021150D02*
X023276D01*
X022162D02*
Y023150D01*
X023006Y016416D02*
Y018384D01*
X023794Y016416D02*
Y018384D01*
X023006D02*
X023794D01*
X023006Y016416D02*
X023794D01*
X023481Y018643D02*
Y018957D01*
X023440Y027446D02*
X024660D01*
X023440Y024513D02*
X023617Y024336D01*
X024483D02*
X024660Y024513D01*
X023617Y024336D02*
X024483D01*
X023440Y026422D02*
Y027446D01*
X024660Y026422D02*
Y027446D01*
Y024513D02*
Y025478D01*
X023440Y024513D02*
Y025478D01*
X018493Y025969D02*
X018807D01*
X016340Y022469D02*
X017560D01*
X016340Y021131D02*
X017560D01*
Y022469*
X016340Y021131D02*
Y022469D01*
X014931Y022843D02*
Y023157D01*
X015667Y016267D02*
X017833D01*
X015667Y018433D02*
X017833D01*
Y016267D02*
Y018433D01*
X015667Y016267D02*
Y018433D01*
X022612Y013909D02*
Y014224D01*
X022337Y013909D02*
X022612D01*
Y014776D02*
Y015091D01*
X022337D02*
X022612D01*
X022533Y012476D02*
Y012633D01*
X022455D02*
X022533D01*
X022967D02*
X023045D01*
X022967Y012476D02*
Y012633D01*
X023045Y012476D02*
Y013224D01*
X022455Y012476D02*
Y013224D01*
X022967D02*
X023045D01*
X022967Y012476D02*
X023045D01*
X022455Y013224D02*
X022533D01*
X022455Y012476D02*
X022533D01*
X013331Y019793D02*
Y020107D01*
X013178Y018794D02*
Y019306D01*
X013419Y018156D02*
Y018471D01*
Y017329D02*
Y017644D01*
X017531Y014843D02*
Y015157D01*
X015281Y011007D02*
Y011800D01*
Y012300D02*
Y013093D01*
X021911Y011007D02*
Y013093D01*
X015281Y011007D02*
X021911D01*
X015281Y013093D02*
X021911D01*
X013031Y016543D02*
Y016857D01*
Y015943D02*
Y016257D01*
Y015343D02*
Y015657D01*
X012402Y025194D02*
Y025706D01*
X011843Y024469D02*
X012157D01*
X012431Y024443D02*
Y024757D01*
X012402Y026194D02*
Y026706D01*
X018493Y026381D02*
X018807D01*
X017893D02*
X018207D01*
X012402Y027144D02*
Y027656D01*
X010550Y027950D02*
X011550D01*
Y022950D02*
Y027950D01*
X010550Y022950D02*
Y027950D01*
Y022950D02*
X011550D01*
X015022Y025131D02*
X016478D01*
Y027769*
X015022D02*
X016478D01*
X015022Y025131D02*
Y027769D01*
X019305Y023903D02*
Y027997D01*
X019108Y023903D02*
X020919D01*
Y027997D01*
X019108D02*
X020919D01*
X019108Y023903D02*
Y027997D01*
X020600Y019600D02*
X023600D01*
Y020600*
X020600D02*
X023600D01*
X020600Y019600D02*
Y020600D01*
X018534Y021715D02*
Y022227D01*
X017766Y021715D02*
Y022227D01*
Y021715D02*
X018534D01*
X017973Y023274D02*
X018327D01*
X018534Y022644D02*
Y023078D01*
X017766D02*
X017973Y023274D01*
X018327D02*
X018534Y023078D01*
X017766Y022644D02*
Y023078D01*
G54D46*
X022524Y018485D02*
D01*
X022523Y018488*
X022523Y018491*
X022522Y018495*
X022522Y018498*
X022521Y018501*
X022519Y018504*
X022518Y018508*
X022516Y018510*
X022514Y018513*
X022512Y018516*
X022510Y018519*
X022507Y018521*
X022505Y018523*
X022502Y018525*
X022499Y018527*
X022496Y018529*
X022493Y018530*
X022490Y018531*
X022486Y018532*
X022483Y018533*
X022480Y018533*
X022476Y018533*
X022473*
X022469Y018533*
X022466Y018533*
X022463Y018532*
X022459Y018531*
X022456Y018530*
X022453Y018529*
X022450Y018527*
X022447Y018525*
X022444Y018523*
X022442Y018521*
X022439Y018519*
X022437Y018516*
X022435Y018513*
X022433Y018510*
X022431Y018508*
X022430Y018504*
X022428Y018501*
X022427Y018498*
X022427Y018495*
X022426Y018491*
X022426Y018488*
X022426Y018485*
X022426Y018481*
X022426Y018478*
X022427Y018474*
X022427Y018471*
X022428Y018468*
X022430Y018465*
X022431Y018461*
X022433Y018459*
X022435Y018456*
X022437Y018453*
X022439Y018450*
X022442Y018448*
X022444Y018446*
X022447Y018444*
X022450Y018442*
X022453Y018440*
X022456Y018439*
X022459Y018438*
X022463Y018437*
X022466Y018436*
X022469Y018436*
X022473Y018436*
X022476*
X022480Y018436*
X022483Y018436*
X022486Y018437*
X022490Y018438*
X022493Y018439*
X022496Y018440*
X022499Y018442*
X022502Y018444*
X022505Y018446*
X022507Y018448*
X022510Y018450*
X022512Y018453*
X022514Y018456*
X022516Y018459*
X022518Y018461*
X022519Y018465*
X022521Y018468*
X022522Y018471*
X022522Y018474*
X022523Y018478*
X022523Y018481*
X022524Y018485*
X017669Y022902D02*
D01*
X017668Y022905*
X017668Y022908*
X017667Y022912*
X017667Y022915*
X017666Y022918*
X017664Y022921*
X017663Y022925*
X017661Y022927*
X017659Y022930*
X017657Y022933*
X017655Y022936*
X017652Y022938*
X017650Y022940*
X017647Y022942*
X017644Y022944*
X017641Y022946*
X017638Y022947*
X017635Y022948*
X017631Y022949*
X017628Y022950*
X017625Y022950*
X017621Y022950*
X017618*
X017614Y022950*
X017611Y022950*
X017608Y022949*
X017604Y022948*
X017601Y022947*
X017598Y022946*
X017595Y022944*
X017592Y022942*
X017589Y022940*
X017587Y022938*
X017584Y022936*
X017582Y022933*
X017580Y022930*
X017578Y022927*
X017576Y022925*
X017575Y022921*
X017573Y022918*
X017572Y022915*
X017572Y022912*
X017571Y022908*
X017571Y022905*
X017571Y022902*
X017571Y022898*
X017571Y022895*
X017572Y022891*
X017572Y022888*
X017573Y022885*
X017575Y022882*
X017576Y022878*
X017578Y022876*
X017580Y022873*
X017582Y022870*
X017584Y022867*
X017587Y022865*
X017589Y022863*
X017592Y022861*
X017595Y022859*
X017598Y022857*
X017601Y022856*
X017604Y022855*
X017608Y022854*
X017611Y022853*
X017614Y022853*
X017618Y022853*
X017621*
X017625Y022853*
X017628Y022853*
X017631Y022854*
X017635Y022855*
X017638Y022856*
X017641Y022857*
X017644Y022859*
X017647Y022861*
X017650Y022863*
X017652Y022865*
X017655Y022867*
X017657Y022870*
X017659Y022873*
X017661Y022876*
X017663Y022878*
X017664Y022882*
X017666Y022885*
X017667Y022888*
X017667Y022891*
X017668Y022895*
X017668Y022898*
X017669Y022902*
X015205Y018708D02*
D01*
X015204Y018711*
X015204Y018714*
X015203Y018718*
X015203Y018721*
X015202Y018724*
X015200Y018727*
X015199Y018731*
X015197Y018733*
X015195Y018736*
X015193Y018739*
X015191Y018742*
X015188Y018744*
X015186Y018746*
X015183Y018748*
X015180Y018750*
X015177Y018752*
X015174Y018753*
X015171Y018754*
X015167Y018755*
X015164Y018756*
X015161Y018756*
X015157Y018756*
X015154*
X015150Y018756*
X015147Y018756*
X015144Y018755*
X015140Y018754*
X015137Y018753*
X015134Y018752*
X015131Y018750*
X015128Y018748*
X015125Y018746*
X015123Y018744*
X015120Y018742*
X015118Y018739*
X015116Y018736*
X015114Y018733*
X015112Y018731*
X015111Y018727*
X015109Y018724*
X015108Y018721*
X015108Y018718*
X015107Y018714*
X015107Y018711*
X015107Y018708*
X015107Y018704*
X015107Y018701*
X015108Y018697*
X015108Y018694*
X015109Y018691*
X015111Y018688*
X015112Y018684*
X015114Y018682*
X015116Y018679*
X015118Y018676*
X015120Y018673*
X015123Y018671*
X015125Y018669*
X015128Y018667*
X015131Y018665*
X015134Y018663*
X015137Y018662*
X015140Y018661*
X015144Y018660*
X015147Y018659*
X015150Y018659*
X015154Y018659*
X015157*
X015161Y018659*
X015164Y018659*
X015167Y018660*
X015171Y018661*
X015174Y018662*
X015177Y018663*
X015180Y018665*
X015183Y018667*
X015186Y018669*
X015188Y018671*
X015191Y018673*
X015193Y018676*
X015195Y018679*
X015197Y018682*
X015199Y018684*
X015200Y018688*
X015202Y018691*
X015203Y018694*
X015203Y018697*
X015204Y018701*
X015204Y018704*
X015205Y018708*
X021972Y015209D02*
D01*
X021971Y015212*
X021971Y015215*
X021970Y015219*
X021970Y015222*
X021969Y015225*
X021967Y015228*
X021966Y015232*
X021964Y015234*
X021962Y015237*
X021960Y015240*
X021958Y015243*
X021955Y015245*
X021953Y015247*
X021950Y015249*
X021947Y015251*
X021944Y015253*
X021941Y015254*
X021938Y015255*
X021934Y015256*
X021931Y015257*
X021928Y015257*
X021924Y015257*
X021921*
X021917Y015257*
X021914Y015257*
X021911Y015256*
X021907Y015255*
X021904Y015254*
X021901Y015253*
X021898Y015251*
X021895Y015249*
X021892Y015247*
X021890Y015245*
X021887Y015243*
X021885Y015240*
X021883Y015237*
X021881Y015234*
X021879Y015232*
X021878Y015228*
X021876Y015225*
X021875Y015222*
X021875Y015219*
X021874Y015215*
X021874Y015212*
X021874Y015209*
X021874Y015205*
X021874Y015202*
X021875Y015198*
X021875Y015195*
X021876Y015192*
X021878Y015189*
X021879Y015185*
X021881Y015183*
X021883Y015180*
X021885Y015177*
X021887Y015174*
X021890Y015172*
X021892Y015170*
X021895Y015168*
X021898Y015166*
X021901Y015164*
X021904Y015163*
X021907Y015162*
X021911Y015161*
X021914Y015160*
X021917Y015160*
X021921Y015160*
X021924*
X021928Y015160*
X021931Y015160*
X021934Y015161*
X021938Y015162*
X021941Y015163*
X021944Y015164*
X021947Y015166*
X021950Y015168*
X021953Y015170*
X021955Y015172*
X021958Y015174*
X021960Y015177*
X021962Y015180*
X021964Y015183*
X021966Y015185*
X021967Y015189*
X021969Y015192*
X021970Y015195*
X021970Y015198*
X021971Y015202*
X021971Y015205*
X021972Y015209*
X017650Y025544D02*
D01*
X017649Y025547*
X017649Y025550*
X017648Y025554*
X017648Y025557*
X017647Y025560*
X017645Y025563*
X017644Y025567*
X017642Y025569*
X017640Y025572*
X017638Y025575*
X017636Y025578*
X017633Y025580*
X017631Y025582*
X017628Y025584*
X017625Y025586*
X017622Y025588*
X017619Y025589*
X017616Y025590*
X017612Y025591*
X017609Y025592*
X017606Y025592*
X017602Y025592*
X017599*
X017595Y025592*
X017592Y025592*
X017589Y025591*
X017585Y025590*
X017582Y025589*
X017579Y025588*
X017576Y025586*
X017573Y025584*
X017570Y025582*
X017568Y025580*
X017565Y025578*
X017563Y025575*
X017561Y025572*
X017559Y025569*
X017557Y025567*
X017556Y025563*
X017554Y025560*
X017553Y025557*
X017553Y025554*
X017552Y025550*
X017552Y025547*
X017552Y025544*
X017552Y025540*
X017552Y025537*
X017553Y025533*
X017553Y025530*
X017554Y025527*
X017556Y025524*
X017557Y025520*
X017559Y025518*
X017561Y025515*
X017563Y025512*
X017565Y025509*
X017568Y025507*
X017570Y025505*
X017573Y025503*
X017576Y025501*
X017579Y025499*
X017582Y025498*
X017585Y025497*
X017589Y025496*
X017592Y025495*
X017595Y025495*
X017599Y025495*
X017602*
X017606Y025495*
X017609Y025495*
X017612Y025496*
X017616Y025497*
X017619Y025498*
X017622Y025499*
X017625Y025501*
X017628Y025503*
X017631Y025505*
X017633Y025507*
X017636Y025509*
X017638Y025512*
X017640Y025515*
X017642Y025518*
X017644Y025520*
X017645Y025524*
X017647Y025527*
X017648Y025530*
X017648Y025533*
X017649Y025537*
X017649Y025540*
X017650Y025544*
G54D47*
X017285Y022076D02*
D01*
X017284Y022084*
X017283Y022092*
X017282Y022100*
X017280Y022108*
X017277Y022116*
X017274Y022123*
X017271Y022131*
X017267Y022138*
X017262Y022145*
X017257Y022151*
X017251Y022157*
X017245Y022163*
X017239Y022168*
X017232Y022173*
X017226Y022178*
X017218Y022182*
X017211Y022185*
X017203Y022188*
X017195Y022190*
X017187Y022192*
X017179Y022193*
X017171Y022193*
X017162*
X017154Y022193*
X017146Y022192*
X017138Y022190*
X017130Y022188*
X017122Y022185*
X017115Y022182*
X017108Y022178*
X017101Y022173*
X017094Y022168*
X017088Y022163*
X017082Y022157*
X017076Y022151*
X017071Y022145*
X017066Y022138*
X017062Y022131*
X017059Y022123*
X017056Y022116*
X017053Y022108*
X017051Y022100*
X017050Y022092*
X017049Y022084*
X017049Y022076*
X017049Y022067*
X017050Y022059*
X017051Y022051*
X017053Y022043*
X017056Y022035*
X017059Y022028*
X017062Y022020*
X017066Y022013*
X017071Y022006*
X017076Y022000*
X017082Y021994*
X017088Y021988*
X017094Y021983*
X017101Y021978*
X017108Y021973*
X017115Y021969*
X017122Y021966*
X017130Y021963*
X017138Y021961*
X017146Y021959*
X017154Y021958*
X017162Y021958*
X017171*
X017179Y021958*
X017187Y021959*
X017195Y021961*
X017203Y021963*
X017211Y021966*
X017218Y021969*
X017226Y021973*
X017232Y021978*
X017239Y021983*
X017245Y021988*
X017251Y021994*
X017257Y022000*
X017262Y022006*
X017267Y022013*
X017271Y022020*
X017274Y022028*
X017277Y022035*
X017280Y022043*
X017282Y022051*
X017283Y022059*
X017284Y022067*
X017285Y022076*
X016179Y018039D02*
D01*
X016178Y018047*
X016177Y018055*
X016176Y018063*
X016174Y018071*
X016171Y018079*
X016168Y018086*
X016165Y018094*
X016161Y018101*
X016156Y018108*
X016151Y018114*
X016145Y018120*
X016139Y018126*
X016133Y018131*
X016126Y018136*
X016120Y018141*
X016112Y018145*
X016105Y018148*
X016097Y018151*
X016089Y018153*
X016081Y018155*
X016073Y018156*
X016065Y018156*
X016056*
X016048Y018156*
X016040Y018155*
X016032Y018153*
X016024Y018151*
X016016Y018148*
X016009Y018145*
X016002Y018141*
X015995Y018136*
X015988Y018131*
X015982Y018126*
X015976Y018120*
X015970Y018114*
X015965Y018108*
X015960Y018101*
X015956Y018094*
X015953Y018086*
X015950Y018079*
X015947Y018071*
X015945Y018063*
X015944Y018055*
X015943Y018047*
X015943Y018039*
X015943Y018030*
X015944Y018022*
X015945Y018014*
X015947Y018006*
X015950Y017998*
X015953Y017991*
X015956Y017983*
X015960Y017976*
X015965Y017969*
X015970Y017963*
X015976Y017957*
X015982Y017951*
X015988Y017946*
X015995Y017941*
X016002Y017936*
X016009Y017932*
X016016Y017929*
X016024Y017926*
X016032Y017924*
X016040Y017922*
X016048Y017921*
X016056Y017921*
X016065*
X016073Y017921*
X016081Y017922*
X016089Y017924*
X016097Y017926*
X016105Y017929*
X016112Y017932*
X016120Y017936*
X016126Y017941*
X016133Y017946*
X016139Y017951*
X016145Y017957*
X016151Y017963*
X016156Y017969*
X016161Y017976*
X016165Y017983*
X016168Y017991*
X016171Y017998*
X016174Y018006*
X016176Y018014*
X016177Y018022*
X016178Y018030*
X016179Y018039*
G54D48*
X010350Y012200D02*
X010467D01*
X010408*
Y012550*
X010350Y012492*
X011225Y012200D02*
X010991D01*
X011225Y012433*
Y012492*
X011166Y012550*
X011050*
X010991Y012492*
X011866Y012200D02*
Y012550D01*
X011691Y012375*
X011924*
X012391Y012492D02*
X012449Y012550D01*
X012566*
X012624Y012492*
Y012433*
X012566Y012375*
X012624Y012317*
Y012258*
X012566Y012200*
X012449*
X012391Y012258*
Y012317*
X012449Y012375*
X012391Y012433*
Y012492*
X012449Y012375D02*
X012566D01*
X013091Y012200D02*
X013207D01*
X013149*
Y012550*
X013091Y012492*
X013616Y012550D02*
X013499Y012492D01*
X013382Y012375*
Y012258*
X013441Y012200*
X013557*
X013616Y012258*
Y012317*
X013557Y012375*
X013382*
X014082Y012492D02*
X014140Y012550D01*
X014257*
X014315Y012492*
Y012433*
X014257Y012375*
X014199*
X014257*
X014315Y012317*
Y012258*
X014257Y012200*
X014140*
X014082Y012258*
X014665Y012200D02*
X014432D01*
X014665Y012433*
Y012492*
X014607Y012550*
X014490*
X014432Y012492*
X010250Y013100D02*
Y012750D01*
X010425*
X010483Y012808*
Y012867*
X010425Y012925*
X010250*
X010425*
X010483Y012983*
Y013042*
X010425Y013100*
X010250*
X010600D02*
X010717D01*
X010658*
Y012750*
X010600*
X010717*
X010891D02*
Y013100D01*
X011125Y012750*
Y013100*
X011241Y012750D02*
Y012983D01*
X011358Y013100*
X011475Y012983*
Y012750*
Y012925*
X011241*
X011591Y012750D02*
Y013100D01*
X011766*
X011824Y013042*
Y012925*
X011766Y012867*
X011591*
X011708D02*
X011824Y012750D01*
X011941Y013100D02*
Y013042D01*
X012058Y012925*
X012174Y013042*
Y013100*
X012058Y012925D02*
Y012750D01*
X012641D02*
Y012983D01*
X012758Y013100*
X012874Y012983*
Y012750*
Y012925*
X012641*
X012991Y013100D02*
Y012750D01*
X013166*
X013224Y012808*
Y013042*
X013166Y013100*
X012991*
X013341D02*
Y012750D01*
X013516*
X013574Y012808*
Y013042*
X013516Y013100*
X013341*
X013691Y012750D02*
Y013100D01*
X013865*
X013924Y013042*
Y012925*
X013865Y012867*
X013691*
X013807D02*
X013924Y012750D01*
X014274Y013100D02*
X014040D01*
Y012750*
X014274*
X014040Y012925D02*
X014157D01*
X014624Y013042D02*
X014565Y013100D01*
X014449*
X014390Y013042*
Y012983*
X014449Y012925*
X014565*
X014624Y012867*
Y012808*
X014565Y012750*
X014449*
X014390Y012808*
X014973Y013042D02*
X014915Y013100D01*
X014799*
X014740Y013042*
Y012983*
X014799Y012925*
X014915*
X014973Y012867*
Y012808*
X014915Y012750*
X014799*
X014740Y012808*
G54D49*
X028750Y016800D02*
X028483D01*
X028350Y016933*
X028483Y017067*
X028750*
X028550*
Y016800*
X028750Y017800D02*
X028350D01*
X028550Y017600*
Y017866*
X028417Y018000D02*
X028350Y018066D01*
Y018200*
X028417Y018266*
X028483*
X028550Y018200*
X028617Y018266*
X028683*
X028750Y018200*
Y018066*
X028683Y018000*
X028617*
X028550Y018066*
X028483Y018000*
X028417*
X028550Y018066D02*
Y018200D01*
X028350Y018666D02*
Y018399D01*
X028550*
X028483Y018533*
Y018599*
X028550Y018666*
X028683*
X028750Y018599*
Y018466*
X028683Y018399*
X028350Y019199D02*
X028750D01*
Y019399*
X028683Y019466*
X028617*
X028550Y019399*
Y019199*
Y019399*
X028483Y019466*
X028417*
X028350Y019399*
Y019199*
Y021065D02*
Y020799D01*
X028750*
Y021065*
X028550Y020799D02*
Y020932D01*
X028350Y021598D02*
X028750D01*
Y021798*
X028683Y021865*
X028417*
X028350Y021798*
Y021598*
Y022198D02*
Y022065D01*
X028417Y021998*
X028683*
X028750Y022065*
Y022198*
X028683Y022265*
X028417*
X028350Y022198*
Y022598D02*
Y022465D01*
X028417Y022398*
X028683*
X028750Y022465*
Y022598*
X028683Y022665*
X028417*
X028350Y022598*
X028750Y022798D02*
X028350D01*
Y022998*
X028417Y023065*
X028550*
X028617Y022998*
Y022798*
Y022931D02*
X028750Y023065D01*
X028417Y023864D02*
X028350Y023798D01*
Y023664*
X028417Y023598*
X028683*
X028750Y023664*
Y023798*
X028683Y023864*
X028417Y025064D02*
X028350Y024997D01*
Y024864*
X028417Y024797*
X028683*
X028750Y024864*
Y024997*
X028683Y025064*
X028550*
Y024931*
X028750Y025197D02*
X028350D01*
X028750Y025464*
X028350*
Y025597D02*
X028750D01*
Y025797*
X028683Y025864*
X028417*
X028350Y025797*
Y025597*
X028550Y026397D02*
Y026663D01*
X028417Y026530D02*
X028683D01*
X028750Y026797D02*
Y026930D01*
Y026863*
X028350*
X028417Y026797*
X028750Y027397D02*
Y027130D01*
X028483Y027397*
X028417*
X028350Y027330*
Y027197*
X028417Y027130*
X028350Y027530D02*
X028617D01*
X028750Y027663*
X028617Y027796*
X028350*
G54D50*
X021350Y023700D02*
Y023367D01*
X021417Y023300*
X021550*
X021617Y023367*
Y023700*
X021750Y023300D02*
X021883D01*
X021817*
Y023700*
X021750Y023633*
X022400Y019250D02*
Y018917D01*
X022467Y018850*
X022600*
X022667Y018917*
Y019250*
X023000Y018850D02*
Y019250D01*
X022800Y019050*
X023066*
X024317Y019533D02*
X024250Y019600D01*
X024117*
X024050Y019533*
Y019267*
X024117Y019200*
X024250*
X024317Y019267*
X024716Y019600D02*
X024450D01*
Y019400*
X024583Y019467*
X024650*
X024716Y019400*
Y019267*
X024650Y019200*
X024517*
X024450Y019267*
X023700Y028100D02*
Y027700D01*
X023900*
X023967Y027767*
Y028033*
X023900Y028100*
X023700*
X024366D02*
X024100D01*
Y027900*
X024233Y027967*
X024300*
X024366Y027900*
Y027767*
X024300Y027700*
X024167*
X024100Y027767*
X022967Y023883D02*
X022900Y023950D01*
X022767*
X022700Y023883*
Y023617*
X022767Y023550*
X022900*
X022967Y023617*
X023100Y023550D02*
X023233D01*
X023167*
Y023950*
X023100Y023883*
X023700Y023550D02*
X023433D01*
X023700Y023817*
Y023883*
X023633Y023950*
X023500*
X023433Y023883*
X022295Y023385D02*
Y023652D01*
X022162Y023518D02*
X022429D01*
X018017Y024483D02*
X017950Y024550D01*
X017817*
X017750Y024483*
Y024217*
X017817Y024150*
X017950*
X018017Y024217*
X018150Y024150D02*
X018283D01*
X018217*
Y024550*
X018150Y024483*
X018483D02*
X018550Y024550D01*
X018683*
X018750Y024483*
Y024417*
X018683Y024350*
X018616*
X018683*
X018750Y024283*
Y024217*
X018683Y024150*
X018550*
X018483Y024217*
X017700Y019800D02*
Y020200D01*
X017900*
X017967Y020133*
Y020000*
X017900Y019933*
X017700*
X017833D02*
X017967Y019800D01*
X018366Y020200D02*
X018100D01*
Y020000*
X018233Y020067*
X018300*
X018366Y020000*
Y019867*
X018300Y019800*
X018167*
X018100Y019867*
X018600Y019800D02*
Y020200D01*
X018800*
X018867Y020133*
Y020000*
X018800Y019933*
X018600*
X018733D02*
X018867Y019800D01*
X019000D02*
X019133D01*
X019067*
Y020200*
X019000Y020133*
X016600Y023900D02*
Y023567D01*
X016667Y023500*
X016800*
X016867Y023567*
Y023900*
X017000Y023833D02*
X017067Y023900D01*
X017200*
X017266Y023833*
Y023767*
X017200Y023700*
X017133*
X017200*
X017266Y023633*
Y023567*
X017200Y023500*
X017067*
X017000Y023567*
X014317Y023183D02*
X014250Y023250D01*
X014117*
X014050Y023183*
Y022917*
X014117Y022850*
X014250*
X014317Y022917*
X014450Y023183D02*
X014517Y023250D01*
X014650*
X014716Y023183*
Y023117*
X014650Y023050*
X014583*
X014650*
X014716Y022983*
Y022917*
X014650Y022850*
X014517*
X014450Y022917*
X015450Y023450D02*
Y023850D01*
X015650*
X015717Y023783*
Y023650*
X015650Y023583*
X015450*
X015583D02*
X015717Y023450D01*
X016050D02*
Y023850D01*
X015850Y023650*
X016116*
X013700Y020800D02*
Y021200D01*
X013900*
X013967Y021133*
Y021000*
X013900Y020933*
X013700*
X013833D02*
X013967Y020800D01*
X014100Y021200D02*
X014366D01*
Y021133*
X014100Y020867*
Y020800*
X013700Y021400D02*
Y021800D01*
X013900*
X013967Y021733*
Y021600*
X013900Y021533*
X013700*
X013833D02*
X013967Y021400D01*
X014100Y021733D02*
X014167Y021800D01*
X014300*
X014366Y021733*
Y021667*
X014300Y021600*
X014366Y021533*
Y021467*
X014300Y021400*
X014167*
X014100Y021467*
Y021533*
X014167Y021600*
X014100Y021667*
Y021733*
X014167Y021600D02*
X014300D01*
X016850Y019550D02*
Y019950D01*
X017050*
X017117Y019883*
Y019750*
X017050Y019683*
X016850*
X016983D02*
X017117Y019550D01*
X017516Y019950D02*
X017383Y019883D01*
X017250Y019750*
Y019617*
X017317Y019550*
X017450*
X017516Y019617*
Y019683*
X017450Y019750*
X017250*
X018350Y019300D02*
Y018967D01*
X018417Y018900*
X018550*
X018617Y018967*
Y019300*
X019016Y018900D02*
X018750D01*
X019016Y019167*
Y019233*
X018950Y019300*
X018817*
X018750Y019233*
X020950Y018750D02*
Y019150D01*
X021150*
X021217Y019083*
Y018950*
X021150Y018883*
X020950*
X021083D02*
X021217Y018750D01*
X021350D02*
X021483D01*
X021417*
Y019150*
X021350Y019083*
X021683D02*
X021750Y019150D01*
X021883*
X021950Y019083*
Y019017*
X021883Y018950*
X021816*
X021883*
X021950Y018883*
Y018817*
X021883Y018750*
X021750*
X021683Y018817*
X020900Y016600D02*
Y017000D01*
X021100*
X021167Y016933*
Y016800*
X021100Y016733*
X020900*
X021033D02*
X021167Y016600D01*
X021300D02*
X021433D01*
X021367*
Y017000*
X021300Y016933*
X021833Y016600D02*
Y017000D01*
X021633Y016800*
X021900*
X020350Y015500D02*
Y015900D01*
X020550*
X020617Y015833*
Y015700*
X020550Y015633*
X020350*
X020483D02*
X020617Y015500D01*
X020750D02*
X020883D01*
X020817*
Y015900*
X020750Y015833*
X021350Y015900D02*
X021083D01*
Y015700*
X021216Y015767*
X021283*
X021350Y015700*
Y015567*
X021283Y015500*
X021150*
X021083Y015567*
X024850Y015700D02*
Y016100D01*
X025050*
X025117Y016033*
Y015900*
X025050Y015833*
X024850*
X024983D02*
X025117Y015700D01*
X025250D02*
X025383D01*
X025317*
Y016100*
X025250Y016033*
X025583Y015700D02*
X025716D01*
X025650*
Y016100*
X025583Y016033*
X023100Y010850D02*
Y010450D01*
X023367*
X023766Y010783D02*
X023700Y010850D01*
X023567*
X023500Y010783*
Y010717*
X023567Y010650*
X023700*
X023766Y010583*
Y010517*
X023700Y010450*
X023567*
X023500Y010517*
X023900Y010450D02*
X024033D01*
X023966*
Y010850*
X023900Y010783*
X021117Y014667D02*
Y014933D01*
X021050Y015000*
X020917*
X020850Y014933*
Y014667*
X020917Y014600*
X021050*
X020983Y014733D02*
X021117Y014600D01*
X021050D02*
X021117Y014667D01*
X021250Y014600D02*
X021383D01*
X021317*
Y015000*
X021250Y014933*
X022400Y011850D02*
Y011450D01*
X022600*
X022667Y011517*
Y011783*
X022600Y011850*
X022400*
X023000Y011450D02*
Y011850D01*
X022800Y011650*
X023066*
X012567Y020083D02*
X012500Y020150D01*
X012367*
X012300Y020083*
Y019817*
X012367Y019750*
X012500*
X012567Y019817*
X012700Y020083D02*
X012767Y020150D01*
X012900*
X012966Y020083*
Y020017*
X012900Y019950*
X012966Y019883*
Y019817*
X012900Y019750*
X012767*
X012700Y019817*
Y019883*
X012767Y019950*
X012700Y020017*
Y020083*
X012767Y019950D02*
X012900D01*
X012567Y019183D02*
X012500Y019250D01*
X012367*
X012300Y019183*
Y018917*
X012367Y018850*
X012500*
X012567Y018917*
X012700Y019250D02*
X012966D01*
Y019183*
X012700Y018917*
Y018850*
X010700Y018100D02*
Y018033D01*
X010833Y017900*
X010967Y018033*
Y018100*
X010833Y017900D02*
Y017700D01*
X011100D02*
X011233D01*
X011167*
Y018100*
X011100Y018033*
X011667Y018483D02*
X011600Y018550D01*
X011467*
X011400Y018483*
Y018217*
X011467Y018150*
X011600*
X011667Y018217*
X011800Y018150D02*
X011933D01*
X011867*
Y018550*
X011800Y018483*
X011667Y017633D02*
X011600Y017700D01*
X011467*
X011400Y017633*
Y017367*
X011467Y017300*
X011600*
X011667Y017367*
X012066Y017300D02*
X011800D01*
X012066Y017567*
Y017633*
X012000Y017700*
X011867*
X011800Y017633*
X019217Y015133D02*
X019150Y015200D01*
X019017*
X018950Y015133*
Y014867*
X019017Y014800*
X019150*
X019217Y014867*
X019350D02*
X019417Y014800D01*
X019550*
X019616Y014867*
Y015133*
X019550Y015200*
X019417*
X019350Y015133*
Y015067*
X019417Y015000*
X019616*
X022017Y010683D02*
X021950Y010750D01*
X021817*
X021750Y010683*
Y010617*
X021817Y010550*
X021950*
X022017Y010483*
Y010417*
X021950Y010350*
X021817*
X021750Y010417*
X022150Y010350D02*
X022283D01*
X022217*
Y010750*
X022150Y010683*
X011967Y016833D02*
X011900Y016900D01*
X011767*
X011700Y016833*
Y016567*
X011767Y016500*
X011900*
X011967Y016567*
X012300Y016500D02*
Y016900D01*
X012100Y016700*
X012366*
X011967Y016233D02*
X011900Y016300D01*
X011767*
X011700Y016233*
Y015967*
X011767Y015900*
X011900*
X011967Y015967*
X012100Y015900D02*
X012233D01*
X012167*
Y016300*
X012100Y016233*
X012433Y015900D02*
X012566D01*
X012500*
Y016300*
X012433Y016233*
X011967Y015633D02*
X011900Y015700D01*
X011767*
X011700Y015633*
Y015367*
X011767Y015300*
X011900*
X011967Y015367*
X012100Y015300D02*
X012233D01*
X012167*
Y015700*
X012100Y015633*
X012433D02*
X012500Y015700D01*
X012633*
X012700Y015633*
Y015367*
X012633Y015300*
X012500*
X012433Y015367*
Y015633*
X011700Y014700D02*
Y015100D01*
X011900*
X011967Y015033*
Y014900*
X011900Y014833*
X011700*
X011833D02*
X011967Y014700D01*
X012100D02*
X012233D01*
X012167*
Y015100*
X012100Y015033*
X012700Y014700D02*
X012433D01*
X012700Y014967*
Y015033*
X012633Y015100*
X012500*
X012433Y015033*
X014167Y025533D02*
X014100Y025600D01*
X013967*
X013900Y025533*
Y025267*
X013967Y025200*
X014100*
X014167Y025267*
X014300Y025200D02*
X014433D01*
X014367*
Y025600*
X014300Y025533*
X014633Y025267D02*
X014700Y025200D01*
X014833*
X014900Y025267*
Y025533*
X014833Y025600*
X014700*
X014633Y025533*
Y025467*
X014700Y025400*
X014900*
X011800Y022650D02*
Y023050D01*
X012000*
X012067Y022983*
Y022850*
X012000Y022783*
X011800*
X011933D02*
X012067Y022650D01*
X012200D02*
X012333D01*
X012267*
Y023050*
X012200Y022983*
X012533D02*
X012600Y023050D01*
X012733*
X012800Y022983*
Y022717*
X012733Y022650*
X012600*
X012533Y022717*
Y022983*
X012067Y022483D02*
X012000Y022550D01*
X011867*
X011800Y022483*
Y022217*
X011867Y022150*
X012000*
X012067Y022217*
X012466Y022550D02*
X012333Y022483D01*
X012200Y022350*
Y022217*
X012267Y022150*
X012400*
X012466Y022217*
Y022283*
X012400Y022350*
X012200*
X012817Y024133D02*
X012750Y024200D01*
X012617*
X012550Y024133*
Y023867*
X012617Y023800*
X012750*
X012817Y023867*
X012950Y023800D02*
X013083D01*
X013017*
Y024200*
X012950Y024133*
X013283Y024200D02*
X013550D01*
Y024133*
X013283Y023867*
Y023800*
X013217Y028133D02*
X013150Y028200D01*
X013017*
X012950Y028133*
Y027867*
X013017Y027800*
X013150*
X013217Y027867*
X013350Y027800D02*
X013483D01*
X013417*
Y028200*
X013350Y028133*
X013683D02*
X013750Y028200D01*
X013883*
X013950Y028133*
Y028067*
X013883Y028000*
X013950Y027933*
Y027867*
X013883Y027800*
X013750*
X013683Y027867*
Y027933*
X013750Y028000*
X013683Y028067*
Y028133*
X013750Y028000D02*
X013883D01*
X018167Y028133D02*
X018100Y028200D01*
X017967*
X017900Y028133*
Y027867*
X017967Y027800*
X018100*
X018167Y027867*
X018300Y027800D02*
X018433D01*
X018367*
Y028200*
X018300Y028133*
X018833Y027800D02*
Y028200D01*
X018633Y028000*
X018900*
X017017Y028133D02*
X016950Y028200D01*
X016817*
X016750Y028133*
Y027867*
X016817Y027800*
X016950*
X017017Y027867*
X017150Y027800D02*
X017283D01*
X017217*
Y028200*
X017150Y028133*
X017750Y028200D02*
X017616Y028133D01*
X017483Y028000*
Y027867*
X017550Y027800*
X017683*
X017750Y027867*
Y027933*
X017683Y028000*
X017483*
X016400Y014800D02*
Y015200D01*
X016600*
X016667Y015133*
Y015000*
X016600Y014933*
X016400*
X016533D02*
X016667Y014800D01*
X017066D02*
X016800D01*
X017066Y015067*
Y015133*
X017000Y015200*
X016867*
X016800Y015133*
X016400Y014200D02*
Y014600D01*
X016600*
X016667Y014533*
Y014400*
X016600Y014333*
X016400*
X016533D02*
X016667Y014200D01*
X016800Y014533D02*
X016867Y014600D01*
X017000*
X017066Y014533*
Y014467*
X017000Y014400*
X016933*
X017000*
X017066Y014333*
Y014267*
X017000Y014200*
X016867*
X016800Y014267*
X012867Y028633D02*
X012800Y028700D01*
X012667*
X012600Y028633*
Y028367*
X012667Y028300*
X012800*
X012867Y028367*
X013266Y028300D02*
X013000D01*
X013266Y028567*
Y028633*
X013200Y028700*
X013067*
X013000Y028633*
X013400D02*
X013466Y028700D01*
X013600*
X013666Y028633*
Y028367*
X013600Y028300*
X013466*
X013400Y028367*
Y028633*
X012317Y011100D02*
X012050D01*
Y010900*
X012183*
X012050*
Y010700*
X012450Y011100D02*
Y010700D01*
X012650*
X012716Y010767*
Y011033*
X012650Y011100*
X012450*
X012850Y010700D02*
X012983D01*
X012916*
Y011100*
X012850Y011033*
X010700Y022050D02*
Y022450D01*
X010900*
X010967Y022383*
Y022250*
X010900Y022183*
X010700*
X011100Y022383D02*
X011167Y022450D01*
X011300*
X011366Y022383*
Y022317*
X011300Y022250*
X011233*
X011300*
X011366Y022183*
Y022117*
X011300Y022050*
X011167*
X011100Y022117*
X011800Y027850D02*
Y028250D01*
X012000*
X012067Y028183*
Y028050*
X012000Y027983*
X011800*
X011933D02*
X012067Y027850D01*
X012200Y027917D02*
X012267Y027850D01*
X012400*
X012466Y027917*
Y028183*
X012400Y028250*
X012267*
X012200Y028183*
Y028117*
X012267Y028050*
X012466*
X015000Y028400D02*
Y028067D01*
X015067Y028000*
X015200*
X015267Y028067*
Y028400*
X015666D02*
X015533Y028333D01*
X015400Y028200*
Y028067*
X015467Y028000*
X015600*
X015666Y028067*
Y028133*
X015600Y028200*
X015400*
X019650Y028600D02*
Y028267D01*
X019717Y028200*
X019850*
X019917Y028267*
Y028600*
X020316D02*
X020050D01*
Y028400*
X020183Y028467*
X020250*
X020316Y028400*
Y028267*
X020250Y028200*
X020117*
X020050Y028267*
X021017Y028583D02*
X020950Y028650D01*
X020817*
X020750Y028583*
Y028317*
X020817Y028250*
X020950*
X021017Y028317*
X021150Y028250D02*
X021283D01*
X021217*
Y028650*
X021150Y028583*
X021750Y028650D02*
X021483D01*
Y028450*
X021616Y028517*
X021683*
X021750Y028450*
Y028317*
X021683Y028250*
X021550*
X021483Y028317*
X022105Y028671D02*
Y028405D01*
X022238Y028538D02*
X021971D01*
X024950Y028350D02*
Y028750D01*
X025150*
X025217Y028683*
Y028550*
X025150Y028483*
X024950*
X025616Y028750D02*
X025350D01*
Y028550*
X025483Y028617*
X025550*
X025616Y028550*
Y028417*
X025550Y028350*
X025417*
X025350Y028417*
X024250Y023600D02*
Y024000D01*
X024450*
X024517Y023933*
Y023800*
X024450Y023733*
X024250*
X024650Y023600D02*
X024783D01*
X024717*
Y024000*
X024650Y023933*
X024100Y019750D02*
Y020150D01*
X024300*
X024367Y020083*
Y019950*
X024300Y019883*
X024100*
X024700Y019750D02*
Y020150D01*
X024500Y019950*
X024766*
X020610Y020890D02*
Y021290D01*
X020810*
X020877Y021223*
Y021090*
X020810Y021023*
X020610*
X021276Y020890D02*
X021010D01*
X021276Y021157*
Y021223*
X021210Y021290*
X021077*
X021010Y021223*
X017780Y023960D02*
Y023560D01*
X017980*
X018047Y023627*
Y023893*
X017980Y023960*
X017780*
X018180Y023893D02*
X018247Y023960D01*
X018380*
X018446Y023893*
Y023827*
X018380Y023760*
X018313*
X018380*
X018446Y023693*
Y023627*
X018380Y023560*
X018247*
X018180Y023627*
M02*