%FSDAX24Y24*%
%MOIN*%
%SFA1B1*%

%IPPOS*%
%ADD22C,0.059100*%
%ADD26R,0.045300X0.035400*%
%ADD27C,0.030000*%
%ADD28C,0.020000*%
%ADD29C,0.010000*%
%ADD33R,0.053100X0.053100*%
%ADD34C,0.053100*%
%ADD35C,0.060000*%
%ADD36C,0.047200*%
%ADD37R,0.059100X0.059100*%
%ADD38C,0.059100*%
%ADD39R,0.059100X0.059100*%
%ADD40C,0.066900*%
%ADD41R,0.066900X0.066900*%
%ADD42C,0.098400*%
%ADD43R,0.059100X0.059100*%
%ADD44C,0.030000*%
%LNde-080324-1*%
%LPD*%
G54D22*
X021100Y010550D03*
X016100Y013550D03*
X017100D03*
X018100D03*
X019100D03*
X020100D03*
X021100D03*
X011050Y023450D03*
Y024450D03*
Y025450D03*
Y026450D03*
X022100Y020100D03*
X023100D03*
G54D26*
X015300Y018836D03*
Y018064D03*
Y020078D03*
Y020850D03*
G54D27*
X012800Y023450D02*
X018800D01*
X013700Y020200D02*
Y022300D01*
Y020200D02*
X014350Y019550D01*
X014100Y014850D02*
Y016050D01*
Y014400D02*
Y014850D01*
X012950Y014900D02*
X014050D01*
X014100Y014850*
X016900Y015500D02*
X018450D01*
X015300Y013900D02*
X016900Y015500D01*
X014600Y013900D02*
X015300D01*
X014100Y014400D02*
X014600Y013900D01*
X014100Y016050D02*
X014620Y016570D01*
Y019280*
X014350Y019550D02*
X014620Y019280D01*
G54D28*
X014750Y020350D02*
Y020450D01*
Y020350D02*
X015022Y020078D01*
X015300Y018836D02*
Y020078D01*
X015022D02*
X015300D01*
G54D29*
X022750Y017400D02*
X023050D01*
X022300Y017850D02*
X022750Y017400D01*
X020050Y017850D02*
X022300D01*
X012000Y023300D02*
X012600Y022700D01*
X012000Y023300D02*
Y026250D01*
X012600Y022700D02*
X013950D01*
X014300Y022350*
Y020300D02*
Y022350D01*
Y020300D02*
X014900Y019700D01*
Y015750D02*
Y019700D01*
X015600Y020850D02*
X015750Y020700D01*
Y015250D02*
Y020700D01*
X014900Y014400D02*
X015750Y015250D01*
X015300Y020850D02*
X015600D01*
X014900Y015000D02*
X015300Y015400D01*
Y018064*
G54D33*
X022200Y024556D03*
Y027500D03*
G54D34*
X022200Y025344D03*
Y026713D03*
G54D35*
X025850Y011275D03*
Y014425D03*
G54D36*
X014050Y017487D03*
Y018313D03*
G54D37*
X016100Y010550D03*
G54D38*
X017100Y010550D03*
X018100D03*
X019100D03*
X020100D03*
G54D39*
X011050Y027450D03*
G54D40*
X020250Y026950D03*
Y025950D03*
G54D41*
X020250Y024950D03*
G54D42*
X026550Y027218D03*
Y025250D03*
X026600Y021300D03*
Y023268D03*
Y017316D03*
Y019284D03*
G54D43*
X021100Y020100D03*
G54D44*
X018800Y023450D03*
X012800D03*
X023050Y017400D03*
X020050Y017850D03*
X013700Y022300D03*
X012950Y014900D03*
X014350Y019550D03*
X014750Y020450D03*
X018450Y015500D03*
X014900Y015000D03*
Y014400D03*
Y015750D03*
X012000Y026250D03*
M02*