%FSDAX24Y24*%
%MOIN*%
%SFA1B1*%

%IPPOS*%
%ADD67R,0.053300X0.043400*%
%ADD68R,0.061100X0.061100*%
%ADD69C,0.061100*%
%ADD70C,0.068000*%
%ADD71C,0.055200*%
%ADD72R,0.067100X0.067100*%
%ADD73C,0.067100*%
%ADD74C,0.067100*%
%ADD75R,0.067100X0.067100*%
%ADD76C,0.074900*%
%ADD77R,0.074900X0.074900*%
%ADD78C,0.106400*%
%ADD79R,0.067100X0.067100*%
%ADD80C,0.038000*%
%LNde-080324-1*%
%LPD*%
G54D67*
X015300Y018836D03*
Y018064D03*
Y020078D03*
Y020850D03*
G54D68*
X022200Y024556D03*
Y027500D03*
G54D69*
X022200Y025344D03*
Y026713D03*
G54D70*
X025850Y011275D03*
Y014425D03*
G54D71*
X014050Y017487D03*
Y018313D03*
G54D72*
X016100Y010550D03*
G54D73*
X017100Y010550D03*
X018100D03*
X019100D03*
X020100D03*
G54D74*
X021100Y010550D03*
X016100Y013550D03*
X017100D03*
X018100D03*
X019100D03*
X020100D03*
X021100D03*
X011050Y023450D03*
Y024450D03*
Y025450D03*
Y026450D03*
X022100Y020100D03*
X023100D03*
G54D75*
X011050Y027450D03*
G54D76*
X020250Y026950D03*
Y025950D03*
G54D77*
X020250Y024950D03*
G54D78*
X026550Y027218D03*
Y025250D03*
X026600Y021300D03*
Y023268D03*
Y017316D03*
Y019284D03*
G54D79*
X021100Y020100D03*
G54D80*
X018800Y023450D03*
X012800D03*
X023050Y017400D03*
X020050Y017850D03*
X013700Y022300D03*
X012950Y014900D03*
X014350Y019550D03*
X014750Y020450D03*
X018450Y015500D03*
X014900Y015000D03*
Y014400D03*
Y015750D03*
X012000Y026250D03*
M02*