%FSDAX24Y24*%
%MOIN*%
%SFA1B1*%

%IPPOS*%
%ADD11C,0.010000*%
%ADD22R,0.039400X0.043300*%
%ADD24R,0.043300X0.039400*%
%ADD26R,0.051200X0.059100*%
%ADD33R,0.051200X0.023600*%
%ADD35R,0.059100X0.051200*%
%ADD64C,0.030000*%
%ADD65C,0.050000*%
%ADD66C,0.020000*%
%ADD69C,0.059100*%
%ADD70R,0.059100X0.059100*%
%ADD71R,0.066900X0.066900*%
%ADD72C,0.066900*%
%ADD73C,0.060000*%
%ADD74C,0.059100*%
%ADD75R,0.059100X0.059100*%
%ADD76R,0.059100X0.059100*%
%ADD77C,0.065000*%
%ADD78C,0.098400*%
%ADD79C,0.030000*%
%ADD80R,0.023600X0.051200*%
%ADD81R,0.059100X0.023600*%
%ADD82R,0.061000X0.043300*%
%ADD83R,0.061000X0.043300*%
%ADD84R,0.061000X0.135800*%
%ADD85R,0.031500X0.031500*%
%ADD86R,0.021700X0.057100*%
%ADD87C,0.040000*%
%ADD88R,0.480000X0.543000*%
%LNde-150824-1*%
%LPD*%
G54D11*
X010400Y011250D02*
Y038000D01*
X011300Y010350D02*
X038300D01*
X010400Y011250D02*
X011300Y010350D01*
X010550Y011350D02*
Y037900D01*
Y011350D02*
X011400Y010500D01*
X038200*
X010700Y011450D02*
Y037800D01*
Y011450D02*
X011500Y010650D01*
X038100*
X010850Y011550D02*
Y037700D01*
X011600Y010800D02*
X038000D01*
X010850Y011550D02*
X011600Y010800D01*
X011000Y011650D02*
Y037600D01*
Y011650D02*
X011700Y010950D01*
X037900*
X011150Y011750D02*
X011800Y011100D01*
X037800*
X011150Y011750D02*
Y037500D01*
X011300Y011850D02*
X011900Y011250D01*
X037700*
X011300Y011850D02*
Y037400D01*
X012000Y011400D02*
X037600D01*
X011450Y011950D02*
Y037300D01*
Y011950D02*
X012000Y011400D01*
X011600Y012050D02*
Y037200D01*
X012100Y011550D02*
X037500D01*
X011600Y012050D02*
X012100Y011550D01*
X011750Y012150D02*
X012200Y011700D01*
X037400*
X011750Y012150D02*
Y037100D01*
X012300Y011850D02*
X037300D01*
X011900Y012250D02*
Y037000D01*
Y012250D02*
X012300Y011850D01*
X012050Y012350D02*
Y036900D01*
X012400Y012000D02*
X037200D01*
X012050Y012350D02*
X012400Y012000D01*
X012200Y012450D02*
Y036800D01*
X012500Y012150D02*
X037100D01*
X012200Y012450D02*
X012500Y012150D01*
X012650Y012750D02*
Y036500D01*
X012800Y012600D02*
X036750D01*
X012650Y012750D02*
X012800Y012600D01*
Y012850D02*
Y036285D01*
X012900Y012750D02*
X036650D01*
X012800Y012850D02*
X012900Y012750D01*
X012350Y012550D02*
X012600Y012300D01*
X037000*
X012350Y012550D02*
Y036700D01*
X037000Y012300D02*
X037300Y012600D01*
Y036800*
X037450Y012500D02*
Y036900D01*
X037100Y012150D02*
X037450Y012500D01*
X037600Y012400D02*
Y037000D01*
X037200Y012000D02*
X037600Y012400D01*
X037750Y012300D02*
Y037100D01*
X037300Y011850D02*
X037750Y012300D01*
X037900Y012200D02*
Y037200D01*
X037400Y011700D02*
X037900Y012200D01*
X037500Y011550D02*
X038050Y012100D01*
Y037300*
X038200Y012000D02*
Y037400D01*
X037600Y011400D02*
X038200Y012000D01*
X037700Y011250D02*
X038350Y011900D01*
Y037500*
X037800Y011100D02*
X038500Y011800D01*
Y037600*
X037900Y010950D02*
X038650Y011700D01*
Y037700*
X038800Y011600D02*
Y037800D01*
X038000Y010800D02*
X038800Y011600D01*
X038950Y011500D02*
Y037900D01*
X038100Y010650D02*
X038950Y011500D01*
X039100Y011400D02*
Y038000D01*
X038200Y010500D02*
X039100Y011400D01*
X039250Y011300D02*
Y038100D01*
X038300Y010350D02*
X039250Y011300D01*
X012700Y012450D02*
X036900D01*
X037150Y012700D02*
Y036700D01*
X036900Y012450D02*
X037150Y012700D01*
X037000Y012850D02*
Y036600D01*
X036750Y012600D02*
X037000Y012850D01*
X036650Y012750D02*
X036850Y012950D01*
Y036500*
X012500Y012650D02*
X012700Y012450D01*
X036950Y037400D02*
X037450Y036900D01*
X012550Y037400D02*
X036950D01*
X037050Y037550D02*
X037600Y037000D01*
X012450Y037550D02*
X037050D01*
X012350Y037700D02*
X037150D01*
X037750Y037100*
X037250Y037850D02*
X037900Y037200D01*
X012250Y037850D02*
X037250D01*
X037350Y038000D02*
X038050Y037300D01*
X012150Y038000D02*
X037350D01*
X037450Y038150D02*
X038200Y037400D01*
X012050Y038150D02*
X037450D01*
X037550Y038300D02*
X038350Y037500D01*
X011950Y038300D02*
X037550D01*
X011850Y038450D02*
X037650D01*
X038500Y037600*
X011750Y038600D02*
X037750D01*
X038650Y037700*
X011650Y038750D02*
X037850D01*
X038800Y037800*
X011550Y038900D02*
X037950D01*
X038950Y037900*
X038050Y039050D02*
X039100Y038000D01*
X011450Y039050D02*
X038050D01*
X036850Y037250D02*
X037300Y036800D01*
X012650Y037250D02*
X036850D01*
X036750Y037100D02*
X037150Y036700D01*
X012750Y037100D02*
X036750D01*
X036650Y036950D02*
X037000Y036600D01*
X012850Y036950D02*
X036650D01*
X036550Y036800D02*
X036850Y036500D01*
X012950Y036800D02*
X036550D01*
X038150Y039200D02*
X039250Y038100D01*
X011050Y039200D02*
X038150D01*
X012650Y036500D02*
X012950Y036800D01*
X012500Y036600D02*
X012850Y036950D01*
X012500Y012650D02*
Y036600D01*
X012350Y036700D02*
X012750Y037100D01*
X012200Y036800D02*
X012650Y037250D01*
X012050Y036900D02*
X012550Y037400D01*
X011900Y037000D02*
X012450Y037550D01*
X011750Y037100D02*
X012350Y037700D01*
X011600Y037200D02*
X012250Y037850D01*
X011450Y037300D02*
X012150Y038000D01*
X011300Y037400D02*
X012050Y038150D01*
X011150Y037500D02*
X011950Y038300D01*
X011000Y037600D02*
X011850Y038450D01*
X010850Y037700D02*
X011750Y038600D01*
X010700Y037800D02*
X011650Y038750D01*
X010550Y037900D02*
X011550Y038900D01*
X012800Y036285D02*
X012840Y036325D01*
X012895D02*
X014540Y034680D01*
X012840Y036325D02*
X012895D01*
X010400Y038000D02*
X011450Y039050D01*
X010650Y038800D02*
X011050Y039200D01*
X025800Y031100D02*
X026400D01*
X020400Y025795D02*
Y026250D01*
X022650Y022300D02*
X022960Y022610D01*
Y024690*
X024030Y025760*
X022650Y022724D02*
Y025020D01*
X034365Y025537D02*
Y026250D01*
X034352Y025524D02*
X034365Y025537D01*
X033120Y025310D02*
X033334Y025524D01*
X034352*
X031200Y032070D02*
X033796D01*
X033800Y032074*
X034574Y031300D02*
X034600Y031326D01*
X035330Y031117D02*
Y031750D01*
X035326Y031113D02*
X035330Y031117D01*
X022650Y025020D02*
X023710Y026080D01*
X024030Y025760D02*
Y025790D01*
X032620Y023790D02*
X033120Y024290D01*
Y025310*
X033800Y026590D02*
Y027926D01*
X032510Y025300D02*
X033800Y026590D01*
X031370Y025300D02*
X032510D01*
X024730Y025800D02*
Y026154D01*
X030270Y026610D02*
X030408Y026748D01*
X024380Y026080D02*
Y026320D01*
X024670Y026610*
X030270*
X024730Y026154D02*
X024986Y026410D01*
X030353*
X030608Y026665*
X036090Y028080D02*
Y028671D01*
X036074Y028687D02*
X036090Y028671D01*
X020400Y023400D02*
X020800D01*
X016837Y023826D02*
X017884D01*
X018270Y023440*
X024972Y022572D02*
Y022608D01*
X024980Y028020D02*
Y030280D01*
X025800Y031100*
X023200Y026910D02*
X028030D01*
X030608Y026665D02*
Y027898D01*
X025370Y024610D02*
X025390Y024630D01*
X030608Y027898D02*
X030930Y028220D01*
X031220Y030030D02*
X031330Y029920D01*
X031130Y026630D02*
Y027690D01*
X031330Y027890*
Y029920*
X030408Y026748D02*
Y028177D01*
X030930Y028700*
X025760Y028310D02*
X027480Y030030D01*
X031220*
X025430Y024590D02*
X025453Y024613D01*
X026850Y024313D02*
X027817D01*
X020860Y022250D02*
X021370Y021740D01*
X024140*
X024972Y022572*
X022330Y022080D02*
Y023980D01*
Y022080D02*
X022470Y021940D01*
X023840*
X024808Y022908*
X025112*
X025430Y022590*
X027750*
X027817Y024313D02*
X027940Y024190D01*
X023360Y028240D02*
Y029220D01*
X022830Y027710D02*
X023360Y028240D01*
X022360Y027710D02*
X022830D01*
X021990Y027340D02*
X022360Y027710D01*
X020800Y023400D02*
X021250Y023850D01*
Y024960*
X023200Y026910*
X020910Y024200D02*
Y025460D01*
X022110Y024200D02*
X022330Y023980D01*
X021560Y024200D02*
X022110D01*
X020400Y026250D02*
X020850Y026700D01*
X021250*
X020910Y025460D02*
X021990Y026540D01*
Y027340*
X027750Y022590D02*
X027940Y022780D01*
Y024190*
X025453Y024613D02*
X027800D01*
X028160Y024253*
Y022280D02*
Y024253D01*
X026850Y024930D02*
X030170D01*
X031310Y023790*
X032620*
X030460Y026210D02*
X031370Y025300D01*
X025090Y026090D02*
X025210Y026210D01*
X030460*
X014540Y032840D02*
Y034680D01*
X025390Y024630D02*
X025430Y024590D01*
G54D22*
X017200Y025415D03*
Y026085D03*
X014600Y017315D03*
Y017985D03*
G54D24*
X034365Y026250D03*
X035035D03*
X017935Y022950D03*
X017265D03*
X034415Y024050D03*
X035085D03*
G54D26*
X034574Y030500D03*
X033826D03*
X034574Y029500D03*
X033826D03*
X017874Y027050D03*
X017126D03*
G54D33*
X016837Y023826D03*
Y024574D03*
X017663Y024200D03*
G54D35*
X033800Y032074D03*
Y031326D03*
Y027926D03*
Y028674D03*
X034600Y031326D03*
Y032074D03*
Y028674D03*
Y027926D03*
G54D64*
X023820Y028096D02*
X023883Y028033D01*
X023820Y028096D02*
Y029610D01*
X026400Y031700D02*
Y033100D01*
Y031700D02*
X026700D01*
X026900Y031500*
Y030600D02*
Y031500D01*
X026700Y030400D02*
X026900Y030600D01*
X026400Y030400D02*
X026700D01*
X013950Y015800D02*
X016500D01*
X014600Y017315D02*
X014721Y017194D01*
X015571*
X014715Y018100D02*
X015571D01*
X017050*
X016450Y027050D02*
X017126D01*
X016250Y026850D02*
X016450Y027050D01*
X016250Y024750D02*
X016426Y024574D01*
X016837*
X034352Y024660D02*
X034415Y024597D01*
X034600Y032074D02*
X034726Y032200D01*
X035330*
X019600Y024350D02*
X019750Y024500D01*
X020400*
Y023991D02*
Y024500D01*
Y025205*
X021130Y022980D02*
X021850Y023700D01*
X019600Y022980D02*
X021130D01*
X016250Y026070D02*
Y026850D01*
X014225Y017315D02*
X014600D01*
X013850Y017690D02*
X014225Y017315D01*
X013850Y017690D02*
Y019410D01*
X015630Y028810D02*
X015640Y028800D01*
X014300Y030500D02*
X018700D01*
X022200Y020300D02*
X023200D01*
X024200*
X025200*
X026200*
X027200*
X034415Y022995D02*
Y024050D01*
Y024597*
X035000Y026285D02*
X035035Y026250D01*
X035050Y026335D02*
Y026680D01*
X023360Y029800D02*
X023630D01*
X023820Y029610*
X035000Y026285D02*
X035050Y026335D01*
G54D65*
X023350Y029800D02*
Y034500D01*
X018750Y022980D02*
X019600D01*
X019700Y033300D02*
X021300D01*
X021500Y033500*
X022300Y030800D02*
Y032100D01*
X021500Y033500D02*
X022300D01*
Y032100D02*
Y033500D01*
X018900Y034500D02*
X023350D01*
X018300Y035100D02*
X018900Y034500D01*
X018300Y021680D02*
Y022200D01*
X017980Y021360D02*
X018300Y021680D01*
X016390Y021360D02*
X017980D01*
X015890Y021860D02*
X016390Y021360D01*
X015890Y021860D02*
Y024360D01*
X016250Y024720*
Y024750*
Y026070*
X014280Y021480D02*
X015571Y020189D01*
Y019130D02*
Y020189D01*
X015640Y028800D02*
X016860D01*
X018700Y027091D02*
Y030500D01*
Y033300D02*
X019700D01*
X018700Y030500D02*
Y033300D01*
X031922Y021622D02*
X033042D01*
X034415Y022995*
X024630Y024080D02*
Y024840D01*
X034415Y022995D02*
X035385D01*
X031910Y033150D02*
Y034890D01*
X034600Y032074D02*
Y032720D01*
X028910Y025620D02*
X030240D01*
X025410D02*
X028910D01*
X024630Y024840D02*
X025410Y025620D01*
X024340Y030320D02*
Y033520D01*
X025710Y034890*
X031910*
X024630Y024080D02*
X024925Y023785D01*
X027430*
X019300Y021790D02*
Y022200D01*
Y021790D02*
X019770Y021320D01*
X019600Y029470D02*
X019930Y029800D01*
X019600Y022980D02*
Y024350D01*
Y029470*
X019930Y029800D02*
X023350D01*
X023360*
X030240Y025620D02*
X030750Y025110D01*
X030780*
X019770Y021320D02*
X028640D01*
X030320Y023000*
X031922*
X031910Y033150D02*
X032340Y032720D01*
X034600*
X035385Y022995D02*
X035940Y023550D01*
Y027430*
X014600Y018215D02*
Y019790D01*
X013580Y020810D02*
X014600Y019790D01*
X013580Y020810D02*
Y023560D01*
X015630Y025610*
Y028810*
X014600Y018215D02*
X014715Y018100D01*
G54D66*
X017935Y022950D02*
X018720D01*
X018750Y022980*
X034250Y033340D02*
X035760D01*
X017200Y026085D02*
X017772D01*
X017900Y026213*
Y027024*
X017874Y027050D02*
X017900Y027024D01*
X017874Y027050D02*
X018659D01*
X018700Y027091*
Y026500D02*
Y027091D01*
Y026500D02*
D01*
X017200Y025415D02*
X017772D01*
X017900Y025287*
X018700Y023941D02*
Y024532D01*
Y023941D02*
D01*
X017300Y022200D02*
Y022915D01*
X017265Y022950D02*
X017300Y022915D01*
X033800Y031326D02*
X034600D01*
X017663Y024200D02*
X017900Y024437D01*
Y025287*
X017663Y024200D02*
X018369D01*
X018700Y024532*
X035035Y024100D02*
X035085Y024050D01*
X032800Y030500D02*
X033826D01*
X032800Y029500D02*
X033826D01*
X031800Y027478D02*
Y029500D01*
Y027478D02*
X031922Y027356D01*
X031800Y030500D02*
X032295Y030005D01*
Y028865D02*
Y030005D01*
Y028865D02*
X032830Y028330D01*
Y026886D02*
Y028330D01*
X031922Y025978D02*
X032830Y026886D01*
X033800Y028674D02*
X034600D01*
X034574Y028700D02*
Y029500D01*
Y028700D02*
X034600Y028674D01*
X034574Y029500D02*
X035687D01*
X035700Y029513*
X034574Y030500D02*
Y031300D01*
Y030500D02*
X035020D01*
X035233Y030287*
X035700*
X036074Y029666D02*
Y031113D01*
Y029666D02*
X036530Y029210D01*
Y027870D02*
Y029210D01*
X036200Y027540D02*
X036530Y027870D01*
X035326Y027834D02*
X035620Y027540D01*
X035326Y027834D02*
Y028687D01*
X035620Y027540D02*
X036200D01*
X034600Y027360D02*
Y027926D01*
X036074Y031113D02*
Y033026D01*
X035760Y033340D02*
X036074Y033026D01*
X035035Y024100D02*
Y026250D01*
G54D69*
X032800Y030500D03*
Y029500D03*
X031800Y030500D03*
Y029500D03*
X030800Y030500D03*
X027200Y020300D03*
X026200D03*
X025200D03*
X024200D03*
X023200D03*
X022200D03*
X027200Y017300D03*
X021850Y023700D03*
Y024700D03*
G54D70*
X030800Y029500D03*
G54D71*
X019300Y022200D03*
G54D72*
X018300Y022200D03*
X017300D03*
G54D73*
X018700Y026494D03*
Y024526D03*
X018690Y027085D03*
Y023935D03*
G54D74*
X026200Y017300D03*
X025200D03*
X024200D03*
X023200D03*
G54D75*
X022200Y017300D03*
G54D76*
X021850Y022700D03*
G54D77*
X016400Y035100D03*
X017400D03*
G54D78*
X031920Y027348D03*
Y025970D03*
Y024592D03*
Y022999D03*
Y021621D03*
G54D79*
X010650Y038800D03*
X023883Y028033D03*
X014300Y030500D03*
X018300Y035100D03*
X019700Y033300D03*
X022300Y032100D03*
Y030800D03*
X026400Y033100D03*
Y031700D03*
Y030400D03*
Y031100D03*
X023350Y034500D03*
X013950Y015800D03*
X022300Y033500D03*
X022650Y022300D03*
Y022724D03*
X026850Y024930D03*
X031200Y032070D03*
X036090Y028080D03*
X035330Y031750D03*
X025090Y026090D03*
X024730Y025800D03*
X023710Y026080D03*
X024380D03*
X024030Y025790D03*
X031910Y034890D03*
X035330Y032200D03*
X028030Y026910D03*
X025370Y024610D03*
X027430Y023785D03*
X027420Y023100D03*
X016250Y026070D03*
X018270Y023440D03*
X020860Y022250D03*
X024972Y022608D03*
X014280Y021480D03*
X013850Y019410D03*
X015630Y028810D03*
X016860Y028800D03*
X023360Y029800D03*
X024980Y028020D03*
X022465Y027000D03*
X035050Y026680D03*
X030930Y028700D03*
X034600Y027360D03*
X028910Y025620D03*
Y027440D03*
X024340Y030320D03*
X025760Y028310D03*
X031130Y026630D03*
X030930Y028220D03*
X026850Y024313D03*
X023360Y029220D03*
X021560Y024200D03*
X020910D03*
X021250Y026700D03*
X035330Y033350D03*
X030780Y025110D03*
X028160Y022280D03*
X014540Y032840D03*
X034250Y033340D03*
G54D80*
X036074Y028687D03*
X035326D03*
X035700Y029513D03*
X035326Y031113D03*
X036074D03*
X035700Y030287D03*
G54D81*
X035094Y025150D03*
X034346Y025524D03*
Y024776D03*
G54D82*
X015571Y017194D03*
G54D83*
X015571Y018100D03*
Y019006D03*
G54D84*
X018229Y018100D03*
G54D85*
X020400Y025205D03*
Y025795D03*
Y023985D03*
Y023395D03*
G54D86*
X017900Y025287D03*
Y026213D03*
G54D87*
X018320Y022550D02*
X018720Y022950D01*
X018300Y022200D02*
X018320Y022220D01*
Y022550*
X022760Y027300D02*
X024580D01*
X022465Y027005D02*
X022760Y027300D01*
X022465Y027000D02*
Y027005D01*
X024580Y027300D02*
X024740Y027460D01*
X024760Y027440*
X028910*
G54D88*
X018600Y017915D03*
M02*