%FSDAX24Y24*%
%MOIN*%
%SFA1B1*%

%IPPOS*%
%ADD14C,0.003900*%
%LNde-150824-1*%
%LPD*%
G54D14*
X029883Y034110D02*
D01*
X029882Y034123*
X029881Y034137*
X029878Y034150*
X029875Y034164*
X029871Y034177*
X029865Y034190*
X029859Y034202*
X029853Y034214*
X029845Y034225*
X029836Y034236*
X029827Y034246*
X029817Y034256*
X029807Y034265*
X029796Y034273*
X029784Y034280*
X029772Y034287*
X029759Y034292*
X029746Y034297*
X029733Y034301*
X029720Y034304*
X029706Y034305*
X029692Y034306*
X029679*
X029665Y034305*
X029651Y034304*
X029638Y034301*
X029625Y034297*
X029612Y034292*
X029599Y034287*
X029587Y034280*
X029575Y034273*
X029564Y034265*
X029554Y034256*
X029544Y034246*
X029535Y034236*
X029526Y034225*
X029518Y034214*
X029512Y034202*
X029506Y034190*
X029500Y034177*
X029496Y034164*
X029493Y034150*
X029490Y034137*
X029489Y034123*
X029489Y034110*
X029489Y034096*
X029490Y034082*
X029493Y034069*
X029496Y034055*
X029500Y034042*
X029506Y034029*
X029512Y034017*
X029518Y034005*
X029526Y033994*
X029535Y033983*
X029544Y033973*
X029554Y033963*
X029564Y033954*
X029575Y033946*
X029587Y033939*
X029599Y033932*
X029612Y033927*
X029625Y033922*
X029638Y033918*
X029651Y033915*
X029665Y033914*
X029679Y033913*
X029692*
X029706Y033914*
X029720Y033915*
X029733Y033918*
X029746Y033922*
X029759Y033927*
X029772Y033932*
X029784Y033939*
X029796Y033946*
X029807Y033954*
X029817Y033963*
X029827Y033973*
X029836Y033983*
X029845Y033994*
X029853Y034005*
X029859Y034017*
X029865Y034029*
X029871Y034042*
X029875Y034055*
X029878Y034069*
X029881Y034082*
X029882Y034096*
X029883Y034110*
X025720Y024076D02*
D01*
X025719Y024089*
X025718Y024103*
X025715Y024116*
X025712Y024130*
X025708Y024143*
X025702Y024156*
X025696Y024168*
X025690Y024180*
X025682Y024191*
X025673Y024202*
X025664Y024212*
X025654Y024222*
X025644Y024231*
X025633Y024239*
X025621Y024246*
X025609Y024253*
X025596Y024258*
X025583Y024263*
X025570Y024267*
X025557Y024270*
X025543Y024271*
X025529Y024272*
X025516*
X025502Y024271*
X025488Y024270*
X025475Y024267*
X025462Y024263*
X025449Y024258*
X025436Y024253*
X025424Y024246*
X025412Y024239*
X025401Y024231*
X025391Y024222*
X025381Y024212*
X025372Y024202*
X025363Y024191*
X025355Y024180*
X025349Y024168*
X025343Y024156*
X025337Y024143*
X025333Y024130*
X025330Y024116*
X025327Y024103*
X025326Y024089*
X025326Y024076*
X025326Y024062*
X025327Y024048*
X025330Y024035*
X025333Y024021*
X025337Y024008*
X025343Y023995*
X025349Y023983*
X025355Y023971*
X025363Y023960*
X025372Y023949*
X025381Y023939*
X025391Y023929*
X025401Y023920*
X025412Y023912*
X025424Y023905*
X025436Y023898*
X025449Y023893*
X025462Y023888*
X025475Y023884*
X025488Y023881*
X025502Y023880*
X025516Y023879*
X025529*
X025543Y023880*
X025557Y023881*
X025570Y023884*
X025583Y023888*
X025596Y023893*
X025609Y023898*
X025621Y023905*
X025633Y023912*
X025644Y023920*
X025654Y023929*
X025664Y023939*
X025673Y023949*
X025682Y023960*
X025690Y023971*
X025696Y023983*
X025702Y023995*
X025708Y024008*
X025712Y024021*
X025715Y024035*
X025718Y024048*
X025719Y024062*
X025720Y024076*
X019464Y034168D02*
D01*
X019463Y034181*
X019462Y034195*
X019459Y034208*
X019456Y034222*
X019452Y034235*
X019446Y034248*
X019440Y034260*
X019434Y034272*
X019426Y034283*
X019417Y034294*
X019408Y034304*
X019398Y034314*
X019388Y034323*
X019377Y034331*
X019365Y034338*
X019353Y034345*
X019340Y034350*
X019327Y034355*
X019314Y034359*
X019301Y034362*
X019287Y034363*
X019273Y034364*
X019260*
X019246Y034363*
X019232Y034362*
X019219Y034359*
X019206Y034355*
X019193Y034350*
X019180Y034345*
X019168Y034338*
X019156Y034331*
X019145Y034323*
X019135Y034314*
X019125Y034304*
X019116Y034294*
X019107Y034283*
X019099Y034272*
X019093Y034260*
X019087Y034248*
X019081Y034235*
X019077Y034222*
X019074Y034208*
X019071Y034195*
X019070Y034181*
X019070Y034168*
X019070Y034154*
X019071Y034140*
X019074Y034127*
X019077Y034113*
X019081Y034100*
X019087Y034087*
X019093Y034075*
X019099Y034063*
X019107Y034052*
X019116Y034041*
X019125Y034031*
X019135Y034021*
X019145Y034012*
X019156Y034004*
X019168Y033997*
X019180Y033990*
X019193Y033985*
X019206Y033980*
X019219Y033976*
X019232Y033973*
X019246Y033972*
X019260Y033971*
X019273*
X019287Y033972*
X019301Y033973*
X019314Y033976*
X019327Y033980*
X019340Y033985*
X019353Y033990*
X019365Y033997*
X019377Y034004*
X019388Y034012*
X019398Y034021*
X019408Y034031*
X019417Y034041*
X019426Y034052*
X019434Y034063*
X019440Y034075*
X019446Y034087*
X019452Y034100*
X019456Y034113*
X019459Y034127*
X019462Y034140*
X019463Y034154*
X019464Y034168*
X014164Y026430D02*
D01*
X014163Y026443*
X014162Y026457*
X014159Y026470*
X014156Y026484*
X014152Y026497*
X014146Y026510*
X014140Y026522*
X014134Y026534*
X014126Y026545*
X014117Y026556*
X014108Y026566*
X014098Y026576*
X014088Y026585*
X014077Y026593*
X014065Y026600*
X014053Y026607*
X014040Y026612*
X014027Y026617*
X014014Y026621*
X014001Y026624*
X013987Y026625*
X013973Y026626*
X013960*
X013946Y026625*
X013932Y026624*
X013919Y026621*
X013906Y026617*
X013893Y026612*
X013880Y026607*
X013868Y026600*
X013856Y026593*
X013845Y026585*
X013835Y026576*
X013825Y026566*
X013816Y026556*
X013807Y026545*
X013799Y026534*
X013793Y026522*
X013787Y026510*
X013781Y026497*
X013777Y026484*
X013774Y026470*
X013771Y026457*
X013770Y026443*
X013770Y026430*
X013770Y026416*
X013771Y026402*
X013774Y026389*
X013777Y026375*
X013781Y026362*
X013787Y026349*
X013793Y026337*
X013799Y026325*
X013807Y026314*
X013816Y026303*
X013825Y026293*
X013835Y026283*
X013845Y026274*
X013856Y026266*
X013868Y026259*
X013880Y026252*
X013893Y026247*
X013906Y026242*
X013919Y026238*
X013932Y026235*
X013946Y026234*
X013960Y026233*
X013973*
X013987Y026234*
X014001Y026235*
X014014Y026238*
X014027Y026242*
X014040Y026247*
X014053Y026252*
X014065Y026259*
X014077Y026266*
X014088Y026274*
X014098Y026283*
X014108Y026293*
X014117Y026303*
X014126Y026314*
X014134Y026325*
X014140Y026337*
X014146Y026349*
X014152Y026362*
X014156Y026375*
X014159Y026389*
X014162Y026402*
X014163Y026416*
X014164Y026430*
X016253Y021590D02*
X020347D01*
X016253Y021078D02*
Y022889D01*
Y021078D02*
X020347D01*
Y022889D01*
X016253D02*
X020347D01*
X032724Y033923D02*
X033276D01*
X032724Y033077D02*
X033276D01*
X032724D02*
Y033923D01*
X033276Y033077D02*
Y033923D01*
X029332Y032535D02*
X030868D01*
X029332Y034465D02*
X030868D01*
Y032535D02*
Y034465D01*
X029332Y032535D02*
Y034465D01*
X029230Y020687D02*
X031630D01*
X029230Y018113D02*
X031630D01*
X029230D02*
Y020687D01*
X031630Y018113D02*
Y020687D01*
X025878Y023722D02*
Y026478D01*
X023122Y023722D02*
Y026478D01*
Y023722D02*
X025878D01*
X023122Y026478D02*
X025878D01*
X025056Y032909D02*
Y034091D01*
X024504Y032909D02*
Y034091D01*
Y032909D02*
X025056D01*
X024504Y034091D02*
X025056D01*
Y031539D02*
Y032721D01*
X024504Y031539D02*
Y032721D01*
Y031539D02*
X025056D01*
X024504Y032721D02*
X025056D01*
Y030179D02*
Y031361D01*
X024504Y030179D02*
Y031361D01*
Y030179D02*
X025056D01*
X024504Y031361D02*
X025056D01*
X018913Y031078D02*
X020487D01*
X018913Y034522D02*
X020487D01*
Y031078D02*
Y034522D01*
X018913Y031078D02*
Y034522D01*
X033965Y029744D02*
X034635D01*
X033965Y030256D02*
X034635D01*
X033965Y029744D02*
Y030256D01*
X034635Y029744D02*
Y030256D01*
X013613Y024816D02*
Y026784D01*
X015187Y024816D02*
Y026784D01*
X013613D02*
X015187D01*
X013613Y024816D02*
X015187D01*
X035109Y028824D02*
X036291D01*
X035109Y029376D02*
X036291D01*
Y028824D02*
Y029376D01*
X035109Y028824D02*
Y029376D01*
Y030976D02*
X036291D01*
X035109Y030424D02*
X036291D01*
X035109D02*
Y030976D01*
X036291Y030424D02*
Y030976D01*
X034444Y025748D02*
X034996D01*
X034444Y024552D02*
X034996D01*
Y025748*
X034444Y024552D02*
Y025748D01*
X016974Y023609D02*
Y024791D01*
X017526Y023609D02*
Y024791D01*
X016974Y023609D02*
X017526D01*
X016974Y024791D02*
X017526D01*
M02*