%FSDAX24Y24*%
%MOIN*%
%SFA1B1*%

%IPPOS*%
%ADD10C,0.009800*%
%ADD11C,0.010000*%
%ADD12C,0.023600*%
%ADD13C,0.007900*%
%ADD14C,0.003900*%
%ADD15C,0.008000*%
%ADD16C,0.005000*%
%ADD17R,0.194000X0.097000*%
%ADD18R,0.067000X0.022000*%
%ADD19R,0.068000X0.022000*%
%ADD20R,0.019000X0.022000*%
%LNde-150824-1*%
%LPD*%
G54D10*
X020141Y022633D02*
D01*
X020140Y022636*
X020140Y022639*
X020139Y022643*
X020139Y022646*
X020138Y022649*
X020136Y022652*
X020135Y022656*
X020133Y022658*
X020131Y022661*
X020129Y022664*
X020127Y022667*
X020124Y022669*
X020122Y022671*
X020119Y022673*
X020116Y022675*
X020113Y022677*
X020110Y022678*
X020107Y022679*
X020103Y022680*
X020100Y022681*
X020097Y022681*
X020093Y022681*
X020090*
X020086Y022681*
X020083Y022681*
X020080Y022680*
X020076Y022679*
X020073Y022678*
X020070Y022677*
X020067Y022675*
X020064Y022673*
X020061Y022671*
X020059Y022669*
X020056Y022667*
X020054Y022664*
X020052Y022661*
X020050Y022658*
X020048Y022656*
X020047Y022652*
X020045Y022649*
X020044Y022646*
X020044Y022643*
X020043Y022639*
X020043Y022636*
X020043Y022633*
X020043Y022629*
X020043Y022626*
X020044Y022622*
X020044Y022619*
X020045Y022616*
X020047Y022613*
X020048Y022609*
X020050Y022607*
X020052Y022604*
X020054Y022601*
X020056Y022598*
X020059Y022596*
X020061Y022594*
X020064Y022592*
X020067Y022590*
X020070Y022588*
X020073Y022587*
X020076Y022586*
X020080Y022585*
X020083Y022584*
X020086Y022584*
X020090Y022584*
X020093*
X020097Y022584*
X020100Y022584*
X020103Y022585*
X020107Y022586*
X020110Y022587*
X020113Y022588*
X020116Y022590*
X020119Y022592*
X020122Y022594*
X020124Y022596*
X020127Y022598*
X020129Y022601*
X020131Y022604*
X020133Y022607*
X020135Y022609*
X020136Y022613*
X020138Y022616*
X020139Y022619*
X020139Y022622*
X020140Y022626*
X020140Y022629*
X020141Y022633*
X033404Y032949D02*
D01*
X033403Y032952*
X033403Y032955*
X033402Y032959*
X033402Y032962*
X033401Y032965*
X033399Y032968*
X033398Y032972*
X033396Y032974*
X033394Y032977*
X033392Y032980*
X033390Y032983*
X033387Y032985*
X033385Y032987*
X033382Y032989*
X033379Y032991*
X033376Y032993*
X033373Y032994*
X033370Y032995*
X033366Y032996*
X033363Y032997*
X033360Y032997*
X033356Y032997*
X033353*
X033349Y032997*
X033346Y032997*
X033343Y032996*
X033339Y032995*
X033336Y032994*
X033333Y032993*
X033330Y032991*
X033327Y032989*
X033324Y032987*
X033322Y032985*
X033319Y032983*
X033317Y032980*
X033315Y032977*
X033313Y032974*
X033311Y032972*
X033310Y032968*
X033308Y032965*
X033307Y032962*
X033307Y032959*
X033306Y032955*
X033306Y032952*
X033306Y032949*
X033306Y032945*
X033306Y032942*
X033307Y032938*
X033307Y032935*
X033308Y032932*
X033310Y032929*
X033311Y032925*
X033313Y032923*
X033315Y032920*
X033317Y032917*
X033319Y032914*
X033322Y032912*
X033324Y032910*
X033327Y032908*
X033330Y032906*
X033333Y032904*
X033336Y032903*
X033339Y032902*
X033343Y032901*
X033346Y032900*
X033349Y032900*
X033353Y032900*
X033356*
X033360Y032900*
X033363Y032900*
X033366Y032901*
X033370Y032902*
X033373Y032903*
X033376Y032904*
X033379Y032906*
X033382Y032908*
X033385Y032910*
X033387Y032912*
X033390Y032914*
X033392Y032917*
X033394Y032920*
X033396Y032923*
X033398Y032925*
X033399Y032929*
X033401Y032932*
X033402Y032935*
X033402Y032938*
X033403Y032942*
X033403Y032945*
X033404Y032949*
X029204Y034585D02*
D01*
X029203Y034588*
X029203Y034591*
X029202Y034595*
X029202Y034598*
X029201Y034601*
X029199Y034604*
X029198Y034608*
X029196Y034610*
X029194Y034613*
X029192Y034616*
X029190Y034619*
X029187Y034621*
X029185Y034623*
X029182Y034625*
X029179Y034627*
X029176Y034629*
X029173Y034630*
X029170Y034631*
X029166Y034632*
X029163Y034633*
X029160Y034633*
X029156Y034633*
X029153*
X029149Y034633*
X029146Y034633*
X029143Y034632*
X029139Y034631*
X029136Y034630*
X029133Y034629*
X029130Y034627*
X029127Y034625*
X029124Y034623*
X029122Y034621*
X029119Y034619*
X029117Y034616*
X029115Y034613*
X029113Y034610*
X029111Y034608*
X029110Y034604*
X029108Y034601*
X029107Y034598*
X029107Y034595*
X029106Y034591*
X029106Y034588*
X029106Y034585*
X029106Y034581*
X029106Y034578*
X029107Y034574*
X029107Y034571*
X029108Y034568*
X029110Y034565*
X029111Y034561*
X029113Y034559*
X029115Y034556*
X029117Y034553*
X029119Y034550*
X029122Y034548*
X029124Y034546*
X029127Y034544*
X029130Y034542*
X029133Y034540*
X029136Y034539*
X029139Y034538*
X029143Y034537*
X029146Y034536*
X029149Y034536*
X029153Y034536*
X029156*
X029160Y034536*
X029163Y034536*
X029166Y034537*
X029170Y034538*
X029173Y034539*
X029176Y034540*
X029179Y034542*
X029182Y034544*
X029185Y034546*
X029187Y034548*
X029190Y034550*
X029192Y034553*
X029194Y034556*
X029196Y034559*
X029198Y034561*
X029199Y034565*
X029201Y034568*
X029202Y034571*
X029202Y034574*
X029203Y034578*
X029203Y034581*
X029204Y034585*
X032782Y017967D02*
D01*
X032781Y017970*
X032781Y017973*
X032780Y017977*
X032780Y017980*
X032779Y017983*
X032777Y017986*
X032776Y017990*
X032774Y017992*
X032772Y017995*
X032770Y017998*
X032768Y018001*
X032765Y018003*
X032763Y018005*
X032760Y018007*
X032757Y018009*
X032754Y018011*
X032751Y018012*
X032748Y018013*
X032744Y018014*
X032741Y018015*
X032738Y018015*
X032734Y018015*
X032731*
X032727Y018015*
X032724Y018015*
X032721Y018014*
X032717Y018013*
X032714Y018012*
X032711Y018011*
X032708Y018009*
X032705Y018007*
X032702Y018005*
X032700Y018003*
X032697Y018001*
X032695Y017998*
X032693Y017995*
X032691Y017992*
X032689Y017990*
X032688Y017986*
X032686Y017983*
X032685Y017980*
X032685Y017977*
X032684Y017973*
X032684Y017970*
X032684Y017967*
X032684Y017963*
X032684Y017960*
X032685Y017956*
X032685Y017953*
X032686Y017950*
X032688Y017947*
X032689Y017943*
X032691Y017941*
X032693Y017938*
X032695Y017935*
X032697Y017932*
X032700Y017930*
X032702Y017928*
X032705Y017926*
X032708Y017924*
X032711Y017922*
X032714Y017921*
X032717Y017920*
X032721Y017919*
X032724Y017918*
X032727Y017918*
X032731Y017918*
X032734*
X032738Y017918*
X032741Y017918*
X032744Y017919*
X032748Y017920*
X032751Y017921*
X032754Y017922*
X032757Y017924*
X032760Y017926*
X032763Y017928*
X032765Y017930*
X032768Y017932*
X032770Y017935*
X032772Y017938*
X032774Y017941*
X032776Y017943*
X032777Y017947*
X032779Y017950*
X032780Y017953*
X032780Y017956*
X032781Y017960*
X032781Y017963*
X032782Y017967*
X026193Y023673D02*
D01*
X026192Y023676*
X026192Y023679*
X026191Y023683*
X026191Y023686*
X026190Y023689*
X026188Y023692*
X026187Y023696*
X026185Y023698*
X026183Y023701*
X026181Y023704*
X026179Y023707*
X026176Y023709*
X026174Y023711*
X026171Y023713*
X026168Y023715*
X026165Y023717*
X026162Y023718*
X026159Y023719*
X026155Y023720*
X026152Y023721*
X026149Y023721*
X026145Y023721*
X026142*
X026138Y023721*
X026135Y023721*
X026132Y023720*
X026128Y023719*
X026125Y023718*
X026122Y023717*
X026119Y023715*
X026116Y023713*
X026113Y023711*
X026111Y023709*
X026108Y023707*
X026106Y023704*
X026104Y023701*
X026102Y023698*
X026100Y023696*
X026099Y023692*
X026097Y023689*
X026096Y023686*
X026096Y023683*
X026095Y023679*
X026095Y023676*
X026095Y023673*
X026095Y023669*
X026095Y023666*
X026096Y023662*
X026096Y023659*
X026097Y023656*
X026099Y023653*
X026100Y023649*
X026102Y023647*
X026104Y023644*
X026106Y023641*
X026108Y023638*
X026111Y023636*
X026113Y023634*
X026116Y023632*
X026119Y023630*
X026122Y023628*
X026125Y023627*
X026128Y023626*
X026132Y023625*
X026135Y023624*
X026138Y023624*
X026142Y023624*
X026145*
X026149Y023624*
X026152Y023624*
X026155Y023625*
X026159Y023626*
X026162Y023627*
X026165Y023628*
X026168Y023630*
X026171Y023632*
X026174Y023634*
X026176Y023636*
X026179Y023638*
X026181Y023641*
X026183Y023644*
X026185Y023647*
X026187Y023649*
X026188Y023653*
X026190Y023656*
X026191Y023659*
X026191Y023662*
X026192Y023666*
X026192Y023669*
X026193Y023673*
X025243Y032791D02*
D01*
X025242Y032794*
X025242Y032797*
X025241Y032801*
X025241Y032804*
X025240Y032807*
X025238Y032810*
X025237Y032814*
X025235Y032816*
X025233Y032819*
X025231Y032822*
X025229Y032825*
X025226Y032827*
X025224Y032829*
X025221Y032831*
X025218Y032833*
X025215Y032835*
X025212Y032836*
X025209Y032837*
X025205Y032838*
X025202Y032839*
X025199Y032839*
X025195Y032839*
X025192*
X025188Y032839*
X025185Y032839*
X025182Y032838*
X025178Y032837*
X025175Y032836*
X025172Y032835*
X025169Y032833*
X025166Y032831*
X025163Y032829*
X025161Y032827*
X025158Y032825*
X025156Y032822*
X025154Y032819*
X025152Y032816*
X025150Y032814*
X025149Y032810*
X025147Y032807*
X025146Y032804*
X025146Y032801*
X025145Y032797*
X025145Y032794*
X025145Y032791*
X025145Y032787*
X025145Y032784*
X025146Y032780*
X025146Y032777*
X025147Y032774*
X025149Y032771*
X025150Y032767*
X025152Y032765*
X025154Y032762*
X025156Y032759*
X025158Y032756*
X025161Y032754*
X025163Y032752*
X025166Y032750*
X025169Y032748*
X025172Y032746*
X025175Y032745*
X025178Y032744*
X025182Y032743*
X025185Y032742*
X025188Y032742*
X025192Y032742*
X025195*
X025199Y032742*
X025202Y032742*
X025205Y032743*
X025209Y032744*
X025212Y032745*
X025215Y032746*
X025218Y032748*
X025221Y032750*
X025224Y032752*
X025226Y032754*
X025229Y032756*
X025231Y032759*
X025233Y032762*
X025235Y032765*
X025237Y032767*
X025238Y032771*
X025240Y032774*
X025241Y032777*
X025241Y032780*
X025242Y032784*
X025242Y032787*
X025243Y032791*
Y031421D02*
D01*
X025242Y031424*
X025242Y031427*
X025241Y031431*
X025241Y031434*
X025240Y031437*
X025238Y031440*
X025237Y031444*
X025235Y031446*
X025233Y031449*
X025231Y031452*
X025229Y031455*
X025226Y031457*
X025224Y031459*
X025221Y031461*
X025218Y031463*
X025215Y031465*
X025212Y031466*
X025209Y031467*
X025205Y031468*
X025202Y031469*
X025199Y031469*
X025195Y031469*
X025192*
X025188Y031469*
X025185Y031469*
X025182Y031468*
X025178Y031467*
X025175Y031466*
X025172Y031465*
X025169Y031463*
X025166Y031461*
X025163Y031459*
X025161Y031457*
X025158Y031455*
X025156Y031452*
X025154Y031449*
X025152Y031446*
X025150Y031444*
X025149Y031440*
X025147Y031437*
X025146Y031434*
X025146Y031431*
X025145Y031427*
X025145Y031424*
X025145Y031421*
X025145Y031417*
X025145Y031414*
X025146Y031410*
X025146Y031407*
X025147Y031404*
X025149Y031401*
X025150Y031397*
X025152Y031395*
X025154Y031392*
X025156Y031389*
X025158Y031386*
X025161Y031384*
X025163Y031382*
X025166Y031380*
X025169Y031378*
X025172Y031376*
X025175Y031375*
X025178Y031374*
X025182Y031373*
X025185Y031372*
X025188Y031372*
X025192Y031372*
X025195*
X025199Y031372*
X025202Y031372*
X025205Y031373*
X025209Y031374*
X025212Y031375*
X025215Y031376*
X025218Y031378*
X025221Y031380*
X025224Y031382*
X025226Y031384*
X025229Y031386*
X025231Y031389*
X025233Y031392*
X025235Y031395*
X025237Y031397*
X025238Y031401*
X025240Y031404*
X025241Y031407*
X025241Y031410*
X025242Y031414*
X025242Y031417*
X025243Y031421*
Y030061D02*
D01*
X025242Y030064*
X025242Y030067*
X025241Y030071*
X025241Y030074*
X025240Y030077*
X025238Y030080*
X025237Y030084*
X025235Y030086*
X025233Y030089*
X025231Y030092*
X025229Y030095*
X025226Y030097*
X025224Y030099*
X025221Y030101*
X025218Y030103*
X025215Y030105*
X025212Y030106*
X025209Y030107*
X025205Y030108*
X025202Y030109*
X025199Y030109*
X025195Y030109*
X025192*
X025188Y030109*
X025185Y030109*
X025182Y030108*
X025178Y030107*
X025175Y030106*
X025172Y030105*
X025169Y030103*
X025166Y030101*
X025163Y030099*
X025161Y030097*
X025158Y030095*
X025156Y030092*
X025154Y030089*
X025152Y030086*
X025150Y030084*
X025149Y030080*
X025147Y030077*
X025146Y030074*
X025146Y030071*
X025145Y030067*
X025145Y030064*
X025145Y030061*
X025145Y030057*
X025145Y030054*
X025146Y030050*
X025146Y030047*
X025147Y030044*
X025149Y030041*
X025150Y030037*
X025152Y030035*
X025154Y030032*
X025156Y030029*
X025158Y030026*
X025161Y030024*
X025163Y030022*
X025166Y030020*
X025169Y030018*
X025172Y030016*
X025175Y030015*
X025178Y030014*
X025182Y030013*
X025185Y030012*
X025188Y030012*
X025192Y030012*
X025195*
X025199Y030012*
X025202Y030012*
X025205Y030013*
X025209Y030014*
X025212Y030015*
X025215Y030016*
X025218Y030018*
X025221Y030020*
X025224Y030022*
X025226Y030024*
X025229Y030026*
X025231Y030029*
X025233Y030032*
X025235Y030035*
X025237Y030037*
X025238Y030041*
X025240Y030044*
X025241Y030047*
X025241Y030050*
X025242Y030054*
X025242Y030057*
X025243Y030061*
X018804Y034635D02*
D01*
X018803Y034638*
X018803Y034641*
X018802Y034645*
X018802Y034648*
X018801Y034651*
X018799Y034654*
X018798Y034658*
X018796Y034660*
X018794Y034663*
X018792Y034666*
X018790Y034669*
X018787Y034671*
X018785Y034673*
X018782Y034675*
X018779Y034677*
X018776Y034679*
X018773Y034680*
X018770Y034681*
X018766Y034682*
X018763Y034683*
X018760Y034683*
X018756Y034683*
X018753*
X018749Y034683*
X018746Y034683*
X018743Y034682*
X018739Y034681*
X018736Y034680*
X018733Y034679*
X018730Y034677*
X018727Y034675*
X018724Y034673*
X018722Y034671*
X018719Y034669*
X018717Y034666*
X018715Y034663*
X018713Y034660*
X018711Y034658*
X018710Y034654*
X018708Y034651*
X018707Y034648*
X018707Y034645*
X018706Y034641*
X018706Y034638*
X018706Y034635*
X018706Y034631*
X018706Y034628*
X018707Y034624*
X018707Y034621*
X018708Y034618*
X018710Y034615*
X018711Y034611*
X018713Y034609*
X018715Y034606*
X018717Y034603*
X018719Y034600*
X018722Y034598*
X018724Y034596*
X018727Y034594*
X018730Y034592*
X018733Y034590*
X018736Y034589*
X018739Y034588*
X018743Y034587*
X018746Y034586*
X018749Y034586*
X018753Y034586*
X018756*
X018760Y034586*
X018763Y034586*
X018766Y034587*
X018770Y034588*
X018773Y034589*
X018776Y034590*
X018779Y034592*
X018782Y034594*
X018785Y034596*
X018787Y034598*
X018790Y034600*
X018792Y034603*
X018794Y034606*
X018796Y034609*
X018798Y034611*
X018799Y034615*
X018801Y034618*
X018802Y034621*
X018802Y034624*
X018803Y034628*
X018803Y034631*
X018804Y034635*
X013504Y026885D02*
D01*
X013503Y026888*
X013503Y026891*
X013502Y026895*
X013502Y026898*
X013501Y026901*
X013499Y026904*
X013498Y026908*
X013496Y026910*
X013494Y026913*
X013492Y026916*
X013490Y026919*
X013487Y026921*
X013485Y026923*
X013482Y026925*
X013479Y026927*
X013476Y026929*
X013473Y026930*
X013470Y026931*
X013466Y026932*
X013463Y026933*
X013460Y026933*
X013456Y026933*
X013453*
X013449Y026933*
X013446Y026933*
X013443Y026932*
X013439Y026931*
X013436Y026930*
X013433Y026929*
X013430Y026927*
X013427Y026925*
X013424Y026923*
X013422Y026921*
X013419Y026919*
X013417Y026916*
X013415Y026913*
X013413Y026910*
X013411Y026908*
X013410Y026904*
X013408Y026901*
X013407Y026898*
X013407Y026895*
X013406Y026891*
X013406Y026888*
X013406Y026885*
X013406Y026881*
X013406Y026878*
X013407Y026874*
X013407Y026871*
X013408Y026868*
X013410Y026865*
X013411Y026861*
X013413Y026859*
X013415Y026856*
X013417Y026853*
X013419Y026850*
X013422Y026848*
X013424Y026846*
X013427Y026844*
X013430Y026842*
X013433Y026840*
X013436Y026839*
X013439Y026838*
X013443Y026837*
X013446Y026836*
X013449Y026836*
X013453Y026836*
X013456*
X013460Y026836*
X013463Y026836*
X013466Y026837*
X013470Y026838*
X013473Y026839*
X013476Y026840*
X013479Y026842*
X013482Y026844*
X013485Y026846*
X013487Y026848*
X013490Y026850*
X013492Y026853*
X013494Y026856*
X013496Y026859*
X013498Y026861*
X013499Y026865*
X013501Y026868*
X013502Y026871*
X013502Y026874*
X013503Y026878*
X013503Y026881*
X013504Y026885*
G54D11*
X021052Y025510D02*
D01*
X021046Y025674*
X021029Y025838*
X021000Y026001*
X020960Y026161*
X020909Y026317*
X020847Y026470*
X020775Y026618*
X020693Y026761*
X020600Y026898*
X020499Y027028*
X020389Y027150*
X020270Y027265*
X020144Y027371*
X020010Y027468*
X019871Y027555*
X019725Y027632*
X019574Y027700*
X019419Y027756*
X019261Y027801*
X019100Y027836*
X018936Y027859*
X018772Y027870*
X018607*
X018443Y027859*
X018279Y027836*
X018118Y027801*
X017960Y027756*
X017805Y027700*
X017654Y027632*
X017508Y027555*
X017369Y027468*
X017235Y027371*
X017109Y027265*
X016990Y027150*
X016880Y027028*
X016779Y026898*
X016686Y026761*
X016604Y026618*
X016532Y026470*
X016470Y026317*
X016419Y026161*
X016379Y026001*
X016350Y025838*
X016333Y025674*
X016328Y025510*
X016333Y025345*
X016350Y025181*
X016379Y025018*
X016419Y024858*
X016470Y024702*
X016532Y024549*
X016604Y024401*
X016686Y024258*
X016779Y024121*
X016880Y023991*
X016990Y023869*
X017109Y023754*
X017235Y023648*
X017369Y023551*
X017509Y023464*
X017654Y023387*
X017805Y023319*
X017960Y023263*
X018118Y023218*
X018279Y023183*
X018443Y023160*
X018607Y023149*
X018772*
X018936Y023160*
X019100Y023183*
X019261Y023218*
X019419Y023263*
X019574Y023319*
X019725Y023387*
X019871Y023464*
X020010Y023551*
X020144Y023648*
X020270Y023754*
X020389Y023869*
X020499Y023991*
X020600Y024121*
X020693Y024258*
X020775Y024401*
X020847Y024549*
X020909Y024702*
X020960Y024858*
X021000Y025018*
X021029Y025181*
X021046Y025345*
X021052Y025510*
X030542Y028135D02*
X033298D01*
X030542Y023805D02*
X033298D01*
X030542D02*
Y028135D01*
X033298Y023805D02*
Y028135D01*
X030542Y020834D02*
Y023786D01*
Y020834D02*
X033298D01*
X030542Y023786D02*
X033298D01*
Y020834D02*
Y023786D01*
X027610Y031350D02*
X027760Y031500D01*
X029410D02*
X029600Y031310D01*
Y030470D02*
Y031310D01*
X027610Y030370D02*
X027760Y030220D01*
X027610Y030370D02*
Y031350D01*
X027600Y029060D02*
X027738Y028923D01*
X027600Y029060D02*
Y030060D01*
X027760Y030220*
X029350*
X029500Y030070*
X029610Y029960*
X029350Y030220D02*
X029600Y030470D01*
X027738Y028923D02*
X029462D01*
X029610Y029070*
Y029960*
X027760Y031500D02*
X029410D01*
X029350Y030220D02*
X030080D01*
X029950Y030350D02*
X030080Y030220D01*
Y030210D02*
Y030220D01*
X029950Y030080D02*
X030080Y030210D01*
X029170Y021870D02*
X029070Y021970D01*
X028870*
X028770Y021870*
Y021470*
X028870Y021370*
X029070*
X029170Y021470*
Y021670*
X028970*
X029370Y021370D02*
Y021970D01*
X029770Y021370*
Y021970*
X029970D02*
Y021370D01*
X030270*
X030370Y021470*
Y021870*
X030270Y021970*
X029970*
X028270Y023100D02*
X028670D01*
X028470Y023300D02*
Y022900D01*
X028870Y022800D02*
X029070D01*
X028970*
Y023400*
X028870Y023300*
X029770Y022800D02*
X029370D01*
X029770Y023200*
Y023300*
X029670Y023400*
X029470*
X029370Y023300*
X029970Y023400D02*
Y023000D01*
X030170Y022800*
X030370Y023000*
Y023400*
X029370Y024830D02*
Y024230D01*
X029670*
X029770Y024330*
Y024730*
X029670Y024830*
X029370*
X029970D02*
Y024230D01*
X030370*
X029370Y026260D02*
Y025660D01*
X029670*
X029770Y025760*
Y025860*
X029670Y025960*
X029370*
X029670*
X029770Y026060*
Y026160*
X029670Y026260*
X029370*
X029970Y025660D02*
X030170D01*
X030070*
Y026260*
X029970Y026160*
X029370Y027090D02*
Y027490D01*
X029570Y027690*
X029770Y027490*
Y027090*
Y027390*
X029370*
X029970Y027590D02*
X030070Y027690D01*
X030270*
X030370Y027590*
Y027190*
X030270Y027090*
X030070*
X029970Y027190*
Y027590*
X020720Y021890D02*
Y021590D01*
X020820Y021490*
X020920Y021590*
X021020Y021490*
X021120Y021590*
Y021890*
X021320D02*
Y021590D01*
X021420Y021490*
X021520Y021590*
X021620Y021490*
X021720Y021590*
Y021890*
X021920D02*
Y021590D01*
X022020Y021490*
X022120Y021590*
X022220Y021490*
X022319Y021590*
Y021890*
X022519Y021490D02*
Y021590D01*
X022619*
Y021490*
X022519*
X023019D02*
X023219D01*
X023119*
Y021890*
X023019*
X023519Y021490D02*
Y021890D01*
X023619*
X023719Y021790*
Y021490*
Y021790*
X023819Y021890*
X023919Y021790*
Y021490*
X024419D02*
X024219D01*
X024119Y021590*
Y021790*
X024219Y021890*
X024419*
X024519Y021790*
Y021690*
X024119*
X025119Y022090D02*
Y021490D01*
X024819*
X024719Y021590*
Y021790*
X024819Y021890*
X025119*
X025319Y021490D02*
X025518D01*
X025418*
Y021890*
X025319*
X025918D02*
X026118D01*
X026218Y021790*
Y021490*
X025918*
X025818Y021590*
X025918Y021690*
X026218*
X026418Y021490D02*
Y021590D01*
X026518*
Y021490*
X026418*
X026918Y022090D02*
Y021490D01*
X027218*
X027318Y021590*
Y021690*
Y021790*
X027218Y021890*
X026918*
X027618D02*
X027818D01*
X027918Y021790*
Y021490*
X027618*
X027518Y021590*
X027618Y021690*
X027918*
X021300Y015410D02*
X021500D01*
X021400*
Y015810*
X021300*
X021800Y015410D02*
Y016010D01*
X022000Y015810*
X022200Y016010*
Y015410*
X022800Y016010D02*
X022400D01*
Y015410*
X022800*
X022400Y015710D02*
X022600D01*
X022999Y016010D02*
Y015410D01*
X023299*
X023399Y015510*
Y015910*
X023299Y016010*
X022999*
X023599D02*
X023799D01*
X023699*
Y015410*
X023599*
X023799*
X024099D02*
Y015810D01*
X024299Y016010*
X024499Y015810*
Y015410*
Y015710*
X024099*
X025699Y015910D02*
X025599Y016010D01*
X025399*
X025299Y015910*
Y015810*
X025399Y015710*
X025599*
X025699Y015610*
Y015510*
X025599Y015410*
X025399*
X025299Y015510*
X025998Y015810D02*
X026198D01*
X026298Y015710*
Y015410*
X025998*
X025899Y015510*
X025998Y015610*
X026298*
X026498Y015810D02*
Y015410D01*
Y015610*
X026598Y015710*
X026698Y015810*
X026798*
X027198D02*
X027398D01*
X027498Y015710*
Y015410*
X027198*
X027098Y015510*
X027198Y015610*
X027498*
X027698Y015210D02*
X027798D01*
X027898Y015310*
Y015810*
X028598Y015410D02*
X028398D01*
X028298Y015510*
Y015710*
X028398Y015810*
X028598*
X028698Y015710*
Y015610*
X028298*
X028898Y015810D02*
X029097Y015410D01*
X029297Y015810*
X029597Y015410D02*
X029797D01*
X029897Y015510*
Y015710*
X029797Y015810*
X029597*
X029497Y015710*
Y015510*
X029597Y015410*
X021300Y014940D02*
Y014340D01*
X021600*
X021700Y014440*
Y014540*
X021600Y014640*
X021300*
X021600*
X021700Y014740*
Y014840*
X021600Y014940*
X021300*
X022000Y014340D02*
X022200D01*
X022300Y014440*
Y014640*
X022200Y014740*
X022000*
X021900Y014640*
Y014440*
X022000Y014340*
X022500D02*
X022800D01*
X022899Y014440*
X022800Y014540*
X022600*
X022500Y014640*
X022600Y014740*
X022899*
X023099Y014340D02*
Y014740D01*
X023399*
X023499Y014640*
Y014340*
X023799Y014740D02*
X023999D01*
X024099Y014640*
Y014340*
X023799*
X023699Y014440*
X023799Y014540*
X024099*
X024899Y014340D02*
X025099D01*
X024999*
Y014740*
X024899*
X025998Y014940D02*
Y014340D01*
Y014640*
X026398*
Y014940*
Y014340*
X026898D02*
X026698D01*
X026598Y014440*
Y014640*
X026698Y014740*
X026898*
X026998Y014640*
Y014540*
X026598*
X027198Y014740D02*
Y014340D01*
Y014540*
X027298Y014640*
X027398Y014740*
X027498*
X028198D02*
X027898D01*
X027798Y014640*
Y014440*
X027898Y014340*
X028198*
X028698D02*
X028498D01*
X028398Y014440*
Y014640*
X028498Y014740*
X028698*
X028798Y014640*
Y014540*
X028398*
X029197Y014140D02*
X029297D01*
X029397Y014240*
Y014740*
X029097*
X028998Y014640*
Y014440*
X029097Y014340*
X029397*
X029697D02*
X029897D01*
X029997Y014440*
Y014640*
X029897Y014740*
X029697*
X029597Y014640*
Y014440*
X029697Y014340*
X030197Y014740D02*
X030397Y014340D01*
X030597Y014740*
X030797Y014340D02*
X030997D01*
X030897*
Y014740*
X030797*
X031297Y014340D02*
Y014740D01*
X031597*
X031697Y014640*
Y014340*
X031997Y014740D02*
X032196D01*
X032296Y014640*
Y014340*
X031997*
X031897Y014440*
X031997Y014540*
X032296*
X021810Y038500D02*
Y037900D01*
X022110*
X022210Y038000*
Y038400*
X022110Y038500*
X021810*
X022810D02*
X022410D01*
Y037900*
X022810*
X022410Y038200D02*
X022610D01*
X023010D02*
X023409D01*
X023609Y037900D02*
X023809D01*
X023709*
Y038500*
X023609Y038400*
X024509Y038500D02*
X024109D01*
Y038200*
X024309Y038300*
X024409*
X024509Y038200*
Y038000*
X024409Y037900*
X024209*
X024109Y038000*
X024709Y038400D02*
X024809Y038500D01*
X025009*
X025109Y038400*
Y038000*
X025009Y037900*
X024809*
X024709Y038000*
Y038400*
X025309D02*
X025409Y038500D01*
X025609*
X025709Y038400*
Y038300*
X025609Y038200*
X025709Y038100*
Y038000*
X025609Y037900*
X025409*
X025309Y038000*
Y038100*
X025409Y038200*
X025309Y038300*
Y038400*
X025409Y038200D02*
X025609D01*
X026309Y037900D02*
X025909D01*
X026309Y038300*
Y038400*
X026209Y038500*
X026009*
X025909Y038400*
X026808Y037900D02*
Y038500D01*
X026508Y038200*
X026908*
X021810Y036840D02*
Y037240D01*
X022010Y037440*
X022210Y037240*
Y036840*
Y037140*
X021810*
X022410Y037440D02*
Y036940D01*
X022510Y036840*
X022710*
X022810Y036940*
Y037440*
X023409Y037340D02*
X023310Y037440D01*
X023110*
X023010Y037340*
Y036940*
X023110Y036840*
X023310*
X023409Y036940*
Y037140*
X023210*
X023609Y036840D02*
Y036940D01*
X023709*
Y036840*
X023609*
X025109D02*
X024709D01*
X025109Y037240*
Y037340*
X025009Y037440*
X024809*
X024709Y037340*
X025309D02*
X025409Y037440D01*
X025609*
X025709Y037340*
Y036940*
X025609Y036840*
X025409*
X025309Y036940*
Y037340*
X026309Y036840D02*
X025909D01*
X026309Y037240*
Y037340*
X026209Y037440*
X026009*
X025909Y037340*
X026808Y036840D02*
Y037440D01*
X026508Y037140*
X026908*
X027108Y036840D02*
Y036940D01*
X027208*
Y036840*
X027108*
X022340Y018470D02*
Y018870D01*
X022540Y019070*
X022740Y018870*
Y018470*
Y018770*
X022340*
X022940Y019070D02*
Y018470D01*
X023240*
X023340Y018570*
Y018970*
X023240Y019070*
X022940*
X023540D02*
Y018470D01*
X023840*
X023939Y018570*
Y018970*
X023840Y019070*
X023540*
X024139Y018470D02*
Y019070D01*
X024439*
X024539Y018970*
Y018770*
X024439Y018670*
X024139*
X024339D02*
X024539Y018470D01*
X025139Y019070D02*
X024739D01*
Y018470*
X025139*
X024739Y018770D02*
X024939D01*
X025739Y018970D02*
X025639Y019070D01*
X025439*
X025339Y018970*
Y018870*
X025439Y018770*
X025639*
X025739Y018670*
Y018570*
X025639Y018470*
X025439*
X025339Y018570*
X026339Y018970D02*
X026239Y019070D01*
X026039*
X025939Y018970*
Y018870*
X026039Y018770*
X026239*
X026339Y018670*
Y018570*
X026239Y018470*
X026039*
X025939Y018570*
X026939Y019070D02*
X026539D01*
Y018470*
X026939*
X026539Y018770D02*
X026739D01*
X035630Y035960D02*
X035580Y036010D01*
X035480*
X035430Y035960*
Y035760*
X035480Y035710*
X035580*
X035630Y035760*
X035730Y035710D02*
X035830D01*
X035780*
Y036010*
X035730Y035960*
X035626D02*
X035576Y036010D01*
X035476*
X035426Y035960*
Y035760*
X035476Y035710*
X035576*
X035626Y035760*
X035926Y035710D02*
X035726D01*
X035926Y035910*
Y035960*
X035876Y036010*
X035776*
X035726Y035960*
X035630D02*
X035580Y036010D01*
X035480*
X035430Y035960*
Y035760*
X035480Y035710*
X035580*
X035630Y035760*
X035730Y035960D02*
X035780Y036010D01*
X035880*
X035930Y035960*
Y035910*
X035880Y035860*
X035830*
X035880*
X035930Y035810*
Y035760*
X035880Y035710*
X035780*
X035730Y035760*
X035630Y035960D02*
X035580Y036010D01*
X035480*
X035430Y035960*
Y035760*
X035480Y035710*
X035580*
X035630Y035760*
X035880Y035710D02*
Y036010D01*
X035730Y035860*
X035930*
X035630Y035960D02*
X035580Y036010D01*
X035480*
X035430Y035960*
Y035760*
X035480Y035710*
X035580*
X035630Y035760*
X035930Y036010D02*
X035730D01*
Y035860*
X035830Y035910*
X035880*
X035930Y035860*
Y035760*
X035880Y035710*
X035780*
X035730Y035760*
X035630Y035960D02*
X035580Y036010D01*
X035480*
X035430Y035960*
Y035760*
X035480Y035710*
X035580*
X035630Y035760*
X035930Y036010D02*
X035830Y035960D01*
X035730Y035860*
Y035760*
X035780Y035710*
X035880*
X035930Y035760*
Y035810*
X035880Y035860*
X035730*
X035630Y035960D02*
X035580Y036010D01*
X035480*
X035430Y035960*
Y035760*
X035480Y035710*
X035580*
X035630Y035760*
X035730Y036010D02*
X035930D01*
Y035960*
X035730Y035760*
Y035710*
X035630Y035960D02*
X035580Y036010D01*
X035480*
X035430Y035960*
Y035760*
X035480Y035710*
X035580*
X035630Y035760*
X035730Y035960D02*
X035780Y036010D01*
X035880*
X035930Y035960*
Y035910*
X035880Y035860*
X035930Y035810*
Y035760*
X035880Y035710*
X035780*
X035730Y035760*
Y035810*
X035780Y035860*
X035730Y035910*
Y035960*
X035780Y035860D02*
X035880D01*
X035630Y035960D02*
X035580Y036010D01*
X035480*
X035430Y035960*
Y035760*
X035480Y035710*
X035580*
X035630Y035760*
X035730D02*
X035780Y035710D01*
X035880*
X035930Y035760*
Y035960*
X035880Y036010*
X035780*
X035730Y035960*
Y035910*
X035780Y035860*
X035930*
X035630Y035960D02*
X035580Y036010D01*
X035480*
X035430Y035960*
Y035760*
X035480Y035710*
X035580*
X035630Y035760*
X035730Y035710D02*
X035830D01*
X035780*
Y036010*
X035730Y035960*
X035980Y035710D02*
X036080D01*
X036030*
Y036010*
X035980Y035960*
X035630D02*
X035580Y036010D01*
X035480*
X035430Y035960*
Y035760*
X035480Y035710*
X035580*
X035630Y035760*
X035730Y035710D02*
X035830D01*
X035780*
Y036010*
X035730Y035960*
X036180Y035710D02*
X035980D01*
X036180Y035910*
Y035960*
X036130Y036010*
X036030*
X035980Y035960*
X035630D02*
X035580Y036010D01*
X035480*
X035430Y035960*
Y035760*
X035480Y035710*
X035580*
X035630Y035760*
X035730Y035710D02*
X035830D01*
X035780*
Y036010*
X035730Y035960*
X036130Y035710D02*
Y036010D01*
X035980Y035860*
X036180*
X035626Y035960D02*
X035576Y036010D01*
X035476*
X035426Y035960*
Y035760*
X035476Y035710*
X035576*
X035626Y035760*
X035726Y035710D02*
X035826D01*
X035776*
Y036010*
X035726Y035960*
X036176Y036010D02*
X035976D01*
Y035860*
X036076Y035910*
X036126*
X036176Y035860*
Y035760*
X036126Y035710*
X036026*
X035976Y035760*
X035630Y035960D02*
X035580Y036010D01*
X035480*
X035430Y035960*
Y035760*
X035480Y035710*
X035580*
X035630Y035760*
X035730Y035710D02*
X035830D01*
X035780*
Y036010*
X035730Y035960*
X036180Y036010D02*
X036080Y035960D01*
X035980Y035860*
Y035760*
X036030Y035710*
X036130*
X036180Y035760*
Y035810*
X036130Y035860*
X035980*
X035630Y035960D02*
X035580Y036010D01*
X035480*
X035430Y035960*
Y035760*
X035480Y035710*
X035580*
X035630Y035760*
X035730Y035710D02*
X035830D01*
X035780*
Y036010*
X035730Y035960*
X035980D02*
X036030Y036010D01*
X036130*
X036180Y035960*
Y035910*
X036130Y035860*
X036180Y035810*
Y035760*
X036130Y035710*
X036030*
X035980Y035760*
Y035810*
X036030Y035860*
X035980Y035910*
Y035960*
X036030Y035860D02*
X036130D01*
X035630Y035960D02*
X035580Y036010D01*
X035480*
X035430Y035960*
Y035760*
X035480Y035710*
X035580*
X035630Y035760*
X035730Y035710D02*
X035830D01*
X035780*
Y036010*
X035730Y035960*
X035980Y035760D02*
X036030Y035710D01*
X036130*
X036180Y035760*
Y035960*
X036130Y036010*
X036030*
X035980Y035960*
Y035910*
X036030Y035860*
X036180*
X035630Y035960D02*
X035580Y036010D01*
X035480*
X035430Y035960*
Y035760*
X035480Y035710*
X035580*
X035630Y035760*
X035930Y035710D02*
X035730D01*
X035930Y035910*
Y035960*
X035880Y036010*
X035780*
X035730Y035960*
X036030D02*
X036080Y036010D01*
X036180*
X036230Y035960*
Y035760*
X036180Y035710*
X036080*
X036030Y035760*
Y035960*
X035630D02*
X035580Y036010D01*
X035480*
X035430Y035960*
Y035760*
X035480Y035710*
X035580*
X035630Y035760*
X035930Y035710D02*
X035730D01*
X035930Y035910*
Y035960*
X035880Y036010*
X035780*
X035730Y035960*
X036030Y035710D02*
X036130D01*
X036080*
Y036010*
X036030Y035960*
X035630D02*
X035580Y036010D01*
X035480*
X035430Y035960*
Y035760*
X035480Y035710*
X035580*
X035630Y035760*
X035930Y035710D02*
X035730D01*
X035930Y035910*
Y035960*
X035880Y036010*
X035780*
X035730Y035960*
X036230Y035710D02*
X036030D01*
X036230Y035910*
Y035960*
X036180Y036010*
X036080*
X036030Y035960*
X035430Y036010D02*
Y035710D01*
X035580*
X035630Y035760*
Y035960*
X035580Y036010*
X035430*
X035730Y035710D02*
X035830D01*
X035780*
Y036010*
X035730Y035960*
X035430Y036010D02*
Y035710D01*
X035630*
X035730D02*
X035830D01*
X035780*
Y036010*
X035730Y035960*
X035420Y036004D02*
Y035704D01*
X035620*
X035920Y035954D02*
X035870Y036004D01*
X035770*
X035720Y035954*
Y035904*
X035770Y035854*
X035870*
X035920Y035804*
Y035754*
X035870Y035704*
X035770*
X035720Y035754*
X036020Y035704D02*
X036120D01*
X036070*
Y036004*
X036020Y035954*
X035430Y035710D02*
Y036010D01*
X035580*
X035630Y035960*
Y035860*
X035580Y035810*
X035430*
X035730Y035710D02*
X035830D01*
X035780*
Y036010*
X035730Y035960*
X035430Y035710D02*
Y036010D01*
X035580*
X035630Y035960*
Y035860*
X035580Y035810*
X035430*
X035930Y035710D02*
X035730D01*
X035930Y035910*
Y035960*
X035880Y036010*
X035780*
X035730Y035960*
X035430Y035704D02*
Y036004D01*
X035580*
X035630Y035954*
Y035854*
X035580Y035804*
X035430*
X035930Y035954D02*
X035880Y036004D01*
X035780*
X035730Y035954*
Y035904*
X035780Y035854*
X035880*
X035930Y035804*
Y035754*
X035880Y035704*
X035780*
X035730Y035754*
X036030Y035704D02*
X036130D01*
X036080*
Y036004*
X036030Y035954*
X035623Y035756D02*
Y035956D01*
X035573Y036006*
X035473*
X035423Y035956*
Y035756*
X035473Y035706*
X035573*
X035523Y035806D02*
X035623Y035706D01*
X035573D02*
X035623Y035756D01*
X035923Y035706D02*
X035723D01*
X035923Y035906*
Y035956*
X035873Y036006*
X035773*
X035723Y035956*
X035623Y035753D02*
Y035953D01*
X035573Y036003*
X035473*
X035423Y035953*
Y035753*
X035473Y035703*
X035573*
X035523Y035803D02*
X035623Y035703D01*
X035573D02*
X035623Y035753D01*
X035873Y035703D02*
Y036003D01*
X035723Y035853*
X035923*
X035623Y035760D02*
Y035960D01*
X035573Y036010*
X035473*
X035423Y035960*
Y035760*
X035473Y035710*
X035573*
X035523Y035810D02*
X035623Y035710D01*
X035573D02*
X035623Y035760D01*
X035923Y036010D02*
X035723D01*
Y035860*
X035823Y035910*
X035873*
X035923Y035860*
Y035760*
X035873Y035710*
X035773*
X035723Y035760*
X035430Y035710D02*
Y036010D01*
X035580*
X035630Y035960*
Y035860*
X035580Y035810*
X035430*
X035530D02*
X035630Y035710D01*
X035880D02*
Y036010D01*
X035730Y035860*
X035930*
X035430Y035705D02*
Y036005D01*
X035580*
X035630Y035955*
Y035855*
X035580Y035805*
X035430*
X035530D02*
X035630Y035705D01*
X035930Y036005D02*
X035730D01*
Y035855*
X035830Y035905*
X035880*
X035930Y035855*
Y035755*
X035880Y035705*
X035780*
X035730Y035755*
X035430Y035710D02*
Y036010D01*
X035580*
X035630Y035960*
Y035860*
X035580Y035810*
X035430*
X035530D02*
X035630Y035710D01*
X035930Y036010D02*
X035830Y035960D01*
X035730Y035860*
Y035760*
X035780Y035710*
X035880*
X035930Y035760*
Y035810*
X035880Y035860*
X035730*
X035430Y035710D02*
Y036010D01*
X035580*
X035630Y035960*
Y035860*
X035580Y035810*
X035430*
X035530D02*
X035630Y035710D01*
X035730Y036010D02*
X035930D01*
Y035960*
X035730Y035760*
Y035710*
X035430D02*
Y036010D01*
X035580*
X035630Y035960*
Y035860*
X035580Y035810*
X035430*
X035530D02*
X035630Y035710D01*
X035730D02*
X035830D01*
X035780*
Y036010*
X035730Y035960*
X035980Y035710D02*
X036080D01*
X036030*
Y036010*
X035980Y035960*
X035430Y035710D02*
Y036010D01*
X035580*
X035630Y035960*
Y035860*
X035580Y035810*
X035430*
X035530D02*
X035630Y035710D01*
X035730D02*
X035830D01*
X035780*
Y036010*
X035730Y035960*
X036180Y035710D02*
X035980D01*
X036180Y035910*
Y035960*
X036130Y036010*
X036030*
X035980Y035960*
X035430Y035710D02*
Y036010D01*
X035580*
X035630Y035960*
Y035860*
X035580Y035810*
X035430*
X035530D02*
X035630Y035710D01*
X035730D02*
X035830D01*
X035780*
Y036010*
X035730Y035960*
X035980D02*
X036030Y036010D01*
X036130*
X036180Y035960*
Y035910*
X036130Y035860*
X036080*
X036130*
X036180Y035810*
Y035760*
X036130Y035710*
X036030*
X035980Y035760*
X035430Y035710D02*
Y036010D01*
X035580*
X035630Y035960*
Y035860*
X035580Y035810*
X035430*
X035530D02*
X035630Y035710D01*
X035730D02*
X035830D01*
X035780*
Y036010*
X035730Y035960*
X036180Y036010D02*
X036080Y035960D01*
X035980Y035860*
Y035760*
X036030Y035710*
X036130*
X036180Y035760*
Y035810*
X036130Y035860*
X035980*
X035430Y035710D02*
Y036010D01*
X035580*
X035630Y035960*
Y035860*
X035580Y035810*
X035430*
X035530D02*
X035630Y035710D01*
X035730D02*
X035830D01*
X035780*
Y036010*
X035730Y035960*
X035980Y036010D02*
X036180D01*
Y035960*
X035980Y035760*
Y035710*
X035430D02*
Y036010D01*
X035580*
X035630Y035960*
Y035860*
X035580Y035810*
X035430*
X035530D02*
X035630Y035710D01*
X035730D02*
X035830D01*
X035780*
Y036010*
X035730Y035960*
X035980Y035760D02*
X036030Y035710D01*
X036130*
X036180Y035760*
Y035960*
X036130Y036010*
X036030*
X035980Y035960*
Y035910*
X036030Y035860*
X036180*
X035430Y035710D02*
Y036010D01*
X035580*
X035630Y035960*
Y035860*
X035580Y035810*
X035430*
X035530D02*
X035630Y035710D01*
X035930D02*
X035730D01*
X035930Y035910*
Y035960*
X035880Y036010*
X035780*
X035730Y035960*
X036030D02*
X036080Y036010D01*
X036180*
X036230Y035960*
Y035760*
X036180Y035710*
X036080*
X036030Y035760*
Y035960*
X035430Y035710D02*
Y036010D01*
X035580*
X035630Y035960*
Y035860*
X035580Y035810*
X035430*
X035530D02*
X035630Y035710D01*
X035930D02*
X035730D01*
X035930Y035910*
Y035960*
X035880Y036010*
X035780*
X035730Y035960*
X036030Y035710D02*
X036130D01*
X036080*
Y036010*
X036030Y035960*
X035430Y035705D02*
Y036005D01*
X035580*
X035630Y035955*
Y035855*
X035580Y035805*
X035430*
X035530D02*
X035630Y035705D01*
X035930D02*
X035730D01*
X035930Y035905*
Y035955*
X035880Y036005*
X035780*
X035730Y035955*
X036030D02*
X036080Y036005D01*
X036180*
X036230Y035955*
Y035905*
X036180Y035855*
X036130*
X036180*
X036230Y035805*
Y035755*
X036180Y035705*
X036080*
X036030Y035755*
X035424Y035710D02*
Y036010D01*
X035574*
X035624Y035960*
Y035860*
X035574Y035810*
X035424*
X035524D02*
X035624Y035710D01*
X035924D02*
X035724D01*
X035924Y035910*
Y035960*
X035874Y036010*
X035774*
X035724Y035960*
X036174Y035710D02*
Y036010D01*
X036024Y035860*
X036224*
X035430Y035710D02*
Y036010D01*
X035580*
X035630Y035960*
Y035860*
X035580Y035810*
X035430*
X035530D02*
X035630Y035710D01*
X035930D02*
X035730D01*
X035930Y035910*
Y035960*
X035880Y036010*
X035780*
X035730Y035960*
X036230Y036010D02*
X036030D01*
Y035860*
X036130Y035910*
X036180*
X036230Y035860*
Y035760*
X036180Y035710*
X036080*
X036030Y035760*
X035430Y035710D02*
Y036010D01*
X035580*
X035630Y035960*
Y035860*
X035580Y035810*
X035430*
X035530D02*
X035630Y035710D01*
X035930D02*
X035730D01*
X035930Y035910*
Y035960*
X035880Y036010*
X035780*
X035730Y035960*
X036230Y036010D02*
X036130Y035960D01*
X036030Y035860*
Y035760*
X036080Y035710*
X036180*
X036230Y035760*
Y035810*
X036180Y035860*
X036030*
X035430Y035710D02*
Y036010D01*
X035580*
X035630Y035960*
Y035860*
X035580Y035810*
X035430*
X035530D02*
X035630Y035710D01*
X035930D02*
X035730D01*
X035930Y035910*
Y035960*
X035880Y036010*
X035780*
X035730Y035960*
X036030Y036010D02*
X036230D01*
Y035960*
X036030Y035760*
Y035710*
X035430D02*
Y036010D01*
X035580*
X035630Y035960*
Y035860*
X035580Y035810*
X035430*
X035530D02*
X035630Y035710D01*
X035930D02*
X035730D01*
X035930Y035910*
Y035960*
X035880Y036010*
X035780*
X035730Y035960*
X036030D02*
X036080Y036010D01*
X036180*
X036230Y035960*
Y035910*
X036180Y035860*
X036230Y035810*
Y035760*
X036180Y035710*
X036080*
X036030Y035760*
Y035810*
X036080Y035860*
X036030Y035910*
Y035960*
X036080Y035860D02*
X036180D01*
X035430Y035710D02*
Y036010D01*
X035580*
X035630Y035960*
Y035860*
X035580Y035810*
X035430*
X035530D02*
X035630Y035710D01*
X035930D02*
X035730D01*
X035930Y035910*
Y035960*
X035880Y036010*
X035780*
X035730Y035960*
X036030Y035760D02*
X036080Y035710D01*
X036180*
X036230Y035760*
Y035960*
X036180Y036010*
X036080*
X036030Y035960*
Y035910*
X036080Y035860*
X036230*
X035430Y035710D02*
Y036010D01*
X035580*
X035630Y035960*
Y035860*
X035580Y035810*
X035430*
X035530D02*
X035630Y035710D01*
X035730Y035960D02*
X035780Y036010D01*
X035880*
X035930Y035960*
Y035910*
X035880Y035860*
X035830*
X035880*
X035930Y035810*
Y035760*
X035880Y035710*
X035780*
X035730Y035760*
X036030Y035960D02*
X036080Y036010D01*
X036180*
X036230Y035960*
Y035760*
X036180Y035710*
X036080*
X036030Y035760*
Y035960*
X035430Y035710D02*
Y036010D01*
X035580*
X035630Y035960*
Y035860*
X035580Y035810*
X035430*
X035530D02*
X035630Y035710D01*
X035730Y035960D02*
X035780Y036010D01*
X035880*
X035930Y035960*
Y035910*
X035880Y035860*
X035830*
X035880*
X035930Y035810*
Y035760*
X035880Y035710*
X035780*
X035730Y035760*
X036030Y035710D02*
X036130D01*
X036080*
Y036010*
X036030Y035960*
X035630D02*
X035580Y036010D01*
X035480*
X035430Y035960*
Y035910*
X035480Y035860*
X035580*
X035630Y035810*
Y035760*
X035580Y035710*
X035480*
X035430Y035760*
X035730Y035710D02*
X035830D01*
X035780*
Y036010*
X035730Y035960*
X035430Y036010D02*
Y035760D01*
X035480Y035710*
X035580*
X035630Y035760*
Y036010*
X035930Y035710D02*
X035730D01*
X035930Y035910*
Y035960*
X035880Y036010*
X035780*
X035730Y035960*
X035430Y036010D02*
Y035760D01*
X035480Y035710*
X035580*
X035630Y035760*
Y036010*
X035730Y035960D02*
X035780Y036010D01*
X035880*
X035930Y035960*
Y035910*
X035880Y035860*
X035830*
X035880*
X035930Y035810*
Y035760*
X035880Y035710*
X035780*
X035730Y035760*
X035430Y036010D02*
Y035760D01*
X035480Y035710*
X035580*
X035630Y035760*
Y036010*
X035880Y035710D02*
Y036010D01*
X035730Y035860*
X035930*
X035430Y036010D02*
Y035760D01*
X035480Y035710*
X035580*
X035630Y035760*
Y036010*
X035930D02*
X035730D01*
Y035860*
X035830Y035910*
X035880*
X035930Y035860*
Y035760*
X035880Y035710*
X035780*
X035730Y035760*
X035430Y036010D02*
Y035760D01*
X035480Y035710*
X035580*
X035630Y035760*
Y036010*
X035730D02*
X035930D01*
Y035960*
X035730Y035760*
Y035710*
X035430Y036010D02*
Y035760D01*
X035480Y035710*
X035580*
X035630Y035760*
Y036010*
X035730Y035960D02*
X035780Y036010D01*
X035880*
X035930Y035960*
Y035910*
X035880Y035860*
X035930Y035810*
Y035760*
X035880Y035710*
X035780*
X035730Y035760*
Y035810*
X035780Y035860*
X035730Y035910*
Y035960*
X035780Y035860D02*
X035880D01*
X035430Y036010D02*
Y035760D01*
X035480Y035710*
X035580*
X035630Y035760*
Y036010*
X035730Y035760D02*
X035780Y035710D01*
X035880*
X035930Y035760*
Y035960*
X035880Y036010*
X035780*
X035730Y035960*
Y035910*
X035780Y035860*
X035930*
X035430Y036010D02*
Y035960D01*
X035530Y035860*
X035630Y035960*
Y036010*
X035530Y035860D02*
Y035710D01*
X035730D02*
X035830D01*
X035780*
Y036010*
X035730Y035960*
X035428Y035702D02*
Y035402D01*
X035278*
X035228Y035452*
Y035552*
X035278Y035602*
X035428*
X035128Y035452D02*
X035078Y035402D01*
X034978*
X034928Y035452*
Y035502*
X034978Y035552*
X035028*
X034978*
X034928Y035602*
Y035652*
X034978Y035702*
X035078*
X035128Y035652*
X035428Y035709D02*
Y035409D01*
X035278*
X035228Y035459*
Y035559*
X035278Y035609*
X035428*
X034978Y035709D02*
Y035409D01*
X035128Y035559*
X034928*
X035430Y036010D02*
Y035760D01*
X035480Y035710*
X035580*
X035630Y035760*
Y036010*
X035730Y035710D02*
X035830D01*
X035780*
Y036010*
X035730Y035960*
X035630D02*
X035580Y036010D01*
X035480*
X035430Y035960*
Y035760*
X035480Y035710*
X035580*
X035630Y035760*
X035730Y035710D02*
X035830D01*
X035780*
Y036010*
X035730Y035960*
X035980D02*
X036030Y036010D01*
X036130*
X036180Y035960*
Y035760*
X036130Y035710*
X036030*
X035980Y035760*
Y035960*
X035430Y035710D02*
Y036010D01*
X035580*
X035630Y035960*
Y035860*
X035580Y035810*
X035430*
X035530D02*
X035630Y035710D01*
X035730D02*
X035830D01*
X035780*
Y036010*
X035730Y035960*
X036130Y035710D02*
Y036010D01*
X035980Y035860*
X036180*
X035430Y035710D02*
Y036010D01*
X035580*
X035630Y035960*
Y035860*
X035580Y035810*
X035430*
X035530D02*
X035630Y035710D01*
X035730D02*
X035830D01*
X035780*
Y036010*
X035730Y035960*
X036180Y036010D02*
X035980D01*
Y035860*
X036080Y035910*
X036130*
X036180Y035860*
Y035760*
X036130Y035710*
X036030*
X035980Y035760*
G54D12*
X025386Y024332D02*
D01*
X025385Y024340*
X025384Y024348*
X025383Y024356*
X025381Y024364*
X025378Y024372*
X025375Y024379*
X025372Y024387*
X025368Y024394*
X025363Y024401*
X025358Y024407*
X025352Y024413*
X025346Y024419*
X025340Y024424*
X025333Y024429*
X025327Y024434*
X025319Y024438*
X025312Y024441*
X025304Y024444*
X025296Y024446*
X025288Y024448*
X025280Y024449*
X025272Y024449*
X025263*
X025255Y024449*
X025247Y024448*
X025239Y024446*
X025231Y024444*
X025223Y024441*
X025216Y024438*
X025209Y024434*
X025202Y024429*
X025195Y024424*
X025189Y024419*
X025183Y024413*
X025177Y024407*
X025172Y024401*
X025167Y024394*
X025163Y024387*
X025160Y024379*
X025157Y024372*
X025154Y024364*
X025152Y024356*
X025151Y024348*
X025150Y024340*
X025150Y024332*
X025150Y024323*
X025151Y024315*
X025152Y024307*
X025154Y024299*
X025157Y024291*
X025160Y024284*
X025163Y024276*
X025167Y024269*
X025172Y024262*
X025177Y024256*
X025183Y024250*
X025189Y024244*
X025195Y024239*
X025202Y024234*
X025209Y024229*
X025216Y024225*
X025223Y024222*
X025231Y024219*
X025239Y024217*
X025247Y024215*
X025255Y024214*
X025263Y024214*
X025272*
X025280Y024214*
X025288Y024215*
X025296Y024217*
X025304Y024219*
X025312Y024222*
X025319Y024225*
X025327Y024229*
X025333Y024234*
X025340Y024239*
X025346Y024244*
X025352Y024250*
X025358Y024256*
X025363Y024262*
X025368Y024269*
X025372Y024276*
X025375Y024284*
X025378Y024291*
X025381Y024299*
X025383Y024307*
X025384Y024315*
X025385Y024323*
X025386Y024332*
G54D13*
X021381Y018550D02*
D01*
X021398Y018550*
X021415Y018552*
X021432Y018555*
X021449Y018559*
X021466Y018565*
X021482Y018571*
X021498Y018579*
X021513Y018587*
X021527Y018597*
X021541Y018608*
X021554Y018620*
X021566Y018632*
X021578Y018646*
X021588Y018660*
X021597Y018675*
X021605Y018690*
X021612Y018706*
X021618Y018722*
X021623Y018739*
X021627Y018756*
X021629Y018773*
X021630Y018791*
Y018808*
X021629Y018826*
X021627Y018843*
X021623Y018860*
X021618Y018877*
X021612Y018893*
X021605Y018909*
X021597Y018925*
X021588Y018939*
X021578Y018953*
X021566Y018967*
X021554Y018979*
X021541Y018991*
X021527Y019002*
X021513Y019012*
X021498Y019020*
X021482Y019028*
X021466Y019034*
X021449Y019040*
X021432Y019044*
X021415Y019047*
X021398Y019049*
X021381Y019050*
X031383Y029000D02*
X033300D01*
X030300D02*
X033300D01*
X030300Y031000D02*
X033300D01*
X030300Y029000D02*
Y031000D01*
X033300Y029000D02*
Y031000D01*
X035693Y020331D02*
X036007D01*
X035409Y020578D02*
Y021622D01*
X033991Y020578D02*
Y021622D01*
X035409*
X033991Y021547D02*
X035409D01*
X015009Y020678D02*
Y021722D01*
X013591Y020678D02*
Y021722D01*
X015009*
X013591Y021647D02*
X015009D01*
X013591Y016978D02*
Y018022D01*
X015009Y016978D02*
Y018022D01*
X013591Y016978D02*
X015009D01*
X013591Y017053D02*
X015009D01*
X016253Y021078D02*
X020347D01*
X016253D02*
Y022889D01*
X020347*
Y021078D02*
Y022889D01*
X016253Y021275D02*
X020347D01*
X032724Y033736D02*
Y033933D01*
X032961*
X032724Y033067D02*
Y033264D01*
Y033067D02*
X032961D01*
X023518Y027944D02*
Y028456D01*
X023469Y027343D02*
Y027657D01*
X028369Y025093D02*
Y025407D01*
Y024493D02*
Y024807D01*
X029746Y032516D02*
X030454D01*
X029746Y034484D02*
X030454D01*
Y032516D02*
Y034484D01*
X029746Y032516D02*
Y034484D01*
X014631Y028243D02*
Y028557D01*
X031178Y020687D02*
X031630D01*
Y018113D02*
Y020687D01*
X031178Y018113D02*
X031630D01*
X033990Y023063D02*
Y024028D01*
X035210Y023063D02*
Y024028D01*
Y024972D02*
Y025996D01*
X033990Y024972D02*
Y025996D01*
X034167Y022886D02*
X035033D01*
X035210Y023063*
X033990D02*
X034167Y022886D01*
X033990Y025996D02*
X035210D01*
X026743Y022781D02*
X027057D01*
X025661Y023939D02*
Y026261D01*
X023339Y023939D02*
Y026261D01*
Y023939D02*
X025661D01*
X023339Y026261D02*
X025661D01*
X021381Y019843D02*
X028011D01*
X021381Y017757D02*
X028011D01*
Y019843*
X021381Y019050D02*
Y019843D01*
Y017757D02*
Y018550D01*
X024504Y032909D02*
X024780D01*
X024504D02*
Y033224D01*
Y034091D02*
X024780D01*
X024504Y033776D02*
Y034091D01*
X022350Y022200D02*
Y025200D01*
X021350D02*
X022350D01*
X021350Y022200D02*
Y025200D01*
Y022200D02*
X022350D01*
X024504Y031539D02*
X024780D01*
X024504D02*
Y031854D01*
Y032721D02*
X024780D01*
X024504Y032406D02*
Y032721D01*
X023169Y029643D02*
Y029957D01*
X020868Y030391D02*
Y030784D01*
Y028816D02*
Y029209D01*
X016636Y030391D02*
Y030784D01*
X021164Y030391D02*
Y030784D01*
Y028816D02*
Y029209D01*
X016636Y030784D02*
X021164D01*
X016636Y028816D02*
Y029209D01*
Y028816D02*
X021164D01*
X014531Y029643D02*
Y029957D01*
X024504Y030179D02*
X024780D01*
X024504D02*
Y030494D01*
Y031361D02*
X024780D01*
X024504Y031046D02*
Y031361D01*
X015444Y032452D02*
X015956D01*
X023119Y034043D02*
Y034357D01*
X017648Y033544D02*
Y034056D01*
X023119Y034643D02*
Y034957D01*
X016113Y034608D02*
X017687D01*
X016113Y035592D02*
X017687D01*
X016113Y035500D02*
Y035592D01*
Y034608D02*
Y034700D01*
X017687Y035500D02*
Y035592D01*
Y034608D02*
Y034700D01*
X018622Y034844D02*
Y035356D01*
X018731Y035643D02*
Y035957D01*
X019346Y031068D02*
X020054D01*
X019346Y034532D02*
X020054D01*
Y031068D02*
Y034532D01*
X019346Y031068D02*
Y034532D01*
X015869Y031043D02*
Y031357D01*
X033906Y029783D02*
Y030217D01*
X034694Y029783D02*
Y030217D01*
X014046Y024816D02*
Y026784D01*
X014754Y024816D02*
Y026784D01*
X014046D02*
X014754D01*
X014046Y024816D02*
X014754D01*
X030381Y035393D02*
Y035707D01*
G54D14*
X033926Y029626D02*
D01*
X033925Y029627*
X033925Y029628*
X033925Y029630*
X033925Y029631*
X033924Y029632*
X033924Y029634*
X033923Y029635*
X033922Y029636*
X033922Y029637*
X033921Y029638*
X033920Y029639*
X033919Y029640*
X033918Y029641*
X033917Y029642*
X033916Y029643*
X033914Y029643*
X033913Y029644*
X033912Y029645*
X033910Y029645*
X033909Y029645*
X033908Y029645*
X033906Y029645*
X033905*
X033903Y029645*
X033902Y029645*
X033901Y029645*
X033899Y029645*
X033898Y029644*
X033897Y029643*
X033896Y029643*
X033894Y029642*
X033893Y029641*
X033892Y029640*
X033891Y029639*
X033890Y029638*
X033889Y029637*
X033889Y029636*
X033888Y029635*
X033887Y029634*
X033887Y029632*
X033886Y029631*
X033886Y029630*
X033886Y029628*
X033886Y029627*
X033886Y029626*
X033886Y029624*
X033886Y029623*
X033886Y029621*
X033886Y029620*
X033887Y029619*
X033887Y029617*
X033888Y029616*
X033889Y029615*
X033889Y029614*
X033890Y029613*
X033891Y029612*
X033892Y029611*
X033893Y029610*
X033894Y029609*
X033896Y029608*
X033897Y029608*
X033898Y029607*
X033899Y029606*
X033901Y029606*
X033902Y029606*
X033903Y029606*
X033905Y029606*
X033906*
X033908Y029606*
X033909Y029606*
X033910Y029606*
X033912Y029606*
X033913Y029607*
X033914Y029608*
X033916Y029608*
X033917Y029609*
X033918Y029610*
X033919Y029611*
X033920Y029612*
X033921Y029613*
X033922Y029614*
X033922Y029615*
X033923Y029616*
X033924Y029617*
X033924Y029619*
X033925Y029620*
X033925Y029621*
X033925Y029623*
X033925Y029624*
X033926Y029626*
G54D15*
X022010Y020860D02*
Y021080D01*
X022120Y021190*
X022230Y021080*
Y020860*
Y021025*
X022010*
X022340Y021135D02*
X022395Y021190D01*
X022505*
X022560Y021135*
Y020915*
X022505Y020860*
X022395*
X022340Y020915*
Y021135*
X023000Y020860D02*
Y021080D01*
X023110Y021190*
X023220Y021080*
Y020860*
Y021025*
X023000*
X023330Y020860D02*
X023440D01*
X023385*
Y021190*
X023330Y021135*
X023934Y020860D02*
Y021080D01*
X024044Y021190*
X024154Y021080*
Y020860*
Y021025*
X023934*
X024484Y020860D02*
X024264D01*
X024484Y021080*
Y021135*
X024429Y021190*
X024319*
X024264Y021135*
X024924Y020860D02*
Y021080D01*
X025034Y021190*
X025144Y021080*
Y020860*
Y021025*
X024924*
X025254Y021135D02*
X025309Y021190D01*
X025419*
X025474Y021135*
Y021080*
X025419Y021025*
X025364*
X025419*
X025474Y020970*
Y020915*
X025419Y020860*
X025309*
X025254Y020915*
X025914Y020860D02*
Y021080D01*
X026024Y021190*
X026134Y021080*
Y020860*
Y021025*
X025914*
X026409Y020860D02*
Y021190D01*
X026244Y021025*
X026464*
X026903Y020860D02*
Y021080D01*
X027013Y021190*
X027123Y021080*
Y020860*
Y021025*
X026903*
X027453Y021190D02*
X027233D01*
Y021025*
X027343Y021080*
X027398*
X027453Y021025*
Y020915*
X027398Y020860*
X027288*
X027233Y020915*
G54D16*
X027830Y030380D02*
Y030630D01*
X027955*
X027997Y030588*
Y030505*
X027955Y030463*
X027830*
X027913D02*
X027997Y030380D01*
X028247Y030588D02*
X028205Y030630D01*
X028122*
X028080Y030588*
Y030547*
X028122Y030505*
X028205*
X028247Y030463*
Y030422*
X028205Y030380*
X028122*
X028080Y030422*
X028455Y030380D02*
Y030630D01*
X028330Y030505*
X028496*
X028580Y030588D02*
X028621Y030630D01*
X028705*
X028746Y030588*
Y030547*
X028705Y030505*
X028746Y030463*
Y030422*
X028705Y030380*
X028621*
X028580Y030422*
Y030463*
X028621Y030505*
X028580Y030547*
Y030588*
X028621Y030505D02*
X028705D01*
X028996Y030630D02*
X028830D01*
Y030505*
X028913Y030547*
X028955*
X028996Y030505*
Y030422*
X028955Y030380*
X028871*
X028830Y030422*
X027810Y029360D02*
Y029110D01*
X027893Y029193*
X027977Y029110*
Y029360*
X028060D02*
X028143D01*
X028102*
Y029110*
X028060*
X028143*
X028435Y029360D02*
X028268D01*
Y029110*
X028435*
X028268Y029235D02*
X028351D01*
X028685Y029318D02*
X028643Y029360D01*
X028560*
X028518Y029318*
Y029152*
X028560Y029110*
X028643*
X028685Y029152*
Y029235*
X028601*
X028768Y029110D02*
Y029277D01*
X028851Y029360*
X028935Y029277*
Y029110*
Y029235*
X028768*
X029018Y029110D02*
Y029360D01*
X029185Y029110*
Y029360*
X029268D02*
Y029110D01*
X029393*
X029434Y029152*
Y029318*
X029393Y029360*
X029268*
G54D17*
X035370Y035845D03*
G54D18*
X028175Y031240D03*
X028475Y029600D03*
G54D19*
X028170Y030870D03*
X028480Y029970D03*
G54D20*
X028745Y030870D03*
Y031240D03*
X027905Y029600D03*
Y029970D03*
M02*