%FSDAX24Y24*%
%MOIN*%
%SFA1B1*%

%IPPOS*%
%ADD37R,0.405000X0.605000*%
%ADD38R,0.047400X0.051300*%
%ADD39R,0.157600X0.080800*%
%ADD40R,0.051300X0.047400*%
%ADD41R,0.059200X0.023700*%
%ADD42R,0.059200X0.067100*%
%ADD43O,0.094600X0.031600*%
%ADD44R,0.252100X0.236300*%
%ADD45R,0.126100X0.071000*%
%ADD46R,0.098600X0.098600*%
%ADD47O,0.073000X0.029700*%
%ADD48O,0.029700X0.073000*%
%ADD49R,0.059200X0.031600*%
%ADD50R,0.185200X0.067100*%
%ADD51R,0.067100X0.059200*%
%ADD52R,0.019800X0.025700*%
%ADD53C,0.067100*%
%ADD54R,0.067100X0.067100*%
%ADD55R,0.074900X0.074900*%
%ADD56C,0.074900*%
%ADD57C,0.068000*%
%ADD58C,0.067100*%
%ADD59R,0.067100X0.067100*%
%ADD60R,0.067100X0.067100*%
%ADD61C,0.073000*%
%ADD62C,0.106400*%
%ADD63C,0.038000*%
%LNde-150824-1*%
%LPD*%
G54D37*
X018295Y017135D03*
G54D38*
X035850Y020665D03*
Y021335D03*
X021800Y026685D03*
Y026015D03*
X034250Y034485D03*
Y033815D03*
X030000Y035595D03*
Y034925D03*
X026900Y023115D03*
Y023785D03*
X025900Y033165D03*
Y033835D03*
Y031765D03*
Y032435D03*
Y030395D03*
Y031065D03*
G54D39*
X034700Y022104D03*
Y020096D03*
X014300Y022204D03*
Y020196D03*
Y016496D03*
Y018504D03*
G54D40*
X030715Y034900D03*
X031385D03*
X028035Y025850D03*
X027365D03*
X028665Y035500D03*
X029335D03*
X028665Y034900D03*
X029335D03*
X023135Y027500D03*
X022465D03*
X028035Y025250D03*
X027365D03*
X028035Y024650D03*
X027365D03*
X014965Y028400D03*
X015635D03*
X034785Y018500D03*
X034115D03*
X015635Y027800D03*
X014965D03*
X015635Y027200D03*
X014965D03*
X022965Y033500D03*
X023635D03*
X022835Y029800D03*
X022165D03*
X022965Y032100D03*
X023635D03*
X014865Y029800D03*
X015535D03*
X022785Y034200D03*
X022115D03*
X022785Y034800D03*
X022115D03*
X022965Y030800D03*
X023635D03*
X019065Y035800D03*
X019735D03*
X015535Y031200D03*
X014865D03*
X022835Y029220D03*
X022165D03*
X030715Y035550D03*
X031385D03*
G54D41*
X032646Y033500D03*
X033354Y033756D03*
Y033244D03*
G54D42*
X032726Y034500D03*
X033474D03*
X032646Y032500D03*
X033394D03*
X023144Y028200D03*
X022396D03*
X016526Y032800D03*
X017274D03*
Y033800D03*
X016526D03*
X018996Y035100D03*
X019744D03*
X014826Y031900D03*
X015574D03*
Y030500D03*
X014826D03*
G54D43*
X031045Y032750D03*
Y033250D03*
Y033750D03*
Y034250D03*
X029155Y032750D03*
Y033250D03*
Y033750D03*
Y034250D03*
X020645Y031300D03*
Y031800D03*
Y032300D03*
Y032800D03*
Y033300D03*
Y033800D03*
Y034300D03*
X018755Y031300D03*
Y031800D03*
Y032300D03*
Y032800D03*
Y033300D03*
Y033800D03*
Y034300D03*
X013455Y026550D03*
Y026050D03*
Y025550D03*
Y025050D03*
X015345Y026550D03*
Y026050D03*
Y025550D03*
Y025050D03*
G54D44*
X029898Y019400D03*
G54D45*
X032732Y020302D03*
Y018498D03*
G54D46*
X034600Y023614D03*
Y025386D03*
G54D47*
X026144Y023998D03*
Y024313D03*
Y024628D03*
Y024943D03*
Y025257D03*
Y025572D03*
Y025887D03*
Y026202D03*
X022856D03*
Y025887D03*
Y025572D03*
Y025257D03*
Y024943D03*
Y024628D03*
Y024313D03*
Y023998D03*
G54D48*
X025602Y026744D03*
X025287D03*
X024972D03*
X024657D03*
X024343D03*
X024028D03*
X023713D03*
X023398D03*
Y023456D03*
X023713D03*
X024028D03*
X024343D03*
X024657D03*
X024972D03*
X025287D03*
X025602D03*
G54D49*
X025193Y033126D03*
Y033874D03*
X024367Y033500D03*
X025193Y031756D03*
Y032504D03*
X024367Y032130D03*
X025193Y030396D03*
Y031144D03*
X024367Y030770D03*
G54D50*
X020573Y029800D03*
X017227D03*
G54D51*
X015700Y032826D03*
Y033574D03*
X020650Y035026D03*
Y035774D03*
G54D52*
X034103Y029734D03*
X034300D03*
X034497D03*
Y030266D03*
X034103D03*
G54D53*
X032800Y030500D03*
Y029500D03*
X031800Y030500D03*
Y029500D03*
X030800Y030500D03*
X027200Y020300D03*
X026200D03*
X025200D03*
X024200D03*
X023200D03*
X022200D03*
X027200Y017300D03*
X021850Y023700D03*
Y024700D03*
G54D54*
X030800Y029500D03*
G54D55*
X019300Y022200D03*
G54D56*
X018300Y022200D03*
X017300D03*
G54D57*
X018700Y026494D03*
Y024526D03*
X018690Y027085D03*
Y023935D03*
G54D58*
X026200Y017300D03*
X025200D03*
X024200D03*
X023200D03*
G54D59*
X022200Y017300D03*
G54D60*
X021850Y022700D03*
G54D61*
X016400Y035100D03*
X017400D03*
G54D62*
X031920Y027348D03*
Y025970D03*
Y024592D03*
Y022999D03*
Y021621D03*
G54D63*
X010650Y038800D03*
X023883Y028033D03*
X014300Y030500D03*
X018300Y035100D03*
X019700Y033300D03*
X022300Y032100D03*
Y030800D03*
X026400Y033100D03*
Y031700D03*
Y030400D03*
Y031100D03*
X023350Y034500D03*
X013950Y015800D03*
X022300Y033500D03*
X022650Y022300D03*
Y022724D03*
X026850Y024930D03*
X031200Y032070D03*
X036090Y028080D03*
X035330Y031750D03*
X025090Y026090D03*
X024730Y025800D03*
X023710Y026080D03*
X024380D03*
X024030Y025790D03*
X031910Y034890D03*
X035330Y032200D03*
X028030Y026910D03*
X025370Y024610D03*
X027430Y023785D03*
X027420Y023100D03*
X016250Y026070D03*
X018270Y023440D03*
X020860Y022250D03*
X024972Y022608D03*
X014280Y021480D03*
X013850Y019410D03*
X015630Y028810D03*
X016860Y028800D03*
X023360Y029800D03*
X024980Y028020D03*
X022465Y027000D03*
X035050Y026680D03*
X030930Y028700D03*
X034600Y027360D03*
X028910Y025620D03*
Y027440D03*
X024340Y030320D03*
X025760Y028310D03*
X031130Y026630D03*
X030930Y028220D03*
X026850Y024313D03*
X023360Y029220D03*
X021560Y024200D03*
X020910D03*
X021250Y026700D03*
X035330Y033350D03*
X030780Y025110D03*
X028160Y022280D03*
X014540Y032840D03*
X034250Y033340D03*
M02*