%FSDAX24Y24*%
%MOIN*%
%SFA1B1*%

%IPPOS*%
%ADD38R,0.047400X0.051300*%
%ADD40R,0.051300X0.047400*%
%ADD42R,0.059200X0.067100*%
%ADD49R,0.059200X0.031600*%
%ADD51R,0.067100X0.059200*%
%ADD53C,0.067100*%
%ADD54R,0.067100X0.067100*%
%ADD55R,0.074900X0.074900*%
%ADD56C,0.074900*%
%ADD57C,0.068000*%
%ADD58C,0.067100*%
%ADD59R,0.067100X0.067100*%
%ADD60R,0.067100X0.067100*%
%ADD61C,0.073000*%
%ADD62C,0.106400*%
%ADD63C,0.038000*%
%ADD89R,0.031600X0.059200*%
%ADD90R,0.067100X0.031600*%
%ADD91R,0.069000X0.051300*%
%ADD92R,0.069000X0.051300*%
%ADD93R,0.069000X0.143800*%
%ADD94R,0.039500X0.039500*%
%ADD95R,0.029700X0.065100*%
%LNde-150824-1*%
%LPD*%
G54D38*
X017200Y025415D03*
Y026085D03*
X014600Y017315D03*
Y017985D03*
G54D40*
X034365Y026250D03*
X035035D03*
X017935Y022950D03*
X017265D03*
X034415Y024050D03*
X035085D03*
G54D42*
X034574Y030500D03*
X033826D03*
X034574Y029500D03*
X033826D03*
X017874Y027050D03*
X017126D03*
G54D49*
X016837Y023826D03*
Y024574D03*
X017663Y024200D03*
G54D51*
X033800Y032074D03*
Y031326D03*
Y027926D03*
Y028674D03*
X034600Y031326D03*
Y032074D03*
Y028674D03*
Y027926D03*
G54D53*
X032800Y030500D03*
Y029500D03*
X031800Y030500D03*
Y029500D03*
X030800Y030500D03*
X027200Y020300D03*
X026200D03*
X025200D03*
X024200D03*
X023200D03*
X022200D03*
X027200Y017300D03*
X021850Y023700D03*
Y024700D03*
G54D54*
X030800Y029500D03*
G54D55*
X019300Y022200D03*
G54D56*
X018300Y022200D03*
X017300D03*
G54D57*
X018700Y026494D03*
Y024526D03*
X018690Y027085D03*
Y023935D03*
G54D58*
X026200Y017300D03*
X025200D03*
X024200D03*
X023200D03*
G54D59*
X022200Y017300D03*
G54D60*
X021850Y022700D03*
G54D61*
X016400Y035100D03*
X017400D03*
G54D62*
X031920Y027348D03*
Y025970D03*
Y024592D03*
Y022999D03*
Y021621D03*
G54D63*
X010650Y038800D03*
X023883Y028033D03*
X014300Y030500D03*
X018300Y035100D03*
X019700Y033300D03*
X022300Y032100D03*
Y030800D03*
X026400Y033100D03*
Y031700D03*
Y030400D03*
Y031100D03*
X023350Y034500D03*
X013950Y015800D03*
X022300Y033500D03*
X022650Y022300D03*
Y022724D03*
X026850Y024930D03*
X031200Y032070D03*
X036090Y028080D03*
X035330Y031750D03*
X025090Y026090D03*
X024730Y025800D03*
X023710Y026080D03*
X024380D03*
X024030Y025790D03*
X031910Y034890D03*
X035330Y032200D03*
X028030Y026910D03*
X025370Y024610D03*
X027430Y023785D03*
X027420Y023100D03*
X016250Y026070D03*
X018270Y023440D03*
X020860Y022250D03*
X024972Y022608D03*
X014280Y021480D03*
X013850Y019410D03*
X015630Y028810D03*
X016860Y028800D03*
X023360Y029800D03*
X024980Y028020D03*
X022465Y027000D03*
X035050Y026680D03*
X030930Y028700D03*
X034600Y027360D03*
X028910Y025620D03*
Y027440D03*
X024340Y030320D03*
X025760Y028310D03*
X031130Y026630D03*
X030930Y028220D03*
X026850Y024313D03*
X023360Y029220D03*
X021560Y024200D03*
X020910D03*
X021250Y026700D03*
X035330Y033350D03*
X030780Y025110D03*
X028160Y022280D03*
X014540Y032840D03*
X034250Y033340D03*
G54D89*
X036074Y028687D03*
X035326D03*
X035700Y029513D03*
X035326Y031113D03*
X036074D03*
X035700Y030287D03*
G54D90*
X035094Y025150D03*
X034346Y025524D03*
Y024776D03*
G54D91*
X015571Y017194D03*
G54D92*
X015571Y018100D03*
Y019006D03*
G54D93*
X018229Y018100D03*
G54D94*
X020400Y025205D03*
Y025795D03*
Y023985D03*
Y023395D03*
G54D95*
X017900Y025287D03*
Y026213D03*
M02*