%FSDAX24Y24*%
%MOIN*%
%SFA1B1*%

%IPPOS*%
%ADD21R,0.390000X0.592000*%
%ADD22R,0.039400X0.043300*%
%ADD23R,0.149600X0.072800*%
%ADD24R,0.043300X0.039400*%
%ADD25R,0.051200X0.015700*%
%ADD26R,0.051200X0.059100*%
%ADD27O,0.086600X0.023600*%
%ADD28R,0.244100X0.228300*%
%ADD29R,0.118100X0.063000*%
%ADD30R,0.090600X0.090600*%
%ADD31O,0.065000X0.021700*%
%ADD32O,0.021700X0.065000*%
%ADD33R,0.051200X0.023600*%
%ADD34R,0.177200X0.059100*%
%ADD35R,0.059100X0.051200*%
%ADD36R,0.011800X0.017700*%
%LNde-150824-1*%
%LPD*%
G54D21*
X018290Y017130D03*
G54D22*
X035850Y020665D03*
Y021335D03*
X021800Y026685D03*
Y026015D03*
X034250Y034485D03*
Y033815D03*
X030000Y035595D03*
Y034925D03*
X026900Y023115D03*
Y023785D03*
X025900Y033165D03*
Y033835D03*
Y031765D03*
Y032435D03*
Y030395D03*
Y031065D03*
G54D23*
X034700Y022104D03*
Y020096D03*
X014300Y022204D03*
Y020196D03*
Y016496D03*
Y018504D03*
G54D24*
X030715Y034900D03*
X031385D03*
X028035Y025850D03*
X027365D03*
X028665Y035500D03*
X029335D03*
X028665Y034900D03*
X029335D03*
X023135Y027500D03*
X022465D03*
X028035Y025250D03*
X027365D03*
X028035Y024650D03*
X027365D03*
X014965Y028400D03*
X015635D03*
X034785Y018500D03*
X034115D03*
X015635Y027800D03*
X014965D03*
X015635Y027200D03*
X014965D03*
X022965Y033500D03*
X023635D03*
X022835Y029800D03*
X022165D03*
X022965Y032100D03*
X023635D03*
X014865Y029800D03*
X015535D03*
X022785Y034200D03*
X022115D03*
X022785Y034800D03*
X022115D03*
X022965Y030800D03*
X023635D03*
X019065Y035800D03*
X019735D03*
X015535Y031200D03*
X014865D03*
X022835Y029220D03*
X022165D03*
X030715Y035550D03*
X031385D03*
G54D25*
X032646Y033500D03*
X033354Y033756D03*
Y033244D03*
G54D26*
X032726Y034500D03*
X033474D03*
X032646Y032500D03*
X033394D03*
X023144Y028200D03*
X022396D03*
X016526Y032800D03*
X017274D03*
Y033800D03*
X016526D03*
X018996Y035100D03*
X019744D03*
X014826Y031900D03*
X015574D03*
Y030500D03*
X014826D03*
G54D27*
X031045Y032750D03*
Y033250D03*
Y033750D03*
Y034250D03*
X029155Y032750D03*
Y033250D03*
Y033750D03*
Y034250D03*
X020645Y031300D03*
Y031800D03*
Y032300D03*
Y032800D03*
Y033300D03*
Y033800D03*
Y034300D03*
X018755Y031300D03*
Y031800D03*
Y032300D03*
Y032800D03*
Y033300D03*
Y033800D03*
Y034300D03*
X013455Y026550D03*
Y026050D03*
Y025550D03*
Y025050D03*
X015345Y026550D03*
Y026050D03*
Y025550D03*
Y025050D03*
G54D28*
X029898Y019400D03*
G54D29*
X032732Y020302D03*
Y018498D03*
G54D30*
X034600Y023614D03*
Y025386D03*
G54D31*
X026144Y023998D03*
Y024313D03*
Y024628D03*
Y024943D03*
Y025257D03*
Y025572D03*
Y025887D03*
Y026202D03*
X022856D03*
Y025887D03*
Y025572D03*
Y025257D03*
Y024943D03*
Y024628D03*
Y024313D03*
Y023998D03*
G54D32*
X025602Y026744D03*
X025287D03*
X024972D03*
X024657D03*
X024343D03*
X024028D03*
X023713D03*
X023398D03*
Y023456D03*
X023713D03*
X024028D03*
X024343D03*
X024657D03*
X024972D03*
X025287D03*
X025602D03*
G54D33*
X025193Y033126D03*
Y033874D03*
X024367Y033500D03*
X025193Y031756D03*
Y032504D03*
X024367Y032130D03*
X025193Y030396D03*
Y031144D03*
X024367Y030770D03*
G54D34*
X020573Y029800D03*
X017227D03*
G54D35*
X015700Y032826D03*
Y033574D03*
X020650Y035026D03*
Y035774D03*
G54D36*
X034103Y029734D03*
X034300D03*
X034497D03*
Y030266D03*
X034103D03*
M02*