%FSDAX24Y24*%
%MOIN*%
%SFA1B1*%

%IPPOS*%
%ADD14C,0.003900*%
%ADD98C,0.002000*%
%LNde-150824-1*%
%LPD*%
G54D14*
X018300Y022003D02*
Y022397D01*
X018103Y022200D02*
X018497D01*
X033000Y033303D02*
Y033697D01*
X032803Y033500D02*
X033197D01*
X030100Y033303D02*
Y033697D01*
X029903Y033500D02*
X030297D01*
X028624Y032417D02*
X031576D01*
X028624Y034583D02*
X031576D01*
Y032417D02*
Y034583D01*
X028624Y032417D02*
Y034583D01*
X031000Y019203D02*
Y019597D01*
X030803Y019400D02*
X031197D01*
X024303Y025100D02*
X024697D01*
X024500Y024903D02*
Y025297D01*
X025548Y032811D02*
Y034189D01*
X024012Y032811D02*
Y034189D01*
Y032811D02*
X025548D01*
X024012Y034189D02*
X025548D01*
X024583Y033500D02*
X024977D01*
X024780Y033303D02*
Y033697D01*
X025548Y031441D02*
Y032819D01*
X024012Y031441D02*
Y032819D01*
Y031441D02*
X025548D01*
X024012Y032819D02*
X025548D01*
X024583Y032130D02*
X024977D01*
X024780Y031933D02*
Y032327D01*
X025548Y030081D02*
Y031459D01*
X024012Y030081D02*
Y031459D01*
Y030081D02*
X025548D01*
X024012Y031459D02*
X025548D01*
X024583Y030770D02*
X024977D01*
X024780Y030573D02*
Y030967D01*
X019700Y032603D02*
Y032997D01*
X019503Y032800D02*
X019897D01*
X018224Y030969D02*
X021176D01*
X018224Y034631D02*
X021176D01*
Y030969D02*
Y034631D01*
X018224Y030969D02*
Y034631D01*
X034300Y029803D02*
Y030197D01*
X034103Y030000D02*
X034497D01*
X012924Y024717D02*
Y026883D01*
X015876Y024717D02*
Y026883D01*
X012924D02*
X015876D01*
X012924Y024717D02*
X015876D01*
X014203Y025800D02*
X014597D01*
X014400Y025603D02*
Y025997D01*
X035011Y028332D02*
X036389D01*
X035011Y029868D02*
X036389D01*
Y028332D02*
Y029868D01*
X035011Y028332D02*
Y029868D01*
X035700Y028903D02*
Y029297D01*
X035503Y029100D02*
X035897D01*
X035011Y031468D02*
X036389D01*
X035011Y029932D02*
X036389D01*
X035011D02*
Y031468D01*
X036389Y029932D02*
Y031468D01*
X035700Y030503D02*
Y030897D01*
X035503Y030700D02*
X035897D01*
X034720Y024953D02*
Y025347D01*
X034523Y025150D02*
X034917D01*
X016482Y023511D02*
Y024889D01*
X018018Y023511D02*
Y024889D01*
X016482Y023511D02*
X018018D01*
X016482Y024889D02*
X018018D01*
X017053Y024200D02*
X017447D01*
X017250Y024003D02*
Y024397D01*
G54D98*
X032291Y034032D02*
X033709D01*
X032291Y032968D02*
X033709D01*
X032291D02*
Y034032D01*
X033709Y032968D02*
Y034032D01*
X028638Y020764D02*
X033362D01*
X028638Y018036D02*
X033362D01*
X028638D02*
Y020764D01*
X033362Y018036D02*
Y020764D01*
X026567Y023033D02*
Y027167D01*
X022433Y023033D02*
Y027167D01*
Y023033D02*
X026567D01*
X022433Y027167D02*
X026567D01*
X033926Y029606D02*
X034674D01*
X033926Y030394D02*
X034674D01*
X033926Y029606D02*
Y030394D01*
X034674Y029606D02*
Y030394D01*
X033952Y025839D02*
X035488D01*
X033952Y024461D02*
X035488D01*
Y025839*
X033952Y024461D02*
Y025839D01*
M02*