%FSDAX24Y24*%
%MOIN*%
%SFA1B1*%

%IPPOS*%
%ADD22R,0.039400X0.043300*%
%ADD24R,0.043300X0.039400*%
%ADD26R,0.051200X0.059100*%
%ADD33R,0.051200X0.023600*%
%ADD35R,0.059100X0.051200*%
%ADD69C,0.059100*%
%ADD70R,0.059100X0.059100*%
%ADD71R,0.066900X0.066900*%
%ADD72C,0.066900*%
%ADD73C,0.060000*%
%ADD74C,0.059100*%
%ADD75R,0.059100X0.059100*%
%ADD76R,0.059100X0.059100*%
%ADD77C,0.065000*%
%ADD78C,0.098400*%
%ADD80R,0.023600X0.051200*%
%ADD81R,0.059100X0.023600*%
%ADD82R,0.061000X0.043300*%
%ADD83R,0.061000X0.043300*%
%ADD84R,0.061000X0.135800*%
%ADD85R,0.031500X0.031500*%
%ADD86R,0.021700X0.057100*%
%LNde-150824-1*%
%LPD*%
G54D22*
X017200Y025415D03*
Y026085D03*
X014600Y017315D03*
Y017985D03*
G54D24*
X034365Y026250D03*
X035035D03*
X017935Y022950D03*
X017265D03*
X034415Y024050D03*
X035085D03*
G54D26*
X034574Y030500D03*
X033826D03*
X034574Y029500D03*
X033826D03*
X017874Y027050D03*
X017126D03*
G54D33*
X016837Y023826D03*
Y024574D03*
X017663Y024200D03*
G54D35*
X033800Y032074D03*
Y031326D03*
Y027926D03*
Y028674D03*
X034600Y031326D03*
Y032074D03*
Y028674D03*
Y027926D03*
G54D69*
X032800Y030500D03*
Y029500D03*
X031800Y030500D03*
Y029500D03*
X030800Y030500D03*
X027200Y020300D03*
X026200D03*
X025200D03*
X024200D03*
X023200D03*
X022200D03*
X027200Y017300D03*
X021850Y023700D03*
Y024700D03*
G54D70*
X030800Y029500D03*
G54D71*
X019300Y022200D03*
G54D72*
X018300Y022200D03*
X017300D03*
G54D73*
X018700Y026494D03*
Y024526D03*
X018690Y027085D03*
Y023935D03*
G54D74*
X026200Y017300D03*
X025200D03*
X024200D03*
X023200D03*
G54D75*
X022200Y017300D03*
G54D76*
X021850Y022700D03*
G54D77*
X016400Y035100D03*
X017400D03*
G54D78*
X031920Y027348D03*
Y025970D03*
Y024592D03*
Y022999D03*
Y021621D03*
G54D80*
X036074Y028687D03*
X035326D03*
X035700Y029513D03*
X035326Y031113D03*
X036074D03*
X035700Y030287D03*
G54D81*
X035094Y025150D03*
X034346Y025524D03*
Y024776D03*
G54D82*
X015571Y017194D03*
G54D83*
X015571Y018100D03*
Y019006D03*
G54D84*
X018229Y018100D03*
G54D85*
X020400Y025205D03*
Y025795D03*
Y023985D03*
Y023395D03*
G54D86*
X017900Y025287D03*
Y026213D03*
M02*